<?xml version="1.0" encoding="utf-8"?>
<!-- Generator: Adobe Illustrator 16.0.0, SVG Export Plug-In . SVG Version: 6.00 Build 0)  -->
<!DOCTYPE svg PUBLIC "-//W3C//DTD SVG 1.1//EN" "http://www.w3.org/Graphics/SVG/1.1/DTD/svg11.dtd">
<svg version="1.1" id="Layer_1" xmlns="http://www.w3.org/2000/svg" xmlns:xlink="http://www.w3.org/1999/xlink" x="0px" y="0px"
	 width="724px" height="175px" viewBox="0 0 724 175" enable-background="new 0 0 724 175" xml:space="preserve">
<polygon fill="#EE697C" points="7,89.869 48.388,126.773 7.934,167.12 219.138,109.656 204.624,82.773 "/>
<polygon fill="#EE697C" points="562.759,136.151 696.063,171 664.996,126.734 718.2,104.498 579.236,81.115 "/>
<g>
	<defs>
		<rect id="SVGID_1_" x="7" y="9.897" width="711.2" height="161.103"/>
	</defs>
	<clipPath id="SVGID_2_">
		<use xlink:href="#SVGID_1_"  overflow="visible"/>
	</clipPath>
	<path clip-path="url(#SVGID_2_)" fill="#E64D61" d="M118.814,28.367c-21.218,54.83,0.007,52.842,2.229,107.674
		c39.563-64.064,466.981,1.985,466.981,1.985s-0.979-119.588,0-109.66C398.304,61.516,140.032-26.463,118.814,28.367"/>
	<path clip-path="url(#SVGID_2_)" fill="#FFFFFF" d="M510.544,67.145c1.022,4.967,1.645,8.225,1.863,9.773
		c0.504,3.599,0.593,7.025,0.264,10.28c-0.323,3.187-0.938,5.948-1.845,8.288s-1.731,3.473-2.476,3.396
		c-0.721-0.073-1.234-0.336-1.541-0.791l-0.773-1.064c-0.645,0.568-1.146,1.182-1.507,1.838c-0.36,0.657-0.623,1.799-0.788,3.427
		c-0.159,1.581,0.749,3.564,2.728,5.949s3.84,3.666,5.584,3.842c1.744,0.178,3.2,0.008,4.368-0.509
		c1.168-0.516,2.098-1.173,2.79-1.972c1.309,1.213,2.849,2.186,4.619,2.917c1.771,0.73,3.423,1.174,4.957,1.33
		c1.604,0.162,3.752-0.043,6.44-0.616c2.689-0.574,4.882-0.774,6.58-0.602c1.72,0.174,3.231,1.137,4.535,2.89
		c0.318-0.367,0.574-0.799,0.765-1.296c0.191-0.498,0.307-0.933,0.344-1.306l0.051-0.84l-0.091-1.207
		c-0.344-0.316-0.57-0.615-0.684-0.897c-0.112-0.281-0.154-0.563-0.126-0.841c0.079-0.32,0.407-1.003,0.983-2.051
		c0.645-1.037,1.039-2.255,1.18-3.649c0.141-1.396-0.646-3.378-2.358-5.947c-1.794-2.696-3.552-4.131-5.271-4.305
		c-1.698-0.173-3.142,0.163-4.33,1.006c-1.19,0.843-1.834,1.753-1.934,2.729c-0.092,0.906-0.05,1.65,0.127,2.232
		c0.176,0.581,0.448,1.138,0.817,1.668c-0.629,0.641-1.301,1.073-2.016,1.294c-0.716,0.221-1.854,0.253-3.41,0.095
		c-1.558-0.157-2.77-0.844-3.632-2.059c-0.412-0.582-0.705-1.217-0.882-1.904c-0.178-0.688-0.221-1.484-0.128-2.392l0.533-5.619
		c0.347-3.418,1.033-6.837,2.062-10.257c1.162-3.828,2.66-7.13,4.491-9.904l1.429-1.935c0.68-0.917,1.074-1.558,1.182-1.924
		c-0.146-0.414-0.69-1.414-1.634-3.002c-0.944-1.587-1.537-2.51-1.781-2.77c-0.244-0.259-0.645-0.418-1.203-0.474
		c-0.604-0.061-1.74,0.141-3.408,0.606c-0.848,0.243-1.539,0.408-2.076,0.494c-0.537,0.087-0.945,0.116-1.225,0.088
		c-0.373-0.038-0.639-0.076-0.799-0.116c-0.161-0.04-0.412-0.113-0.753-0.218c-0.498-0.191-0.854-0.391-1.066-0.601l-0.677-0.632
		l-0.683-0.563c-1.264,0.883-2.501,1.262-3.709,1.14c-1.094-0.111-2.35-0.461-3.771-1.052l-3.771-1.721
		C509.115,59.789,509.667,63.04,510.544,67.145 M546.886,96.937c1.858,2.749,2.715,4.855,2.565,6.321
		c-0.146,1.441-0.424,2.563-0.834,3.367l-1.359,2.646l0.706,1.376c0.204,0.537,0.26,1.259,0.168,2.166
		c-0.089,0.884-0.265,1.559-0.522,2.026c-0.259,0.467-0.716,1.031-1.37,1.693c-0.766-1.017-1.477-1.771-2.132-2.26
		c-0.856-0.58-1.833-0.926-2.925-1.036c-1.047-0.105-3.546,0.217-7.498,0.967c-1.798,0.358-3.465,0.46-4.999,0.305
		c-1.395-0.142-2.986-0.562-4.771-1.259c-0.898-0.396-1.731-0.814-2.497-1.258c-0.766-0.44-1.496-0.943-2.19-1.508
		c-1.343,0.969-2.299,1.588-2.866,1.86c-1.033,0.459-2.492,0.593-4.375,0.401c-1.907-0.192-3.913-1.553-6.018-4.08
		c-2.105-2.526-3.044-4.906-2.818-7.139c0.227-2.232,1.143-3.973,2.749-5.219c0.391,0.087,0.764,0.395,1.122,0.924
		c0.357,0.529,0.683,0.846,0.979,0.945l0.425-0.027c0.841-0.878,1.577-2.23,2.208-4.059c0.631-1.826,1.103-4.274,1.414-7.344
		c0.299-2.953,0.188-6.277-0.329-9.971c-0.158-1.002-0.385-2.294-0.684-3.874c-0.298-1.581-0.7-3.571-1.21-5.972
		c-0.905-4.273-1.454-7.559-1.644-9.857l0.608-0.432l3.604,1.634c1.551,0.698,2.709,1.085,3.477,1.162
		c0.675,0.069,1.287,0.049,1.839-0.06c0.558-0.178,1.372-0.566,2.443-1.162c0.383,0.157,0.916,0.575,1.6,1.254
		c0.599,0.578,1.306,0.908,2.119,0.99c0.79,0.08,2.02-0.106,3.687-0.56c1.667-0.453,2.802-0.65,3.407-0.589
		c0.628,0.064,1.146,0.281,1.555,0.651c0.213,0.21,0.846,1.213,1.897,3.011c1.052,1.798,1.618,2.866,1.701,3.203
		c-0.047,0.465-0.425,1.179-1.133,2.14l-1.59,2.13c-1.782,2.757-3.252,6.013-4.407,9.772c-0.523,1.686-0.946,3.31-1.269,4.875
		c-0.324,1.564-0.558,3.057-0.7,4.475l-0.513,5.762c-0.048,0.465-0.058,0.959-0.027,1.478c0.03,0.521,0.095,1.155,0.195,1.905
		c0.1,0.75,0.694,1.427,1.785,2.03c0.89,0.49,1.776,0.779,2.66,0.868c0.86,0.087,1.602,0.069,2.226-0.056
		c0.631-0.195,1.163-0.47,1.599-0.825c-0.646-1.052-0.898-2.252-0.763-3.602c0.139-1.371,0.867-2.53,2.185-3.479
		c1.317-0.945,2.778-1.339,4.384-1.176C542.98,92.7,545.025,94.188,546.886,96.937 M513.447,78.483
		c-0.302-2.823-0.797-6.053-1.485-9.689l-1.9-9.414l3.792,1.159c0.892,0.231,1.64,0.377,2.245,0.438
		c0.604,0.062,1.265,0.029,1.982-0.098c0.718-0.126,1.406-0.332,2.069-0.617c0.626,1.237,1.625,1.924,2.997,2.063l7.69-1.157
		l-3.317,7.973c-0.729,1.665-1.32,3.109-1.771,4.332c-0.451,1.223-0.85,2.381-1.193,3.473c-0.937,3.007-1.536,5.824-1.802,8.452
		c-0.27,2.65-0.257,5.318,0.034,8.003c0.407,3.401,1.131,5.883,2.171,7.445c0.673,1.008,1.502,1.756,2.485,2.243
		c0.984,0.486,2.431,0.827,4.337,1.021s3.649-0.664,5.229-2.572l-0.668-2.11c-0.309-0.9-0.422-1.746-0.342-2.536
		c0.08-0.791,0.578-1.479,1.496-2.069c0.916-0.588,1.979-0.82,3.188-0.699c1.187,0.121,2.144,0.629,2.876,1.525
		c0.731,0.896,1.037,1.938,0.917,3.123s-0.511,2.145-1.172,2.877c-0.419,0.427-1.211,1.052-2.375,1.873l1.414,2.398
		c0.475,0.87,0.651,1.923,0.526,3.154c-1.012-0.688-1.813-1.135-2.402-1.336c-0.542-0.219-1.324-0.381-2.347-0.483
		c-0.931-0.095-2.904,0.028-5.923,0.368c-3.018,0.342-5.352,0.428-7.003,0.261c-1.65-0.167-3.193-0.817-4.63-1.949l-3.881-3.776
		c-0.886,1.32-1.847,2.339-2.882,3.057c-1.312,0.877-2.606,1.251-3.884,1.12c-1.279-0.129-2.503-0.687-3.671-1.675
		c-1.229-1.088-1.789-2.166-1.682-3.235c0.113-1.116,0.6-1.972,1.458-2.566c0.29,0.382,0.578,0.67,0.864,0.863
		c0.285,0.193,0.58,0.306,0.882,0.336l1.02,0.033c1.328-0.832,2.304-2.231,2.926-4.195l1.16-5.187l0.336-1.233
		c0.037-0.138,0.091-0.319,0.161-0.548c0.069-0.227,0.118-0.479,0.147-0.758C513.819,85.242,513.795,82.015,513.447,78.483
		 M504.934,99.399c-0.244,0.434-0.395,0.942-0.454,1.523l-0.061,1.648c0.046,0.24,0.092,0.48,0.138,0.719
		c0.046,0.24,0.089,0.397,0.129,0.472c0.303,0.713,1.004,1.394,2.1,2.045c1.098,0.651,2.216,1.035,3.355,1.15
		c1.093,0.11,2.252-0.2,3.477-0.934c1.226-0.733,2.276-1.713,3.152-2.94c1.874,1.904,3.139,3.102,3.794,3.591
		c1.399,1.034,2.958,1.639,4.679,1.813c1.722,0.175,4.038,0.087,6.951-0.265c2.913-0.351,4.94-0.469,6.079-0.354
		c0.605,0.062,1.123,0.161,1.556,0.298c0.433,0.139,0.884,0.325,1.354,0.561l2.185,1.385c0.158-1.558,0.155-2.698-0.006-3.419
		c-0.189-0.677-0.733-1.683-1.632-3.02c0.944-0.516,1.711-1.184,2.299-2.005s0.941-1.813,1.06-2.976s-0.261-2.246-1.134-3.251
		s-1.948-1.572-3.228-1.701c-1.302-0.132-2.484,0.172-3.545,0.909c-1.063,0.737-1.638,1.562-1.73,2.468
		c-0.085,0.838-0.007,1.573,0.234,2.208c0.167,0.44,0.467,0.964,0.898,1.571l-0.272,0.254l0.048,0.217
		c-1.453,1.591-3.016,2.302-4.69,2.132c-1.697-0.172-3.004-0.485-3.922-0.942c-0.916-0.457-1.682-1.141-2.295-2.047
		c-1.042-1.539-1.725-3.957-2.048-7.256c-0.285-2.754-0.299-5.397-0.043-7.933c0.259-2.557,0.858-5.339,1.797-8.345
		c0.722-2.253,1.734-4.945,3.038-8.079l3.405-8.041l-0.062-0.083l-0.369-0.178c-0.869,0.006-2.183,0.219-3.938,0.641
		c-1.756,0.421-3.018,0.593-3.785,0.515c-0.767-0.078-1.399-0.318-1.897-0.721l-1.421-1.271c-1.347,0.779-2.74,1.096-4.181,0.95
		l-6.303-2.083c0.281,1.627,0.882,4.742,1.802,9.345c0.831,3.844,1.382,6.99,1.651,9.437c0.417,3.542,0.491,6.641,0.222,9.291
		c-0.259,2.559-0.634,4.752-1.124,6.581c-0.664,2.377-1.635,4.312-2.914,5.802l-0.122,0.164c-0.212,0.002-0.396,0.089-0.555,0.262
		l-0.666-0.032c-0.368-0.084-0.716-0.237-1.046-0.459c-0.344-0.316-0.626-0.662-0.847-1.037
		C505.548,98.493,505.177,98.967,504.934,99.399 M506.081,97.983l0.725,0.849c0.362,0.365,0.95,0.59,1.764,0.673
		c0.837,0.084,1.661-1.097,2.474-3.542c0.27-1.049,0.469-1.848,0.595-2.396s0.342-1.521,0.647-2.918l0.445-1.613
		c0.104-0.318,0.204-0.968,0.303-1.945l0.047-0.455l0.057-0.559c0.087-0.861,0.102-1.936,0.044-3.224s-0.18-2.859-0.368-4.713
		c-0.31-2.972-0.831-6.294-1.563-9.967c-0.545-2.502-0.966-4.509-1.259-6.02c-0.154-0.792-0.385-1.992-0.691-3.599l0.345,0.07
		l-0.045-0.251c0.544,0.196,1.267,0.481,2.169,0.854c0.681,0.234,1.403,0.466,2.167,0.697c0.763,0.23,1.505,0.381,2.226,0.454
		c0.744,0.075,1.454,0.03,2.13-0.137c0.674-0.167,1.367-0.414,2.083-0.742c0.442,0.727,0.905,1.257,1.39,1.587
		c0.482,0.332,1.096,0.535,1.841,0.61c0.744,0.076,2.076-0.095,3.998-0.512c1.082-0.243,1.742-0.388,1.982-0.435
		c0.958-0.185,1.682-0.252,2.17-0.203l-0.111,0.341l3.17,5.291c-0.222,0.565-0.6,1.173-1.136,1.824l-1.338,1.732
		c-1.891,2.886-3.382,6.131-4.475,9.731c-1.093,3.603-1.813,7.113-2.158,10.531c-0.343,3.372-0.514,5.411-0.515,6.116
		c0.011,1.976,0.4,3.471,1.166,4.488c0.996,1.299,2.331,2.034,4.006,2.203c1.697,0.172,2.922,0.132,3.677-0.121
		c0.808-0.317,1.563-0.828,2.27-1.532l-0.654-1.898c-0.257-0.707-0.337-1.537-0.24-2.49s0.667-1.766,1.709-2.436
		c1.043-0.669,2.332-0.926,3.865-0.771c1.559,0.158,3.176,1.533,4.852,4.121c1.676,2.59,2.449,4.524,2.318,5.803
		c-0.129,1.279-0.51,2.433-1.143,3.461s-0.977,1.821-1.034,2.379c-0.059,0.582,0.22,1.187,0.839,1.813l0.02,0.848l0.013,0.917
		l-0.188,0.827l-0.333,0.847c-1.304-1.518-2.804-2.363-4.5-2.535c-1.722-0.174-3.932,0.025-6.633,0.598
		c-2.7,0.571-4.842,0.777-6.423,0.617c-1.628-0.165-3.191-0.61-4.691-1.339c-1.5-0.727-3.124-1.743-4.871-3.048
		c-2.01,1.524-3.174,2.341-3.49,2.453c-0.762,0.331-1.678,0.442-2.747,0.334c-1.046-0.106-2.144-0.524-3.291-1.255
		c-0.95-0.592-1.864-1.429-2.741-2.509c-0.48-0.593-0.906-1.25-1.279-1.973c-0.241-0.402-0.57-1.108-0.984-2.12
		c-0.315-0.598-0.498-0.993-0.549-1.188c-0.148-0.394-0.193-0.869-0.138-1.431c0.061-0.584,0.296-1.176,0.708-1.771
		c0.166-0.243,0.368-0.5,0.607-0.771c0.239-0.271,0.463-0.516,0.673-0.729L506.081,97.983z M487.278,106.262
		c-0.017-0.061-0.035-0.115-0.053-0.164l-0.054,0.522l0.262-0.148C487.348,106.392,487.296,106.322,487.278,106.262
		 M500.277,100.187c1.053,1.871,1.499,3.574,1.34,5.107c-0.153,1.488-0.987,2.741-2.503,3.76c-1.515,1.019-2.959,1.457-4.33,1.314
		c-1.419-0.146-2.789-0.641-4.111-1.482l-3.25-2.311c-0.375,0.22-0.972,0.705-1.789,1.454c-0.818,0.75-1.994,1.045-3.528,0.887
		c-1.558-0.161-2.886-0.722-3.985-1.681l-3.032-2.711c-0.635,1.133-1.428,1.985-2.379,2.556c-0.952,0.572-1.964,0.803-3.032,0.691
		c-1.069-0.11-2.167-0.458-3.293-1.045c-1.126-0.586-2.125-1.207-2.997-1.861c-0.61,0.219-1.314,0.546-2.11,0.98
		c-1.271,0.715-2.769,0.982-4.489,0.805c-1.743-0.18-3.628-1.556-5.652-4.127c-2.025-2.571-2.959-4.611-2.803-6.123
		c0.158-1.534,0.482-2.688,0.974-3.459s1.074-1.238,1.749-1.404l1.568,1.536c0.781-0.06,1.537-0.334,2.271-0.823
		c0.962-0.675,1.89-1.695,2.783-3.06c2.312-3.497,4.161-7.746,5.548-12.749c1.15-4.086,1.896-7.78,2.238-11.082l0.723-7.326
		c0.096-0.93,0.155-1.734,0.179-2.414c0.023-0.679,0.02-1.325-0.011-1.939c0.503-0.089,1.056-0.103,1.661-0.04
		c0.65,0.067,1.61,0.448,2.877,1.143c0.713,0.38,1.272,0.649,1.679,0.808c0.406,0.16,0.772,0.256,1.099,0.29
		c0.558,0.058,1.413-0.147,2.565-0.616l2.265-1.105c0.445,0.916,0.878,1.56,1.298,1.932c0.42,0.373,1.001,0.597,1.746,0.674
		c0.673,0.07,1.913-0.096,3.716-0.497c0.724-0.183,1.295-0.254,1.714-0.21l0.973,0.136c0.322,0.057,0.504,0.122,0.543,0.197
		l2.446,2.931c1.331,1.666,2.013,2.57,2.046,2.714c-0.058,0.324-0.117,0.728-0.179,1.215c-0.063,0.487-0.121,0.881-0.175,1.18
		c-0.59,2.971-0.969,5.27-1.137,6.897c-0.087,0.837-0.117,1.82-0.094,2.95c0.024,1.131,0.097,2.36,0.218,3.688
		c0.456,5.358,1.104,9.843,1.94,13.453c0.836,3.611,1.521,5.444,2.057,5.5c0.58,0.06,0.97,0,1.164-0.18
		c0.194-0.179,0.376-0.402,0.544-0.666C498.562,97.471,499.548,98.842,500.277,100.187 M476.634,95.027
		c-0.659,0.238-1.291,0.325-1.896,0.264l-0.277-0.383c-0.19-0.207-0.401-0.322-0.634-0.347s-0.494,0.125-0.786,0.446l-0.722,0.843
		c-0.639-0.419-1.029-0.9-1.173-1.443c-0.143-0.543-0.158-1.36-0.045-2.454c0.115-1.115,0.621-2.203,1.518-3.262
		s1.833-1.537,2.81-1.436c0.999,0.103,1.689,0.468,2.072,1.095c0.479,0.825,0.67,1.702,0.573,2.632
		c-0.094,0.907-0.231,1.668-0.413,2.284l-0.527,1.354C477.143,94.764,476.976,94.899,476.634,95.027 M477.098,92.926
		c0.113-0.411,0.193-0.838,0.238-1.279c0.084-0.814,0.044-1.559-0.121-2.232c-0.283-0.898-0.855-1.393-1.715-1.481
		c-0.86-0.089-1.677,0.36-2.448,1.35c-0.772,0.99-1.198,1.868-1.277,2.636l-0.059,1.932c0.04,0.521,0.212,0.902,0.516,1.146
		l0.115-0.095c0.266-0.748,0.7-1.091,1.305-1.028c0.674,0.07,1.164,0.332,1.47,0.786l0.14,0.015l0.642-0.074l0.671-0.354
		C476.81,93.777,476.984,93.338,477.098,92.926 M477.792,70.881c-0.054-0.628-0.163-1.268-0.33-1.92
		c-0.455-1.738-1.136-2.655-2.042-2.748c-0.954-0.099-1.705,0.405-2.253,1.511c-0.551,1.107-0.914,2.531-1.096,4.275
		c-0.17,1.651-0.19,2.988-0.062,4.01c0.215,1.551,0.882,2.384,1.997,2.498c1.139,0.119,2.061-0.502,2.766-1.863
		c0.494-0.912,0.825-2.182,0.993-3.809C477.836,72.162,477.844,71.509,477.792,70.881 M476.93,69.33
		c0.275,1.204,0.346,2.456,0.211,3.758c-0.128,1.232-0.373,2.24-0.736,3.025c-0.628,1.299-1.383,1.901-2.267,1.809
		c-0.906-0.092-1.427-0.852-1.563-2.275c-0.102-0.833-0.07-2.039,0.094-3.621c0.153-1.487,0.448-2.76,0.888-3.82
		c0.504-1.005,1.069-1.475,1.697-1.41C476.044,66.876,476.603,67.722,476.93,69.33 M465.359,70.107
		c-0.427,2.305-0.922,4.486-1.486,6.542c-1.443,5.091-3.321,9.396-5.637,12.916c-0.725,1.101-1.537,2.026-2.437,2.778
		c-1.233,1.024-2.118,1.509-2.652,1.453c-0.582-0.06-1.063-0.285-1.446-0.678l-0.765-0.783c-0.352,0.222-0.725,0.594-1.12,1.117
		c-0.395,0.522-0.662,1.459-0.801,2.807c-0.137,1.326,0.693,3.232,2.492,5.721c1.799,2.489,3.5,3.816,5.104,3.982
		c1.627,0.168,2.908,0.054,3.842-0.344l3.071-1.409l3.12,1.873c1.09,0.583,2.136,0.927,3.136,1.029
		c0.977,0.102,1.938-0.169,2.886-0.811c0.947-0.644,1.656-1.538,2.129-2.688c0.461,0.307,1.576,1.22,3.346,2.743
		c1.34,1.125,2.661,1.755,3.964,1.89c1.348,0.14,2.34-0.027,2.978-0.503l2.169-1.89l0.359-0.069l0.215,0.305l0.015-0.14
		c0.366,0.556,1.347,1.291,2.943,2.208c0.91,0.518,1.67,0.89,2.281,1.117c0.611,0.227,1.23,0.373,1.858,0.438
		c1.116,0.116,2.366-0.271,3.75-1.162s2.147-2.021,2.29-3.394c0.142-1.371-0.214-2.817-1.067-4.34
		c-0.298-0.524-1.149-1.728-2.552-3.611c-0.41,0.334-0.999,0.461-1.767,0.381c-0.767-0.08-1.552-1.582-2.353-4.508
		c-0.584-2.08-1.12-4.968-1.607-8.66c-0.152-1.025-0.278-2.021-0.379-2.982s-0.199-2.105-0.297-3.432
		c-0.146-1.543-0.221-2.865-0.224-3.971c-0.004-1.105,0.053-2.215,0.168-3.331c0.098-0.718,0.2-1.477,0.306-2.277
		c0.106-0.799,0.206-1.653,0.3-2.559l0.809-3.723l-2.773-3.177c-0.67-0.797-1.164-1.471-1.482-2.021l-0.407-0.148
		c-0.721-0.075-1.754,0.03-3.1,0.314c-0.648,0.144-1.229,0.237-1.737,0.278c-0.51,0.042-0.939,0.044-1.288,0.008
		c-0.651-0.067-1.302-0.299-1.954-0.695c-0.652-0.397-1.119-0.938-1.4-1.625l-2.146,0.976c-1.027,0.387-1.842,0.55-2.447,0.487
		c-0.604-0.062-1.558-0.437-2.862-1.124c-1.303-0.687-2.163-1.052-2.582-1.095c-0.466-0.049-0.829-0.051-1.092-0.008l-0.088,1.19
		l-0.081,0.097l-0.192,3.575l-0.268,3.603C466.133,65.358,465.785,67.801,465.359,70.107 M477.511,94.219
		c0.284-0.592,0.478-1.389,0.582-2.389c0.103-0.998,0.087-2.211-0.047-3.635c0.219,0.375,0.38,0.862,0.482,1.46
		c0.117,0.458,0.165,0.839,0.146,1.144c-0.021,0.303-0.041,0.57-0.065,0.803c-0.072,0.697-0.209,1.342-0.411,1.932l-0.62,1.557
		l-0.523,0.299l-0.524,0.298C476.898,95.301,477.226,94.813,477.511,94.219 M476.53,95.687l-0.389,0.348
		c-0.223,0.118-0.393,0.171-0.509,0.159l-0.45-0.082l-0.606-0.273C475.414,95.924,476.064,95.873,476.53,95.687 M474.576,95.838
		l-0.209-0.022l-0.094-0.115L474.576,95.838z M450.118,94.118c-0.169,0.265-0.271,0.46-0.308,0.585
		c-0.036,0.127-0.071,0.352-0.104,0.676v1.022l0.13,0.789c-0.24-0.636-0.329-1.244-0.27-1.825c0.036-0.349,0.074-0.604,0.114-0.764
		s0.09-0.307,0.151-0.442l0.792-0.835L450.118,94.118z M450.624,93.324l0.229-0.188l0.578,0.554L450.624,93.324z M452.141,94.328
		l-0.709-0.638l0.668,0.351l0.68,0.246L452.141,94.328z M453.368,94.385l-0.352-0.002l-0.237-0.096l0.855-0.087L453.368,94.385z
		 M467.543,55.813c-0.145,0.032-0.212,0.119-0.203,0.261c-0.013,0.116-0.1,1.752-0.262,4.907c-0.068,1.356-0.168,2.649-0.295,3.881
		c-0.201,1.953-0.498,3.902-0.887,5.847c-0.389,1.946-0.883,3.992-1.48,6.137c-1.45,5.162-3.345,9.512-5.685,13.053
		c-0.751,1.121-1.476,1.998-2.175,2.63c-0.913,0.869-1.887,1.427-2.922,1.672c2.815-2.012,5.168-4.764,7.057-8.258
		c1.614-2.888,2.92-6.431,3.918-10.626c0.765-3.07,1.28-5.906,1.55-8.51c0.068-0.886,0.141-1.818,0.219-2.797
		s0.18-2.073,0.305-3.282l0.258-5.224l0.636-0.358L467.543,55.813z M467.581,55.111l0.021-0.21l0.213-0.013l0.244,0.025
		L467.581,55.111z M483.907,57.751c0.55-0.085,0.917-0.129,1.106-0.133c0.188-0.003,0.479,0.015,0.875,0.056l0.126,0.154
		l-0.025-0.109c0.088,0.057,0.295,0.101,0.621,0.135l0.98,0.066l-0.491,2.698l-0.615,5.611c-0.289,2.79-0.341,6.192-0.157,10.205
		c0.186,4.014,0.754,7.772,1.707,11.278c1.148,4.113,2.74,7.696,4.774,10.75c0.477,0.612,0.959,0.944,1.447,0.995
		c0.302,0.031,0.571,0.036,0.81,0.014c0.237-0.022,0.487-0.056,0.75-0.1l1.359-0.528c0.085,0.314,0.135,0.514,0.149,0.597
		c0.015,0.084,0.028,0.238,0.04,0.463c0.013,0.224,0.002,0.488-0.028,0.79l-0.076,0.732c-0.079,0.767-0.81,1.467-2.19,2.099
		c-1.186,0.56-2.522,0.762-4.011,0.608c-1.488-0.154-2.857-0.777-4.106-1.87c-1.078-0.935-2.008-2.169-2.788-3.708l-2.77,2.922
		c-1.062,0.947-2.313,1.347-3.754,1.198c-1.465-0.152-2.578-0.802-3.341-1.949c-0.763-1.148-1.067-2.455-0.916-3.919l0.521-0.616
		l0.54,0.231l0.442,0.152c0.246,0.119,0.59,0.202,1.032,0.247c0.44,0.046,0.998-0.448,1.669-1.483
		c0.587-0.902,0.976-2.283,1.169-4.144c0.193-1.883,0.007-3.712-0.562-5.485c-0.821-2.506-2.383-3.877-4.685-4.115
		c-2.325-0.24-4.206,0.799-5.645,3.117c-1.183,1.898-1.875,3.813-2.073,5.742c-0.202,1.952-0.046,3.391,0.47,4.313
		c0.617,1.073,2.146,1.737,4.588,1.989c-0.32,1.494-0.786,2.598-1.4,3.31c-0.798,0.904-1.884,1.285-3.255,1.143
		c-1.395-0.144-2.551-0.669-3.467-1.573c-0.917-0.906-1.585-2.062-2.003-3.467l-2.632,2.616c-1.115,0.778-2.09,1.124-2.927,1.037
		c-0.837-0.086-1.461-0.186-1.872-0.299l-1.196-0.371l-1.296-1.438c-0.521-0.641-0.742-1.345-0.662-2.111
		c0.081-0.79,0.289-1.321,0.622-1.592c0.216,0.186,0.571,0.388,1.066,0.603c0.493,0.216,0.903,0.341,1.229,0.374
		c0.376-0.008,0.934-0.291,1.674-0.85l1.63-1.452c2.286-2.112,4.168-4.749,5.647-7.91c1.477-3.16,2.63-6.577,3.456-10.251
		c0.38-1.629,0.718-3.25,1.014-4.864c0.296-1.614,0.53-3.246,0.701-4.897c0.101-0.977,0.161-2.474,0.182-4.493
		c0.021-2.018,0.081-3.504,0.18-4.457c0.085-0.133,0.27-0.219,0.556-0.26l0.848-0.018c0.297,0.078,0.988,0.378,2.074,0.902
		c1.085,0.523,1.93,0.816,2.535,0.879c0.348,0.036,0.695,0.036,1.039,0.001s0.662-0.095,0.953-0.183
		c0.754-0.251,1.517-0.583,2.288-0.997c0.731,0.875,1.21,1.371,1.433,1.487c0.352,0.225,0.784,0.363,1.296,0.416
		C481.029,58.087,482.144,57.991,483.907,57.751 M487.641,57.433l-0.135-0.049c-0.745-0.077-1.767,0.028-3.064,0.317
		c-0.649,0.144-1.223,0.238-1.721,0.28c-0.498,0.043-0.921,0.046-1.271,0.01c-0.696-0.072-1.368-0.283-2.014-0.631
		c-0.682-0.446-1.195-0.946-1.537-1.498c-0.89,0.425-1.578,0.717-2.063,0.879c-0.95,0.324-1.693,0.459-2.228,0.404
		c-0.512-0.053-1.205-0.277-2.081-0.674l-3.469-1.557c0.144-0.032,0.379-0.031,0.705,0.003c0.325,0.033,0.978,0.312,1.957,0.837
		c0.537,0.267,0.932,0.413,1.188,0.44c0.417,0.278,0.976,0.453,1.673,0.525c0.697,0.072,1.436-0.028,2.216-0.299
		c0.488-0.184,1.22-0.544,2.19-1.078l1.095,1.347c0.447,0.446,0.927,0.695,1.438,0.748c0.534,0.055,1.684-0.038,3.447-0.278
		c0.549-0.084,0.918-0.128,1.105-0.132c0.189-0.004,0.48,0.014,0.876,0.055l0.22,0.269l0.018-0.174l2.092,0.216l-0.146,0.725
		L487.641,57.433z M495.811,98.737c-0.317,0.108-0.54,0.168-0.67,0.179c-0.131,0.01-0.358-0.002-0.684-0.037
		c-0.466-0.047-0.851-0.299-1.155-0.754c-2.09-2.965-3.666-6.476-4.727-10.533c-0.935-3.455-1.491-7.391-1.67-11.803
		c-0.095-2.031-0.123-3.807-0.083-5.331c0.04-1.523,0.146-3.109,0.316-4.76c0.046-0.442,0.281-2.156,0.708-5.143
		c0.086-0.602,0.182-1.414,0.287-2.438l1.762,2.05c0.72,0.757,1.305,1.463,1.755,2.12c-0.229,0.846-0.397,1.516-0.508,2.01
		s-0.193,1.019-0.251,1.577l-0.49,3.721c-0.021,0.209-0.055,0.811-0.099,1.805s-0.096,1.782-0.156,2.361
		c-0.007,1.434,0.053,2.892,0.182,4.373c0.13,1.481,0.248,2.716,0.357,3.701c0.11,0.987,0.223,1.934,0.341,2.838
		c0.511,3.695,1.098,6.658,1.76,8.888c0.937,2.987,1.776,4.519,2.521,4.596c0.813,0.084,1.441,0.043,1.881-0.123l0.063,0.077
		L495.811,98.737z M497.251,98.111l0.369-0.173l0.154,0.897L497.251,98.111z M487.672,105.191c-0.474,0.022-1.165,0.474-2.078,1.354
		c-0.914,0.882-2.022,1.254-3.323,1.119c-1.326-0.137-2.689-0.807-4.092-2.009c-1.832-1.6-3.039-2.547-3.619-2.842
		c-0.733,1.405-1.357,2.327-1.872,2.767c-0.828,0.737-1.729,1.056-2.707,0.954c-0.906-0.094-2.031-0.468-3.373-1.124
		c-1.267-0.694-2.192-1.284-2.776-1.768c-0.559-0.058-1.443,0.262-2.655,0.959c-1.212,0.698-2.527,0.973-3.944,0.826
		c-1.395-0.145-2.913-1.147-4.553-3.009c-1.51-1.754-2.458-3.497-2.843-5.229c0.244,0.589,0.588,1.131,1.03,1.622l0.866,0.83
		l1.536,0.476l1.838,0.296c0.768,0.079,1.663-0.181,2.688-0.778c0.647-0.356,1.536-1.11,2.666-2.263
		c0.378,1.12,1.104,2.105,2.179,2.956c1.075,0.853,2.263,1.346,3.565,1.479c1.256,0.13,2.304-0.125,3.146-0.768
		c0.949-0.771,1.691-2.373,2.224-4.81c-2.139-0.222-3.525-0.552-4.16-0.994c-0.94-0.685-1.301-2.085-1.081-4.2
		c0.218-2.115,0.854-4.059,1.905-5.83c1.359-2.231,2.91-3.259,4.654-3.078c1.766,0.183,3.06,0.857,3.879,2.022
		c0.72,0.991,1.145,2.339,1.274,4.044c-0.52-0.9-1.348-1.408-2.486-1.525c-1.163-0.121-2.289,0.433-3.379,1.66
		c-0.985,1.119-1.545,2.33-1.679,3.631c-0.131,1.256-0.098,2.176,0.102,2.76c0.274,0.758,0.879,1.384,1.814,1.88l1.021-1.022
		l0.057-0.205l0.161-0.195l0.144-0.021c0.244,0.144,0.4,0.324,0.473,0.543l-0.54-0.231l-0.921,1.066
		c-0.173,1.674,0.121,3.139,0.885,4.393c0.867,1.382,2.045,2.149,3.533,2.303c1.511,0.157,2.846-0.14,4.004-0.889
		c0.807-0.528,1.738-1.466,2.793-2.813c0.923,1.529,1.884,2.686,2.884,3.47c1.282,1.002,2.691,1.582,4.227,1.741
		c1.58,0.164,3.003-0.077,4.268-0.722c1.538-0.78,2.352-1.602,2.44-2.461c0.091-0.883,0.115-1.456,0.072-1.721l-0.144-1
		c0.949,1.272,1.569,2.205,1.86,2.8c0.606,1.168,0.85,2.344,0.728,3.528c-0.125,1.21-0.803,2.197-2.032,2.962
		c-1.231,0.767-2.382,1.094-3.45,0.983c-1.046-0.108-2.025-0.421-2.935-0.938c-0.711-0.402-1.936-1.281-3.675-2.637l0.117,0.576
		L487.672,105.191z M487.672,105.191c-0.474,0.022-1.165,0.474-2.078,1.354c-0.914,0.882-2.022,1.254-3.323,1.119
		c-1.326-0.137-2.689-0.807-4.092-2.009c-1.832-1.6-3.039-2.547-3.619-2.842c-0.733,1.405-1.357,2.327-1.872,2.767
		c-0.828,0.737-1.729,1.056-2.707,0.954c-0.906-0.094-2.031-0.468-3.373-1.124c-1.267-0.694-2.192-1.284-2.776-1.768
		c-0.559-0.058-1.443,0.262-2.655,0.959c-1.212,0.698-2.584,0.967-4.119,0.808c-1.488-0.153-3.155-1.413-5.002-3.776
		c-1.847-2.365-2.703-4.187-2.571-5.465c0.127-1.232,0.285-1.968,0.476-2.207l0.895-0.824c0.578,0.554,1.219,0.937,1.926,1.15
		l0.855-0.087l1.385-1.126l0.815-0.726c-0.467,0.422-1.026,0.769-1.677,1.042s-1.115,0.396-1.395,0.367
		c-0.326-0.034-0.679-0.246-1.063-0.639l-0.765-0.783c-0.352,0.222-0.725,0.594-1.12,1.117c-0.395,0.522-0.662,1.459-0.801,2.807
		c-0.137,1.326,0.693,3.232,2.492,5.721c1.799,2.489,3.5,3.816,5.104,3.982c1.627,0.168,2.908,0.054,3.842-0.344l3.071-1.409
		l3.12,1.873c1.09,0.583,2.136,0.927,3.136,1.029c0.977,0.102,1.938-0.169,2.886-0.811c0.947-0.644,1.656-1.538,2.129-2.688
		c0.461,0.307,1.576,1.22,3.346,2.743c1.34,1.125,2.661,1.755,3.964,1.89c1.348,0.14,2.34-0.027,2.978-0.503l2.169-1.89l0.359-0.069
		l0.215,0.305l0.015-0.14c0.366,0.556,1.347,1.291,2.943,2.208c0.91,0.518,1.67,0.89,2.281,1.117
		c0.611,0.227,1.23,0.373,1.858,0.438c1.116,0.116,2.366-0.271,3.75-1.162s2.147-2.021,2.29-3.394
		c0.142-1.371-0.214-2.817-1.067-4.34c-0.298-0.524-1.149-1.728-2.552-3.611c-0.41,0.334-0.999,0.461-1.767,0.381
		c-0.767-0.08-1.552-1.582-2.353-4.508c-0.584-2.08-1.12-4.968-1.607-8.66c-0.152-1.025-0.278-2.021-0.379-2.982
		s-0.199-2.105-0.297-3.432c-0.146-1.543-0.221-2.865-0.224-3.971c-0.004-1.105,0.053-2.215,0.168-3.331
		c0.098-0.718,0.2-1.477,0.306-2.277c0.106-0.799,0.206-1.653,0.3-2.559l0.809-3.723l-2.773-3.177
		c-0.67-0.797-1.164-1.471-1.482-2.021l-0.407-0.148l-1.41-0.005c-0.425,0.027-0.928,0.116-1.508,0.267l1.231,0.022l0.22,0.269
		l0.122-0.163l1.987,0.205l-0.146,0.725l1.762,2.05c0.72,0.757,1.305,1.463,1.755,2.12c-0.229,0.846-0.397,1.516-0.508,2.01
		s-0.193,1.019-0.251,1.577l-0.49,3.721c-0.021,0.209-0.055,0.811-0.099,1.805s-0.096,1.782-0.156,2.361
		c-0.007,1.434,0.055,2.873,0.188,4.32c0.26,2.94,0.476,5.055,0.648,6.34c0.508,3.719,1.091,6.717,1.749,8.992
		c0.903,3.078,1.761,4.658,2.575,4.743c0.813,0.084,1.441,0.043,1.881-0.123l0.063,0.077l0.369-0.173l0.154,0.897
		c0.949,1.272,1.569,2.205,1.86,2.8c0.606,1.168,0.85,2.344,0.728,3.528c-0.125,1.21-0.803,2.197-2.032,2.962
		c-1.231,0.767-2.382,1.094-3.45,0.983c-1.046-0.108-2.025-0.421-2.935-0.938c-0.711-0.402-1.936-1.281-3.675-2.637l0.117,0.576
		L487.672,105.191z M428.707,75.024c0.628-1.907,1.115-3.599,1.464-5.078c0.347-1.479,0.59-2.857,0.728-4.135
		c0.275-2.556,0.12-5.159-0.464-7.808c-0.584-2.648-1.57-5.058-2.958-7.23l-0.04-0.286l-0.001-0.317
		c0.188-0.426,0.584-0.678,1.192-0.753c0.606-0.076,1.248-0.077,1.922-0.005c0.743,0.08,1.821,0.443,3.231,1.089
		c0.83,0.371,1.449,0.627,1.857,0.764c0.409,0.138,0.787,0.226,1.136,0.264c0.58,0.062,1.136,0.028,1.668-0.103l1.385-0.415
		l0.115-0.093c0.187,0.02,0.323,0.058,0.411,0.115l1.13,0.968c0.413,0.303,0.923,0.487,1.527,0.552
		c0.581,0.063,2.257-0.003,5.029-0.198l3.228-0.181c0.14,0.438,0.364,0.979,0.671,1.623l0.936,1.794
		c0.185,0.466,0.294,0.76,0.327,0.881c0.034,0.122,0.126,0.472,0.275,1.052c0.149,0.581,0.208,1.01,0.178,1.289l-0.133,0.585
		c-2.329,2.194-4.416,4.491-6.261,6.889c-1.845,2.399-3.552,4.983-5.12,7.751c-2.876,5.098-5.189,10.854-6.938,17.271l-1.105,4.042
		c-0.405,1.578-0.661,2.867-0.77,3.866c-0.055,0.723-0.108,1.387-0.161,1.992c-0.054,0.606-0.106,1.152-0.159,1.641
		c-0.158,1.464-0.576,2.406-1.256,2.826c-1.558-0.167-3.123-0.795-4.699-1.882c-1.159-0.807-2.436-1.942-3.828-3.409
		c-1.092,0.752-2.462,1.356-4.11,1.813c-1.647,0.457-3.122,0.616-4.423,0.476c-0.086-0.079-0.269-0.348-0.549-0.801
		c-0.28-0.452-0.675-1.096-1.185-1.927c-0.511-0.831-0.903-1.497-1.179-1.997c-0.099-0.175-0.215-0.399-0.35-0.673
		c-0.593-6.932-1.242-12.8-1.946-17.604c-0.973-6.244-2.26-11.969-3.861-17.175c-1.865-6.035-4.187-11.436-6.964-16.205
		c0.339-0.081,0.65-0.141,0.937-0.181c0.287-0.04,0.631-0.074,1.034-0.101c0.781-0.056,1.579-0.041,2.392,0.047
		c0.837,0.09,2,0.427,3.488,1.01c0.881,0.33,2.126,0.888,3.733,1.672l1.365-0.558l1.341-0.667l1.515,1.327
		c0.577,0.533,1.155,0.83,1.737,0.893c0.58,0.062,1.354-0.031,2.321-0.279c0.967-0.249,1.648-0.352,2.044-0.309l2.452,0.476
		c1.216,0.272,1.913,0.453,2.092,0.543l1.54,3.057c0.569,1.26,0.882,1.952,0.94,2.076c0.124,0.366,0.261,0.733,0.41,1.102
		c-0.811,0.97-1.769,3.154-2.875,6.548c-1.106,3.396-1.75,5.941-1.934,7.637c-0.171,1.581-0.128,3.695,0.127,6.343
		s0.681,4.593,1.276,5.832C425.961,81.852,427.332,79.272,428.707,75.024 M416.905,95.616c-1.075,0.378-1.869,0.539-2.381,0.484
		l-1.492-0.231l-0.039-0.285l-0.785-7.774l-0.991-8.147c-0.439-3.127-0.875-5.795-1.308-8.004s-0.892-4.222-1.378-6.037
		c-0.533-2.032-1.109-3.987-1.73-5.864c-1.151-3.509-2.646-7.325-4.481-11.449c1.092,0.118,2.434,0.539,4.024,1.263
		s2.723,1.122,3.397,1.194c0.604,0.065,1.103,0.025,1.494-0.121l1.484-0.686c0.254,0.474,0.587,0.874,0.999,1.201
		c0.411,0.326,0.849,0.514,1.313,0.564c0.303,0.033,0.738,0.022,1.31-0.035c0.569-0.056,1.308-0.147,2.215-0.272
		c0.907-0.126,1.569-0.166,1.988-0.121l1.17,0.267l0.88,0.342l-0.104,0.306c-0.862,2.117-1.568,4.203-2.119,6.259
		c-0.552,2.056-0.994,4.642-1.329,7.755c-0.161,1.488-0.202,3.064-0.122,4.73c0.079,1.665,0.266,3.418,0.561,5.26
		c0.784,4.504,2.203,7.914,4.258,10.228c2.378-2.001,4.363-5.043,5.955-9.126c1.367-3.52,2.218-6.837,2.553-9.951
		c0.342-3.16,0.354-5.95,0.038-8.37c-0.314-2.42-0.941-4.832-1.882-7.237c0.26-0.019,0.496-0.017,0.705,0.005
		c0.209,0.023,0.429,0.046,0.662,0.071c0.465,0.051,1.34,0.374,2.628,0.971c1.287,0.597,2.187,0.923,2.698,0.979
		c0.488,0.052,0.912,0.039,1.272-0.04l1.021-0.313l2.059,0.857c0.474,0.192,0.941,0.313,1.407,0.363
		c0.418,0.045,1.154-0.028,2.209-0.22c0.942-0.228,1.866-0.293,2.772-0.195c-0.184,0.169-0.291,0.404-0.323,0.705l-0.238,0.574
		c-2.54,2.618-4.889,5.75-7.045,9.396c-1.957,3.315-3.679,6.856-5.166,10.621c-0.855,2.048-1.733,4.526-2.636,7.438l-2.128,7.215
		l-2.209,8.012l-0.104,0.307c-1.853-0.482-3.382-1.353-4.587-2.61l-2.158-2.562C418.863,94.676,417.419,95.437,416.905,95.616
		 M431.876,58.708c0.446,2.394,0.503,5.145,0.168,8.252c-0.332,3.085-1.175,6.314-2.525,9.687c-1.548,3.892-3.456,6.877-5.725,8.955
		c-1.844-2.318-3.099-5.61-3.768-9.875c-0.558-3.546-0.681-6.762-0.37-9.65c0.166-1.536,0.36-2.905,0.583-4.105
		c0.224-1.201,0.495-2.409,0.814-3.623c0.617-2.241,1.391-4.513,2.321-6.815c-0.267-0.147-0.49-0.253-0.672-0.32
		c-0.181-0.066-0.372-0.134-0.576-0.204c-0.521-0.197-0.978-0.317-1.372-0.359c-0.396-0.043-1.547,0.069-3.456,0.334
		c-0.859,0.119-1.603,0.145-2.23,0.077c-0.65-0.07-1.183-0.468-1.599-1.196c-0.283-0.431-0.512-0.703-0.688-0.816
		c-0.562,0.411-0.99,0.682-1.286,0.815c-0.519,0.227-1.104,0.305-1.754,0.235c-0.628-0.068-1.708-0.461-3.24-1.18
		c-1.533-0.718-3.264-1.182-5.192-1.389c1.236,2.487,2.34,5.007,3.312,7.56c0.971,2.553,1.866,5.251,2.688,8.093
		c0.736,2.552,1.406,5.225,2.01,8.021s1.127,5.619,1.573,8.468c0.748,4.836,1.333,10.418,1.756,16.75l0.484,0.088l1.251,0.17
		c0.558,0.06,1.378-0.081,2.461-0.424c1.083-0.342,2.496-1.066,4.237-2.174c1.238,1.592,2.281,2.705,3.131,3.338
		c0.651,0.494,1.313,0.89,1.987,1.186c0.674,0.297,1.416,0.489,2.23,0.576l4.424-15.531c1.771-5.531,3.673-10.311,5.705-14.338
		c2.507-4.936,5.559-9.369,9.155-13.297l0.162-0.193l0.148-0.723l0.32-1.338c-0.651-0.07-1.597-0.014-2.839,0.169
		c-1.242,0.183-2.13,0.245-2.665,0.188c-0.302-0.033-0.584-0.087-0.846-0.162c-0.264-0.075-0.552-0.176-0.866-0.304l-1.746-0.822
		c-0.175,0.099-0.342,0.175-0.5,0.229c-0.159,0.053-0.365,0.113-0.619,0.18c-0.254,0.067-0.648,0.071-1.183,0.013
		c-0.466-0.05-1.347-0.38-2.644-0.99c-1.298-0.61-2.214-0.944-2.748-1.001l-1.089-0.047l-1.126-0.016
		C430.628,53.813,431.428,56.314,431.876,58.708 M429.371,50.555l1.229,0.132c0.608,0.065,1.599,0.414,2.974,1.043
		c1.375,0.63,2.414,0.983,3.115,1.059c0.538,0.058,1.108,0.037,1.71-0.063l1.565-0.36c0.471,0.415,0.916,0.743,1.336,0.982
		c0.419,0.239,1,0.398,1.741,0.478c0.58,0.062,1.755,0.036,3.525-0.079l3.896-0.25c0.836,1.596,1.342,2.662,1.519,3.199
		c0.272,0.735,0.409,1.42,0.412,2.055c-5.234,4.846-9.696,11.046-13.384,18.599c-1.935,3.954-3.444,7.579-4.529,10.873
		c-1.228,3.749-2.038,7.438-2.429,11.064l-0.146,1.36l-0.195,1.814c-0.101,0.93-0.251,1.56-0.451,1.892
		c-1.448-0.298-2.896-1.046-4.342-2.244c-0.8-0.654-1.982-1.788-3.548-3.401c-2.354,1.769-5.014,2.681-7.981,2.736l-1.054-1.665
		l-1.64-2.786l-0.045-0.568l-0.174-0.02l-0.096-0.751c-0.282-2.403-0.555-4.837-0.817-7.299c-0.264-2.461-0.472-4.299-0.623-5.515
		c-0.207-1.785-0.371-3.096-0.493-3.932c-0.908-6.186-2.016-11.501-3.324-15.944c-1.632-5.582-3.784-10.797-6.459-15.646
		l0.922-0.042c0.236-0.021,0.739,0.009,1.507,0.092c0.627,0.067,1.648,0.401,3.064,1l3.943,1.694l1.311-0.387l1.265-0.604
		l0.104,0.011l0.104,0.011c0.22,0.36,0.684,0.742,1.393,1.143c0.709,0.402,1.296,0.628,1.761,0.678
		c0.441,0.047,1.415-0.047,2.923-0.284c0.646-0.118,1.215-0.152,1.702-0.099l1.693,0.323l1.902,0.346
		c0.858,1.622,1.651,3.32,2.378,5.092c-1.193,2.343-2.167,4.615-2.921,6.816c-0.939,2.605-1.519,4.931-1.739,6.978
		c-0.211,1.954-0.15,4.548,0.184,7.785c0.413,4.022,1.037,6.078,1.874,6.168c0.441,0.047,0.859-0.072,1.255-0.358
		c0.396-0.287,0.789-0.728,1.183-1.32c0.866-1.271,1.718-2.967,2.559-5.089c0.349-0.833,0.666-1.716,0.955-2.65
		c0.289-0.934,0.539-1.836,0.75-2.708c0.49-1.924,0.861-4.06,1.114-6.41c0.251-2.326,0.181-4.734-0.209-7.223
		c-0.481-2.734-1.404-5.293-2.77-7.676L429.371,50.555z M440.034,51.705c-0.613,0.239-1.178,0.408-1.693,0.505
		c-0.517,0.097-1.076,0.113-1.681,0.048s-1.635-0.429-3.091-1.091c-1.457-0.663-2.464-1.024-3.021-1.084L429,50.057
		c-0.45,0.028-0.758,0.148-0.92,0.359l0.016,0.178c1.458,2.386,2.47,4.888,3.034,7.505c0.563,2.618,0.702,5.272,0.412,7.962
		c-0.293,2.713-1.057,5.867-2.29,9.464c-1.533,4.409-3.053,7.06-4.56,7.953l-0.355,0.032c-0.772-0.694-1.323-2.774-1.655-6.243
		c-0.271-2.943-0.303-5.368-0.097-7.274c0.106-0.999,0.301-2.036,0.582-3.111c0.279-1.074,0.658-2.302,1.138-3.685
		c0.363-0.971,0.795-2.042,1.297-3.21s1.056-2.378,1.661-3.629l-1.245-2.849l-1.356-2.791c-0.432-0.14-0.733-0.226-0.906-0.256
		c-0.173-0.031-0.581-0.116-1.225-0.256c-0.363-0.11-0.708-0.193-1.03-0.252c-0.323-0.058-0.601-0.1-0.832-0.125
		c-0.488-0.052-1.233,0.032-2.232,0.253c-0.999,0.222-1.766,0.304-2.3,0.246c-0.512-0.055-1.076-0.273-1.693-0.656
		c-0.633-0.451-1.172-0.904-1.616-1.358l-1.299,0.601c-0.742,0.343-1.288,0.496-1.636,0.458c-0.414-0.091-1.485-0.512-3.214-1.263
		c-1.815-0.83-3.175-1.294-4.081-1.392c-0.93-0.1-1.897-0.063-2.903,0.11c1.363,2.381,2.593,4.87,3.688,7.468
		c1.094,2.598,2.102,5.392,3.024,8.383c1.598,5.226,2.878,10.994,3.843,17.303c0.862,5.289,1.466,11.019,1.811,17.19l1.463,2.45
		l1.535,2.422c1.648-0.033,3.067-0.238,4.259-0.616c1.191-0.376,2.505-1.018,3.942-1.92l3.695,3.29
		c1.529,1.293,3.036,2.02,4.522,2.18c0.317-0.272,0.54-0.601,0.668-0.986l0.158-1.464l0.19-1.778l0.15-1.394
		c0.388-3.602,1.21-7.297,2.465-11.088c1.114-3.359,2.605-6.948,4.475-10.766c3.754-7.565,8.215-13.736,13.385-18.516
		c-0.032-1.014-0.295-2.065-0.789-3.153l-1.373-2.969c-0.162-0.017-0.453-0.049-0.871-0.094l-0.844-0.016l-3.889,0.406
		c-0.597,0.085-1.013,0.128-1.246,0.127c-0.236,0-0.574-0.024-1.016-0.071c-0.558-0.061-0.988-0.163-1.289-0.309
		c-0.302-0.145-0.689-0.424-1.162-0.837l0.112-0.051l-0.112,0.051L440.034,51.705z M440.492,52.035l-0.315,0.319l-0.132-0.085
		L440.492,52.035z M387.274,84.963l-0.395,0.059l-0.517,0.186c-0.674-0.668-1.093-1.754-1.255-3.256
		c-0.163-1.502,0.06-4.806,0.665-9.912c0.593-4.99,2.639-10.431,6.141-16.323l1.024-1.502l1.84-2.712l-0.04-0.252
		c-0.036-0.098-0.042-0.24-0.02-0.426c-0.56-0.843-1.442-1.83-2.649-2.962c-1.394-1.342-2.403-2.051-3.03-2.125
		c-0.558-0.066-1.466,0.15-2.726,0.647c-1.259,0.498-2.156,0.715-2.689,0.651c-0.58-0.068-1.256-0.431-2.024-1.087l-1.745-1.655
		c-0.542,0.595-1.179,1.055-1.912,1.379c-0.732,0.325-1.551,0.434-2.457,0.326c-0.835-0.099-2.093-0.56-3.771-1.383
		c-1.68-0.823-2.786-1.267-3.319-1.33l-0.983-0.046c-0.088,0.743,0.166,2.067,0.764,3.974l1.378,4.153
		c0.831,3.112,1.404,6.41,1.72,9.895c0.315,3.486,0.274,6.911-0.126,10.276c-0.209,1.763-0.444,3.337-0.701,4.718
		c-0.259,1.381-0.562,2.746-0.91,4.093c-0.683,2.579-1.361,4.04-2.039,4.383c-0.145,0.03-0.413,0.022-0.809-0.024
		c-0.348-0.043-0.695-0.295-1.039-0.76c-0.43-0.545-0.768-0.867-1.015-0.968c-1.006,0.94-1.625,2.384-1.856,4.334
		c-0.226,1.903,0.604,4.032,2.489,6.385c1.886,2.354,3.687,3.634,5.405,3.837c1.74,0.207,3.224-0.046,4.449-0.76
		c1.227-0.713,2.05-1.045,2.467-0.996l1.987,1.4c1.484,0.978,2.923,1.549,4.315,1.714c1.393,0.166,2.896-0.31,4.511-1.423
		c1.616-1.115,2.518-2.461,2.704-4.039c0.199-1.672,0.03-3.227-0.505-4.667c-0.535-1.441-1.484-2.665-2.846-3.675L387.274,84.963z
		 M391.187,88.588c0.593,1.547,0.785,3.197,0.577,4.953c-0.214,1.803-1.204,3.301-2.97,4.498c-1.767,1.194-3.323,1.713-4.668,1.554
		c-1.323-0.157-2.533-0.52-3.632-1.085c-1.098-0.565-2.104-1.256-3.02-2.07c-0.455,0.064-1.263,0.427-2.424,1.089
		c-1.162,0.662-2.659,0.884-4.492,0.667c-1.857-0.221-3.79-1.586-5.798-4.096c-2.009-2.51-2.916-4.577-2.724-6.201
		c0.19-1.602,0.492-2.859,0.907-3.775c0.458-0.888,0.943-1.5,1.454-1.841c0.58,0.069,1.095,0.39,1.545,0.961
		c0.479,0.527,0.893,0.812,1.241,0.853c0.87-1.19,1.625-3.277,2.261-6.262c0.398-1.766,0.775-4.145,1.131-7.139
		c0.33-2.785,0.352-5.883,0.063-9.295s-0.858-6.698-1.706-9.859l-1.401-4.261c-0.635-1.982-0.923-3.228-0.861-3.739
		c0.065-0.557,0.208-0.858,0.425-0.903c0.223-0.091,0.659-0.098,1.309-0.021c0.649,0.077,1.809,0.533,3.475,1.366
		c0.843,0.43,1.581,0.753,2.215,0.969c0.633,0.217,1.159,0.35,1.576,0.399c0.836,0.1,1.593-0.034,2.271-0.401
		c0.679-0.366,1.294-0.893,1.847-1.581l1.815,1.663c0.912,0.838,1.578,1.282,1.996,1.332c0.464,0.055,1.372-0.161,2.724-0.648
		c1.353-0.486,2.308-0.697,2.864-0.63c0.58,0.068,1.7,0.849,3.358,2.34c1.658,1.492,2.612,2.57,2.863,3.235l-0.054,0.453
		c0.079,0.127,0.109,0.272,0.09,0.434c-0.068,0.181-0.348,0.653-0.839,1.418l-2.138,3.136c-3.44,5.782-5.426,10.912-5.958,15.391
		c-0.519,4.363-0.791,7.155-0.818,8.375c-0.013,2.282,0.278,3.8,0.871,4.552c0.295-0.105,0.559-0.145,0.791-0.117l0.741,0.3
		C389.563,85.713,390.594,87.041,391.187,88.588 M385.911,92.426c-1.25,0.91-2.523,1.289-3.823,1.135
		c-1.276-0.151-2.482-0.748-3.618-1.789c-1.135-1.04-1.92-2.21-2.354-3.51c-1.204,1.223-2.351,2.156-3.439,2.804
		c-1.496,0.905-2.94,1.274-4.333,1.11c-1.393-0.166-2.513-0.834-3.363-2.006c-0.849-1.172-1.229-2.129-1.141-2.871l0.182-1.532
		l0.178-0.614c0.13-0.104,0.322-0.139,0.578-0.107c0.301,0.035,0.683,0.198,1.143,0.489c0.306,0.195,0.557,0.316,0.751,0.366
		c0.193,0.05,0.5,0.1,0.918,0.148c0.627,0.074,1.403-1.17,2.332-3.73c0.927-2.561,1.64-5.93,2.136-10.108
		c0.49-4.131,0.488-8.674-0.006-13.628s-1.444-9.444-2.849-13.471c0.604,0.071,1.941,0.596,4.015,1.571
		c0.489,0.247,0.909,0.426,1.26,0.538c0.352,0.112,0.69,0.188,1.015,0.226c0.604,0.072,1.292-0.081,2.067-0.46l1.824-1.09
		l0.213-0.01l1.71,1.651c0.696,0.483,1.345,0.76,1.949,0.831c0.324,0.039,0.63,0.052,0.914,0.038
		c0.283-0.013,0.587-0.041,0.909-0.086c0.323-0.044,0.762-0.115,1.314-0.214c0.524-0.056,0.937-0.066,1.239-0.03
		c0.365,0.091,0.683,0.24,0.953,0.449c0.269,0.208,0.547,0.494,0.834,0.858c-0.943,1.398-1.824,2.967-2.643,4.709
		c-0.818,1.741-1.621,3.733-2.404,5.974c-1.533,4.392-2.464,7.96-2.789,10.704c-0.16,1.349-0.278,2.537-0.354,3.565
		s-0.12,1.907-0.136,2.637c0.011,2.287,0.213,4.246,0.608,5.873c0.531,2.066,1.367,3.545,2.51,4.435
		c0.235,0.194,0.644,0.325,1.224,0.394c0.627,0.074,1.299-0.234,2.017-0.926c0.475,0.762,0.657,1.596,0.551,2.502
		C387.857,90.457,387.161,91.516,385.911,92.426 M370.206,51.374c0.515,2.297,0.918,4.404,1.208,6.322
		c0.739,4.866,0.896,9.108,0.466,12.729c-0.419,3.529-0.85,6.253-1.29,8.179c-0.783,3.225-1.707,5.458-2.772,6.695l-0.752,0.088
		l-0.851-0.266l-0.728-0.416l-0.675-0.257l-0.683,0.095c-0.358,0.642-0.605,1.529-0.74,2.666c-0.138,1.162,0.276,2.334,1.242,3.52
		c0.965,1.186,2.154,1.861,3.57,2.029c1.416,0.17,2.84-0.121,4.27-0.868c1.078-0.556,2.227-1.407,3.446-2.558
		c0.561,1.221,1.416,2.293,2.565,3.219c1.149,0.925,2.385,1.466,3.708,1.623c1.346,0.158,2.708-0.262,4.086-1.262
		s2.128-2.017,2.251-3.048c0.12-1.007,0.086-1.819-0.099-2.435l-0.762-1.609l-1.199,0.883c-0.504,0.27-0.906,0.387-1.207,0.35
		l-0.676-0.256c-1.535-1.148-2.443-3.506-2.726-7.073c-0.206-2.427-0.123-5.208,0.249-8.345c0.188-1.58,0.522-3.306,1.004-5.181
		c0.481-1.874,1.099-3.898,1.852-6.07c1.606-4.426,3.328-8.014,5.161-10.765c-0.264-0.362-0.426-0.581-0.486-0.659
		c-0.123-0.156-0.291-0.328-0.503-0.519c-0.493-0.411-0.971-0.645-1.436-0.7s-1.147,0-2.05,0.163
		c-0.901,0.164-1.643,0.211-2.223,0.142c-0.279-0.033-0.543-0.088-0.792-0.165c-0.251-0.076-0.475-0.174-0.672-0.291
		c-0.476-0.362-1.114-1.027-1.917-1.993l-0.383-0.046c-0.214,0.21-0.478,0.403-0.792,0.577c-0.315,0.174-0.707,0.352-1.176,0.531
		c-0.845,0.371-1.545,0.523-2.102,0.457c-0.464-0.055-1.663-0.562-3.597-1.522c-0.442-0.241-0.955-0.431-1.538-0.571
		c-0.584-0.14-1.282-0.258-2.095-0.355C369.076,46.755,369.689,49.076,370.206,51.374 M369.582,44.292
		c0.651,0.254,1.378,0.582,2.178,0.982c1.671,0.787,2.948,1.233,3.83,1.338c0.858,0.102,1.672-0.102,2.438-0.611
		c0.768-0.509,1.313-0.744,1.638-0.706l0.194-0.153c0.65,0.666,1.203,1.167,1.657,1.503c0.778,0.587,1.445,0.913,2.002,0.979
		c0.604,0.072,1.558-0.138,2.864-0.631c1.306-0.492,2.179-0.712,2.62-0.659c0.464,0.055,1.351,0.713,2.661,1.975
		c0.714,0.72,1.217,1.239,1.51,1.556c0.373,0.421,0.677,0.834,0.912,1.238l0.074,0.256l-1.025,1.502
		c-0.478,0.65-0.845,1.171-1.104,1.564s-0.463,0.722-0.611,0.986c-3.559,5.98-5.629,11.43-6.213,16.35
		c-0.292,2.46-0.504,4.43-0.632,5.91c-0.129,1.479-0.189,2.489-0.184,3.031c0.096,2.365,0.713,4.109,1.85,5.233l0.49-0.261
		l0.474-0.119l0.239,0.063c1.233,0.713,2.108,1.863,2.626,3.454c0.464,1.444,0.611,2.874,0.443,4.29
		c-0.17,1.439-0.992,2.659-2.464,3.661c-1.474,1.002-2.778,1.435-3.915,1.3c-1.114-0.132-2.072-0.387-2.874-0.765
		c-0.905-0.507-2.012-1.298-3.32-2.371c-0.417-0.05-0.865,0.003-1.342,0.157c-0.478,0.156-1.035,0.432-1.669,0.826
		c-1.214,0.703-2.621,0.959-4.222,0.77c-1.649-0.195-3.358-1.452-5.132-3.77c-1.771-2.315-2.584-4.102-2.435-5.354l0.314-2.328
		l0.296-0.918l0.413-0.022l0.588-0.812c0.109,0.06,0.22,0.214,0.331,0.462l0.435,0.477l1.365,0.621
		c0.899,0.106,1.77-1.072,2.612-3.539c0.843-2.465,1.472-5.438,1.885-8.919c0.416-3.504,0.539-6.914,0.368-10.23
		c-0.172-3.315-0.574-6.564-1.208-9.746l-1.771-5.611c-0.437-1.276-0.701-2.414-0.795-3.413
		C368.394,43.885,368.929,44.038,369.582,44.292 M361.107,47.942c-0.042,1.145-0.518,2.647-1.428,4.508L358.429,55
		c-1.043,2.278-1.922,5.847-2.639,10.709c-0.588,3.907-0.931,7.204-1.029,9.89c-0.096,2.615-0.01,5.04,0.259,7.271l0.842,6.695
		c0.294,2.186,0.421,3.828,0.381,4.926c-0.037,1.028-0.177,1.625-0.417,1.791c-0.239,0.167-0.664,0.239-1.271,0.217
		c-0.537-0.02-1.324-0.235-2.362-0.647c-1.196-0.535-2.557-1.38-4.082-2.536c-0.871,0.811-1.736,1.457-2.597,1.939
		c-1.076,0.662-2.085,1.047-3.024,1.152l-4.531-4.587c-0.229-2.721-1.073-5.827-2.536-9.319c-1.142-2.684-2.71-5.805-4.708-9.363
		l-4.688-8.065c-0.415,1.763-0.769,3.48-1.063,5.153c-0.378,2.021-0.59,3.674-0.638,4.958c-0.042,1.146-0.024,2.243,0.055,3.3
		c0.147,1.057,0.349,1.965,0.602,2.723c1.303,0.82,2.523,2.133,3.661,3.941s1.679,3.482,1.623,5.023
		c-0.058,1.564-0.732,2.891-2.023,3.977c-1.291,1.088-2.79,1.6-4.493,1.537c-1.659-0.061-2.958-0.67-3.897-1.827
		c-0.652,0.537-1.387,0.983-2.207,1.335c-0.82,0.354-1.51,0.52-2.07,0.499c-0.351-0.013-0.612-0.035-0.787-0.063
		c-0.175-0.03-0.365-0.084-0.572-0.162l-1.138-0.567c-1.853-1.12-3.37-2.474-4.552-4.06c-1.405-1.875-2.08-3.559-2.024-5.053
		c0.057-1.539,0.312-2.758,0.766-3.652c0.525-0.939,1.241-1.637,2.146-2.096c0.288,0.432,0.522,0.756,0.701,0.973
		c0.18,0.218,0.336,0.41,0.471,0.578c0.338,0.363,0.599,0.561,0.785,0.59l0.355-0.127c1.017-0.944,1.769-2.635,2.256-5.073
		c0.312-1.462,0.522-3.711,0.634-6.748c0.105-2.872-0.039-5.807-0.432-8.803c-0.393-2.997-1.007-6.182-1.842-9.557l-2.604-10.269
		l1.627-0.362c0.705-0.114,1.362-0.16,1.97-0.138c0.304,0.011,0.75,0.11,1.34,0.295s1.206,0.418,1.851,0.699
		c1.521,0.617,2.503,0.934,2.947,0.95c0.444,0.017,0.989-0.185,1.636-0.606l1.261-0.901c0.659,0.515,1.266,0.906,1.816,1.172
		c0.552,0.265,1.26,0.414,2.124,0.446c0.794,0.029,1.581-0.059,2.36-0.264c0.711-0.255,1.531-0.646,2.464-1.173
		c0.173,0.381,1.604,1.802,4.299,4.262c1.198,1.12,1.856,1.975,1.975,2.564c0.792,3.911,1.616,6.959,2.472,9.141
		c1.006,2.54,2.492,5.343,4.463,8.408c0.066-1.822-0.012-3.684-0.234-5.586c-0.223-1.903-0.554-3.873-0.993-5.913
		c-0.439-2.039-0.924-3.963-1.454-5.771c-0.53-1.809-1.178-3.756-1.943-5.843c0.036-0.349,0.173-0.578,0.412-0.686
		c0.287-0.182,0.651-0.266,1.096-0.249c0.444,0.016,1.271,0.247,2.483,0.692c1.212,0.445,2.12,0.678,2.728,0.701
		c0.584,0.021,1.043-0.055,1.377-0.231c0.19-0.086,0.538-0.331,1.044-0.733c0.385,0.342,0.761,0.613,1.128,0.813
		c0.366,0.201,0.726,0.307,1.076,0.32l2.784-0.354l3.214-0.583L361.107,47.942z M330.35,42.955l0.536-0.261l0.1,0.144l-0.06-0.282
		l-1.041,0.628L330.35,42.955z M356.475,44.194l-5.396,0.785c-0.747-0.028-1.486-0.277-2.218-0.749
		c-0.741,0.441-1.509,0.647-2.303,0.618l-5.143-1.347c1.484,4.151,2.581,8.043,3.291,11.674c0.825,4.245,1.129,9.372,0.907,15.381
		l-0.398-0.577l-0.362,5.079c-1.623-2.307-3.344-5.437-5.163-9.39c-1.607-3.36-3.178-7.094-4.711-11.201
		c-1.325-3.42-2.509-6.835-3.553-10.245l-0.339-0.328l-0.337-0.364l-0.215,0.098c0.87,3.052,2.105,6.679,3.705,10.882
		c1.729,4.535,3.537,8.758,5.429,12.666c2.152,4.434,4.033,7.664,5.644,9.69c0.146-0.815,0.239-1.423,0.277-1.821
		c0.038-0.396,0.069-0.946,0.096-1.649c0.047-0.652,0.108-1.522,0.183-2.606c0.075-1.085,0.135-2.223,0.179-3.414
		c0.09-2.453-0.229-5.89-0.955-10.314c-0.727-4.423-1.809-8.731-3.244-12.924l4.494,0.867c0.279,0.01,0.632-0.035,1.057-0.137
		l1.064-0.312c0.18,0.195,0.523,0.371,1.033,0.53c0.254,0.079,0.509,0.136,0.766,0.168c0.256,0.033,0.489,0.053,0.699,0.061
		c0.279,0.01,0.579-0.002,0.896-0.038c0.317-0.035,0.734-0.089,1.251-0.164c1.036-0.173,1.939-0.245,2.71-0.216
		c-1.715,4.006-3.036,8.15-3.965,12.431c-0.929,4.281-1.466,8.395-1.61,12.342c-0.039,1.051-0.044,3.404-0.014,7.06
		c0.013,1.569-0.001,2.901-0.041,3.999c-0.06,1.611-0.003,3.251,0.17,4.918c0.086,0.822,0.271,2.186,0.551,4.09
		c-1.369-0.238-2.502-0.583-3.396-1.037c-0.985-0.551-1.974-1.301-2.967-2.249l-1.602,1.591c-1.354,1.236-2.556,1.836-3.605,1.797
		c-0.779-2.976-1.805-5.901-3.077-8.778c-0.994-2.211-2.279-4.765-3.855-7.66l-4.351-8.043l-1.247-2.361
		c-0.504-0.931-0.881-1.786-1.133-2.567l-1.523-4.406c-0.704-1.849-1.331-3.276-1.878-4.278c-0.903,2.914-1.554,5.995-1.954,9.242
		c-0.399,3.248-0.644,6.098-0.733,8.551c-0.045,1.215-0.033,2.472,0.036,3.772c0.069,1.301,0.184,2.644,0.344,4.03
		c0.388,2.797,0.769,4.529,1.142,5.199c0.326,0.666,0.734,1.189,1.224,1.57c0.487,0.38,1.07,0.583,1.749,0.607l1.867-0.248
		l0.111,0.812c-0.051,1.379-0.442,2.476-1.173,3.29c-0.732,0.814-1.717,1.2-2.954,1.154c-1.261-0.047-2.286-0.492-3.073-1.34
		c-0.674-0.773-1.163-1.762-1.47-2.967c-0.49,1.246-1.098,2.183-1.822,2.811c-0.847,0.764-1.878,1.124-3.092,1.079
		c-1.191-0.043-2.206-0.443-3.043-1.199c-0.836-0.802-1.241-1.565-1.214-2.29c0.027-0.77,0.133-1.41,0.315-1.918
		c0.183-0.507,0.37-0.852,0.564-1.031l1.724,0.836c0.391,0.178,0.668,0.27,0.831,0.275l0.356-0.127l0.283-0.061
		c1.47-1.209,2.548-3.473,3.23-6.793c0.453-2.158,0.732-4.661,0.837-7.511c0.054-1.448,0.036-2.898-0.051-4.352
		c-0.087-1.453-0.234-2.873-0.44-4.261c-0.406-2.938-0.996-5.988-1.769-9.15c-0.508-2.1-1.281-4.935-2.319-8.505l-0.092-0.354
		c0.12-0.089,0.273-0.13,0.46-0.123l1.193,0.008c0.652,0.024,1.718,0.344,3.191,0.959c1.475,0.616,2.503,0.934,3.087,0.956
		c0.585,0.021,1.12-0.082,1.608-0.31c0.487-0.227,0.878-0.523,1.172-0.886c0.569,0.419,1.138,0.726,1.703,0.922
		c0.566,0.196,1.234,0.308,2.005,0.336c0.42,0.016,0.801,0.007,1.142-0.028c0.34-0.034,0.675-0.08,1.005-0.138
		c0.708-0.185,1.349-0.442,1.923-0.772c-0.666,0.304-1.329,0.513-1.988,0.629c-0.66,0.116-1.351,0.161-2.075,0.134
		c-1.426-0.052-2.673-0.484-3.741-1.295l-1.188,0.799c-0.549,0.284-1.115,0.415-1.699,0.393c-0.606-0.022-1.637-0.346-3.087-0.973
		c-1.451-0.626-2.421-0.948-2.912-0.966l-1.158,0.028l-0.882,0.108l2.423,9.837c0.791,3.211,1.372,6.279,1.742,9.204
		c0.371,2.925,0.499,5.942,0.386,9.048c-0.106,2.897-0.345,5.216-0.712,6.956c-0.582,2.505-1.527,4.364-2.836,5.579l-0.854,0.354
		c-0.49-0.018-0.936-0.168-1.334-0.451c-0.399-0.284-0.767-0.644-1.102-1.076l-0.102-0.074c-0.412,0.383-0.698,0.857-0.859,1.425
		c-0.16,0.567-0.261,1.364-0.299,2.392c-0.038,1.052,0.336,2,1.124,2.848c0.834,0.826,1.859,1.261,3.074,1.307
		c1.261,0.045,2.304-0.179,3.13-0.675c0.825-0.496,1.51-1.178,2.057-2.047c0.434,0.929,1.044,1.675,1.829,2.242
		c0.786,0.567,1.751,0.87,2.896,0.913c1.168,0.043,2.236-0.379,3.204-1.268s1.468-1.777,1.501-2.664l-0.007-1.72l-0.841-1.013
		l-0.917,0.142c-0.141,0.019-0.353,0.058-0.636,0.117c-0.187-0.007-0.361-0.015-0.524-0.021c-0.374-0.013-0.743-0.179-1.105-0.496
		c-0.363-0.316-0.686-0.762-0.968-1.334c-0.284-0.571-0.615-2.219-0.994-4.947c-0.379-2.727-0.536-4.989-0.47-6.788l0.266-5.322
		c0.032-0.888,0.114-1.838,0.245-2.85c0.13-1.013,0.271-2.007,0.425-2.984c0.331-2.023,0.75-3.867,1.255-5.532
		c0.41,0.927,0.906,2.232,1.488,3.914c0.581,1.682,1.055,2.939,1.423,3.77l0.08-0.277l8.826,15.724
		c1.206,2.172,2.225,4.373,3.055,6.602c0.984,2.492,1.611,4.843,1.881,7.05c1.052,0.039,2.045-0.274,2.981-0.942
		c0.312-0.223,1.099-0.942,2.36-2.158c1.243,1.121,2.327,1.863,3.25,2.224c0.574,0.255,1.163,0.452,1.768,0.591
		c0.602,0.141,1.312,0.225,2.13,0.254c-0.361-2.912-0.558-4.545-0.592-4.897c-0.169-1.761-0.227-3.388-0.171-4.884
		c-0.147-3.022-0.142-6.696,0.018-11.022c0.077-2.104,0.247-4.192,0.511-6.267c0.264-2.074,0.622-4.203,1.076-6.387
		c0.982-4.458,2.388-8.633,4.214-12.522L356.475,44.194z M341.054,42.821c-0.28-0.01-0.481,0.047-0.603,0.172
		c1.529,4.207,2.682,8.184,3.456,11.931c0.89,4.452,1.25,8.945,1.084,13.475c-2.375-3.478-4.133-6.565-5.272-9.262
		c-1.142-2.696-2.136-6.165-2.986-10.405c-0.079-0.401-0.616-1.075-1.609-2.024c-0.79-0.777-1.389-1.349-1.797-1.715
		c-0.634-0.584-1.414-1.291-2.343-2.121l0.441,1.385l2.545,2.338c1.335,1.219,2.032,1.981,2.091,2.287
		c0.955,4.573,2.047,8.273,3.276,11.101c1.17,2.546,3.128,5.88,5.877,10.003c0.161-4.367-0.165-8.881-0.977-13.542
		c-0.736-4.143-1.885-8.547-3.443-13.211l5.572,1.081l1.024-0.173l1.135-0.344l1.135,0.63c0.299,0.133,0.693,0.209,1.185,0.227
		l2.639-0.212l2.925-0.356l0.065,0.143l0.42,0.015l-0.152,0.311l2.912,3.825c-0.153,1-0.634,2.292-1.439,3.876l-1.102,2.275
		c-1.116,3.631-1.993,7.294-2.631,10.989c-0.639,3.695-1.009,6.944-1.112,9.747c-0.098,2.662-0.024,5.121,0.221,7.375l0.808,6.66
		c0.313,2.326,0.441,4.25,0.385,5.768c-0.971-0.036-2.158-0.477-3.563-1.324c-0.815-0.496-1.864-1.248-3.146-2.255
		c-0.925,0.854-1.713,1.517-2.363,1.983c-0.967,0.689-1.876,1.158-2.731,1.408l-3.641-3.572l-0.113-0.776l-0.422-0.015l-1.144-4.393
		c-0.581-2.103-1.671-4.728-3.271-7.873l-4.764-8.703c-1.977-3.571-3.398-6.288-4.266-8.152c-1.234,5.554-1.855,8.459-1.866,8.716
		c-0.321,1.768-0.512,3.438-0.568,5.004c-0.028,0.749-0.03,1.434-0.005,2.055c0.022,0.623,0.061,1.203,0.11,1.744
		c0.168,1.153,0.42,2.24,0.757,3.26c0.851,0.406,1.546,0.936,2.082,1.588l0.636-0.082l0.12,0.531l0.085,0.563
		c0.58,0.746,1.064,1.56,1.454,2.438c0.497,1.072,0.729,2.132,0.689,3.183c-0.037,1.005-0.579,1.915-1.626,2.729
		c-1.047,0.815-2.097,1.203-3.147,1.166c-1.121-0.041-1.954-0.283-2.499-0.725c-0.342-0.27-0.835-0.859-1.479-1.773
		c-0.943,0.832-1.665,1.401-2.168,1.711c-0.909,0.551-1.936,0.806-3.08,0.764s-2.663-1.208-4.555-3.5
		c-1.893-2.291-2.82-3.939-2.783-4.943c0.038-1.027,0.177-1.795,0.418-2.3c0.24-0.506,0.546-1.032,0.917-1.58l0.243,0.079
		l0.066,0.072l1.24,0.642c0.482,0.252,0.884,0.431,1.208,0.536c1.061-0.219,1.967-1.652,2.719-4.303
		c0.753-2.65,1.197-5.844,1.334-9.581c0.067-1.845-0.021-3.9-0.265-6.167c-0.245-2.265-0.632-4.776-1.162-7.532
		c-0.928-4.665-2.075-9.092-3.441-13.282c0.449-0.149,0.839-0.247,1.169-0.292c0.329-0.045,0.797-0.057,1.403-0.034
		c0.678,0.024,1.76,0.339,3.246,0.943s2.497,0.916,3.035,0.936c0.607,0.022,1.139-0.122,1.595-0.433
		c0.19-0.109,0.565-0.435,1.123-0.976c0.613,0.498,1.196,0.871,1.748,1.117c0.438,0.18,0.809,0.281,1.111,0.304
		s0.583,0.039,0.841,0.048c0.771,0.028,1.497-0.026,2.181-0.162c0.684-0.137,1.229-0.356,1.639-0.659
		c-1.164,0.481-2.248,0.703-3.252,0.666c-0.958-0.035-1.754-0.183-2.389-0.446c-0.633-0.262-1.258-0.587-1.876-0.973l-1.221,0.762
		c-0.551,0.354-1.118,0.52-1.702,0.499c-0.561-0.021-1.579-0.339-3.052-0.954c-1.475-0.615-2.458-0.932-2.948-0.95l-1.371,0.065
		l-1.481,0.252l2.485,9.945c0.855,3.377,1.445,6.392,1.768,9.047c0.238,1.786,0.388,3.4,0.452,4.841
		c0.063,1.441,0.064,2.99,0.004,4.648c-0.107,2.92-0.357,5.285-0.751,7.095c-0.668,2.899-1.691,4.639-3.068,5.221
		c-0.326-0.059-0.692-0.242-1.103-0.549c-0.409-0.308-0.803-0.772-1.177-1.395c-0.672,0.443-1.161,1.048-1.47,1.818
		c-0.309,0.77-0.487,1.795-0.534,3.076c-0.048,1.305,0.598,2.844,1.936,4.619c1.136,1.535,2.563,2.801,4.281,3.797l0.894,0.479
		c0.323,0.135,0.787,0.214,1.396,0.236c0.561,0.021,1.258-0.188,2.093-0.625c0.477-0.263,1.209-0.773,2.195-1.533
		c0.487,0.744,1.023,1.277,1.608,1.603c0.584,0.326,1.448,0.511,2.593,0.552c1.167,0.043,2.342-0.416,3.524-1.379
		c1.18-0.963,1.795-2.098,1.843-3.406c0.049-1.33-0.555-3.037-1.811-5.117c-1.393-2.227-2.521-3.355-3.385-3.387l-0.55-3.177
		c-0.168-1.175-0.228-2.392-0.182-3.653c0.046-1.26,0.313-3.131,0.8-5.614l1.272-6.124l7.938,14.072
		c1.232,2.125,2.294,4.444,3.186,6.955c0.51,1.375,0.906,2.67,1.19,3.885c0.283,1.215,0.485,2.408,0.605,3.582l4.063,4.041
		c0.943-0.198,1.896-0.631,2.856-1.297c0.624-0.422,1.14-0.801,1.551-1.137c0.217-0.179,0.531-0.46,0.943-0.842
		c1.137,0.883,2.209,1.613,3.217,2.188c1.397,0.776,2.448,1.178,3.148,1.203c0.724,0.026,1.104-0.451,1.141-1.432
		c0.03-0.863-0.098-2.482-0.384-4.855l-0.842-6.696c-0.268-2.255-0.351-4.771-0.249-7.552c0.056-1.494,0.169-3.021,0.344-4.583
		c0.174-1.56,0.41-3.236,0.711-5.026c0.626-3.672,1.508-7.312,2.646-10.918l1.103-2.31c0.504-0.987,0.874-1.833,1.11-2.538
		c0.236-0.704,0.362-1.279,0.379-1.723l-3.648-4.764c-0.797,0.041-1.78,0.21-2.948,0.506c-1.169,0.296-1.987,0.435-2.454,0.418
		c-0.49-0.018-0.943-0.105-1.357-0.26l-1.101-0.637c-0.768,0.533-1.548,0.774-2.341,0.721l-3.439-0.933
		c-0.88-0.243-1.529-0.372-1.949-0.387l0.128,0.32L341.054,42.821z M302.901,84.566c-1.224-1.813-2.56-2.755-4.007-2.824
		c-0.217-2.326-0.762-4.621-1.637-6.887c-0.775-1.908-1.856-4.019-3.243-6.331c0.96-0.984,1.822-2.399,2.589-4.247
		c0.767-1.846,1.23-4.439,1.389-7.778c0.159-3.338-1.623-6.944-5.345-10.819c-3.723-3.874-7.254-5.891-10.592-6.05
		c-3.339-0.159-5.882-0.07-7.629,0.268c-1.347,0.287-2.875,0.682-4.584,1.185l-0.709,0.142c-0.166,0.039-0.412,0.05-0.738,0.035
		c-0.255-0.059-0.713-0.268-1.374-0.627l-1.464-0.948c-0.94,1.056-1.958,1.557-3.055,1.504c-1.028-0.049-2.323-0.368-3.887-0.957
		c-1.422-0.606-2.425-0.923-3.008-0.951c-0.514-0.024-0.949,0.025-1.306,0.149c-0.356,0.123-0.633,0.274-0.828,0.451
		c2.571,3.492,4.329,7.847,5.273,13.062c0.779,4.249,1.076,8.323,0.892,12.222c-0.18,3.759-0.469,6.634-0.868,8.627
		c-0.628,2.871-1.541,4.828-2.737,5.871l-0.397,0.262c-0.122,0.088-0.299,0.127-0.532,0.115c-0.21-0.011-0.554-0.166-1.031-0.471
		c-0.706-0.408-1.129-0.604-1.27-0.587c-0.119,0.019-0.278,0.181-0.48,0.485c-0.201,0.307-0.34,1.254-0.416,2.842
		c-0.074,1.564,0.567,3.572,1.925,6.023c1.595,2.86,3.349,4.336,5.264,4.428c1.937,0.092,3.56-0.205,4.868-0.891
		c1.308-0.688,2.381-1.479,3.22-2.375c1.099,0.989,2.127,1.752,3.084,2.288c1.21,0.644,2.48,0.996,3.811,1.06
		c1.378,0.065,2.518-0.418,3.422-1.451c0.902-1.033,1.391-2.32,1.465-3.861c0.072-1.541-0.277-3.031-1.051-4.473
		c-0.773-1.44-1.892-2.535-3.354-3.283c-0.17-0.852-0.225-1.906-0.165-3.167c0.063-1.283,0.529-2.513,1.405-3.688
		c1.048-1.377,2.226-2.035,3.533-1.973c1.331,0.064,2.331,1.656,3.002,4.776l1.074,6.157c0.231,1.041,0.473,1.879,0.723,2.51
		c0.251,0.633,0.483,1.146,0.699,1.543c0.215,0.396,0.432,0.752,0.65,1.066c1.053,1.478,2.094,2.709,3.123,3.693
		c1.566,1.502,2.676,2.27,3.33,2.3c0.7,0.033,1.16-0.173,1.381-0.618c0.22-0.447,0.378-0.701,0.476-0.768l0.356-0.123
		c0.141,0.006,0.751,0.434,1.834,1.281c1.083,0.847,2.137,1.295,3.165,1.344c1.05,0.05,2.144-0.307,3.28-1.072
		c1.282-0.875,1.96-2.094,2.035-3.658C304.535,87.838,304.016,86.233,302.901,84.566 M293.648,93.146
		c-0.253,0.386-0.799,0.558-1.64,0.519c-0.84-0.041-2.079-0.813-3.715-2.318c-1.009-0.938-2.127-2.254-3.356-3.951
		c-0.9-1.26-1.576-2.777-2.029-4.555c-0.177-0.709-0.442-2.25-0.798-4.617c-0.354-2.368-0.729-4.09-1.123-5.16l-0.452-0.829
		c-0.284-0.388-0.848-0.602-1.688-0.642c-0.84-0.04-1.7,0.563-2.578,1.807c-0.754,1.088-1.158,2.203-1.212,3.348
		c-0.052,1.073-0.011,1.941,0.121,2.603c1.453,0.935,2.578,2.112,3.377,3.53c0.797,1.418,1.156,2.992,1.073,4.72
		c-0.082,1.727-0.605,3.129-1.569,4.206c-1.111,1.211-2.355,1.783-3.732,1.718c-1.447-0.069-2.761-0.372-3.939-0.908
		c-1.18-0.534-2.251-1.259-3.214-2.171c-0.981,0.96-2.034,1.693-3.158,2.201c-1.293,0.617-2.967,0.876-5.021,0.777
		c-2.054-0.097-3.923-1.625-5.606-4.584c-1.513-2.621-2.23-4.773-2.149-6.455c0.081-1.703,0.292-2.822,0.633-3.356
		c0.343-0.533,0.652-0.793,0.934-0.78c0.348,0.064,0.67,0.172,0.967,0.327l1.505,0.81l0.326-0.195
		c1.118-0.883,1.957-2.773,2.516-5.671c0.397-1.947,0.688-4.834,0.87-8.663s-0.119-7.82-0.902-11.976
		c-1.014-5.266-2.842-9.612-5.486-13.037c0.791-0.875,1.629-1.291,2.517-1.249c0.91,0.043,2.117,0.364,3.621,0.962
		c1.504,0.598,2.618,0.915,3.342,0.949c0.724,0.035,1.375-0.121,1.953-0.468c0.578-0.347,1.043-0.781,1.396-1.302
		c0.313,0.295,0.589,0.519,0.827,0.671s0.472,0.292,0.7,0.419c0.771,0.505,1.273,0.763,1.507,0.774l0.597-0.007l0.567-0.113
		c1.187-0.364,2.112-0.63,2.775-0.798c0.663-0.167,1.301-0.306,1.915-0.417c1.726-0.362,4.327-0.461,7.807-0.295
		c3.453,0.165,7.115,2.258,10.983,6.28s5.719,7.772,5.553,11.25c-0.167,3.502-0.605,6.078-1.315,7.729
		c-0.605,1.399-1.447,2.856-2.525,4.372c1.298,2.215,2.314,4.205,3.05,5.972c0.505,1.194,0.889,2.335,1.152,3.424
		s0.431,2.126,0.501,3.112c1.44,0.232,2.752,1.296,3.938,3.189c1.185,1.894,1.738,3.645,1.661,5.256
		c-0.076,1.611-0.817,2.92-2.223,3.93c-1.307,0.921-2.556,1.354-3.747,1.296c-1.189-0.058-2.203-0.41-3.038-1.058l-1.964-1.498
		L293.648,93.146z M291.905,86.99l-0.064-0.109l-0.438-0.406l-0.97-0.994l-0.57-0.553c-0.217,0.13-0.551,0.5-1.001,1.109
		c-0.45,0.611-0.861,0.907-1.234,0.889c-0.398-0.019-0.629-0.064-0.696-0.137c-1.481-1.336-2.554-3.844-3.221-7.524
		c-0.957-4.96-1.604-7.856-1.938-8.692c-1.199-2.818-3.024-4.285-5.476-4.402c-2.429-0.116-4.221,0.653-5.375,2.306
		c-0.932,1.383-1.444,3.066-1.539,5.05c-0.097,2.008,0.133,3.832,0.687,5.474c0.738,2.188,1.538,3.301,2.402,3.344
		c0.887,0.041,1.497,0,1.831-0.125l1.041-0.476c0.101,0.332,0.168,0.64,0.202,0.923c0.033,0.281,0.036,0.702,0.01,1.264
		l-0.069,1.435c-0.07,1.495-1.169,2.19-3.293,2.091c-2.125-0.103-3.798-0.586-5.02-1.451c-1.224-0.865-2.04-1.893-2.451-3.082
		c-0.65,1.373-1.505,2.379-2.565,3.019s-2.349,0.923-3.865,0.851c-1.541-0.074-2.732-0.621-3.572-1.645
		c-0.465-0.561-0.816-1.186-1.051-1.875c-0.237-0.689-0.336-1.432-0.298-2.225l1.105,0.367c0.368,0.112,0.891,0.184,1.569,0.217
		c0.652,0.031,1.486-1.264,2.501-3.883c0.398-1.011,0.718-1.925,0.956-2.744c0.236-0.819,0.449-1.705,0.635-2.655
		c0.089-0.393,0.156-0.811,0.201-1.253c0.044-0.443,0.077-0.886,0.098-1.329l0.021-0.421l0.32-5.986
		c0.139-2.895-0.187-6.397-0.974-10.506c-0.914-4.863-2.475-8.938-4.681-12.226c0.928,0.162,2.17,0.489,3.726,0.985
		c1.556,0.495,2.637,0.757,3.244,0.786c0.56,0.027,1.103-0.064,1.627-0.273l1.403-0.705l1.582,0.672
		c0.872,0.346,1.437,0.525,1.693,0.537c0.304,0.014,0.564-0.044,0.781-0.174l5.076-1.197c1.751-0.407,3.887-0.551,6.408-0.431
		c2.613,0.125,5.407,1.416,8.379,3.874c3.331,2.756,4.926,5.64,4.781,8.652c-0.145,3.035-0.812,5.495-2.001,7.38
		c-0.988,1.591-2.396,3.127-4.221,4.607l1.11,1.001l1.248,1.077c1.544,1.477,2.646,3.355,3.311,5.632
		c0.222,0.736,0.599,2.639,1.132,5.705c0.393,2.078,0.91,3.472,1.556,4.181c0.156,0.147,0.882,0.388,2.177,0.718
		c1.295,0.331,1.924,0.87,1.889,1.617c-0.038,0.794-0.529,1.508-1.471,2.141c-0.943,0.635-1.858,0.93-2.745,0.887
		c-0.514-0.024-0.939-0.067-1.275-0.131c-0.336-0.063-0.666-0.148-0.987-0.258c-0.62-0.24-1.135-0.51-1.541-0.81l-0.097-0.181
		L291.905,86.99z M282.042,49.492c-1.323-1.701-2.978-2.599-4.961-2.694c-2.009-0.096-3.7,0.567-5.078,1.987
		c-1.379,1.42-2.115,3.122-2.209,5.106c-0.095,1.961,0.378,3.844,1.415,5.648c1.166,2.045,2.765,3.115,4.796,3.212
		c2.03,0.097,3.802-0.608,5.313-2.116c1.51-1.507,2.32-3.393,2.428-5.657C283.843,52.947,283.274,51.118,282.042,49.492
		 M280.57,60.109c-1.26,1.145-2.345,1.695-3.256,1.652c-0.91-0.044-1.572-0.145-1.986-0.305l-0.793-0.284l-0.368-1.843
		c-0.098-0.425-0.124-1.081-0.081-1.969c0.04-0.84,0.563-2.009,1.57-3.505c1.155-1.653,2.293-2.453,3.413-2.399
		c1.121,0.053,2.02,0.599,2.695,1.637c0.587,0.941,0.854,1.936,0.805,2.987C282.496,57.622,281.83,58.964,280.57,60.109
		 M280.14,59.58c1.114-1.046,1.697-2.107,1.748-3.181c0.052-1.097-0.159-2.072-0.632-2.925c-0.476-0.853-1.214-1.304-2.217-1.352
		c-0.491-0.023-0.974,0.153-1.447,0.528c-0.475,0.375-0.963,0.936-1.467,1.685c-0.883,1.315-1.344,2.416-1.387,3.303
		c-0.04,0.84-0.037,1.402,0.008,1.685c0.045,0.283,0.098,0.543,0.156,0.779c0.06,0.237,0.12,0.427,0.184,0.571l0.654,0.242
		l0.731,0.14C277.802,61.117,279.024,60.626,280.14,59.58 M274.849,61.959c0.252,0.106,0.834,0.18,1.744,0.224l0.386,0.018
		c0.561,0.027,1.17-0.131,1.83-0.474c0.659-0.343,1.332-0.837,2.018-1.483c1.423-1.36,2.168-2.775,2.238-4.246
		c0.071-1.471-0.31-2.682-1.142-3.634c-0.832-0.952-1.832-1.456-2.999-1.512c-1.238-0.059-2.44,0.75-3.608,2.425
		c-1.168,1.676-1.778,3.051-1.829,4.125c-0.012,0.257-0.022,0.607-0.031,1.051c-0.011,0.444,0.018,0.949,0.085,1.513
		c0.153,0.71,0.326,1.244,0.52,1.605L274.849,61.959z M281.896,50.328c0.953,1.59,1.383,3.377,1.289,5.361
		c-0.094,1.961-0.85,3.575-2.267,4.841c-1.418,1.266-2.99,1.858-4.718,1.775c-1.774-0.084-3.237-1.043-4.391-2.876
		c-1.041-1.711-1.518-3.5-1.429-5.368c0.092-1.914,0.765-3.526,2.021-4.835c1.256-1.309,2.806-1.919,4.65-1.832
		C279.177,47.496,280.792,48.474,281.896,50.328 M274.646,40.436c-0.709,0.153-1.342,0.293-1.897,0.418
		c-0.557,0.126-1.106,0.269-1.652,0.43l-1.709,0.515c-0.477,0.165-0.831,0.242-1.064,0.231l-1.519-0.529l-1.616-0.709
		c-0.947,0.727-1.876,1.069-2.787,1.025c-0.934-0.044-1.952-0.268-3.056-0.672l-2.069-0.765c-0.253-0.106-0.483-0.164-0.693-0.174
		c-0.207-0.08-0.502-0.141-0.887-0.182c-0.384-0.042-0.764-0.072-1.137-0.09l-0.25,0.094c2.475,3.534,4.175,7.873,5.1,13.018
		c0.741,4.084,1.018,8.11,0.828,12.078c-0.183,3.852-0.443,6.612-0.78,8.281c-0.48,2.223-1.216,4.143-2.205,5.756l-0.686,1.127
		c-0.397,0.495-0.771,0.734-1.122,0.717l-1.146-0.229l-1.521-0.528c-0.049,1.027,0.03,1.949,0.237,2.766
		c0.207,0.818,0.518,1.529,0.934,2.134c0.939,1.401,2.6,2.159,4.98,2.272c2.405,0.114,4.328-0.951,5.769-3.199
		c0.65,1.084,1.567,1.97,2.751,2.658s2.441,1.063,3.772,1.127c1.423,0.068,2.588-0.303,3.492-1.114
		c0.903-0.81,1.38-1.694,1.425-2.652c0.046-0.957,0.04-1.565-0.019-1.825l-0.268-0.996l-0.472-0.408l-0.973,0.515
		c-0.43,0.19-1.019,0.269-1.766,0.231c-0.771-0.037-1.458-1.086-2.061-3.151c-0.485-1.614-0.686-3.308-0.601-5.082
		c0.087-1.821,0.534-3.356,1.343-4.604c1.01-1.543,2.635-2.261,4.876-2.154c2.265,0.108,4.002,1.454,5.212,4.039
		c0.683,1.39,1.351,4.078,2.003,8.062c0.601,3.586,1.295,5.958,2.081,7.119l1.198,1.391c0.185,0.057,0.498,0.094,0.942,0.115
		c0.398-0.027,0.805-0.207,1.219-0.539c0.291-0.219,0.614-0.625,0.97-1.217l0.772,0.738l0.836,0.883l0.01-0.21l0.19,0.43
		c1.015,0.798,2.223,1.229,3.623,1.296c1.354,0.065,2.55-0.24,3.589-0.916c1.135-0.742,1.74-1.906,1.815-3.494
		c-0.914-0.955-1.803-1.455-2.666-1.496c-0.468-0.021-0.834-0.074-1.098-0.158c-0.266-0.082-0.431-0.16-0.498-0.233
		c-0.626-0.614-1.101-1.937-1.426-3.964c-0.511-3.02-0.909-4.968-1.195-5.848c-0.729-2.374-1.865-4.3-3.41-5.778l-0.907-0.815
		l-0.944-0.818c1.758-1.53,3.095-3.069,4.011-4.617c1.118-1.865,1.751-4.35,1.899-7.455c0.149-3.128-1.487-6.108-4.908-8.938
		c-3.175-2.608-6.922-4.016-11.241-4.222C277.319,40.071,276.109,40.177,274.646,40.436 M290.904,91.803
		c-0.637-0.393-1.313-0.945-2.026-1.658c-0.873-0.836-1.848-2.006-2.921-3.508c-1.477-1.942-2.507-4.869-3.092-8.782l-0.997-5.593
		l-0.156-0.393l-0.093-0.285c-0.148-0.311-0.387-0.586-0.715-0.824c-0.328-0.238-1.041-0.383-2.138-0.435
		c-1.097-0.053-2.207,0.655-3.33,2.122c-1.022,1.332-1.569,2.733-1.639,4.204c-0.07,1.471,0.015,2.633,0.255,3.486l0.475,0.339
		l0.853,0.532l0.287-0.127l0.185,0.535c1.795,1.607,2.647,3.379,2.554,5.316c-0.09,1.891-0.52,3.298-1.289,4.221
		c-0.77,0.922-1.818,1.352-3.149,1.288c-1.284-0.062-2.52-0.424-3.704-1.089c-0.888-0.51-1.914-1.331-3.076-2.463
		c-1.272,1.18-2.307,2.008-3.102,2.484c-1.276,0.759-2.86,1.092-4.751,1.002c-1.892-0.09-3.567-1.492-5.029-4.207
		c-1.27-2.328-1.869-4.229-1.798-5.7c0.065-1.401,0.226-2.294,0.478-2.681l1.126,0.687c0.41,0.229,1,0.362,1.771,0.399
		c0.77,0.037,1.606-1.314,2.51-4.057c0.902-2.74,1.466-6.458,1.689-11.15c0.226-4.739-0.093-9.095-0.956-13.067
		c-1.023-4.564-2.742-8.741-5.158-12.53l0.593,0.063c0.26-0.058,0.624-0.075,1.091-0.053c0.514,0.024,1.528,0.336,3.044,0.935
		c1.517,0.599,2.612,0.914,3.289,0.946c0.653,0.031,1.2-0.03,1.642-0.185c0.439-0.154,0.903-0.442,1.392-0.863l0.172,0.078
		l0.438-0.33c0.405,0.324,0.859,0.602,1.363,0.837c0.639,0.358,1.155,0.546,1.553,0.565c0.373,0.018,0.773-0.033,1.2-0.153
		l1.354-0.427c0.759-0.221,1.47-0.409,2.133-0.565c0.662-0.155,1.324-0.288,1.984-0.397c1.32-0.217,3.567-0.251,6.744-0.099
		c3.174,0.151,6.578,2.116,10.213,5.892c3.633,3.777,5.371,7.323,5.213,10.637c-0.157,3.292-0.614,5.774-1.372,7.446
		c-0.363,0.731-0.759,1.437-1.19,2.119c-0.506,0.795-1.008,1.52-1.507,2.174l2.344,4.569c0.812,1.631,1.41,3.051,1.798,4.263
		c0.306,0.95,0.532,1.821,0.683,2.612c0.148,0.791,0.205,1.584,0.168,2.377l0.875,0.042c1.121,0.053,2.212,0.96,3.275,2.718
		c0.998,1.64,1.466,3.112,1.403,4.419c-0.062,1.284-0.672,2.309-1.832,3.071c-1.038,0.676-1.977,0.993-2.817,0.954
		c-0.794-0.038-1.53-0.295-2.209-0.772c-1.561-1.149-2.455-1.767-2.686-1.848c-0.442-0.021-0.813,0.125-1.108,0.438
		c-0.343,0.312-0.523,0.678-0.543,1.098C292.127,92.405,291.541,92.196,290.904,91.803 M234.392,87.816
		c-0.021-0.059-0.043-0.111-0.064-0.16l-0.021,0.525l0.253-0.165C234.468,87.942,234.411,87.877,234.392,87.816 M246.993,80.957
		c1.164,1.803,1.716,3.476,1.65,5.017c-0.062,1.495-0.818,2.796-2.268,3.905c-1.45,1.109-2.864,1.635-4.241,1.578
		c-1.425-0.061-2.823-0.47-4.195-1.229l-3.386-2.107c-0.361,0.243-0.926,0.764-1.696,1.562c-0.771,0.799-1.926,1.165-3.467,1.101
		c-1.565-0.064-2.925-0.543-4.081-1.434l-3.193-2.52c-0.563,1.17-1.303,2.068-2.218,2.697c-0.915,0.628-1.91,0.92-2.983,0.875
		c-1.074-0.045-2.191-0.324-3.352-0.841s-2.195-1.075-3.104-1.675c-0.597,0.257-1.278,0.625-2.048,1.109
		c-1.226,0.791-2.702,1.149-4.431,1.077c-1.751-0.073-3.716-1.331-5.895-3.772c-2.18-2.442-3.236-4.422-3.174-5.939
		c0.065-1.542,0.318-2.712,0.762-3.513c0.441-0.8,0.996-1.304,1.659-1.509l1.659,1.438c0.776-0.107,1.515-0.428,2.216-0.961
		c0.92-0.732,1.782-1.809,2.591-3.225c2.093-3.632,3.679-7.987,4.756-13.064c0.897-4.15,1.417-7.883,1.556-11.199l0.272-7.357
		c0.039-0.934,0.049-1.74,0.031-2.42c-0.02-0.679-0.063-1.324-0.131-1.935c0.496-0.12,1.049-0.167,1.655-0.141
		c0.654,0.027,1.635,0.349,2.942,0.965c0.734,0.335,1.31,0.569,1.725,0.703c0.416,0.135,0.787,0.208,1.114,0.222
		c0.56,0.024,1.4-0.234,2.522-0.772l2.193-1.241c0.5,0.886,0.972,1.502,1.414,1.848c0.441,0.346,1.035,0.535,1.783,0.566
		c0.677,0.028,1.903-0.213,3.679-0.724c0.712-0.227,1.277-0.332,1.698-0.315l0.979,0.076c0.326,0.037,0.511,0.092,0.556,0.164
		l2.621,2.776c1.43,1.58,2.166,2.441,2.208,2.583c-0.038,0.327-0.072,0.734-0.104,1.224c-0.033,0.49-0.067,0.886-0.103,1.189
		c-0.406,3-0.644,5.318-0.711,6.953c-0.035,0.84-0.007,1.824,0.087,2.951c0.094,1.126,0.24,2.349,0.443,3.667
		c0.783,5.32,1.703,9.756,2.76,13.309c1.057,3.552,1.853,5.339,2.391,5.363c0.583,0.023,0.967-0.059,1.15-0.25
		s0.352-0.424,0.504-0.699C245.113,78.353,246.183,79.659,246.993,80.957 M223.077,77.256c-0.643,0.277-1.268,0.403-1.875,0.379
		l-0.301-0.364c-0.202-0.195-0.421-0.298-0.653-0.308c-0.233-0.01-0.486,0.155-0.758,0.494l-0.669,0.885
		c-0.663-0.379-1.082-0.834-1.258-1.368c-0.177-0.534-0.242-1.349-0.196-2.447c0.047-1.121,0.484-2.237,1.315-3.348
		c0.83-1.112,1.735-1.647,2.716-1.606c1.004,0.042,1.716,0.364,2.135,0.966c0.528,0.794,0.773,1.659,0.734,2.592
		c-0.038,0.91-0.129,1.679-0.272,2.305l-0.442,1.385C223.569,76.961,223.411,77.107,223.077,77.256 M223.412,75.131
		c0.088-0.418,0.141-0.849,0.159-1.293c0.034-0.816-0.052-1.558-0.258-2.221c-0.338-0.88-0.938-1.338-1.803-1.374
		c-0.864-0.036-1.651,0.464-2.36,1.498c-0.71,1.035-1.081,1.937-1.114,2.708l0.061,1.932c0.072,0.519,0.267,0.89,0.585,1.113
		l0.11-0.101c0.219-0.763,0.631-1.132,1.238-1.106c0.678,0.028,1.183,0.26,1.516,0.695l0.14,0.005l0.636-0.112l0.648-0.395
		C223.177,75.998,223.324,75.547,223.412,75.131 M222.754,53.084c-0.092-0.623-0.24-1.255-0.447-1.896
		c-0.56-1.707-1.296-2.58-2.206-2.618c-0.958-0.04-1.677,0.509-2.157,1.647c-0.479,1.138-0.757,2.582-0.83,4.334
		c-0.068,1.658-0.008,2.994,0.185,4.007c0.309,1.534,1.024,2.324,2.146,2.371c1.145,0.047,2.026-0.629,2.646-2.03
		c0.437-0.941,0.689-2.229,0.758-3.863C222.877,54.359,222.845,53.708,222.754,53.084 M221.799,51.588
		c0.348,1.185,0.495,2.431,0.44,3.738c-0.052,1.238-0.234,2.259-0.549,3.065c-0.547,1.334-1.265,1.982-2.151,1.945
		c-0.911-0.038-1.478-0.763-1.698-2.176c-0.154-0.825-0.196-2.031-0.13-3.62c0.062-1.494,0.279-2.783,0.652-3.867
		c0.44-1.034,0.977-1.538,1.607-1.512C220.764,49.194,221.374,50.004,221.799,51.588 M210.298,53.073
		c-0.284,2.327-0.646,4.534-1.083,6.621c-1.128,5.17-2.74,9.582-4.834,13.237c-0.656,1.143-1.41,2.117-2.263,2.923
		c-1.169,1.099-2.021,1.635-2.559,1.612c-0.584-0.023-1.078-0.221-1.484-0.588l-0.811-0.735c-0.338,0.243-0.688,0.638-1.05,1.185
		c-0.362,0.547-0.571,1.496-0.628,2.85c-0.056,1.332,0.891,3.185,2.839,5.558c1.947,2.375,3.727,3.595,5.338,3.662
		c1.634,0.067,2.905-0.124,3.813-0.578l2.979-1.595l3.228,1.679c1.124,0.515,2.189,0.793,3.193,0.835
		c0.981,0.041,1.924-0.288,2.831-0.986c0.906-0.699,1.559-1.637,1.959-2.813c0.48,0.278,1.649,1.122,3.509,2.532
		c1.406,1.041,2.764,1.59,4.071,1.645c1.354,0.057,2.335-0.172,2.941-0.686l2.05-2.018l0.354-0.092l0.234,0.291l0.005-0.141
		c0.399,0.531,1.424,1.205,3.074,2.023c0.939,0.461,1.722,0.785,2.345,0.975c0.624,0.19,1.251,0.299,1.881,0.324
		c1.121,0.047,2.345-0.416,3.673-1.391c1.326-0.973,2.02-2.148,2.077-3.527c0.058-1.377-0.387-2.8-1.331-4.266
		c-0.33-0.505-1.253-1.654-2.768-3.449c-0.391,0.358-0.969,0.521-1.74,0.489c-0.77-0.032-1.646-1.483-2.625-4.356
		c-0.71-2.041-1.422-4.889-2.134-8.544c-0.216-1.014-0.403-1.999-0.562-2.953c-0.16-0.954-0.329-2.09-0.507-3.407
		c-0.241-1.531-0.396-2.847-0.467-3.95c-0.071-1.102-0.083-2.214-0.036-3.335c0.053-0.722,0.109-1.486,0.166-2.291
		c0.056-0.805,0.104-1.662,0.142-2.573l0.579-3.765l-2.963-3.001c-0.717-0.755-1.252-1.397-1.604-1.927l-0.415-0.123
		c-0.726-0.03-1.749,0.138-3.074,0.504c-0.639,0.183-1.212,0.312-1.718,0.384c-0.506,0.073-0.935,0.101-1.284,0.087
		c-0.654-0.028-1.319-0.219-1.994-0.575c-0.675-0.355-1.174-0.867-1.497-1.536l-2.081,1.106c-1.002,0.45-1.806,0.662-2.413,0.636
		c-0.607-0.025-1.582-0.341-2.925-0.947c-1.344-0.605-2.225-0.917-2.646-0.935c-0.468-0.019-0.83,0.001-1.091,0.06L210.98,38.4
		l-0.074,0.102l0.026,3.58l-0.046,3.612C210.778,48.287,210.583,50.747,210.298,53.073 M223.903,76.396
		c0.247-0.609,0.393-1.416,0.435-2.421c0.042-1.003-0.048-2.212-0.271-3.625c0.242,0.361,0.434,0.837,0.572,1.427
		c0.145,0.451,0.217,0.828,0.216,1.132s-0.006,0.573-0.016,0.808c-0.029,0.699-0.126,1.351-0.292,1.951l-0.523,1.592l-0.505,0.33
		l-0.505,0.33C223.359,77.514,223.655,77.006,223.903,76.396 M223.015,77.92l-0.366,0.371c-0.216,0.131-0.383,0.194-0.499,0.189
		l-0.454-0.055l-0.622-0.235C221.915,78.226,222.562,78.135,223.015,77.92 M221.073,78.19l-0.21-0.009l-0.101-0.109L221.073,78.19z
		 M196.557,77.974c-0.152,0.274-0.243,0.476-0.271,0.603s-0.05,0.355-0.063,0.682l0.063,1.021l0.179,0.779
		c-0.278-0.62-0.405-1.222-0.381-1.806c0.015-0.351,0.036-0.606,0.067-0.77c0.029-0.162,0.071-0.313,0.124-0.451l0.738-0.881
		L196.557,77.974z M197.012,77.15l0.219-0.201l0.61,0.516L197.012,77.15z M198.588,78.059l-0.747-0.594l0.688,0.311l0.693,0.204
		L198.588,78.059z M199.816,78.039l-0.352,0.021l-0.242-0.08l0.848-0.14L199.816,78.039z M211.602,38.671
		c-0.142,0.041-0.205,0.132-0.187,0.273c-0.006,0.117,0.008,1.755,0.04,4.914c0.014,1.357-0.006,2.655-0.058,3.892
		c-0.082,1.962-0.258,3.926-0.527,5.891c-0.269,1.965-0.637,4.038-1.101,6.217c-1.132,5.24-2.756,9.698-4.875,13.376
		c-0.68,1.164-1.35,2.083-2.01,2.758c-0.857,0.924-1.795,1.539-2.814,1.848c2.688-2.181,4.867-5.071,6.538-8.674
		c1.435-2.981,2.521-6.597,3.26-10.847c0.574-3.11,0.916-5.973,1.025-8.589c0.014-0.888,0.029-1.823,0.047-2.805
		c0.019-0.981,0.052-2.079,0.104-3.294l-0.063-5.23l0.613-0.396L211.602,38.671z M211.596,37.969l0.009-0.21l0.211-0.026l0.245,0.01
		L211.596,37.969z M228.054,39.604c0.543-0.118,0.908-0.184,1.096-0.2c0.188-0.015,0.48-0.015,0.877,0.001l0.135,0.146l-0.03-0.106
		c0.091,0.051,0.3,0.083,0.628,0.096l0.981,0.006l-0.323,2.724l-0.271,5.637c-0.117,2.803,0.039,6.201,0.469,10.196
		c0.431,3.994,1.228,7.712,2.395,11.152c1.397,4.037,3.206,7.515,5.424,10.437c0.513,0.583,1.015,0.885,1.506,0.905
		c0.303,0.013,0.573,0.001,0.809-0.036c0.234-0.037,0.482-0.085,0.742-0.145l1.324-0.611c0.104,0.309,0.166,0.504,0.187,0.587
		c0.02,0.083,0.043,0.235,0.068,0.459s0.032,0.487,0.02,0.79l-0.03,0.736c-0.033,0.77-0.719,1.514-2.058,2.229
		c-1.15,0.63-2.473,0.914-3.967,0.853c-1.494-0.063-2.898-0.602-4.213-1.615c-1.134-0.866-2.138-2.043-3.011-3.529l-2.585,3.085
		c-1.001,1.011-2.226,1.485-3.673,1.425c-1.472-0.061-2.623-0.641-3.454-1.74c-0.831-1.099-1.216-2.383-1.155-3.855l0.483-0.646
		l0.553,0.198l0.451,0.125c0.253,0.104,0.601,0.165,1.045,0.185c0.444,0.018,0.969-0.51,1.575-1.584
		c0.531-0.938,0.835-2.34,0.913-4.207c0.079-1.893-0.221-3.706-0.896-5.441c-0.974-2.45-2.616-3.724-4.928-3.82
		c-2.335-0.098-4.149,1.055-5.443,3.457c-1.063,1.967-1.637,3.92-1.718,5.858c-0.082,1.961,0.162,3.387,0.734,4.276
		c0.681,1.035,2.248,1.603,4.699,1.705c-0.227,1.512-0.625,2.641-1.193,3.389c-0.741,0.951-1.801,1.398-3.179,1.341
		c-1.401-0.06-2.588-0.513-3.558-1.358c-0.971-0.849-1.708-1.961-2.211-3.339l-2.467,2.774c-1.065,0.845-2.018,1.249-2.858,1.214
		s-1.47-0.097-1.887-0.185l-1.216-0.295l-1.382-1.356c-0.56-0.608-0.823-1.298-0.791-2.067c0.033-0.795,0.208-1.338,0.524-1.629
		c0.227,0.174,0.593,0.354,1.101,0.537c0.506,0.186,0.923,0.285,1.251,0.298c0.375-0.03,0.914-0.347,1.618-0.95l1.538-1.549
		c2.152-2.248,3.869-4.997,5.151-8.242c1.281-3.244,2.222-6.725,2.822-10.443c0.279-1.649,0.517-3.288,0.714-4.918
		c0.197-1.629,0.33-3.272,0.399-4.931c0.041-0.98,0.01-2.478-0.094-4.495c-0.103-2.016-0.134-3.502-0.094-4.46
		c0.076-0.137,0.255-0.235,0.538-0.293l0.845-0.07c0.302,0.06,1.01,0.317,2.126,0.773c1.115,0.456,1.977,0.696,2.584,0.722
		c0.351,0.014,0.696-0.006,1.038-0.062c0.341-0.056,0.654-0.136,0.939-0.242c0.737-0.296,1.479-0.675,2.223-1.135
		c0.784,0.828,1.291,1.294,1.521,1.397c0.364,0.203,0.805,0.314,1.318,0.336C225.201,40.116,226.308,39.953,228.054,39.604
		 M231.761,39.058l-0.138-0.041c-0.748-0.031-1.762,0.137-3.039,0.505c-0.64,0.183-1.206,0.312-1.7,0.385
		c-0.495,0.073-0.917,0.102-1.268,0.087c-0.7-0.029-1.384-0.198-2.049-0.506c-0.709-0.404-1.251-0.871-1.626-1.402
		c-0.861,0.479-1.531,0.814-2.007,1.004c-0.928,0.383-1.661,0.562-2.198,0.54c-0.514-0.021-1.219-0.203-2.117-0.545l-3.559-1.341
		c0.143-0.041,0.377-0.055,0.704-0.041c0.327,0.014,0.995,0.252,2.005,0.715c0.552,0.234,0.956,0.356,1.213,0.367
		c0.435,0.252,1.001,0.393,1.702,0.422c0.7,0.029,1.431-0.116,2.193-0.435c0.477-0.214,1.184-0.617,2.121-1.21l1.175,1.278
		c0.474,0.417,0.967,0.636,1.48,0.658c0.537,0.022,1.679-0.141,3.424-0.489c0.544-0.117,0.908-0.184,1.097-0.2
		c0.188-0.015,0.479-0.015,0.877,0.002l0.234,0.255l0.008-0.175l2.102,0.088l-0.101,0.733L231.761,39.058z M242.446,79.784
		c-0.31,0.128-0.529,0.201-0.659,0.218c-0.129,0.019-0.356,0.021-0.684,0.008c-0.468-0.021-0.867-0.248-1.2-0.682
		c-2.268-2.832-4.055-6.24-5.361-10.225c-1.146-3.393-1.942-7.286-2.391-11.679c-0.22-2.021-0.355-3.792-0.409-5.315
		s-0.046-3.113,0.023-4.771c0.019-0.444,0.149-2.169,0.392-5.177c0.049-0.606,0.095-1.422,0.138-2.45l1.884,1.938
		c0.766,0.711,1.393,1.38,1.881,2.008c-0.176,0.859-0.304,1.538-0.383,2.037c-0.079,0.5-0.131,1.03-0.154,1.59l-0.262,3.744
		c-0.008,0.21-0.004,0.813,0.013,1.807c0.017,0.995,0.013,1.785-0.012,2.368c0.081,1.431,0.23,2.882,0.45,4.352
		c0.22,1.472,0.414,2.696,0.584,3.674c0.169,0.978,0.341,1.915,0.514,2.811c0.736,3.657,1.503,6.578,2.301,8.762
		c1.117,2.925,2.049,4.402,2.797,4.433c0.817,0.034,1.441-0.045,1.87-0.237l0.067,0.073L242.446,79.784z M243.845,79.071
		l0.358-0.196l0.208,0.887L243.845,79.071z M234.718,86.726c-0.47,0.05-1.134,0.543-1.992,1.478c-0.858,0.936-1.94,1.375-3.248,1.32
		c-1.331-0.055-2.733-0.641-4.207-1.754c-1.927-1.484-3.188-2.355-3.786-2.614c-0.645,1.446-1.212,2.405-1.699,2.876
		c-0.781,0.786-1.661,1.159-2.643,1.118c-0.911-0.038-2.056-0.343-3.436-0.916c-1.308-0.616-2.268-1.147-2.881-1.594
		c-0.561-0.023-1.425,0.35-2.591,1.12c-1.167,0.771-2.463,1.125-3.887,1.065c-1.401-0.059-2.977-0.967-4.729-2.724
		c-1.614-1.658-2.668-3.34-3.157-5.044c0.279,0.573,0.655,1.092,1.128,1.556l0.915,0.775l1.563,0.381l1.853,0.184
		c0.771,0.031,1.648-0.283,2.636-0.943c0.625-0.396,1.465-1.202,2.521-2.422c0.446,1.096,1.231,2.035,2.356,2.818
		c1.125,0.784,2.342,1.203,3.65,1.258c1.261,0.053,2.291-0.267,3.092-0.959c0.899-0.828,1.542-2.474,1.926-4.937
		c-2.149-0.091-3.554-0.336-4.215-0.738c-0.98-0.625-1.425-2.001-1.337-4.126c0.089-2.124,0.604-4.103,1.547-5.935
		c1.219-2.312,2.704-3.431,4.456-3.358c1.773,0.074,3.105,0.668,3.995,1.781c0.779,0.945,1.286,2.264,1.519,3.958
		c-0.572-0.866-1.43-1.323-2.574-1.371c-1.168-0.049-2.258,0.573-3.271,1.864c-0.915,1.178-1.399,2.421-1.454,3.728
		c-0.052,1.261,0.038,2.179,0.271,2.749c0.319,0.738,0.963,1.327,1.927,1.764l0.957-1.082l0.044-0.209l0.148-0.203l0.143-0.03
		c0.251,0.128,0.42,0.299,0.504,0.513l-0.553-0.199l-0.854,1.123c-0.07,1.682,0.314,3.125,1.153,4.328
		c0.95,1.327,2.173,2.021,3.667,2.083c1.518,0.063,2.832-0.313,3.942-1.133c0.772-0.576,1.645-1.569,2.615-2.979
		c1.016,1.471,2.045,2.565,3.091,3.287c1.343,0.922,2.783,1.416,4.324,1.479c1.588,0.065,2.994-0.261,4.217-0.981
		c1.486-0.873,2.248-1.742,2.284-2.606c0.037-0.888,0.026-1.462-0.033-1.722l-0.205-0.99c1.025,1.213,1.702,2.105,2.029,2.681
		c0.678,1.128,0.992,2.287,0.942,3.478c-0.05,1.215-0.667,2.242-1.849,3.082c-1.181,0.84-2.309,1.236-3.383,1.191
		c-1.051-0.044-2.046-0.296-2.985-0.756c-0.734-0.357-2.011-1.16-3.829-2.406l0.151,0.568L234.718,86.726z M234.718,86.726
		c-0.47,0.05-1.134,0.543-1.992,1.478c-0.858,0.936-1.94,1.375-3.248,1.32c-1.331-0.055-2.733-0.641-4.207-1.754
		c-1.927-1.484-3.188-2.355-3.786-2.614c-0.645,1.446-1.212,2.405-1.699,2.876c-0.781,0.786-1.661,1.159-2.643,1.118
		c-0.911-0.038-2.056-0.343-3.436-0.916c-1.308-0.616-2.268-1.147-2.881-1.594c-0.561-0.023-1.425,0.35-2.591,1.12
		c-1.167,0.771-2.521,1.123-4.062,1.059c-1.495-0.063-3.236-1.217-5.225-3.464c-1.987-2.247-2.955-4.013-2.9-5.297
		c0.051-1.237,0.164-1.981,0.338-2.231l0.844-0.877c0.61,0.516,1.274,0.86,1.992,1.03l0.848-0.14l1.314-1.209l0.769-0.774
		c-0.439,0.45-0.977,0.831-1.608,1.144c-0.634,0.313-1.09,0.463-1.37,0.451c-0.327-0.014-0.693-0.205-1.1-0.572l-0.811-0.735
		c-0.338,0.243-0.688,0.638-1.05,1.185c-0.362,0.547-0.571,1.496-0.628,2.85c-0.056,1.332,0.891,3.185,2.839,5.558
		c1.947,2.375,3.727,3.595,5.338,3.662c1.634,0.067,2.905-0.124,3.813-0.578l2.979-1.595l3.228,1.679
		c1.124,0.515,2.189,0.793,3.193,0.835c0.981,0.041,1.924-0.288,2.831-0.986c0.906-0.699,1.559-1.637,1.959-2.813
		c0.48,0.278,1.649,1.122,3.509,2.532c1.406,1.041,2.764,1.59,4.071,1.645c1.354,0.057,2.335-0.172,2.941-0.686l2.05-2.018
		l0.354-0.092l0.234,0.291l0.005-0.141c0.399,0.531,1.424,1.205,3.074,2.023c0.939,0.461,1.722,0.785,2.345,0.975
		c0.624,0.19,1.251,0.299,1.881,0.324c1.121,0.047,2.345-0.416,3.673-1.391c1.326-0.973,2.02-2.148,2.077-3.527
		c0.058-1.377-0.387-2.8-1.331-4.266c-0.33-0.505-1.253-1.654-2.768-3.449c-0.391,0.358-0.969,0.521-1.74,0.489
		c-0.77-0.032-1.646-1.483-2.625-4.356c-0.71-2.041-1.422-4.889-2.134-8.544c-0.216-1.014-0.403-1.999-0.562-2.953
		c-0.16-0.954-0.329-2.09-0.507-3.407c-0.241-1.531-0.396-2.847-0.467-3.95c-0.071-1.102-0.083-2.214-0.036-3.335
		c0.053-0.722,0.109-1.486,0.166-2.291c0.056-0.805,0.104-1.662,0.142-2.573l0.579-3.765l-2.963-3.001
		c-0.717-0.755-1.252-1.397-1.604-1.927l-0.415-0.123l-1.407,0.082c-0.424,0.052-0.92,0.172-1.489,0.359l1.23-0.054l0.234,0.255
		l0.113-0.17l1.996,0.083l-0.101,0.733l1.884,1.938c0.766,0.711,1.393,1.38,1.881,2.008c-0.176,0.859-0.304,1.538-0.383,2.037
		c-0.079,0.5-0.131,1.03-0.154,1.59l-0.262,3.744c-0.008,0.21-0.004,0.813,0.013,1.807c0.017,0.995,0.013,1.785-0.012,2.368
		c0.081,1.431,0.231,2.864,0.452,4.3c0.439,2.919,0.785,5.015,1.036,6.289c0.734,3.68,1.5,6.636,2.296,8.868
		c1.091,3.016,2.044,4.541,2.861,4.575s1.441-0.045,1.87-0.237l0.067,0.073l0.358-0.196l0.208,0.887
		c1.025,1.213,1.702,2.105,2.029,2.681c0.678,1.128,0.992,2.287,0.942,3.478c-0.05,1.215-0.667,2.242-1.849,3.082
		c-1.181,0.84-2.309,1.236-3.383,1.191c-1.051-0.044-2.046-0.296-2.985-0.756c-0.734-0.357-2.011-1.16-3.829-2.406l0.151,0.568
		L234.718,86.726z M172.227,48.939l-0.398-0.039c-1.423-0.008-2.399,2.121-2.933,6.387c-0.277,2.001-0.425,4.666-0.445,7.995
		c-0.006,1.013,0.043,2.847,0.148,5.501c0.042,1.062,0.061,1.991,0.056,2.787c0.203,2.389,0.459,3.862,0.771,4.419
		c0.215,0.363,0.604,0.661,1.17,0.894c0.564,0.232,1.331,0.352,2.296,0.357c0.989,0.006,1.884-0.314,2.683-0.961
		c-0.166-0.387-0.396-1.13-0.691-2.23c-0.295-1.099-0.44-2.13-0.435-3.095c0.006-0.989,0.676-2.023,2.01-3.1
		c1.333-1.078,2.711-1.612,4.135-1.604c0.796,0.005,1.488,0.094,2.079,0.266c0.59,0.172,1.148,0.429,1.678,0.77
		c0.721,0.463,1.955,1.736,3.704,3.821c1.749,2.086,2.813,3.515,3.195,4.289c0.31,0.653,0.463,1.342,0.458,2.065
		c-0.005,0.699-0.258,1.693-0.76,2.98c-0.503,1.288-0.755,2.186-0.758,2.691c-0.003,0.435,0.055,0.857,0.173,1.268l0.393,1.016
		c-0.003,0.627-0.104,1.351-0.303,2.17c-0.222,0.771-0.551,1.287-0.985,1.549l-2.706-1.354c-0.746-0.39-1.36-0.587-1.842-0.59
		l-6.603,2.711c-2.056,0.832-4.229,1.241-6.521,1.228c-1.135-0.006-2.304-0.158-3.508-0.455s-2.408-0.715-3.61-1.252
		c-2.503-1.196-4.773-2.791-6.812-4.78c-3.237-3.228-5.615-6.993-7.134-11.296c-1.424-3.989-2.12-8.553-2.089-13.691
		c0.03-5.138,0.768-9.669,2.215-13.593c1.79-4.862,4.635-8.548,8.534-11.058c2.203-1.458,4.391-2.181,6.562-2.168
		c2.195,0.013,4.094,0.284,5.695,0.812s3.134,1.267,4.601,2.216c0.968-0.597,1.973-1.11,3.013-1.538
		c1.306-0.499,2.453-0.745,3.441-0.739l2.88,2.731c1.077,1.213,1.614,2.205,1.609,2.977c-0.004,0.772-0.264,1.904-0.78,3.397
		c-0.244,0.698-0.369,1.36-0.373,1.987c-0.004,0.579,0.337,2.126,1.021,4.638c0.331,1.112,0.493,2.319,0.485,3.622
		c-0.007,1.206-0.714,2.36-2.119,3.461c-1.31,1.006-2.458,1.505-3.447,1.499l-1.99-0.048l-0.65-0.076l-0.181-0.073
		c-1.273-0.804-2.39-1.739-3.349-2.807c-1.03-1.164-1.891-2.435-2.582-3.815l-0.357-0.942L172.227,48.939z M176.96,68.362
		c-1.212,0.958-1.822,2.161-1.83,3.608l1.203,4.495c-0.972,0.983-2.023,1.472-3.157,1.465c-1.109-0.006-1.989-0.12-2.64-0.342
		c-0.843-0.295-1.431-0.769-1.765-1.422c-0.214-0.435-0.397-1.021-0.55-1.758c-0.153-0.736-0.227-1.624-0.22-2.661
		c-0.182-2.051-0.261-4.947-0.237-8.686c0.021-3.522,0.182-6.296,0.483-8.32c0.678-4.362,1.511-6.541,2.5-6.535
		c1.036,0.006,1.676,0.071,1.917,0.192l2.648,4.757c1.124,1.623,2.503,2.934,4.138,3.932l0.724,0.113
		c0.892,0.005,1.707-0.086,2.443-0.275c0.737-0.188,1.421-0.462,2.051-0.82c1.453-0.908,2.183-1.989,2.189-3.244
		c0.004-0.651-0.063-1.363-0.204-2.136c-0.14-0.772-0.329-1.558-0.564-2.355c-0.496-1.74-0.743-2.9-0.739-3.478l0.153-1.447
		l0.259-0.975l0.184-0.578l0.295-0.903c0.173-0.482,0.261-1.048,0.265-1.699c0.004-0.652-0.475-1.499-1.434-2.542l-2.626-2.476
		c-0.507,0.045-1.051,0.138-1.63,0.28c-0.58,0.141-1.147,0.318-1.704,0.532c-1.232,0.451-2.177,0.989-2.832,1.612
		c-1.489-1.022-3.017-1.803-4.582-2.344c-1.564-0.539-3.07-0.814-4.518-0.823c-1.4-0.008-2.74,0.165-4.021,0.519
		c-1.28,0.355-2.405,0.854-3.374,1.5c-3.803,2.462-6.573,6.064-8.314,10.806c-1.398,3.828-2.112,8.274-2.142,13.34
		c-0.03,4.994,0.643,9.461,2.019,13.401c1.518,4.279,3.848,7.972,6.99,11.078c2.015,1.966,4.23,3.498,6.648,4.599
		s4.664,1.657,6.739,1.669c2.099,0.012,4.066-0.326,5.904-1.014l4.173-1.894c0.726-0.358,1.348-0.618,1.868-0.784
		c0.52-0.166,0.924-0.248,1.214-0.246c0.554,0.002,1.313,0.236,2.274,0.701l2.129,1.17l0.366-0.758l0.221-0.506l0.039-0.47
		l0.15-1.048c-0.215-0.34-0.364-0.696-0.446-1.071c-0.083-0.374-0.121-0.838-0.118-1.394c0.004-0.53,0.256-1.457,0.759-2.781
		c0.502-1.324,0.756-2.348,0.76-3.071c0.005-0.819-0.423-1.812-1.285-2.976l-2.264-2.654c-0.671-0.801-1.282-1.515-1.833-2.146
		c-0.455-0.533-0.768-0.873-0.935-1.019c-1.2-1.02-2.439-1.534-3.718-1.542C179.514,66.93,178.172,67.405,176.96,68.362
		 M171.152,34.893c-1.421-0.491-3.12-0.742-5.098-0.754c-1.881-0.011-3.864,0.641-5.946,1.955c-3.681,2.27-6.367,5.8-8.06,10.59
		c-1.374,3.804-2.071,7.467-2.092,10.989c-0.021,3.473,0.061,5.923,0.245,7.347c0.185,1.425,0.358,2.547,0.522,3.368
		c0.164,0.822,0.34,1.594,0.529,2.319c-0.496-1.643-0.849-3.334-1.056-5.072c-0.207-1.738-0.303-3.838-0.288-6.298
		c0.016-2.533,0.175-4.872,0.477-7.017c0.427-2.82,1.104-5.301,2.034-7.443c1.125-2.477,2.645-4.628,4.562-6.45
		c1.48-1.39,3.019-2.466,4.615-3.229c1.862-0.857,4.024-1.279,6.485-1.264c2.508,0.015,4.915,0.97,7.22,2.865
		C174.028,35.971,172.646,35.335,171.152,34.893 M175.879,37.309l-0.576-0.51l0.685,0.439L175.879,37.309z M179,35.843
		c-1.09,0.501-1.997,1.026-2.725,1.576l-0.288-0.182l2.723-1.432c1.162-0.572,2.236-0.855,3.226-0.849
		C180.922,35.145,179.942,35.439,179,35.843 M182.262,34.958l0.47,0.003l-0.075,0.398L182.262,34.958z M176.099,51.929
		c0.59,0.221,1.307,0.333,2.151,0.338c0.917,0.006,1.963-0.5,3.14-1.519c1.175-1.018,1.767-2.082,1.774-3.192
		c0.006-1.085-0.211-2.383-0.647-3.894c-0.437-1.51-0.654-2.615-0.649-3.314c0.005-0.652,0.131-1.616,0.38-2.893
		c0.073-0.289,0.159-0.644,0.259-1.066c0.099-0.421,0.149-0.765,0.15-1.03l2.519,2.511c0.479,0.655,0.717,1.247,0.713,1.778
		c-0.002,0.483-0.077,0.904-0.224,1.265l-0.331,0.903L185,43.044c-0.125,0.578-0.199,0.964-0.225,1.157
		c-0.025,0.193-0.039,0.482-0.042,0.868c-0.003,0.531,0.25,1.648,0.758,3.351c0.51,1.704,0.761,3.099,0.754,4.184
		c-0.007,1.062-0.591,2.011-1.754,2.849c-1.066,0.766-2.227,1.144-3.48,1.137c-1.279-0.008-2.529-0.654-3.752-1.94
		c-0.887-0.898-1.737-2.061-2.548-3.489C175.047,51.453,175.509,51.708,176.099,51.929 M174.281,50.217l0.43,0.944
		c-0.504-0.486-0.754-1.09-0.749-1.814L174.281,50.217z M164.854,71.583c-0.427-1.256-0.757-2.501-0.991-3.733
		c-0.233-1.231-0.346-2.607-0.337-4.127c-0.067-0.82-0.11-1.749-0.128-2.787c-0.018-1.037-0.022-2.171-0.016-3.402
		c0.014-2.436,0.195-4.69,0.547-6.763c0.474-2.675,1.174-4.757,2.1-6.248c1.218-1.922,2.586-2.879,4.106-2.87
		c1.566,0.009,2.687,0.462,3.356,1.359c0.67,0.896,1.001,1.96,0.994,3.19l-0.524,3.145c-0.311-0.653-0.562-1.077-0.753-1.271
		c-0.336-0.315-1.047-0.477-2.133-0.483c-1.109-0.007-2.033,1.29-2.772,3.891s-1.121,5.989-1.146,10.162
		c-0.01,1.616,0.003,3.389,0.041,5.319c0.036,1.931,0.055,3.053,0.053,3.366c-0.011,1.737,0.126,3.203,0.407,4.399
		c0.282,1.195,0.615,2,0.999,2.412C166.975,76.119,165.708,74.267,164.854,71.583 M174.911,78.14
		c-0.677,0.272-1.426,0.407-2.245,0.401c-0.772-0.004-1.531-0.129-2.277-0.375c-0.747-0.244-1.324-0.586-1.731-1.023
		c1.105,0.683,2.201,1.027,3.287,1.033c1.062,0.006,1.979-0.084,2.751-0.273c0.798-0.26,1.463-0.57,1.996-0.929
		C176.182,77.478,175.589,77.866,174.911,78.14 M179.389,67.727c2.146,0.012,3.718,0.42,4.715,1.222
		c0.996,0.802,1.491,1.758,1.484,2.867c-0.006,1.086-0.219,2.128-0.633,3.127c-0.418,0.998-0.977,1.797-1.68,2.396
		c0.071,0.194,0.178,0.424,0.321,0.689c0.143,0.268,0.358,0.643,0.645,1.126c0.86,1.38,1.287,2.577,1.281,3.59
		c-1.493-0.538-2.89-0.813-4.191-0.821c-1.256-0.006-4.069,0.567-8.442,1.724c-1.112,0.308-2.217,0.519-3.315,0.631
		c-1.098,0.115-2.358,0.167-3.781,0.159c-2.679-0.016-5.408-1.323-8.191-3.921c-2.423-2.259-4.251-5.332-5.482-9.224
		c-1.089-3.408-1.623-6.836-1.603-10.286c0.02-3.257,0.205-6.18,0.559-8.772c0.354-2.591,0.982-4.921,1.888-6.991
		c1.1-2.454,2.584-4.567,4.453-6.342c1.431-1.39,2.896-2.443,4.396-3.158c1.669-0.81,3.372-1.21,5.109-1.2
		c1.713,0.01,3.333,0.322,4.861,0.934c1.528,0.612,2.855,1.452,3.983,2.52l2.868-1.466c1.233-0.644,2.356-0.963,3.371-0.957
		l-0.373,1.771c-0.248,1.205-0.375,2.229-0.38,3.073c-0.005,0.796,0.212,1.907,0.649,3.333c0.438,1.427,0.653,2.67,0.647,3.731
		c-0.006,0.99-0.531,1.933-1.573,2.831c-1.043,0.899-2.023,1.345-2.939,1.34c-0.867-0.005-1.662-0.215-2.385-0.629
		c-0.721-0.415-1.08-0.839-1.078-1.273c0.003-0.483,0.116-1.23,0.341-2.242c0.073-0.313,0.123-0.644,0.149-0.994
		c0.026-0.349,0.041-0.729,0.043-1.14c0.005-0.844-0.376-1.751-1.142-2.72c-0.838-1.067-2.077-1.605-3.717-1.615
		c-1.665-0.01-3.081,0.766-4.248,2.327c-0.973,1.249-1.719,3.006-2.238,5.27c-0.347,1.349-0.647,3.169-0.901,5.459
		c-0.051,0.241-0.077,0.705-0.081,1.392c-0.004,0.688-0.009,1.562-0.016,2.624c-0.001,0.265,0.051,1.616,0.157,4.053
		c0.021,0.483,0.028,1.171,0.023,2.063c0.386,4.249,1.173,7.558,2.365,9.929c1.647,3.074,3.47,4.616,5.473,4.628
		c2.1,0.014,3.602-0.135,4.509-0.443c0.905-0.308,1.711-0.75,2.414-1.324l-1.034-2.539c-0.356-0.943-0.533-1.752-0.529-2.427
		C176.159,69.154,177.24,67.713,179.389,67.727 M183.869,68.622c-0.911-0.705-1.96-1.061-3.141-1.068
		c-1.158-0.007-2.277,0.397-3.354,1.21c-1.078,0.814-1.62,1.619-1.624,2.415c-0.006,0.748,0.182,1.774,0.56,3.08l0.746,2.393
		l-0.146,0.107c-0.263-0.412-0.56-1.168-0.891-2.268c-0.331-1.099-0.493-2.179-0.487-3.241c0.006-1.061,0.471-2.018,1.393-2.869
		c0.922-0.85,2.069-1.272,3.444-1.264c1.399,0.009,2.646,0.354,3.739,1.036c1.094,0.682,1.746,1.59,1.956,2.725
		C185.201,69.835,184.47,69.083,183.869,68.622 M189.299,86.746l-0.223,0.832c-0.313-0.195-0.637-0.385-0.974-0.568
		c-0.337-0.182-0.673-0.346-1.01-0.493c-0.842-0.415-1.492-0.624-1.95-0.627c-0.435,0.046-2.792,0.948-7.073,2.708
		c-1.935,0.832-4.614,1.238-8.04,1.219c-3.378-0.02-7.081-1.997-11.109-5.93c-3.694-3.543-6.249-7.937-7.666-13.18
		c1.277,4.254,3.224,7.618,5.839,10.094c2.998,2.816,5.909,4.232,8.73,4.25c2.871,0.017,5.786-0.4,8.747-1.25
		c2.96-0.852,5.007-1.273,6.142-1.268c0.675,0.006,1.235,0.032,1.682,0.083c0.446,0.052,0.886,0.126,1.319,0.226l2.42,0.738
		c0.005-0.82-0.039-1.484-0.132-1.992c-0.095-0.506-0.236-0.941-0.428-1.305l-1.575-2.76c0.703-0.695,1.245-1.536,1.626-2.523
		c0.379-0.986,0.57-1.793,0.574-2.42l-0.135-1.702l2.624,3.056c1.149,1.502,1.721,2.628,1.717,3.375
		c-0.005,0.771-0.259,1.79-0.76,3.053c-0.503,1.264-0.755,2.209-0.759,2.836c-0.004,0.579,0.03,1.051,0.1,1.412l0.429,1.124
		L189.299,86.746z"/>
</g>
</svg>
