<?xml version="1.0" encoding="utf-8"?>
<!-- Generator: Adobe Illustrator 16.0.0, SVG Export Plug-In . SVG Version: 6.00 Build 0)  -->
<!DOCTYPE svg PUBLIC "-//W3C//DTD SVG 1.1//EN" "http://www.w3.org/Graphics/SVG/1.1/DTD/svg11.dtd">
<svg version="1.1" id="Layer_1" xmlns="http://www.w3.org/2000/svg" xmlns:xlink="http://www.w3.org/1999/xlink" x="0px" y="0px"
	 width="726.667px" height="181.667px" viewBox="0 0 726.667 181.667" enable-background="new 0 0 726.667 181.667"
	 xml:space="preserve">
<polygon fill="#EE697C" points="7,89.869 48.388,126.773 7.934,167.12 219.138,109.656 204.624,82.773 "/>
<polygon fill="#EE697C" points="562.759,136.151 696.063,171 664.996,126.734 718.2,104.498 579.236,81.115 "/>
<g>
	<defs>
		<rect id="SVGID_1_" x="7" y="9.897" width="711.2" height="161.103"/>
	</defs>
	<clipPath id="SVGID_2_">
		<use xlink:href="#SVGID_1_"  overflow="visible"/>
	</clipPath>
	<path clip-path="url(#SVGID_2_)" fill="#E64D61" d="M118.814,28.367c-21.218,54.83,0.007,52.842,2.229,107.674
		c39.563-64.064,466.981,1.985,466.981,1.985s-0.979-119.588,0-109.66C398.304,61.516,140.032-26.463,118.814,28.367"/>
</g>
<text transform="matrix(1 0.006 -0.006 1 146.4043 89.0957)" fill="#FFFFFF" font-family="'CarnivalMFOpenShadow'" font-size="74.1075">C</text>
<text transform="matrix(0.9991 0.0417 -0.0417 0.9991 192.2139 89.5469)" fill="#FFFFFF" font-family="'CarnivalMFOpenShadow'" font-size="71.7979">A</text>
<text transform="matrix(0.9989 0.0476 -0.0476 0.9989 247.2383 91.915)" fill="#FFFFFF" font-family="'CarnivalMFOpenShadow'" font-size="71.7979">R</text>
<text transform="matrix(0.9993 0.0367 -0.0367 0.9993 303.9277 94.7119)" fill="#FFFFFF" font-family="'CarnivalMFOpenShadow'" font-size="71.7979">N</text>
<text transform="matrix(0.993 0.1179 -0.1179 0.993 358.0762 95.6865)" fill="#FFFFFF" font-family="'CarnivalMFOpenShadow'" font-size="71.7979">I</text>
<text transform="matrix(0.9942 0.1071 -0.1071 0.9942 390.3125 99.5186)" fill="#FFFFFF" font-family="'CarnivalMFOpenShadow'" font-size="71.7979">V</text>
<text transform="matrix(0.9947 0.1029 -0.1029 0.9947 445.0742 105.4033)" fill="#FFFFFF" font-family="'CarnivalMFOpenShadow'" font-size="71.798">A</text>
<text transform="matrix(0.9949 0.1008 -0.1008 0.9949 499.8584 111.0605)" fill="#FFFFFF" font-family="'CarnivalMFOpenShadow'" font-size="71.7979">L</text>
</svg>
