<?xml version="1.0" encoding="utf-8"?>
<!-- Generator: Adobe Illustrator 16.0.0, SVG Export Plug-In . SVG Version: 6.00 Build 0)  -->
<!DOCTYPE svg PUBLIC "-//W3C//DTD SVG 1.1//EN" "http://www.w3.org/Graphics/SVG/1.1/DTD/svg11.dtd">
<svg version="1.1" id="Layer_1" xmlns="http://www.w3.org/2000/svg" xmlns:xlink="http://www.w3.org/1999/xlink" x="0px" y="0px"
	 width="301.333px" height="88.667px" viewBox="0 0 301.333 88.667" enable-background="new 0 0 301.333 88.667"
	 xml:space="preserve">
<g>
	<path fill="#FFFFFF" d="M29.223,26.979l-0.333-0.03c-1.191,0-1.998,1.786-2.422,5.358c-0.222,1.675-0.333,3.905-0.333,6.69
		c0,0.848,0.05,2.382,0.151,4.602c0.04,0.889,0.061,1.665,0.061,2.331c0.182,1.998,0.403,3.229,0.666,3.693
		c0.182,0.303,0.509,0.55,0.984,0.741c0.474,0.192,1.115,0.288,1.922,0.288c0.827,0,1.574-0.272,2.24-0.817
		c-0.142-0.322-0.338-0.943-0.59-1.861c-0.252-0.918-0.378-1.781-0.378-2.589c0-0.827,0.555-1.695,1.665-2.604
		c1.11-0.908,2.26-1.362,3.451-1.362c0.666,0,1.246,0.07,1.741,0.212c0.494,0.142,0.963,0.354,1.408,0.636
		c0.605,0.384,1.645,1.443,3.118,3.179c1.473,1.735,2.371,2.927,2.694,3.572c0.262,0.545,0.394,1.12,0.394,1.726
		c0,0.586-0.207,1.418-0.621,2.498c-0.414,1.08-0.621,1.831-0.621,2.255c0,0.363,0.05,0.717,0.151,1.06l0.333,0.848
		c0,0.525-0.081,1.131-0.242,1.816c-0.182,0.646-0.454,1.08-0.817,1.302l-2.271-1.12c-0.626-0.322-1.141-0.484-1.544-0.484
		l-5.51,2.301c-1.716,0.706-3.532,1.06-5.449,1.06c-0.949,0-1.928-0.121-2.937-0.363c-1.009-0.242-2.019-0.585-3.027-1.029
		c-2.099-0.989-4.006-2.311-5.722-3.966c-2.725-2.684-4.733-5.822-6.024-9.415c-1.211-3.33-1.816-7.145-1.816-11.443
		s0.595-8.093,1.786-11.383c1.473-4.077,3.834-7.175,7.084-9.294c1.836-1.23,3.663-1.847,5.479-1.847
		c1.836,0,3.426,0.218,4.768,0.651c1.342,0.434,2.628,1.044,3.86,1.831c0.807-0.505,1.645-0.938,2.513-1.302
		c1.09-0.424,2.048-0.636,2.876-0.636l2.422,2.271c0.908,1.01,1.362,1.837,1.362,2.482c0,0.646-0.212,1.595-0.636,2.846
		c-0.202,0.586-0.303,1.141-0.303,1.665c0,0.484,0.292,1.776,0.878,3.875c0.282,0.929,0.424,1.938,0.424,3.027
		c0,1.009-0.585,1.978-1.756,2.906c-1.09,0.848-2.049,1.271-2.876,1.271l-1.665-0.03l-0.545-0.061l-0.151-0.061
		c-1.07-0.666-2.008-1.443-2.815-2.331c-0.868-0.969-1.595-2.028-2.18-3.179l-0.303-0.787L29.223,26.979z M33.28,43.206
		c-1.009,0.808-1.514,1.816-1.514,3.027l1.029,3.754c-0.808,0.827-1.686,1.241-2.634,1.241c-0.929,0-1.665-0.091-2.21-0.272
		c-0.707-0.242-1.201-0.636-1.483-1.181c-0.182-0.363-0.338-0.853-0.469-1.469c-0.131-0.615-0.197-1.356-0.197-2.225
		c-0.162-1.715-0.242-4.137-0.242-7.266c0-2.946,0.121-5.268,0.363-6.963c0.545-3.652,1.231-5.479,2.059-5.479
		c0.868,0,1.402,0.051,1.604,0.151l2.24,3.966c0.948,1.353,2.109,2.442,3.481,3.27l0.605,0.091c0.747,0,1.428-0.08,2.043-0.242
		c0.615-0.161,1.186-0.394,1.71-0.696c1.211-0.767,1.816-1.675,1.816-2.725c0-0.545-0.061-1.14-0.182-1.786
		c-0.121-0.646-0.283-1.302-0.484-1.968c-0.424-1.453-0.636-2.422-0.636-2.906l0.121-1.211l0.212-0.817l0.151-0.484l0.242-0.757
		c0.141-0.403,0.212-0.878,0.212-1.423s-0.404-1.251-1.211-2.119l-2.21-2.059c-0.424,0.041-0.878,0.121-1.362,0.242
		s-0.959,0.272-1.423,0.454c-1.029,0.384-1.816,0.838-2.361,1.362c-1.251-0.848-2.533-1.493-3.845-1.938
		c-1.312-0.443-2.573-0.666-3.784-0.666c-1.171,0-2.291,0.151-3.36,0.454c-1.07,0.303-2.008,0.727-2.815,1.271
		c-3.169,2.079-5.47,5.106-6.902,9.082c-1.15,3.209-1.726,6.933-1.726,11.171c0,4.178,0.585,7.912,1.756,11.201
		c1.292,3.572,3.259,6.65,5.903,9.233c1.695,1.635,3.557,2.906,5.585,3.814s3.91,1.362,5.646,1.362c1.756,0,3.4-0.293,4.935-0.878
		l3.481-1.604c0.605-0.303,1.125-0.524,1.559-0.666c0.434-0.141,0.772-0.212,1.014-0.212c0.464,0,1.1,0.192,1.907,0.575l1.786,0.969
		l0.303-0.636l0.182-0.424l0.03-0.394l0.121-0.878c-0.182-0.282-0.308-0.58-0.378-0.894c-0.071-0.313-0.106-0.701-0.106-1.165
		c0-0.444,0.207-1.221,0.621-2.331c0.414-1.109,0.621-1.968,0.621-2.573c0-0.687-0.363-1.514-1.09-2.482l-1.907-2.21
		c-0.565-0.666-1.08-1.262-1.544-1.786c-0.384-0.444-0.646-0.727-0.787-0.848c-1.009-0.848-2.049-1.271-3.118-1.271
		C35.409,41.995,34.289,42.398,33.28,43.206z M28.254,15.233c-1.191-0.403-2.614-0.605-4.269-0.605
		c-1.574,0-3.229,0.556-4.965,1.665c-3.068,1.918-5.298,4.885-6.69,8.9c-1.13,3.189-1.695,6.257-1.695,9.203
		c0,2.906,0.081,4.955,0.242,6.146c0.161,1.19,0.313,2.13,0.454,2.815c0.141,0.687,0.292,1.332,0.454,1.938
		c-0.424-1.372-0.727-2.785-0.908-4.238s-0.272-3.209-0.272-5.268c0-2.119,0.121-4.076,0.363-5.873
		c0.343-2.361,0.898-4.439,1.665-6.236c0.928-2.078,2.189-3.885,3.784-5.419c1.231-1.171,2.513-2.079,3.845-2.725
		c1.554-0.727,3.36-1.09,5.419-1.09c2.099,0,4.117,0.787,6.055,2.361C30.666,16.121,29.505,15.597,28.254,15.233z M35.308,42.661
		c1.796,0,3.113,0.333,3.951,0.999c0.837,0.666,1.256,1.463,1.256,2.392c0,0.908-0.172,1.781-0.515,2.618
		c-0.343,0.838-0.808,1.51-1.393,2.014c0.061,0.162,0.151,0.354,0.272,0.575s0.303,0.535,0.545,0.938
		c0.727,1.15,1.09,2.149,1.09,2.997c-1.251-0.444-2.422-0.666-3.512-0.666c-1.05,0-3.401,0.495-7.054,1.483
		c-0.929,0.263-1.852,0.444-2.77,0.545c-0.918,0.102-1.973,0.151-3.164,0.151c-2.24,0-4.531-1.079-6.872-3.239
		c-2.039-1.877-3.583-4.439-4.632-7.689c-0.929-2.846-1.393-5.711-1.393-8.598c0-2.725,0.141-5.172,0.424-7.342
		c0.282-2.169,0.797-4.121,1.544-5.857c0.908-2.059,2.139-3.834,3.693-5.328c1.19-1.17,2.412-2.059,3.663-2.664
		c1.393-0.686,2.815-1.029,4.269-1.029c1.433,0,2.79,0.252,4.072,0.757c1.281,0.505,2.396,1.201,3.345,2.089l2.392-1.241
		c1.029-0.545,1.968-0.817,2.815-0.817l-0.303,1.483c-0.202,1.009-0.303,1.867-0.303,2.573c0,0.666,0.187,1.595,0.56,2.785
		c0.373,1.191,0.56,2.23,0.56,3.118c0,0.827-0.434,1.62-1.302,2.376c-0.868,0.758-1.686,1.136-2.452,1.136
		c-0.727,0-1.393-0.171-1.998-0.515c-0.605-0.343-0.908-0.696-0.908-1.06c0-0.403,0.091-1.029,0.272-1.877
		c0.061-0.263,0.101-0.54,0.121-0.833c0.02-0.292,0.03-0.609,0.03-0.953c0-0.706-0.323-1.463-0.969-2.271
		c-0.707-0.888-1.746-1.332-3.118-1.332c-1.393,0-2.573,0.656-3.542,1.968c-0.808,1.05-1.423,2.523-1.847,4.42
		c-0.283,1.131-0.525,2.654-0.727,4.571c-0.041,0.202-0.061,0.591-0.061,1.165c0,0.576,0,1.308,0,2.195
		c0,0.223,0.05,1.353,0.151,3.391c0.02,0.404,0.03,0.979,0.03,1.726c0.343,3.552,1.019,6.317,2.028,8.295
		c1.393,2.563,2.926,3.845,4.602,3.845c1.756,0,3.012-0.131,3.769-0.394s1.428-0.636,2.013-1.12l-0.878-2.119
		c-0.303-0.787-0.454-1.463-0.454-2.028C32.614,43.872,33.512,42.661,35.308,42.661z M43.694,58.524l-0.182,0.696
		c-0.263-0.161-0.535-0.318-0.817-0.469c-0.283-0.152-0.565-0.288-0.848-0.409c-0.707-0.343-1.251-0.515-1.635-0.515
		c-0.363,0.041-2.331,0.808-5.903,2.301c-1.615,0.706-3.855,1.06-6.721,1.06c-2.826,0-5.934-1.635-9.324-4.904
		c-3.108-2.946-5.268-6.609-6.479-10.989c1.09,3.553,2.734,6.357,4.935,8.416c2.522,2.342,4.965,3.512,7.326,3.512
		c2.401,0,4.838-0.363,7.311-1.09c2.472-0.727,4.183-1.09,5.131-1.09c0.565,0,1.034,0.021,1.408,0.061
		c0.373,0.041,0.742,0.102,1.105,0.182l2.028,0.605c0-0.686-0.041-1.241-0.121-1.665c-0.081-0.424-0.202-0.787-0.363-1.09
		l-1.332-2.301c0.585-0.585,1.034-1.292,1.347-2.119c0.313-0.827,0.469-1.503,0.469-2.028l-0.121-1.423l2.21,2.543
		c0.969,1.251,1.453,2.19,1.453,2.815c0,0.646-0.207,1.498-0.621,2.559c-0.414,1.059-0.621,1.852-0.621,2.376
		c0,0.484,0.03,0.878,0.091,1.181l0.363,0.938L43.694,58.524z M23.168,45.961c-0.363-1.049-0.646-2.089-0.848-3.118
		c-0.202-1.029-0.303-2.18-0.303-3.451c-0.061-0.687-0.101-1.463-0.121-2.331c-0.021-0.867-0.03-1.816-0.03-2.846
		c0-2.038,0.141-3.926,0.424-5.661c0.383-2.24,0.958-3.985,1.726-5.237c1.009-1.614,2.149-2.422,3.421-2.422
		c1.312,0,2.25,0.373,2.815,1.12c0.565,0.747,0.848,1.635,0.848,2.664l-0.424,2.634c-0.263-0.545-0.475-0.898-0.636-1.06
		c-0.283-0.263-0.878-0.394-1.786-0.394c-0.929,0-1.695,1.09-2.301,3.27s-0.908,5.016-0.908,8.507c0,1.353,0.02,2.836,0.061,4.45
		c0.04,1.615,0.061,2.553,0.061,2.815c0,1.453,0.121,2.679,0.363,3.679c0.242,0.998,0.524,1.67,0.848,2.013
		C24.964,49.745,23.895,48.201,23.168,45.961z M31.615,51.395c-0.565,0.232-1.191,0.349-1.877,0.349
		c-0.646,0-1.282-0.101-1.907-0.303c-0.626-0.202-1.11-0.484-1.453-0.848c0.928,0.565,1.847,0.848,2.755,0.848
		c0.888,0,1.655-0.081,2.301-0.242c0.666-0.222,1.221-0.484,1.665-0.787C32.674,50.835,32.18,51.163,31.615,51.395z M30.949,28.039
		l0.363,0.787c-0.424-0.403-0.636-0.908-0.636-1.514L30.949,28.039z M32.478,29.462c0.494,0.182,1.095,0.272,1.801,0.272
		c0.767,0,1.64-0.429,2.619-1.287c0.979-0.857,1.468-1.75,1.468-2.679c0-0.908-0.187-1.993-0.56-3.255
		c-0.374-1.261-0.56-2.184-0.56-2.77c0-0.545,0.101-1.352,0.303-2.422c0.061-0.242,0.131-0.539,0.212-0.893
		c0.081-0.354,0.121-0.641,0.121-0.863L40,17.655c0.403,0.545,0.605,1.04,0.605,1.483c0,0.404-0.061,0.757-0.182,1.06l-0.272,0.757
		l-0.272,1.029c-0.101,0.484-0.162,0.808-0.182,0.969c-0.021,0.162-0.03,0.404-0.03,0.727c0,0.444,0.217,1.377,0.651,2.801
		c0.434,1.422,0.651,2.588,0.651,3.496c0,0.889-0.484,1.686-1.453,2.392c-0.888,0.646-1.857,0.969-2.906,0.969
		c-1.07,0-2.119-0.534-3.148-1.604c-0.747-0.746-1.463-1.715-2.149-2.906C31.594,29.068,31.983,29.28,32.478,29.462z M32.22,17.231
		l-0.484-0.424l0.575,0.363L32.22,17.231z M39.062,43.388c-0.767-0.585-1.645-0.878-2.634-0.878c-0.969,0-1.902,0.344-2.8,1.029
		c-0.898,0.687-1.347,1.362-1.347,2.028c0,0.626,0.161,1.483,0.484,2.573l0.636,1.998l-0.121,0.091
		c-0.222-0.343-0.475-0.974-0.757-1.892c-0.283-0.918-0.424-1.822-0.424-2.71s0.383-1.69,1.15-2.407
		c0.767-0.716,1.726-1.074,2.876-1.074c1.17,0,2.215,0.283,3.133,0.848c0.918,0.565,1.468,1.322,1.65,2.271
		C40.182,44.396,39.566,43.771,39.062,43.388z M34.824,15.99c-0.908,0.424-1.665,0.868-2.271,1.332l-0.242-0.151l2.271-1.211
		c0.969-0.484,1.867-0.727,2.694-0.727C36.428,15.395,35.611,15.647,34.824,15.99z M37.548,15.233h0.394l-0.061,0.333L37.548,15.233
		z"/>
	<path fill="#FFFFFF" d="M67.686,13.78c1.362,0.384,2.709,0.929,4.042,1.635c4.238,2.24,7.508,5.54,9.809,9.899
		c2.2,4.158,3.3,8.477,3.3,12.957c0,2.2-0.162,4.289-0.484,6.267c-0.323,1.978-0.777,3.754-1.362,5.328
		c-1.353,3.572-3.32,6.378-5.903,8.416c-2.866,2.261-6.317,3.391-10.354,3.391c-4.017,0-7.639-1.281-10.868-3.845
		c-1.494-1.17-2.815-2.527-3.966-4.072c-1.15-1.543-2.149-3.305-2.997-5.282c-1.635-3.754-2.452-7.468-2.452-11.141
		c0-3.714,0.636-7.347,1.907-10.898c1.393-3.915,3.3-7.003,5.722-9.264c2.825-2.644,6.055-3.966,9.688-3.966
		C65.016,13.205,66.323,13.396,67.686,13.78z M81.082,25.647c-2.261-4.299-5.47-7.538-9.627-9.718
		c-1.231-0.666-2.493-1.19-3.784-1.574c-1.292-0.383-3.159-0.575-5.601-0.575c-2.402,0-4.965,1.302-7.689,3.905
		c-2.382,2.281-4.229,5.298-5.54,9.052c-1.211,3.431-1.816,6.953-1.816,10.565c0,3.633,0.787,7.256,2.361,10.868
		c1.695,3.814,3.956,6.862,6.781,9.143c3.148,2.522,7.134,3.784,11.958,3.784c4.844,0,8.84-2.32,11.988-6.963
		c2.765-4.036,4.147-9.062,4.147-15.076C84.26,34.114,83.201,29.644,81.082,25.647z M68.094,14.81
		c0.928,0.323,2.068,0.898,3.421,1.726c4.077,2.482,7.134,5.637,9.173,9.461c2.038,3.824,3.058,8.431,3.058,13.819
		s-1.322,10.041-3.966,13.956c-3.088,4.541-6.983,6.812-11.686,6.812c-4.723,0-8.618-1.241-11.686-3.724
		c-2.785-2.26-4.96-5.207-6.524-8.84c-1.564-3.633-2.346-7.275-2.346-10.929c0-3.673,0.575-7.165,1.726-10.475
		c1.292-3.693,3.118-6.609,5.479-8.749c2.684-2.441,5.893-3.663,9.627-3.663C65.682,14.204,66.923,14.406,68.094,14.81z
		 M80.597,33.821l-0.182-2.785c-0.505-4.278-2.301-8.083-5.389-11.413c-3.31-3.552-6.923-5.328-10.838-5.328
		c-3.916,0-7.326,1.534-10.232,4.602c-2.563,2.705-4.329,5.984-5.298,9.839c-0.283,0.989-0.484,2.149-0.605,3.481
		s-0.182,3.754-0.182,7.266s1.402,7.205,4.208,11.08c3.209,4.359,7.104,6.539,11.686,6.539c4.622,0,8.164-1.049,10.626-3.148
		c2.159-1.836,3.774-4.41,4.844-7.72c0.504-1.514,0.868-3.048,1.09-4.602c0.222-1.554,0.333-3.259,0.333-5.116L80.597,33.821z
		 M76.934,50.139c-2.604,4.299-6.56,6.448-11.867,6.448c-5.328,0-9.526-2.129-12.594-6.388c-2.725-3.794-4.087-7.951-4.087-12.473
		c0-4.561,0.545-8.386,1.635-11.474c1.19-3.451,2.916-6.165,5.177-8.144c2.583-2.26,5.691-3.391,9.324-3.391
		c3.693,0,7.114,1.807,10.263,5.419c2.987,3.37,4.692,7.023,5.116,10.959c0.161,1.453,0.242,3.26,0.242,5.419
		C80.143,42.025,79.073,46.566,76.934,50.139z M70.592,35.713c-0.071-1.059-0.106-1.892-0.106-2.497
		c0-0.666-0.061-1.463-0.182-2.392c-0.121-0.928-0.242-1.836-0.363-2.725c-0.404-2.926-0.727-4.702-0.969-5.328
		c-0.747-1.896-1.756-2.846-3.027-2.846c-1.251,0-2.19,0.172-2.815,0.515c-0.626,0.384-1.141,0.787-1.544,1.211
		c-1.029,1.05-1.807,2.382-2.331,3.996c-0.222,0.687-0.374,1.181-0.454,1.483c-0.222,0.908-0.333,1.797-0.333,2.664
		c0,0.081-0.025,0.793-0.076,2.135c-0.051,1.342-0.076,2.508-0.076,3.496c0,0.747,0.04,1.877,0.121,3.391
		c0.081,1.514,0.121,2.654,0.121,3.421c0,1.009,0.101,2.013,0.303,3.013c0.202,0.998,0.434,1.942,0.696,2.83
		c0.727,2.301,1.998,3.451,3.814,3.451c1.836,0,3.148-0.212,3.936-0.636c0.928-0.524,1.594-1.302,1.998-2.331
		c0.545-1.352,0.928-3.118,1.15-5.298c0.161-1.393,0.242-3.209,0.242-5.449C70.698,37.475,70.662,36.773,70.592,35.713z
		 M66.792,25.345c-1.13,0-1.998,0.575-2.604,1.726c-0.767,1.332-1.292,3.29-1.574,5.873c-0.283,2.584-0.424,5.358-0.424,8.325
		l-0.03,6.721c0,1.574,0.353,2.554,1.06,2.937c-0.848-0.161-1.514-0.484-1.998-0.969c-0.545-0.545-0.944-1.227-1.196-2.043
		c-0.252-0.818-0.469-1.716-0.651-2.695c-0.182-0.979-0.272-2.022-0.272-3.133c0-0.363-0.071-1.877-0.212-4.541
		c-0.041-0.767-0.061-1.594-0.061-2.482l0.121-5.207c0.121-1.393,0.383-2.715,0.787-3.966c0.504-1.614,1.241-2.906,2.21-3.875
		c0.363-0.424,0.812-0.792,1.347-1.104c0.535-0.313,1.296-0.47,2.286-0.47c1.009,0,1.877,0.636,2.604,1.907
		c0.545,0.868,0.898,2.17,1.06,3.905C68.72,25.647,67.902,25.345,66.792,25.345z M69.214,27.222
		c0.161,0.464,0.297,1.055,0.409,1.771c0.111,0.717,0.167,1.56,0.167,2.528c0,0.161,0.05,1.403,0.151,3.724
		c0.02,0.465,0.03,1.131,0.03,1.998c0,1.716-0.076,3.36-0.227,4.935s-0.303,2.765-0.454,3.572s-0.338,1.534-0.56,2.18
		c-0.303,0.827-0.863,1.504-1.68,2.028c-0.817,0.525-1.6,0.787-2.346,0.787c-0.707,0-1.221-0.141-1.544-0.424
		c-0.323-0.322-0.484-1.181-0.484-2.573V41.45c0-1.413,0.04-2.765,0.121-4.057c0.081-1.292,0.191-2.674,0.333-4.147
		c0.343-2.725,0.848-4.702,1.514-5.934c0.524-0.969,1.382-1.453,2.573-1.453C68.205,25.859,68.871,26.313,69.214,27.222z
		 M70.092,35.002c-0.061-1.09-0.131-2.078-0.212-2.967l-0.636-5.782c0.403,0.524,0.711,1.665,0.923,3.421s0.318,3.945,0.318,6.569
		c0,2.382-0.081,4.48-0.242,6.297c-0.242,2.361-0.585,4.218-1.029,5.57c-0.363,0.929-0.999,1.686-1.907,2.271
		c-0.908,0.586-1.706,0.878-2.392,0.878c-0.687,0-1.251-0.11-1.695-0.333c0.484,0.061,0.928,0.091,1.332,0.091
		c0.807,0,1.473-0.11,1.998-0.333c1.09-0.464,1.847-1.23,2.271-2.301c0.524-1.393,0.898-3.128,1.12-5.207
		c0.161-1.372,0.242-3.158,0.242-5.358C70.183,37.03,70.153,36.092,70.092,35.002z M66.702,49.503
		c0.727-0.484,1.216-1.075,1.468-1.771c0.252-0.697,0.469-1.469,0.651-2.316s0.272-1.746,0.272-2.694
		c0.202-2.099,0.303-4.117,0.303-6.055l-0.091-4.602c0-1.069-0.066-2.008-0.197-2.815c-0.131-0.807-0.268-1.393-0.409-1.756
		c-0.303-0.706-0.868-1.06-1.695-1.06c-0.828,0-1.443,0.384-1.847,1.15c-0.687,1.19-1.171,3.124-1.453,5.798
		c-0.283,2.674-0.424,5.403-0.424,8.188l-0.03,6.357c0,1.493,0.414,2.24,1.241,2.24C65.198,50.169,65.935,49.947,66.702,49.503z"/>
	<path fill="#FFFFFF" d="M131.608,18.533c0,0.989-0.363,2.301-1.09,3.936l-0.999,2.24c-0.828,1.998-1.474,5.106-1.938,9.324
		c-0.384,3.391-0.575,6.246-0.575,8.567c0,2.261,0.151,4.35,0.454,6.267l0.938,5.752c0.323,1.877,0.484,3.29,0.484,4.238
		c0,0.889-0.101,1.408-0.303,1.559c-0.202,0.152-0.565,0.228-1.09,0.228c-0.464,0-1.15-0.161-2.059-0.484
		c-1.05-0.424-2.25-1.11-3.603-2.059c-0.727,0.727-1.453,1.312-2.18,1.756c-0.908,0.605-1.766,0.969-2.573,1.09l-4.057-3.814
		c-0.283-2.341-1.11-4.995-2.483-7.962c-1.07-2.279-2.523-4.924-4.359-7.932l-4.3-6.811c-0.302,1.534-0.554,3.027-0.755,4.48
		c-0.262,1.756-0.393,3.188-0.393,4.299c0,0.988,0.05,1.938,0.151,2.846c0.161,0.908,0.363,1.686,0.605,2.33
		c1.15,0.666,2.245,1.762,3.285,3.285c1.039,1.523,1.559,2.951,1.559,4.283c0,1.353-0.54,2.518-1.62,3.496
		c-1.08,0.979-2.356,1.469-3.83,1.469c-1.433,0-2.573-0.484-3.421-1.453c-0.545,0.484-1.166,0.893-1.862,1.223
		s-1.287,0.496-1.771,0.496c-0.303,0-0.53-0.012-0.681-0.031s-0.318-0.061-0.5-0.121l-0.999-0.453
		c-1.635-0.908-2.987-2.027-4.057-3.359c-1.271-1.572-1.907-3.004-1.907-4.296c0-1.331,0.182-2.39,0.545-3.177
		c0.424-0.826,1.019-1.452,1.786-1.876c0.262,0.363,0.474,0.636,0.636,0.817c0.161,0.182,0.303,0.344,0.424,0.484
		c0.303,0.303,0.535,0.465,0.696,0.484l0.303-0.121c0.848-0.848,1.443-2.331,1.786-4.45c0.222-1.271,0.333-3.219,0.333-5.843
		c0-2.482-0.217-5.01-0.651-7.584c-0.434-2.572-1.065-5.303-1.892-8.188l-2.573-8.779l1.393-0.363
		c0.605-0.121,1.17-0.182,1.695-0.182c0.262,0,0.651,0.071,1.166,0.212c0.515,0.142,1.054,0.323,1.62,0.545
		c1.332,0.484,2.189,0.727,2.573,0.727c0.383,0,0.848-0.191,1.393-0.575l1.06-0.817c0.585,0.424,1.12,0.742,1.604,0.953
		c0.484,0.213,1.1,0.318,1.847,0.318c0.686,0,1.362-0.101,2.028-0.303c0.605-0.242,1.302-0.605,2.089-1.09
		c0.161,0.323,1.443,1.504,3.845,3.542c1.069,0.929,1.665,1.646,1.786,2.149c0.807,3.351,1.614,5.954,2.422,7.811
		c0.948,2.16,2.321,4.531,4.117,7.114c0-1.574-0.126-3.179-0.378-4.813c-0.252-1.635-0.601-3.324-1.044-5.07
		c-0.444-1.746-0.923-3.391-1.438-4.936c-0.515-1.543-1.135-3.203-1.862-4.979c0.02-0.303,0.131-0.505,0.333-0.605
		c0.242-0.167,0.555-0.249,0.938-0.249c0.383,0,1.105,0.172,2.165,0.518s1.852,0.519,2.376,0.519c0.504,0,0.898-0.081,1.181-0.242
		c0.161-0.081,0.454-0.303,0.878-0.666c0.343,0.282,0.676,0.505,0.999,0.666c0.323,0.161,0.636,0.242,0.938,0.242l2.392-0.394
		l2.755-0.605L131.608,18.533z M114.14,14.749c-0.242,0-0.414,0.056-0.515,0.167c1.453,3.582,2.573,6.978,3.36,10.187
		c0.908,3.814,1.362,7.68,1.362,11.595c-2.16-2.926-3.774-5.535-4.844-7.826c-1.07-2.29-2.039-5.252-2.906-8.885
		c-0.081-0.343-0.565-0.908-1.453-1.695c-0.707-0.646-1.241-1.12-1.604-1.423c-0.565-0.484-1.262-1.069-2.089-1.756l0.424,1.181
		l2.271,1.938c1.19,1.01,1.816,1.645,1.877,1.907c0.969,3.915,2.028,7.074,3.179,9.476c1.09,2.16,2.886,4.975,5.389,8.446
		c0-3.774-0.424-7.659-1.271-11.655c-0.767-3.552-1.897-7.316-3.391-11.292l4.844,0.757l0.878-0.182l0.969-0.333l0.999,0.507
		c0.262,0.106,0.605,0.159,1.029,0.159l2.271-0.267l2.513-0.399l0.061,0.121h0.363l-0.121,0.272l2.634,3.209
		c-0.101,0.868-0.475,1.998-1.12,3.391l-0.878,1.998c-0.848,3.169-1.489,6.357-1.922,9.566c-0.434,3.209-0.651,6.024-0.651,8.446
		c0,2.301,0.141,4.42,0.424,6.357l0.908,5.722c0.343,1.998,0.515,3.653,0.515,4.965c-0.839,0-1.878-0.343-3.116-1.029
		c-0.72-0.403-1.648-1.02-2.787-1.847c-0.771,0.767-1.43,1.362-1.977,1.786c-0.812,0.626-1.582,1.06-2.312,1.302l-3.255-2.967
		l-0.122-0.667h-0.364l-1.126-3.754c-0.568-1.795-1.592-4.025-3.072-6.69l-4.386-7.358c-1.818-3.019-3.131-5.318-3.939-6.899
		c-0.889,4.831-1.333,7.358-1.333,7.58c-0.222,1.536-0.333,2.981-0.333,4.337c0,0.646,0.02,1.238,0.061,1.773
		c0.04,0.535,0.091,1.035,0.151,1.5c0.182,0.99,0.434,1.921,0.757,2.79c0.747,0.323,1.362,0.758,1.847,1.304l0.545-0.091L103,50.926
		l0.091,0.484c0.524,0.626,0.969,1.313,1.332,2.059c0.464,0.908,0.696,1.816,0.696,2.725c0,0.868-0.439,1.67-1.317,2.406
		c-0.878,0.737-1.771,1.105-2.679,1.105c-0.969,0-1.695-0.182-2.18-0.545c-0.303-0.222-0.747-0.717-1.332-1.483
		c-0.787,0.747-1.393,1.262-1.816,1.544c-0.767,0.505-1.645,0.757-2.634,0.757c-0.989,0-2.336-0.958-4.042-2.876
		c-1.706-1.917-2.558-3.31-2.558-4.178c0-0.888,0.096-1.554,0.288-1.998c0.191-0.443,0.439-0.908,0.742-1.393l0.212,0.061
		l0.061,0.061l1.09,0.515c0.424,0.202,0.777,0.343,1.06,0.424c0.908-0.222,1.645-1.488,2.21-3.8c0.565-2.311,0.848-5.08,0.848-8.31
		c0-1.595-0.142-3.365-0.424-5.313c-0.283-1.947-0.696-4.102-1.241-6.463c-0.949-3.996-2.079-7.78-3.391-11.353
		c0.383-0.144,0.716-0.239,0.999-0.289c0.282-0.05,0.686-0.074,1.211-0.074c0.585,0,1.529,0.237,2.831,0.712
		s2.185,0.711,2.649,0.711c0.524,0,0.979-0.141,1.362-0.424c0.161-0.101,0.474-0.394,0.938-0.878
		c0.545,0.411,1.06,0.714,1.544,0.908c0.383,0.142,0.706,0.218,0.969,0.228c0.262,0.01,0.504,0.015,0.727,0.015
		c0.666,0,1.292-0.069,1.877-0.209c0.585-0.14,1.049-0.347,1.393-0.62c-0.989,0.451-1.917,0.678-2.785,0.678
		c-0.828,0-1.52-0.104-2.074-0.311c-0.555-0.205-1.105-0.466-1.65-0.779l-1.029,0.696c-0.464,0.323-0.949,0.484-1.454,0.484
		c-0.484,0-1.373-0.242-2.664-0.727c-1.292-0.484-2.15-0.727-2.574-0.727l-1.181,0.099l-1.271,0.266l2.461,8.504
		c0.845,2.886,1.449,5.47,1.811,7.75c0.262,1.535,0.443,2.922,0.543,4.164c0.1,1.24,0.151,2.578,0.151,4.011
		c0,2.522-0.142,4.571-0.424,6.146c-0.484,2.523-1.312,4.058-2.482,4.603c-0.283-0.04-0.605-0.187-0.969-0.438
		s-0.717-0.641-1.06-1.166c-0.565,0.402-0.969,0.941-1.211,1.615c-0.242,0.675-0.363,1.565-0.363,2.672
		c0,1.127,0.605,2.436,1.816,3.926c1.029,1.288,2.301,2.334,3.814,3.14l0.787,0.385c0.282,0.106,0.686,0.16,1.211,0.16
		c0.484,0,1.08-0.202,1.786-0.605c0.403-0.242,1.019-0.706,1.847-1.393c0.444,0.626,0.923,1.069,1.438,1.332
		s1.266,0.394,2.255,0.394c1.009,0,2.008-0.434,2.997-1.302c0.989-0.868,1.483-1.866,1.483-2.997c0-1.15-0.575-2.604-1.726-4.359
		c-1.271-1.877-2.281-2.815-3.027-2.815l-0.575-2.724c-0.182-1.008-0.272-2.057-0.272-3.146c0-1.088,0.171-2.713,0.512-4.871
		l0.904-5.324l7.296,11.893c1.131,1.795,2.12,3.762,2.968,5.901c0.484,1.171,0.868,2.274,1.151,3.313
		c0.283,1.039,0.495,2.064,0.636,3.072l3.635,3.359c0.808-0.201,1.615-0.605,2.423-1.211c0.525-0.383,0.959-0.727,1.302-1.029
		c0.182-0.161,0.444-0.414,0.788-0.757c1.009,0.727,1.958,1.322,2.846,1.786c1.231,0.626,2.149,0.938,2.755,0.938
		c0.625,0,0.938-0.424,0.938-1.271c0-0.747-0.162-2.14-0.484-4.178l-0.938-5.752c-0.303-1.938-0.454-4.106-0.454-6.509
		c0-1.291,0.05-2.613,0.151-3.966c0.101-1.353,0.252-2.806,0.454-4.359c0.424-3.188,1.069-6.357,1.938-9.506l0.878-2.028
		c0.403-0.867,0.696-1.609,0.878-2.225s0.272-1.115,0.272-1.499l-3.3-3.996c-0.687,0.061-1.529,0.237-2.528,0.53
		s-1.701,0.438-2.104,0.438c-0.424,0-0.817-0.061-1.181-0.182l-0.969-0.515c-0.646,0.484-1.312,0.717-1.998,0.696l-2.997-0.696
		c-0.767-0.182-1.332-0.272-1.695-0.272l0.121,0.272L114.14,14.749z M127.491,15.445l-4.632,0.848c-0.646,0-1.292-0.191-1.938-0.575
		c-0.626,0.403-1.282,0.606-1.968,0.606l-4.48-1c1.413,3.535,2.482,6.859,3.209,9.971c0.848,3.637,1.271,8.051,1.271,13.243
		l-0.363-0.485l-0.151,4.395c-1.474-1.939-3.058-4.586-4.753-7.939c-1.494-2.849-2.967-6.021-4.42-9.517
		c-1.251-2.909-2.382-5.818-3.391-8.728l-0.303-0.273l-0.303-0.303l-0.182,0.091c0.848,2.606,2.028,5.698,3.542,9.273
		c1.635,3.858,3.33,7.445,5.086,10.759c1.998,3.758,3.724,6.485,5.177,8.183c0.101-0.708,0.161-1.235,0.182-1.58
		c0.02-0.345,0.03-0.819,0.03-1.427c0.02-0.564,0.045-1.316,0.076-2.255s0.045-1.923,0.045-2.952c0-2.119-0.384-5.075-1.15-8.869
		c-0.767-3.795-1.837-7.479-3.209-11.051l3.905,0.605c0.242,0,0.545-0.05,0.908-0.15l0.908-0.303
		c0.161,0.161,0.464,0.303,0.908,0.424c0.222,0.061,0.444,0.101,0.666,0.121c0.222,0.02,0.424,0.029,0.605,0.029
		c0.242,0,0.5-0.02,0.772-0.061c0.272-0.04,0.63-0.101,1.075-0.182c0.888-0.182,1.665-0.271,2.331-0.271
		c-1.353,3.512-2.361,7.129-3.027,10.853s-0.999,7.291-0.999,10.702c0,0.908,0.07,2.938,0.212,6.093
		c0.061,1.353,0.091,2.504,0.091,3.452c0,1.393,0.101,2.806,0.303,4.238c0.101,0.707,0.303,1.877,0.605,3.512
		c-1.19-0.161-2.178-0.424-2.964-0.787c-0.868-0.443-1.745-1.06-2.631-1.847l-1.331,1.423c-1.129,1.11-2.148,1.665-3.055,1.665
		c-0.766-2.543-1.744-5.035-2.934-7.478c-0.927-1.877-2.117-4.039-3.569-6.488l-4.009-6.803l-1.151-1.998
		c-0.464-0.787-0.817-1.514-1.06-2.18l-1.454-3.754c-0.667-1.573-1.252-2.784-1.756-3.632c-0.687,2.543-1.151,5.222-1.393,8.038
		c-0.242,2.814-0.363,5.282-0.363,7.401c0,1.05,0.05,2.134,0.151,3.255c0.101,1.119,0.242,2.275,0.424,3.466
		c0.424,2.401,0.807,3.886,1.15,4.45c0.303,0.565,0.671,1.004,1.105,1.316c0.434,0.313,0.943,0.47,1.529,0.47l1.604-0.272
		l0.121,0.696c0,1.19-0.303,2.149-0.908,2.876s-1.443,1.09-2.513,1.09c-1.09,0-1.988-0.354-2.694-1.06
		c-0.605-0.646-1.06-1.483-1.362-2.513c-0.384,1.09-0.878,1.918-1.483,2.482C92.878,55.427,92,55.77,90.951,55.77
		c-1.029,0-1.917-0.313-2.664-0.938c-0.747-0.666-1.12-1.312-1.12-1.938c0-0.666,0.07-1.221,0.212-1.665
		c0.141-0.443,0.292-0.746,0.454-0.908l1.514,0.666c0.343,0.142,0.585,0.212,0.727,0.212l0.303-0.121l0.242-0.061
		c1.231-1.09,2.089-3.077,2.573-5.964c0.323-1.877,0.484-4.046,0.484-6.508c0-1.252-0.061-2.503-0.182-3.754
		c-0.121-1.252-0.293-2.473-0.515-3.664c-0.444-2.521-1.05-5.136-1.816-7.84c-0.505-1.796-1.262-4.218-2.271-7.266l-0.091-0.303
		c0.101-0.08,0.232-0.121,0.394-0.121l1.029-0.03c0.565,0,1.493,0.242,2.785,0.727c1.292,0.484,2.189,0.727,2.694,0.727
		c0.504,0,0.963-0.106,1.377-0.317c0.414-0.213,0.742-0.479,0.984-0.803c0.504,0.344,1.004,0.59,1.499,0.742
		c0.494,0.15,1.075,0.227,1.741,0.227c0.363,0,0.691-0.02,0.984-0.061c0.292-0.04,0.58-0.091,0.863-0.151
		c0.605-0.182,1.15-0.424,1.635-0.727c-0.565,0.282-1.13,0.484-1.696,0.605s-1.161,0.182-1.786,0.182
		c-1.232,0-2.322-0.333-3.271-0.999l-0.999,0.727c-0.464,0.263-0.949,0.394-1.453,0.394c-0.525,0-1.424-0.247-2.695-0.741
		s-2.119-0.742-2.543-0.742l-1,0.061l-0.757,0.121l2.402,8.412c0.785,2.746,1.383,5.375,1.795,7.888s0.619,5.111,0.619,7.796
		c0,2.504-0.131,4.512-0.394,6.025c-0.424,2.18-1.181,3.814-2.271,4.904l-0.727,0.333c-0.424,0-0.813-0.116-1.166-0.349
		c-0.354-0.231-0.681-0.529-0.984-0.893l-0.091-0.061c-0.343,0.344-0.575,0.762-0.696,1.256c-0.121,0.495-0.182,1.187-0.182,2.074
		c0,0.908,0.353,1.716,1.06,2.422c0.747,0.687,1.645,1.029,2.694,1.029c1.09,0,1.983-0.227,2.679-0.682
		c0.696-0.453,1.266-1.064,1.71-1.831c0.403,0.787,0.954,1.413,1.65,1.877s1.539,0.696,2.528,0.696c1.009,0,1.917-0.398,2.725-1.195
		c0.807-0.797,1.211-1.58,1.211-2.347l-0.061-1.483l-0.757-0.848l-0.787,0.151c-0.121,0.021-0.303,0.061-0.545,0.121
		c-0.162,0-0.313,0-0.454,0c-0.323,0-0.646-0.131-0.969-0.394c-0.323-0.262-0.616-0.636-0.878-1.12
		c-0.263-0.484-0.601-1.897-1.014-4.238c-0.414-2.341-0.621-4.288-0.621-5.843l0.061-4.602c0-0.767,0.04-1.59,0.121-2.467
		c0.081-0.879,0.171-1.741,0.272-2.589c0.222-1.756,0.524-3.36,0.908-4.813c0.383,0.787,0.853,1.897,1.408,3.33
		c0.555,1.434,1.004,2.503,1.347,3.209l0.061-0.242l8.114,13.289c1.11,1.837,2.059,3.703,2.846,5.601
		c0.928,2.119,1.543,4.128,1.846,6.024c0.908,0,1.756-0.303,2.543-0.908c0.262-0.201,0.918-0.848,1.968-1.938
		c1.11,0.929,2.068,1.534,2.875,1.816c0.504,0.202,1.019,0.354,1.544,0.454c0.524,0.101,1.14,0.151,1.847,0.151
		c-0.404-2.502-0.626-3.905-0.666-4.208c-0.202-1.514-0.303-2.916-0.303-4.208c-0.222-2.604-0.333-5.775-0.333-9.513
		c0-1.817,0.081-3.626,0.242-5.425c0.161-1.797,0.403-3.646,0.727-5.545c0.706-3.879,1.786-7.526,3.239-10.94L127.491,15.445z
		 M104.907,15.203l0.454-0.242l0.091,0.121l-0.061-0.242l-0.878,0.575L104.907,15.203z"/>
	<path fill="#FFFFFF" d="M169.753,16.021c0.928,0.908,1.695,1.574,2.301,1.998c-0.121,0.182-0.354,0.888-0.697,2.119l-0.605,2.301
		c0.182,0.646,0.298,1.085,0.349,1.317c0.05,0.232,0.146,0.717,0.288,1.453c0.141,0.736,0.211,1.781,0.211,3.133
		c0,1.271-0.504,2.503-1.514,3.693c-1.09,1.271-2.311,1.907-3.662,1.907c-1.354,0-2.625-0.384-3.814-1.15
		c-0.768-0.524-1.676-1.241-2.725-2.149l-0.303,0.938l-0.242,4.723c0,0.403-0.051,1.514-0.152,3.33
		c-0.02,0.363-0.029,0.838-0.029,1.423c0,0.162,0.024,0.631,0.075,1.408c0.05,0.777,0.075,1.397,0.075,1.861
		c0.121,1.05,0.334,2.1,0.637,3.148c1.715,0.828,3.066,1.766,4.057,2.815c1.271,1.372,1.906,2.836,1.906,4.39
		c0,1.555-0.646,2.992-1.938,4.314c-1.291,1.322-2.572,1.982-3.844,1.982c-1.252,0-2.307-0.177-3.164-0.529
		c-0.857-0.354-1.68-0.863-2.467-1.529c-0.626,0.848-1.393,1.463-2.301,1.847c-0.908,0.424-2.14,0.636-3.693,0.636
		c-1.574,0-3.36-1.12-5.358-3.36s-2.997-4.087-2.997-5.54c0-1.433,0.161-2.522,0.484-3.27c0.424-0.888,0.979-1.372,1.665-1.453
		l0.727,0.848c0.343,0.344,0.666,0.545,0.969,0.605l0.151-0.091c0.827-1.353,1.413-3.027,1.756-5.025
		c0.262-1.453,0.394-3.027,0.394-4.723c0-0.323-0.025-1.004-0.076-2.044c-0.051-1.039-0.076-1.82-0.076-2.346l-0.636-6.872
		l-0.272-0.151c-0.182,0.081-0.348,0.237-0.5,0.469c-0.151,0.232-0.227,0.47-0.227,0.712c0.04,0.263,0.262,0.838,0.666,1.726
		c0.222,0.424,0.333,0.908,0.333,1.453c0,0.525-0.454,0.929-1.362,1.211c-0.585,0.182-1.736,0.272-3.451,0.272
		c-1.736,0-3.335-0.817-4.798-2.452c-1.463-1.635-2.195-3.219-2.195-4.753c0-0.787,0.02-1.493,0.061-2.119
		c0.04-0.626,0.091-1.171,0.151-1.635c0.282-1.776,0.424-3.077,0.424-3.905c0-0.686-0.202-1.418-0.605-2.195
		c-0.404-0.776-0.828-1.468-1.271-2.073c0-0.343,0.191-0.569,0.575-0.681c0.383-0.111,0.656-0.177,0.817-0.197
		c0.161-0.02,0.373-0.03,0.636-0.03c1.13,0.323,1.781,0.51,1.953,0.56c0.171,0.051,1.307,0.339,3.406,0.863
		c0.767-0.706,1.523-1.06,2.271-1.06c0.767,0,1.927,0.182,3.481,0.545c0.787,0.182,1.534,0.272,2.24,0.272
		c0.767,0,1.514-0.394,2.24-1.181c0.605,0,1.322,0.257,2.149,0.772c0.827,0.514,1.443,0.771,1.847,0.771
		c0.383,0,1.029-0.176,1.938-0.529c0.908-0.354,1.514-0.53,1.816-0.53c0.281,0,0.727,0.097,1.332,0.288s1.16,0.287,1.664,0.287
		c0.525,0,1.479-0.151,2.861-0.454s2.266-0.454,2.648-0.454l0.848,0.03h0.424L169.753,16.021z M133.031,14.749
		c0.605,0.626,1.06,1.322,1.362,2.089c0.343,0.747,0.515,1.474,0.515,2.18c0,0.344-0.021,0.711-0.061,1.105
		c-0.041,0.393-0.091,0.822-0.151,1.286c-0.162,1.009-0.272,1.902-0.333,2.679c-0.061,0.777-0.091,1.56-0.091,2.347
		c0,1.474,0.686,2.978,2.059,4.511c1.372,1.534,2.825,2.301,4.359,2.301c1.514,0,2.502-0.051,2.967-0.151
		c0.848-0.222,1.271-0.524,1.271-0.908s-0.167-0.913-0.5-1.589s-0.5-1.186-0.5-1.529c0-0.343,0.146-0.706,0.439-1.09
		c0.292-0.383,0.54-0.575,0.742-0.575c0.242,0.021,0.444,0.091,0.605,0.212l0.363,0.303c0.101,0.223,0.207,0.768,0.318,1.635
		c0.111,0.868,0.167,1.979,0.167,3.33c0,0.707,0.05,1.907,0.151,3.603c0.101,1.695,0.151,2.664,0.151,2.906
		c0,1.251-0.202,3.067-0.605,5.449c-0.565,3.31-1.171,4.965-1.816,4.965c-0.626,0-1.141-0.171-1.544-0.515l-0.817-0.878
		c-0.424,0.182-0.757,0.601-0.999,1.257s-0.363,1.619-0.363,2.891s0.948,2.967,2.846,5.086c1.897,2.119,3.865,3.179,5.903,3.179
		c2.059,0,3.703-0.918,4.935-2.755c0.908,0.787,1.715,1.353,2.421,1.695c0.908,0.424,1.958,0.636,3.148,0.636
		c1.231,0,2.432-0.591,3.604-1.771c1.17-1.182,1.756-2.498,1.756-3.951s-0.616-2.815-1.848-4.087
		c-0.867-0.888-2.17-1.776-3.904-2.664l-0.092-0.061c-0.303-0.464-0.52-1.372-0.65-2.725s-0.207-2.204-0.227-2.558
		c-0.021-0.354-0.031-0.934-0.031-1.741l0.121-5.056c0-1.23,0.061-2.381,0.182-3.451c0.061-0.484,0.102-0.767,0.121-0.848
		l0.242-0.878l0.273-1.06c2.199,1.776,3.451,2.755,3.754,2.937c0.928,0.585,1.987,0.878,3.178,0.878c1.15,0,2.2-0.564,3.148-1.695
		c0.949-1.13,1.424-2.25,1.424-3.36c0-1.069-0.143-2.25-0.424-3.542c-0.162-0.686-0.273-1.195-0.334-1.529
		c-0.061-0.332-0.09-0.56-0.09-0.681l0.484-2.028l0.695-2.361l-2.059-1.756c-0.888-0.746-1.543-1.372-1.967-1.877l-0.605-0.03
		c-0.748,0-1.797,0.151-3.148,0.454c-1.354,0.303-2.433,0.454-3.24,0.454c-0.767,0-1.554-0.191-2.361-0.575
		c-0.303,0-1.15,0.242-2.543,0.727c-0.383,0.142-0.676,0.232-0.877,0.272c-0.202,0.04-0.414,0.061-0.636,0.061
		c-0.404,0-0.848-0.151-1.332-0.454c-1.191-0.727-1.958-1.09-2.301-1.09c-0.888,0.787-1.726,1.181-2.513,1.181
		c-0.747,0-1.695-0.131-2.846-0.394c-0.585-0.161-1.05-0.272-1.393-0.333c-0.343-0.061-0.646-0.091-0.908-0.091
		c-0.404,0-0.873,0.102-1.408,0.303c-0.535,0.202-0.923,0.454-1.166,0.757c-0.727,0-1.69-0.237-2.891-0.712
		c-1.201-0.474-1.993-0.711-2.376-0.711l-0.817,0.061l-0.454,0.091l0.061,0.061C133.212,14.567,133.031,14.628,133.031,14.749z
		 M134.605,14.87c0.343,0.04,0.777,0.151,1.302,0.333l0.787,0.303c-0.263-0.08-1.05-0.121-2.361-0.121
		c0.303,0.586,0.515,1.05,0.636,1.393c0.161,0.323,0.272,0.747,0.333,1.271c-0.242-1.15-0.707-2.17-1.393-3.058
		C134.13,14.91,134.363,14.87,134.605,14.87z M135.104,25.769c0.131,0.646,0.368,1.222,0.711,1.726
		c0.827,1.252,1.806,1.877,2.937,1.877c1.15,0,1.907-0.121,2.271-0.363c0.363-0.282,0.696-0.746,0.999-1.393
		c-0.283-0.464-0.535-0.988-0.757-1.574c-0.222-0.585-0.333-1.211-0.333-1.877c0-0.646,0.242-1.211,0.727-1.695
		s1.15-0.727,1.998-0.727c0.868,0,1.534,0.747,1.998,2.24c0.222,0.646,0.434,1.776,0.636,3.391l-0.333-0.212l-0.545-0.272
		c-0.484,0-0.938,0.217-1.362,0.65c-0.424,0.435-0.636,0.904-0.636,1.408c0,0.465,0.191,1.131,0.575,1.998
		c0.161,0.303,0.262,0.515,0.303,0.636c0.04,0.121,0.081,0.293,0.121,0.515c-0.061,0.182-0.328,0.333-0.802,0.454
		c-0.475,0.121-1.428,0.182-2.861,0.182c-1.433,0-2.785-0.722-4.057-2.165c-1.271-1.442-1.907-2.779-1.907-4.011v-2.119l0.121-0.969
		C134.908,24.355,134.973,25.123,135.104,25.769z M135.422,19.472c0,0.403-0.061,0.999-0.182,1.786l-0.333,2.21l0.242-2.089
		c0.141-0.988,0.212-1.695,0.212-2.119l-0.061-1.211C135.382,18.533,135.422,19.008,135.422,19.472z M166.392,28.205
		c-0.706,0.677-1.433,1.015-2.18,1.015c-0.706,0-1.383-0.081-2.027-0.242c-0.908-0.282-1.424-0.655-1.545-1.12l0.848-1.938
		c0.363-0.787,0.545-1.504,0.545-2.149c0-0.666-0.242-1.267-0.727-1.802c-0.484-0.534-1.24-0.802-2.27-0.802
		c-1.051,0-2.049,1.231-2.998,3.693c-0.787,2.038-1.18,4.047-1.18,6.024c0,0.223,0.061,1.534,0.182,3.936
		c0.04,0.808,0.061,1.665,0.061,2.573c0,1.069,0.091,2.21,0.272,3.421c0.081,0.505,0.263,1.523,0.545,3.058
		c0.484,2.442,1.121,4.501,1.908,6.176c0.1,0.161,0.196,0.308,0.287,0.438c0.091,0.132,0.166,0.228,0.227,0.288
		c0.242,0.182,0.475,0.272,0.697,0.272c0.262,0,0.574-0.061,0.938-0.182l0.908-0.454c0.384,0.646,0.576,1.332,0.576,2.059
		c0,0.747-0.424,1.362-1.271,1.847c-0.727,0.424-1.959,0.636-3.693,0.636c-1.756,0-3.23-1.13-4.42-3.391
		c-0.525,1.231-1.337,2.21-2.437,2.937c-1.1,0.727-2.316,1.09-3.648,1.09c-1.312,0-2.382-0.357-3.209-1.074
		c-0.828-0.717-1.241-1.509-1.241-2.377c0-0.827,0.081-1.433,0.242-1.816l0.363-0.151l0.999,0.484
		c0.202,0.121,0.348,0.202,0.439,0.242s0.176,0.071,0.257,0.091l0.454,0.03l0.394-0.394c0.646-0.564,1.16-1.342,1.544-2.331
		c0.383-0.989,0.706-2.28,0.969-3.875c0.182-1.069,0.328-2.154,0.439-3.255c0.111-1.1,0.167-2.255,0.167-3.466
		c0-1.453-0.025-2.669-0.076-3.647c-0.051-0.979-0.146-2.18-0.288-3.604c-0.142-1.422-0.369-2.795-0.681-4.117
		c-0.313-1.321-0.631-2.486-0.954-3.496c-0.384-1.069-1.08-1.604-2.089-1.604c-0.989,0-1.786,0.293-2.392,0.878
		c-0.605,0.586-0.908,1.271-0.908,2.059c0,0.444,0.04,0.838,0.121,1.181c0.081,0.343,0.202,0.727,0.363,1.15l0.545,1.181
		c-0.242,0.444-0.505,0.752-0.787,0.924c-0.283,0.172-0.898,0.257-1.847,0.257c-0.888,0-1.706-0.494-2.452-1.483
		c-0.646-0.888-0.969-1.807-0.969-2.755c0-0.545,0.02-1.054,0.061-1.528c0.04-0.475,0.106-1.029,0.197-1.666
		c0.091-0.635,0.151-1.1,0.182-1.393c0.03-0.292,0.045-0.771,0.045-1.438c0-0.827-0.242-1.726-0.727-2.694
		c0.686,0,1.483,0.182,2.392,0.545s1.453,0.545,1.635,0.545l0.636-0.091c0.767-0.767,1.564-1.15,2.392-1.15
		c0.363,0,0.842,0.041,1.438,0.121c0.595,0.081,1.115,0.172,1.559,0.272c1.211,0.242,2.048,0.363,2.513,0.363
		c0.303,0,0.555-0.021,0.757-0.061c0.202-0.04,0.414-0.101,0.636-0.182c0.484-0.202,0.908-0.424,1.271-0.666l1.877,0.727
		c1.009,0.403,1.675,0.605,1.998,0.605c0.343-0.04,1.151-0.263,2.422-0.666c0.363-0.121,0.655-0.202,0.877-0.242
		c0.223-0.04,0.455-0.061,0.697-0.061l2.725,0.242l1.604,0.121c0.323,0,0.747-0.07,1.271-0.212l1.545-0.484
		c0.402,0,0.666,0.111,0.787,0.333l0.09,0.303l-0.393,0.787c-0.264,0.585-0.395,1.19-0.395,1.816c0,0.585,0.328,1.721,0.984,3.405
		c0.656,1.686,0.984,2.942,0.984,3.77C167.452,26.809,167.099,27.529,166.392,28.205z M137.36,15.778l-0.666-0.272l0.605,0.212
		l0.727,0.272L137.36,15.778z M139.54,16.414l-0.272,0.061l-0.545-0.151l-0.696-0.333l0.817,0.182l0.817,0.091L139.54,16.414z
		 M140.266,16.293h-0.303l-0.303-0.03c0.868-0.687,1.826-1.029,2.876-1.029C141.588,15.334,140.831,15.688,140.266,16.293z
		 M141.356,50.684c-0.021,0.081-0.061,0.223-0.121,0.424c0,0.202,0,0.404,0,0.605c0,0.344,0.055,0.717,0.167,1.12
		c0.111,0.403,0.207,0.717,0.288,0.938c0.081,0.223,0.161,0.414,0.242,0.575c-0.605-0.848-0.908-1.624-0.908-2.331
		c0-0.666,0.04-1.181,0.121-1.544c0.121-0.323,0.262-0.534,0.424-0.636L141.356,50.684z M143.99,50.411l-0.182,0.061l-1.483-0.817
		l-0.424,0.03l-0.333,0.151c0.101-0.322,0.242-0.564,0.424-0.727c0.282,0.323,0.565,0.586,0.848,0.787
		c0.403,0.283,0.767,0.424,1.09,0.424l0.151-0.03L143.99,50.411z M143.763,55.648c0.797,0.303,1.67,0.454,2.619,0.454
		c1.009,0,2.063-0.308,3.164-0.923c1.1-0.615,1.953-1.469,2.558-2.559c0.666,0.929,1.493,1.635,2.482,2.119
		c0.989,0.484,2.018,0.727,3.087,0.727c1.09,0,2.049-0.252,2.877-0.757c0.947-0.585,1.422-1.231,1.422-1.938
		c0-0.727-0.09-1.332-0.271-1.816l-0.576-1.241c-0.484,0.263-0.777,0.424-0.877,0.484c-0.102,0.061-0.268,0.131-0.5,0.212
		s-0.439,0.121-0.621,0.121c-0.222-0.04-0.383-0.106-0.484-0.196c-0.101-0.092-0.211-0.268-0.332-0.53
		c-0.768-1.635-1.383-3.612-1.848-5.934c-0.282-1.393-0.453-2.261-0.514-2.604c-0.242-1.433-0.363-2.765-0.363-3.996
		c0-0.565-0.036-1.554-0.106-2.967c-0.071-1.413-0.106-2.462-0.106-3.148c0-1.978,0.354-3.945,1.061-5.903
		c0.867-2.381,1.745-3.572,2.633-3.572c0.908,0,1.545,0.212,1.908,0.636s0.545,0.938,0.545,1.544c0,0.565-0.172,1.252-0.516,2.059
		l-0.969,1.968c0.444,0.727,1.029,1.231,1.756,1.514c0.565,0.222,1.332,0.333,2.301,0.333s1.857-0.398,2.664-1.195
		c0.808-0.797,1.211-1.62,1.211-2.468c0-0.868-0.328-2.079-0.983-3.633c-0.656-1.554-0.983-2.653-0.983-3.3
		c0-0.605,0.029-0.969,0.09-1.09l-0.061-0.515l0.061,0.182c0.121-0.282,0.232-0.52,0.334-0.712c0.1-0.191,0.221-0.378,0.363-0.56
		c0-0.384-0.111-0.706-0.334-0.969c-0.101-0.101-0.211-0.202-0.332-0.303c-0.021-0.021-0.061-0.05-0.121-0.091
		c0.061-0.02,0.131-0.03,0.211-0.03l0.879-0.03l3.693,3.3l-1.15,4.087c0.121,0.424,0.227,0.863,0.317,1.316
		c0.091,0.455,0.177,0.904,0.257,1.348c0.202,1.01,0.303,2.049,0.303,3.118c0,1.05-0.403,2.069-1.211,3.058
		c-0.888,1.07-1.917,1.604-3.088,1.604c-1.17,0-2.492-0.555-3.965-1.665c-0.465-0.322-1.02-0.777-1.666-1.362
		c-0.464-0.424-0.928-0.848-1.393-1.271l-0.303,1.483c-0.101,0.545-0.232,0.999-0.393,1.362l-0.152,3.542
		c0,0.949-0.029,1.947-0.09,2.997c-0.121,2.119-0.182,3.188-0.182,3.209c0,0.585,0.02,1.187,0.061,1.802
		c0.039,0.615,0.09,1.246,0.15,1.892c0.182,1.372,0.444,2.503,0.787,3.391c1.797,0.908,3.078,1.735,3.846,2.482
		c1.271,1.251,1.906,2.543,1.906,3.875c0,1.353-0.545,2.573-1.635,3.663s-2.209,1.635-3.359,1.635c-1.131,0-2.15-0.242-3.059-0.727
		c-0.746-0.403-1.564-1.02-2.452-1.847c-0.767,1.11-1.463,1.856-2.089,2.24c-0.767,0.505-1.807,0.757-3.118,0.757
		c-1.332,0-2.725-0.666-4.178-1.998c-1.292-1.19-2.291-2.513-2.997-3.966C142.355,54.912,142.965,55.346,143.763,55.648z
		 M147.471,16.051l-4.753-0.817c0.303,0,0.787,0.061,1.453,0.182s1.029,0.192,1.09,0.212c1.15,0.242,1.958,0.363,2.422,0.363
		c0.303,0,0.555-0.02,0.757-0.061c0.202-0.04,0.414-0.101,0.636-0.182c0.444-0.201,0.857-0.454,1.241-0.757
		C149.489,15.697,148.541,16.051,147.471,16.051z M146.563,27.736c0.222,1.15,0.378,2.1,0.469,2.846
		c0.091,0.747,0.136,1.544,0.136,2.392c0,0.464,0.05,1.665,0.151,3.603c0.04,0.768,0.061,1.494,0.061,2.18
		c0,1.958-0.212,4.077-0.636,6.357c-0.646,3.33-1.534,5.056-2.664,5.177c1.211-1.09,2.038-3.067,2.482-5.934
		c0.303-1.856,0.454-3.885,0.454-6.085c0-0.282-0.051-1.584-0.151-3.905c-0.021-0.464-0.03-1.11-0.03-1.938
		c0-0.727-0.061-1.538-0.182-2.437s-0.242-1.771-0.363-2.619L146.563,27.736z M150.317,14.991l0.151-0.091l0.605,0.212l0.848,0.545
		L150.317,14.991z M153.859,16.414c-0.303,0-0.605-0.061-0.908-0.182l-1.029-0.575l1.15,0.424l1.06,0.303L153.859,16.414z
		 M154.374,16.354l0.908-0.212l1.09-0.363C155.726,16.102,155.06,16.293,154.374,16.354z M157.249,15.536l-0.877,0.242l0.756-0.272
		c0.223-0.101,0.475-0.151,0.758-0.151l0.182,0.091L157.249,15.536z M161.185,15.869c-0.061,0-0.161,0.021-0.303,0.061
		c-0.141,0-0.271,0-0.393,0h-0.516c-0.464,0-1.1-0.161-1.906-0.484h0.182l3.693,0.333L161.185,15.869z M161.942,15.778l1.361-0.272
		l1.848-0.363C164.425,15.566,163.354,15.778,161.942,15.778z M165.151,15.143l0.121-0.061h0.242L165.151,15.143z"/>
	<path fill="#FFFFFF" d="M214.98,56.587c0.263,0.605,0.395,1.251,0.395,1.938c0,0.605-0.071,1.141-0.213,1.604
		c-0.242,0.625-0.655,0.938-1.24,0.938l-1.484-0.817c-1.009-0.484-2.048-0.727-3.117-0.727c-0.586,0-1.308,0.102-2.165,0.303
		c-0.857,0.202-1.933,0.505-3.225,0.908c-2.422,0.827-4.328,1.241-5.721,1.241c-1.271,0-2.695-0.282-4.27-0.848
		c-1.19-0.444-2.502-1.11-3.936-1.998l-1.816,1.181c-1.09,0.666-2.492,0.999-4.207,0.999c-1.736,0-3.765-0.857-6.086-2.573
		c-2.502-1.877-3.754-3.552-3.754-5.025c0-1.493,0.142-2.583,0.424-3.27c0.323-0.706,0.727-1.372,1.211-1.998l0.939,0.999
		c0.523,0.505,1.019,0.757,1.482,0.757c0.484,0,1.029-1.533,1.635-4.602c0.505-2.543,0.758-5.439,0.758-8.688
		c-0.021-0.787-0.041-1.614-0.061-2.482c-0.021-0.868-0.031-1.806-0.031-2.815c0-0.585-0.055-1.195-0.166-1.832
		c-0.111-0.635-0.248-1.316-0.408-2.043c-0.424-1.654-1.02-3.037-1.787-4.147l-2.693-3.814c-1.414-2.019-2.18-3.219-2.301-3.603
		c-0.021-0.061-0.031-0.141-0.031-0.242c0-0.282,0.223-0.504,0.666-0.666c0.444-0.161,1.08-0.242,1.908-0.242
		c0.867,0,2.043,0.227,3.526,0.682c1.483,0.453,2.608,0.681,3.376,0.681l1.301-0.999c0.444-0.322,0.818-0.484,1.121-0.484
		c0.322,0,0.545,0.061,0.666,0.182l0.848,0.484c0.504,0.323,0.988,0.484,1.453,0.484l5.418-1.544
		c0.081-0.021,0.232-0.061,0.455-0.121c0.281,0,0.564,0,0.848,0h1.785l5.691,0.817c0.605,0,2.019-0.322,4.238-0.969
		c1.07-0.303,1.958-0.454,2.665-0.454c0.767,0,1.523,0.524,2.27,1.574c0.565,0.808,1.029,1.726,1.393,2.755
		c-0.182,0.182-0.317,0.479-0.408,0.893c-0.091,0.414-0.146,0.737-0.166,0.969c-0.021,0.232-0.031,0.439-0.031,0.621l1.574,7.296
		c0,1.474-0.57,2.725-1.71,3.754c-1.141,1.029-2.366,1.544-3.679,1.544c-1.352,0-2.795-0.676-4.329-2.028
		c-0.888-0.787-1.978-1.958-3.27-3.512l-0.332-1.302c-0.162-0.363-0.586-0.545-1.271-0.545c-0.688,0-1.343,0.111-1.969,0.333
		c-0.867,0.323-1.402,0.757-1.604,1.302l0.15,0.151c0.202-0.021,0.484-0.03,0.848-0.03c1.393,0,2.654,0.384,3.785,1.15
		c0.383,0.444,0.666,0.989,0.848,1.635c0.182,0.646,0.271,1.292,0.271,1.938c0,0.605-0.045,1.166-0.136,1.68
		c-0.091,0.516-0.278,0.984-0.56,1.408l1.482,1.544c0.202,0.343,0.303,0.948,0.303,1.816s-0.429,1.872-1.286,3.013
		c-0.858,1.141-1.831,1.871-2.921,2.194c0.121,0.747,0.539,1.796,1.256,3.148s1.316,2.24,1.801,2.664l0.576-0.091
		c0-0.545-0.092-1.271-0.273-2.18c-0.101-0.524-0.166-0.928-0.196-1.211c-0.03-0.282-0.046-0.736-0.046-1.362
		c0-0.808,0.551-1.7,1.65-2.679s2.336-1.469,3.708-1.469c1.373,0,3.027,0.757,4.965,2.271l2.574,2.149
		c0.686,1.373,1.029,2.937,1.029,4.692c0,0.888-0.121,1.731-0.363,2.528s-0.596,1.549-1.061,2.255
		C214.396,55.295,214.738,55.941,214.98,56.587z M201.479,40.148c0.303-0.948,0.453-1.635,0.453-2.059
		c0-0.443-0.222-0.918-0.666-1.423l-1.332-1.271c0.344-0.403,0.58-0.848,0.712-1.332c0.131-0.484,0.196-1.595,0.196-3.33
		c0-1.756-0.787-2.634-2.361-2.634c-0.888,0-1.543,0.01-1.967,0.03s-0.768,0.051-1.029,0.091l-0.637-0.636
		c0.202-0.706,0.687-1.271,1.453-1.695c0.747-0.464,1.363-0.696,1.848-0.696l1.393,0.091l0.816,0.091
		c0.384,0.182,0.605,0.525,0.666,1.029l0.213,0.938c1.189,1.433,2.189,2.513,2.996,3.239c1.514,1.332,2.856,1.998,4.026,1.998
		c1.191,0,2.291-0.459,3.301-1.377c1.009-0.918,1.514-1.902,1.514-2.952c0-1.069-0.258-2.407-0.772-4.011
		c-0.515-1.605-0.772-2.75-0.772-3.437c0-0.666,0.031-1.181,0.092-1.544c0.121-0.424,0.201-0.686,0.242-0.787
		c0.04-0.101,0.101-0.232,0.182-0.394l-1.182-2.271c-0.585-0.948-1.251-1.423-1.998-1.423c-0.706,0-1.806,0.242-3.3,0.727
		c-0.807,0.263-1.458,0.444-1.952,0.545c-0.495,0.101-0.944,0.151-1.347,0.151c-0.666,0-1.646-0.141-2.938-0.424
		c-0.827-0.182-1.785-0.277-2.875-0.287s-2.069-0.016-2.938-0.016c-0.524,0-1.664,0.363-3.42,1.09
		c-0.848,0.344-1.574,0.505-2.18,0.484c-0.484-0.101-1.051-0.303-1.695-0.605l-1.029-0.545c-0.385,0-0.854,0.248-1.408,0.742
		s-0.924,0.741-1.105,0.741l-0.848-0.091l-0.848-0.121c-0.706-0.303-1.579-0.57-2.618-0.803c-1.04-0.231-1.751-0.348-2.134-0.348
		l-1.484,0.061c-0.625,0-0.969,0.102-1.029,0.303l0.061,0.242c2.927,4.219,4.562,6.63,4.904,7.235
		c1.07,1.796,1.756,3.542,2.059,5.237s0.455,4.461,0.455,8.295c0,1.938-0.082,3.719-0.242,5.344
		c-0.162,1.625-0.395,3.113-0.697,4.465c-0.625,2.685-1.24,4.026-1.846,4.026s-1.08-0.11-1.424-0.333
		c-0.383-0.303-0.777-0.676-1.18-1.12c-0.707,0.948-1.061,2.251-1.061,3.905c0,1.615,1.191,3.29,3.572,5.025
		c2.221,1.595,4.088,2.392,5.602,2.392c1.553,0,2.774-0.242,3.662-0.727l2.393-1.544l3.996,1.968
		c1.352,0.646,2.744,0.969,4.178,0.969c1.371,0,3.314-0.409,5.827-1.226c2.513-0.818,4.314-1.227,5.404-1.227
		c1.069,0,2.119,0.242,3.148,0.727l1.543,0.787c0.323-0.061,0.52-0.272,0.591-0.636c0.07-0.363,0.106-0.837,0.106-1.423
		c0-0.564-0.152-1.19-0.455-1.877c-0.303-0.686-0.676-1.291-1.119-1.816c0.564-0.908,0.969-1.735,1.211-2.482
		c0.242-0.746,0.363-1.533,0.363-2.361c0-0.424-0.021-0.827-0.061-1.211c-0.041-0.383-0.092-0.746-0.152-1.09
		c-0.141-0.727-0.363-1.383-0.666-1.968l-2.391-1.998c-1.897-1.474-3.391-2.21-4.48-2.21c-1.131,0-2.095,0.268-2.892,0.803
		s-1.408,1.205-1.832,2.013c-0.121,0.222-0.211,0.596-0.271,1.12l-0.092,1.181c0,0.242,0.152,0.878,0.455,1.907
		c0.141,0.484,0.201,0.929,0.182,1.332l-0.092,0.242l-0.182,0.212l-0.242,0.091c-0.242,0-0.424,0.021-0.545,0.061l0.031-0.182
		l-0.363,0.212c-0.586-0.384-1.308-1.413-2.165-3.088c-0.858-1.675-1.286-2.937-1.286-3.784c0.848-0.262,1.492-0.524,1.938-0.787
		c0.545-0.343,1.059-0.797,1.543-1.362C201.247,40.986,201.337,40.593,201.479,40.148z M174.565,16.293l0.969,1.393l-1.301-1.574
		l1.211,0.121L174.565,16.293z M181.015,27.434c0.523,1.979,0.787,6.064,0.787,12.261c0,1.05-0.071,2.109-0.213,3.179
		c-0.141,1.07-0.354,2.24-0.635,3.512c-0.787,3.371-1.867,5.056-3.24,5.056l-0.938-0.424c-0.385-0.202-0.666-0.413-0.848-0.636
		c-0.385,0.687-0.576,1.463-0.576,2.331s0.283,1.756,0.848,2.664c-0.424-0.403-0.756-0.853-0.998-1.347s-0.363-1.024-0.363-1.59
		c0-0.585,0.085-1.045,0.257-1.377c0.171-0.334,0.52-0.621,1.044-0.863l0.848,0.424l0.424,0.484
		c0.202,0.142,0.525,0.212,0.969,0.212c0.484,0,1.029-1.211,1.635-3.633c0.263-0.989,0.484-2.083,0.666-3.284
		s0.344-2.508,0.484-3.921c0.223-2.059,0.334-4.106,0.334-6.146c0-0.948-0.082-1.957-0.242-3.027
		c-0.162-1.069-0.395-2.23-0.697-3.481c-0.625-2.462-1.564-4.772-2.814-6.933C179.399,23.276,180.489,25.456,181.015,27.434z
		 M204.022,43.146c0.666-0.605,1.514-0.908,2.542-0.908c1.01,0,1.948,0.409,2.816,1.226c0.867,0.818,1.301,1.701,1.301,2.649
		c0,0.929-0.282,1.767-0.848,2.513c-0.443,0.565-1.029,1.12-1.756,1.665l1.09,1.514c0.868,1.251,1.303,2.392,1.303,3.421
		c-0.525-0.201-0.889-0.328-1.09-0.379c-0.202-0.05-0.525-0.125-0.969-0.227c-0.444-0.101-0.798-0.166-1.061-0.197
		c-0.262-0.029-0.767-0.045-1.513-0.045c-0.99,0-2.75,0.303-5.283,0.908s-4.536,0.908-6.01,0.908c-1.493,0-2.951-0.459-4.374-1.377
		s-2.64-2.135-3.647-3.648l-2.029,2.755c-1.15,1.353-2.473,2.028-3.965,2.028c-1.535,0-2.725-0.272-3.572-0.817
		c-1.01-0.646-1.514-1.353-1.514-2.119c0-0.444,0.01-0.767,0.029-0.969c0.021-0.202,0.066-0.413,0.137-0.636
		c0.07-0.222,0.247-0.403,0.529-0.545l0.818,0.666c0.281,0.263,0.766,0.394,1.453,0.394c0.686,0,1.382-1.231,2.088-3.693
		c0.545-1.917,0.969-4.369,1.271-7.356c0.223-2.018,0.334-5.207,0.334-9.566c0-4.178-2.16-9.001-6.479-14.471l1.695,0.121
		c0.322,0,1.442,0.272,3.359,0.817c0.666,0.182,1.252,0.272,1.756,0.272c0.525,0,0.975-0.121,1.348-0.363s0.762-0.596,1.166-1.06
		c0.443,0.323,0.908,0.575,1.393,0.757s1.059,0.272,1.725,0.272c0.727,0,1.993-0.272,3.8-0.817c1.806-0.545,3.244-0.817,4.313-0.817
		c0.565,0,1.096,0.021,1.59,0.061s0.984,0.091,1.469,0.151c0.988,0.162,1.896,0.444,2.725,0.848c0.564-0.061,1.734-0.414,3.512-1.06
		c0.887-0.303,1.694-0.454,2.421-0.454c-0.08,0.283-0.136,0.535-0.166,0.757s-0.056,0.454-0.076,0.696l-0.09,1.604
		c0,0.565,0.271,1.528,0.816,2.892c0.545,1.361,0.818,2.487,0.818,3.375c0,0.889-0.39,1.73-1.166,2.527
		c-0.777,0.798-1.63,1.196-2.558,1.196c-0.93,0-1.625-0.142-2.09-0.424c-0.464-0.323-0.908-0.797-1.332-1.423
		c0.182-0.222,0.328-0.524,0.439-0.908c0.111-0.383,0.182-0.682,0.212-0.893c0.03-0.213,0.046-0.611,0.046-1.196
		c0-0.808-0.576-1.624-1.727-2.452c-1.009-0.746-2.522-1.12-4.541-1.12c-1.978,0-3.602,0.777-4.873,2.331
		c-1.15,1.434-1.727,3.26-1.727,5.479c0,2.2,0.081,3.623,0.242,4.269c0.404,1.393,1.08,2.089,2.029,2.089
		c0.969,0,1.76-0.237,2.376-0.712c0.615-0.474,0.923-0.933,0.923-1.377c0-0.484-0.09-0.999-0.271-1.544l-0.424-1.181
		c0.383-0.262,0.695-0.394,0.938-0.394h2.301c0.363,0.121,0.777,0.479,1.242,1.075c0.463,0.596,0.695,1.165,0.695,1.71
		s-0.182,1.161-0.545,1.847c-0.363,0.687-0.807,1.302-1.332,1.847c0.182,0.242,0.747,0.757,1.695,1.544
		c0.707,0.586,1.061,1.302,1.061,2.149c0,0.868-0.354,1.655-1.061,2.361c-0.706,0.706-1.301,1.06-1.785,1.06
		s-0.898-0.03-1.242-0.091c-0.343-0.101-0.585-0.231-0.727-0.394l-0.121-0.272l0.092-0.908l0.09-1.453
		c0-0.585-0.201-1.14-0.605-1.665c-0.484-0.605-1.09-0.908-1.816-0.908c-0.767,0-1.393,0.212-1.877,0.636
		c-0.222,0.202-0.414,0.394-0.574,0.575c-0.162,0.182-0.334,0.404-0.516,0.666c-0.242,1.191-0.363,2.755-0.363,4.692
		c0,1.958,0.586,3.814,1.756,5.57c1.353,2.019,2.967,3.027,4.844,3.027c1.837,0,3.29-0.171,4.359-0.515
		c1.07-0.403,1.988-0.959,2.756-1.665c-0.525-0.888-0.858-1.635-1-2.24l-0.363-2.392C202.901,44.508,203.356,43.751,204.022,43.146z
		 M175.444,16.232h0.303l1.482,0.121L175.444,16.232z M176.11,18.412c0.121,0.182,0.313,0.454,0.574,0.817l1.061,1.665l-2.211-3.209
		C175.696,17.867,175.888,18.109,176.11,18.412z M212.877,59.145c-0.354-0.171-0.631-0.297-0.832-0.378
		c-0.787-0.303-1.706-0.454-2.756-0.454c-1.029,0-2.8,0.408-5.313,1.227c-2.513,0.816-4.435,1.226-5.767,1.226
		c-1.271,0-2.705-0.323-4.299-0.969c-1.211-0.484-2.523-1.181-3.936-2.089l-2.361,1.574c-0.969,0.545-2.02,0.817-3.148,0.817
		c-1.15,0-2.604-0.474-4.359-1.423c-1.756-0.948-3.059-2.049-3.906-3.3c0.384,0.323,0.959,0.601,1.727,0.833
		c0.766,0.232,1.795,0.348,3.088,0.348c1.23,0,2.4-0.585,3.512-1.756l1.998-2.604c1.049,1.413,2.279,2.533,3.693,3.36
		c1.412,0.827,2.865,1.241,4.359,1.241c1.473,0,3.476-0.303,6.009-0.908c2.532-0.605,4.334-0.908,5.403-0.908
		c0.525,0,1.03,0.03,1.515,0.091s0.897,0.132,1.24,0.212c0.586,0.162,1.363,0.444,2.332,0.848c0-1.433-0.152-2.452-0.455-3.058
		l-1.725-2.634c0.706-0.585,1.251-1.17,1.635-1.756c0.504-0.767,0.756-1.483,0.756-2.149c0-0.687-0.121-1.302-0.363-1.847
		s-0.574-1.06-0.998-1.544l1.664,1.302l1.787,1.514c0.262,0.484,0.458,1.07,0.59,1.756c0.131,0.687,0.197,1.434,0.197,2.24
		c0,0.747-0.132,1.494-0.395,2.24c-0.282,0.707-0.716,1.534-1.301,2.482c0.524,0.727,0.897,1.322,1.119,1.786
		c0.384,0.747,0.576,1.393,0.576,1.938l-0.121,1.332C213.619,59.514,213.229,59.316,212.877,59.145z M185.101,16.111
		c-0.101,0.021-0.605,0.384-1.514,1.09c-0.343,0.263-0.646,0.394-0.908,0.394l-0.877-0.061l-1.029-0.182l-1.666-0.545l-1.877-0.454
		l0.576,0.03c0.545,0,1.321,0.177,2.33,0.53c1.01,0.354,1.776,0.529,2.301,0.529c0.525,0,0.989-0.172,1.393-0.515l1-1.15
		l0.574,0.424L185.101,16.111z M191.337,16.444c-1.453,0.565-2.381,0.848-2.785,0.848l-0.969-0.061c-0.04,0-0.172-0.035-0.393-0.106
		c-0.223-0.07-0.435-0.146-0.637-0.227l-1.24-0.666h0.121c0.727,0.545,1.503,0.817,2.33,0.817c0.848,0,2.019-0.231,3.512-0.696
		c0.707-0.242,1.191-0.398,1.453-0.469c0.263-0.07,0.444-0.116,0.545-0.137L191.337,16.444z M194.546,28.947l-0.514,0.363
		l0.453,1.332c0.242,0.727,0.363,1.252,0.363,1.574c0,0.344-0.236,0.687-0.711,1.029c-0.475,0.344-1.115,0.515-1.922,0.515
		c-0.768,0-1.293-0.636-1.574-1.907c-0.102-0.403-0.152-1.675-0.152-3.814c0-2.099,0.516-3.784,1.545-5.056
		c1.15-1.453,2.633-2.18,4.449-2.18c1.776,0,3.139,0.313,4.088,0.938c1.049,0.747,1.574,1.463,1.574,2.149
		c0,0.161-0.006,0.384-0.016,0.666s-0.061,0.57-0.151,0.862c-0.091,0.293-0.218,0.591-0.378,0.894
		c-0.061-0.585-0.309-1.019-0.742-1.302c-0.434-0.282-1.125-0.424-2.074-0.424c-0.928,0-1.807,0.223-2.633,0.666
		c-0.969,0.545-1.635,1.373-1.998,2.482l0.938,0.938L194.546,28.947z M197.181,51.622c-1.857,0-3.412-0.958-4.662-2.876
		c-1.07-1.635-1.605-3.35-1.605-5.146c0-0.928,0.031-1.761,0.092-2.498c0.061-0.736,0.141-1.377,0.242-1.922
		c0.262-0.403,0.545-0.727,0.848-0.969c0.424-0.363,0.918-0.545,1.482-0.545c0.605,0,1.07,0.223,1.393,0.666
		c0.323,0.444,0.484,1.1,0.484,1.968l-0.182,1.726c0.121,0.465,0.338,0.793,0.651,0.984c0.313,0.191,0.712,0.287,1.196,0.287
		c0,0.989,0.424,2.367,1.271,4.133s1.664,2.9,2.451,3.405l0.939-0.484l-0.152,0.545C200.54,51.38,199.058,51.622,197.181,51.622z
		 M198.513,15.809c-0.404-0.08-1.065-0.126-1.983-0.137c-0.919-0.01-1.882-0.015-2.892-0.015c0.465-0.101,0.833-0.167,1.105-0.196
		c0.272-0.031,0.781-0.046,1.529-0.046c0.484,0,0.953,0.021,1.407,0.061s0.943,0.091,1.468,0.151
		c1.01,0.162,1.938,0.414,2.785,0.757C201.63,16.384,200.489,16.192,198.513,15.809z M198.709,29.174
		c-0.172-0.07-0.409-0.146-0.712-0.227c-0.303-0.121-0.524-0.191-0.666-0.212c-0.141-0.021-0.343-0.03-0.605-0.03l-0.848,0.061
		l-0.605,0.091l-0.182-0.182c0.223-0.081,0.455-0.121,0.697-0.121c0.201-0.04,0.463-0.061,0.787-0.061l0.877,0.03l0.787,0.03
		l0.424,0.363l0.697,0.636C199.097,29.371,198.88,29.245,198.709,29.174z M197.12,42.994c1.029-0.303,1.664-0.515,1.906-0.636
		c0.344-0.202,0.879-0.636,1.605-1.302l0.666-2.422c0.02,0.142,0.061,0.384,0.121,0.727c0,0.263,0,0.515,0,0.757
		c0,0.524-0.414,1.196-1.242,2.013c-0.827,0.818-1.482,1.227-1.967,1.227l-1.09-0.061V42.994z M200.026,36.667l-1.15-0.999
		l0.666-0.938l0.574-1.029c-0.061,0.384-0.182,0.696-0.363,0.938l-0.635,0.787l1.09,1.029c0.322,0.303,0.545,0.52,0.666,0.65
		c0.121,0.132,0.252,0.309,0.393,0.53l0.031,0.999C201.095,37.808,200.671,37.151,200.026,36.667z M200.208,32.762
		c-0.021-0.161-0.031-0.333-0.031-0.515s0-0.363,0-0.545c0-0.363-0.045-0.706-0.136-1.029s-0.196-0.575-0.317-0.757
		c0.281,0.242,0.545,0.586,0.787,1.029l0.029,0.787c0,0.687-0.141,1.342-0.424,1.968C200.177,33.418,200.208,33.105,200.208,32.762z
		 M201.63,26.435l0.121,0.545l0.727,0.908l0.848,0.938c-0.504-0.242-0.888-0.515-1.15-0.817c-0.262-0.303-0.524-0.716-0.787-1.241
		l0.213-0.454L201.63,26.435z M202.569,50.714c-0.223,0.101-0.535,0.161-0.939,0.182l0.697-0.363l0.787-0.515
		C202.972,50.422,202.79,50.653,202.569,50.714z M202.085,16.475l-0.152-0.091h0.758L202.085,16.475z M209.078,42.646
		c-0.263-0.131-0.545-0.258-0.848-0.379s-0.586-0.201-0.848-0.242c-0.263-0.04-0.586-0.061-0.97-0.061
		c-0.686,0-1.482,0.363-2.391,1.09s-1.363,1.514-1.363,2.361c-0.08,0.223-0.121,0.525-0.121,0.908c0,0.303,0.07,0.717,0.213,1.241
		c0.303,1.029,0.453,1.655,0.453,1.877l-0.029,0.363c-0.748-1.251-1.121-2.532-1.121-3.845c0-1.332,0.49-2.387,1.469-3.164
		c0.979-0.776,1.852-1.165,2.619-1.165c0.786,0,1.503,0.136,2.149,0.409c0.646,0.271,1.19,0.641,1.635,1.104
		C209.623,42.943,209.34,42.777,209.078,42.646z M203.235,49.927l-0.121,0.091l0.061-0.212L203.235,49.927z M205.597,15.764
		c-1.271,0.414-2.049,0.62-2.332,0.62c0.121-0.081,0.252-0.171,0.395-0.272c0.424-0.182,1.109-0.443,2.059-0.787
		c0.625-0.222,1.423-0.333,2.392-0.333h0.424C207.847,15.092,206.867,15.35,205.597,15.764z M205.657,29.22
		c0.948,0,1.876-0.464,2.784-1.393s1.363-1.866,1.363-2.815c0-1.029-0.273-2.22-0.818-3.572c-0.545-1.352-0.816-2.371-0.816-3.058
		l0.363-3.391h0.514c0.283,0,0.489,0.061,0.621,0.182c0.131,0.121,0.258,0.323,0.379,0.605c0.161,0.161,0.343,0.414,0.545,0.757
		c0.02,0.021,0.125,0.223,0.317,0.605c0.191,0.384,0.349,0.696,0.47,0.938c-0.182,0.403-0.303,0.787-0.363,1.15l-0.092,1.635
		c0,0.626,0.253,1.776,0.758,3.451c0.282,0.808,0.484,1.524,0.605,2.149c0.121,0.626,0.182,1.191,0.182,1.695
		c0,0.969-0.45,1.847-1.348,2.634c-0.898,0.787-1.812,1.181-2.74,1.181c-0.948,0-1.917-0.383-2.905-1.15
		c-0.506-0.363-1.222-1.029-2.15-1.998C203.972,29.089,204.749,29.22,205.657,29.22z"/>
	<path fill="#FFFFFF" d="M250.613,52.651c-0.727,2.604-2.356,4.809-4.889,6.614c-2.533,1.807-4.779,2.71-6.736,2.71
		c-1.938,0-3.724-0.293-5.358-0.878l-4.692-1.695c-1.514-0.564-2.675-0.848-3.481-0.848c-0.444,0-0.858,0.051-1.241,0.151
		c-0.384,0.101-0.777,0.253-1.181,0.454c-0.808,0.424-1.464,0.929-1.968,1.514c-0.323-0.303-1.131-1.312-2.422-3.027
		c-0.605-0.787-1.08-1.322-1.423-1.604c0.303-0.989,0.615-1.907,0.938-2.755c0.262-0.727,0.655-1.625,1.181-2.694
		c-0.384-0.605-0.696-1.221-0.938-1.847c-0.323-0.787-0.484-1.594-0.484-2.422c0-0.827,0.504-1.807,1.514-2.937
		c1.009-1.13,2.159-1.695,3.451-1.695c1.312,0,2.604,0.484,3.875,1.453c1.029,0.767,2.048,1.897,3.058,3.391
		c0.524,0.767,1.291,2.069,2.301,3.905l0.938,0.091c0.08,0,0.222,0.021,0.424,0.061c0.161,0,0.322,0,0.484,0h0.575
		c0.564,0,1.17-0.277,1.816-0.833c0.646-0.555,0.969-1.125,0.969-1.71c0-0.605-0.03-1.029-0.091-1.271
		c-0.969-0.948-2.291-1.756-3.966-2.422l-4.48-1.604c-1.797-0.686-3.179-1.393-4.147-2.119c-2.422-1.856-4.259-3.854-5.51-5.994
		c-1.413-2.401-2.119-5.287-2.119-8.658c0-3.391,1.332-6.377,3.996-8.961c2.664-2.583,5.398-3.875,8.204-3.875
		c2.805,0,4.93,0.237,6.372,0.711c1.443,0.475,2.771,1.207,3.981,2.195c0.727-0.262,1.554-0.464,2.482-0.605
		c0.564-0.121,0.943-0.191,1.136-0.212c0.191-0.021,0.469-0.03,0.832-0.03h1.09c0.303,0,0.545,0.03,0.727,0.091
		c0.161,0.303,0.524,0.838,1.09,1.604c0.988,1.292,1.483,2.18,1.483,2.664s-0.182,1.211-0.545,2.18
		c-0.182,0.525-0.272,0.989-0.272,1.393c0,0.424,0.212,1.514,0.636,3.27c0.201,0.808,0.303,1.776,0.303,2.906
		c0,1.09-0.272,2.14-0.817,3.148c-0.707,1.271-1.776,1.998-3.209,2.18c2.18,1.877,3.83,3.977,4.949,6.297
		c1.121,2.321,1.681,4.885,1.681,7.689C251.128,49.877,250.956,51.219,250.613,52.651z M248.57,40.496
		c-1.322-2.451-3.194-4.565-5.616-6.342c1.816,0,3.103-0.454,3.86-1.362c0.756-0.908,1.135-1.968,1.135-3.179
		c0-1.271-0.212-2.785-0.636-4.541c-0.202-0.807-0.303-1.473-0.303-1.998c0-0.282,0.056-0.615,0.167-0.999
		c0.11-0.384,0.186-0.636,0.227-0.757c0.282-0.625,0.424-1.17,0.424-1.635c0-0.443-0.454-1.262-1.362-2.452
		c-0.565-0.767-0.898-1.241-0.999-1.423l-0.848-0.03l-5.207,0.908c-0.828-0.565-1.569-1.034-2.225-1.407
		c-0.656-0.373-1.217-0.651-1.681-0.833c-1.271-0.484-3.3-0.727-6.085-0.727s-5.454,1.226-8.008,3.679
		c-2.553,2.451-3.829,5.303-3.829,8.552s0.676,6.045,2.028,8.386c1.23,2.1,3.017,4.047,5.358,5.843
		c0.988,0.787,2.392,1.504,4.208,2.149l4.571,1.604c1.735,0.747,3.067,1.585,3.996,2.513c0.061,0.061,0.091,0.212,0.091,0.454
		c0.04,0.242,0.061,0.484,0.061,0.727v0.605c0,0.626-0.389,1.271-1.166,1.938c-0.776,0.666-1.549,0.999-2.315,0.999l-1.665-0.03
		l-1.029-0.182c-0.727-1.514-1.434-2.785-2.119-3.814c-0.969-1.433-1.988-2.563-3.058-3.391c-1.252-0.989-2.463-1.483-3.633-1.483
		c-1.131,0-2.149,0.51-3.058,1.529s-1.362,1.902-1.362,2.648c0,0.747,0.171,1.494,0.515,2.24l0.969,1.877l-1.181,2.604
		c-0.505,1.05-0.817,1.958-0.938,2.725c1.049,1.353,2.129,2.674,3.239,3.966c0.646-0.585,1.321-1.039,2.028-1.362
		c0.383-0.182,0.767-0.313,1.15-0.394c0.383-0.081,0.767-0.121,1.15-0.121c0.807,0,2.028,0.303,3.663,0.908l4.511,1.665
		c1.574,0.564,3.34,0.848,5.298,0.848c1.938,0,4.106-0.867,6.509-2.604c2.401-1.735,3.945-3.834,4.632-6.297
		c0.182-0.666,0.313-1.326,0.394-1.982c0.08-0.656,0.121-1.287,0.121-1.893C250.553,45.658,249.892,42.949,248.57,40.496z
		 M249.917,50.532c-0.081,0.565-0.202,1.181-0.363,1.847c-0.666,2.402-2.17,4.42-4.511,6.055c-2.342,1.635-4.431,2.452-6.267,2.452
		c-0.949,0-1.837-0.071-2.664-0.212c-0.828-0.141-1.646-0.354-2.452-0.636l-4.602-1.726c-1.494-0.564-2.675-0.848-3.542-0.848
		c-0.868,0-1.66,0.156-2.376,0.469c-0.717,0.313-1.378,0.712-1.983,1.196l-1.393-1.665l-1.362-1.695l0.121-0.545l0.696-2.392
		c0.303-0.706,0.706-1.423,1.211-2.149l-0.908-1.362c-0.484-0.848-0.727-1.745-0.727-2.694c0-1.029,0.434-1.947,1.302-2.755
		c0.867-0.808,1.998-1.211,3.391-1.211c1.433,0,2.956,1.09,4.571,3.27c0.141,0.202,1.251,2.028,3.33,5.479l0.938,0.151
		c0.424,0.061,0.999,0.091,1.726,0.091c0.706,0,1.584-0.343,2.634-1.029c1.15-0.828,1.726-1.656,1.726-2.484
		c0-0.445-0.021-0.822-0.061-1.137c-0.041-0.313-0.091-0.58-0.151-0.803c-0.525-0.564-1.11-1.05-1.756-1.454
		c-0.646-0.403-1.403-0.788-2.271-1.151l-4.602-1.637c-1.877-0.686-3.3-1.403-4.269-2.15c-0.969-0.748-1.812-1.48-2.527-2.197
		c-0.717-0.717-1.328-1.429-1.832-2.136c-1.15-1.596-1.988-3.464-2.513-5.604c-0.303-1.152-0.454-2.868-0.454-5.151
		c0-2.302,1.211-4.641,3.633-7.015c2.422-2.373,4.914-3.56,7.478-3.56c2.543,0,4.602,0.257,6.176,0.772
		c1.574,0.514,2.967,1.276,4.178,2.285c1.17-0.343,1.998-0.555,2.482-0.636c0.807-0.161,1.887-0.242,3.239-0.242l1.271,1.726
		c0.585,0.848,0.878,1.383,0.878,1.604s-0.182,0.868-0.545,1.938c-0.182,0.545-0.272,1.08-0.272,1.604
		c0,0.545,0.151,1.423,0.454,2.634s0.454,2.462,0.454,3.754c0,1.251-0.356,2.235-1.068,2.952s-2.001,1.074-3.866,1.074l0.696,1.332
		c2.26,1.857,3.971,3.905,5.131,6.146c1.161,2.24,1.741,4.753,1.741,7.538C250.038,49.332,249.997,49.967,249.917,50.532z
		 M242.682,16.414c-0.404,0.061-0.777,0.131-1.12,0.212l-2.119,0.575l-0.151,0.061c-1.292-1.029-2.584-1.791-3.875-2.285
		c-1.292-0.494-3.28-0.742-5.964-0.742c-2.664,0-5.222,1.18-7.675,3.539c-2.451,2.359-3.678,4.971-3.678,7.835
		c0,2.863,0.464,5.097,1.393,6.7c0.928,1.604,2.32,3.01,4.178,4.219l0.091,0.092l6.206,2.903l3.724,1.815
		c1.332,0.665,2.401,1.401,3.209,2.208c1.109,1.108,1.665,2.278,1.665,3.509c0,1.25-0.435,2.33-1.302,3.236
		c-0.868,0.908-1.655,1.361-2.361,1.361h-1.877l-1.635-0.213c-0.908-0.222-1.695-0.475-2.361-0.758
		c-1.11-0.445-1.756-0.879-1.938-1.305c0.322-0.707,0.484-1.576,0.484-2.607s-0.495-1.951-1.483-2.76
		c-0.989-0.809-2.009-1.213-3.058-1.213c-1.05,0-1.983,0.449-2.8,1.35c-0.818,0.898-1.227,1.672-1.227,2.32
		c0,0.605,0.191,1.354,0.575,2.244c0.161,0.384,0.317,0.718,0.47,1c0.15,0.283,0.327,0.576,0.529,0.88
		c-0.202,0.344-0.404,0.713-0.605,1.106c-0.202,0.395-0.384,0.763-0.545,1.105c-0.384,0.848-0.687,1.655-0.908,2.422l2.513-0.545
		c0.928-0.201,1.735-0.303,2.422-0.303c0.646,0,1.775,0.232,3.391,0.696l4.874,1.393c1.654,0.444,3.582,0.666,5.782,0.666
		c2.199,0,4.556-1.166,7.069-3.498c2.512-2.332,3.769-4.802,3.769-7.41s-0.454-4.853-1.362-6.733
		c-0.908-1.88-2.16-3.355-3.754-4.428l0.061,0.121c-0.969-0.646-2.972-1.533-6.01-2.664c-3.037-1.13-5.191-2.099-6.463-2.906
		c-2.039-1.312-3.058-2.725-3.058-4.238c0-1.554,0.57-2.765,1.71-3.633c1.141-0.867,2.356-1.302,3.648-1.302
		c1.291,0,2.447,0.403,3.467,1.211c1.019,0.808,1.528,1.816,1.528,3.027l-0.575,3.451c0.242,0.605,0.676,1.069,1.302,1.393
		c0.403,0.202,0.787,0.333,1.15,0.394s0.837,0.091,1.423,0.091c1.069,0,1.957-0.454,2.664-1.362c0.706-0.908,1.06-1.928,1.06-3.058
		c0-0.585-0.051-1.15-0.151-1.695c-0.102-0.545-0.242-1.09-0.424-1.635l-1.15-2.694c0.464-0.343,0.822-0.787,1.074-1.332
		c0.253-0.545,0.409-1.15,0.47-1.816l-1.302-0.091C243.408,16.323,243.085,16.354,242.682,16.414z M243.983,22.254
		c0.424,1.252,0.636,2.371,0.636,3.359c0,0.525-0.071,0.995-0.212,1.408c-0.142,0.414-0.354,0.813-0.636,1.195
		c-0.666,0.848-1.453,1.271-2.361,1.271s-1.604-0.131-2.089-0.393l-1.271-0.848l0.303-1.453c0.182-0.908,0.272-1.826,0.272-2.756
		c0-0.947-0.55-1.871-1.65-2.77c-1.1-0.897-2.376-1.348-3.829-1.348c-1.434,0-2.755,0.465-3.966,1.393
		c-1.292,1.029-1.938,2.543-1.938,4.541c0,2.02,1.786,3.775,5.359,5.268l9.896,4.189c3.554,2.219,5.331,5.213,5.331,8.983
		c0,3.754-1.201,6.741-3.603,8.961c-2.402,2.22-4.683,3.33-6.842,3.33c-2.059,0-3.946-0.222-5.661-0.666l-4.813-1.393
		c-0.868-0.263-1.56-0.444-2.073-0.545c-0.516-0.101-0.975-0.151-1.378-0.151c-0.687,0-1.413,0.081-2.18,0.242l-2.059,0.484
		c0.121-0.686,0.328-1.332,0.62-1.938c0.293-0.605,0.691-1.251,1.196-1.938l-1.15-1.816c-0.384-0.706-0.575-1.473-0.575-2.301
		c0-0.848,0.368-1.625,1.105-2.331c0.736-0.706,1.659-1.06,2.77-1.06c1.09,0,2.008,0.373,2.755,1.12
		c0.746,0.747,1.12,1.483,1.12,2.21c0,0.687-0.051,1.252-0.151,1.695l-0.363,1.12c0.201,0.767,1.181,1.453,2.937,2.059
		c1.493,0.524,2.896,0.787,4.208,0.787c1.291,0,2.492-0.464,3.603-1.393c1.19-1.009,1.786-2.21,1.786-3.604
		c0-1.453-0.575-2.755-1.726-3.905c-0.848-0.889-1.998-1.676-3.451-2.362c-0.747-0.403-2.826-1.393-6.236-2.968l-3.693-1.785
		c-1.655-0.848-2.982-2.19-3.98-4.027c-1-1.836-1.499-4.057-1.499-6.66c0-2.623,1.165-5.081,3.497-7.372
		c2.33-2.29,4.727-3.437,7.189-3.437c2.502,0,4.521,0.269,6.055,0.803c1.533,0.535,2.906,1.316,4.117,2.346l1.907-0.484
		c1.17-0.322,1.887-0.484,2.149-0.484l0.969,0.061c0,0.465-0.162,0.889-0.484,1.271l-1.029,1.424
		C243.267,20.316,243.64,21.205,243.983,22.254z M241.553,33.631l0.341-0.02L230.3,28.735c-0.041-0.04-0.061-0.222-0.061-0.545
		c0-0.303,0.091-0.545,0.272-0.727l0.303-0.303l1.12-0.817c0.727-0.363,1.412-0.545,2.059-0.545c0.625,0,1.23,0.081,1.816,0.242
		c0.545,0.182,0.897,0.394,1.06,0.636c0,1.413,0.656,2.652,1.97,3.718c1.697,1.389,2.729,2.455,3.093,3.199l0.538,0.016
		c-0.569-1.049-1.352-1.988-2.347-2.815c-1.402-1.15-2.275-1.947-2.618-2.392V28.13c-0.102-0.363-0.151-0.655-0.151-0.878
		l0.061-0.787c-0.848-0.787-1.786-1.181-2.815-1.181c-0.989,0-1.726,0.101-2.21,0.303s-1.12,0.585-1.907,1.15
		c-0.081,0.222-0.228,0.475-0.438,0.757c-0.213,0.283-0.318,0.555-0.318,0.817l0.091,0.696c0.988,0.747,2.229,1.373,3.724,1.877
		l3.784,1.12c1.514,0.505,2.664,1.009,3.451,1.514l1.15,0.718l1.302,0.818l-0.061-0.121L241.553,33.631z M233.993,30.007
		c0.888,0.303,1.947,0.646,3.179,1.029c0.848,0.263,1.705,0.515,2.573,0.757l-2.785-2.482c-0.465-0.646-0.696-1.352-0.696-2.119
		l0.03-0.272c-0.202-0.182-0.489-0.317-0.862-0.409c-0.374-0.09-0.803-0.136-1.287-0.136c-0.444,0-1.11,0.182-1.998,0.545
		c-0.889,0.363-1.332,0.798-1.332,1.302l0.03,0.182C231.672,29.049,232.722,29.583,233.993,30.007z"/>
	<path fill="#FFFFFF" d="M290.06,16.021c0.928,0.908,1.695,1.574,2.301,1.998c-0.121,0.182-0.354,0.888-0.696,2.119l-0.605,2.301
		c0.182,0.646,0.298,1.085,0.348,1.317c0.051,0.232,0.146,0.717,0.288,1.453c0.141,0.736,0.212,1.781,0.212,3.133
		c0,1.271-0.505,2.503-1.514,3.693c-1.09,1.271-2.312,1.907-3.663,1.907c-1.353,0-2.624-0.384-3.814-1.15
		c-0.768-0.524-1.676-1.241-2.725-2.149l-0.303,0.938l-0.242,4.723c0,0.403-0.051,1.514-0.151,3.33
		c-0.021,0.363-0.03,0.838-0.03,1.423c0,0.162,0.025,0.631,0.075,1.408c0.051,0.777,0.076,1.397,0.076,1.861
		c0.121,1.05,0.333,2.1,0.636,3.148c1.715,0.828,3.067,1.766,4.057,2.815c1.271,1.372,1.907,2.836,1.907,4.39
		c0,1.555-0.646,2.992-1.938,4.314c-1.292,1.322-2.573,1.982-3.845,1.982c-1.252,0-2.306-0.177-3.163-0.529
		c-0.858-0.354-1.681-0.863-2.468-1.529c-0.626,0.848-1.393,1.463-2.301,1.847c-0.908,0.424-2.14,0.636-3.693,0.636
		c-1.574,0-3.36-1.12-5.358-3.36s-2.997-4.087-2.997-5.54c0-1.433,0.161-2.522,0.484-3.27c0.424-0.888,0.979-1.372,1.665-1.453
		l0.727,0.848c0.343,0.344,0.666,0.545,0.969,0.605l0.151-0.091c0.827-1.353,1.412-3.027,1.756-5.025
		c0.262-1.453,0.394-3.027,0.394-4.723c0-0.323-0.025-1.004-0.076-2.044c-0.05-1.039-0.075-1.82-0.075-2.346l-0.636-6.872
		l-0.272-0.151c-0.182,0.081-0.349,0.237-0.499,0.469c-0.152,0.232-0.228,0.47-0.228,0.712c0.04,0.263,0.262,0.838,0.666,1.726
		c0.222,0.424,0.333,0.908,0.333,1.453c0,0.525-0.454,0.929-1.362,1.211c-0.586,0.182-1.736,0.272-3.451,0.272
		c-1.736,0-3.335-0.817-4.798-2.452c-1.464-1.635-2.195-3.219-2.195-4.753c0-0.787,0.02-1.493,0.061-2.119
		c0.04-0.626,0.091-1.171,0.151-1.635c0.282-1.776,0.424-3.077,0.424-3.905c0-0.686-0.202-1.418-0.605-2.195
		c-0.404-0.776-0.828-1.468-1.271-2.073c0-0.343,0.191-0.569,0.575-0.681c0.383-0.111,0.655-0.177,0.817-0.197
		c0.161-0.02,0.373-0.03,0.636-0.03c1.13,0.323,1.781,0.51,1.953,0.56c0.171,0.051,1.306,0.339,3.405,0.863
		c0.767-0.706,1.523-1.06,2.271-1.06c0.767,0,1.927,0.182,3.481,0.545c0.787,0.182,1.533,0.272,2.24,0.272
		c0.767,0,1.514-0.394,2.24-1.181c0.605,0,1.321,0.257,2.149,0.772c0.827,0.514,1.442,0.771,1.847,0.771
		c0.383,0,1.029-0.176,1.938-0.529s1.514-0.53,1.816-0.53c0.282,0,0.727,0.097,1.332,0.288s1.16,0.287,1.665,0.287
		c0.524,0,1.479-0.151,2.861-0.454c1.382-0.303,2.265-0.454,2.648-0.454l0.848,0.03h0.424L290.06,16.021z M253.338,14.749
		c0.605,0.626,1.06,1.322,1.362,2.089c0.343,0.747,0.515,1.474,0.515,2.18c0,0.344-0.021,0.711-0.061,1.105
		c-0.041,0.393-0.091,0.822-0.151,1.286c-0.162,1.009-0.272,1.902-0.333,2.679c-0.061,0.777-0.091,1.56-0.091,2.347
		c0,1.474,0.686,2.978,2.059,4.511c1.372,1.534,2.825,2.301,4.359,2.301c1.514,0,2.502-0.051,2.967-0.151
		c0.848-0.222,1.271-0.524,1.271-0.908s-0.167-0.913-0.499-1.589c-0.334-0.676-0.5-1.186-0.5-1.529c0-0.343,0.146-0.706,0.439-1.09
		c0.292-0.383,0.539-0.575,0.741-0.575c0.242,0.021,0.443,0.091,0.605,0.212l0.363,0.303c0.101,0.223,0.207,0.768,0.317,1.635
		c0.111,0.868,0.167,1.979,0.167,3.33c0,0.707,0.05,1.907,0.151,3.603c0.101,1.695,0.151,2.664,0.151,2.906
		c0,1.251-0.202,3.067-0.605,5.449c-0.565,3.31-1.171,4.965-1.816,4.965c-0.626,0-1.141-0.171-1.544-0.515l-0.817-0.878
		c-0.424,0.182-0.757,0.601-0.999,1.257s-0.363,1.619-0.363,2.891s0.948,2.967,2.846,5.086c1.896,2.119,3.864,3.179,5.903,3.179
		c2.059,0,3.703-0.918,4.935-2.755c0.908,0.787,1.715,1.353,2.422,1.695c0.908,0.424,1.957,0.636,3.148,0.636
		c1.23,0,2.432-0.591,3.603-1.771c1.17-1.182,1.756-2.498,1.756-3.951s-0.616-2.815-1.847-4.087
		c-0.868-0.888-2.17-1.776-3.905-2.664l-0.091-0.061c-0.303-0.464-0.52-1.372-0.65-2.725c-0.132-1.353-0.208-2.204-0.228-2.558
		c-0.021-0.354-0.03-0.934-0.03-1.741l0.121-5.056c0-1.23,0.061-2.381,0.182-3.451c0.061-0.484,0.101-0.767,0.121-0.848l0.242-0.878
		l0.272-1.06c2.199,1.776,3.451,2.755,3.754,2.937c0.928,0.585,1.987,0.878,3.179,0.878c1.15,0,2.199-0.564,3.148-1.695
		c0.948-1.13,1.423-2.25,1.423-3.36c0-1.069-0.142-2.25-0.424-3.542c-0.162-0.686-0.272-1.195-0.333-1.529
		c-0.061-0.332-0.091-0.56-0.091-0.681l0.484-2.028l0.696-2.361l-2.059-1.756c-0.889-0.746-1.544-1.372-1.968-1.877l-0.605-0.03
		c-0.747,0-1.797,0.151-3.148,0.454c-1.353,0.303-2.433,0.454-3.239,0.454c-0.768,0-1.555-0.191-2.361-0.575
		c-0.303,0-1.15,0.242-2.543,0.727c-0.384,0.142-0.677,0.232-0.878,0.272c-0.202,0.04-0.414,0.061-0.636,0.061
		c-0.404,0-0.848-0.151-1.332-0.454c-1.191-0.727-1.958-1.09-2.301-1.09c-0.889,0.787-1.726,1.181-2.513,1.181
		c-0.747,0-1.695-0.131-2.846-0.394c-0.586-0.161-1.05-0.272-1.393-0.333c-0.344-0.061-0.646-0.091-0.908-0.091
		c-0.404,0-0.873,0.102-1.407,0.303c-0.535,0.202-0.924,0.454-1.166,0.757c-0.727,0-1.69-0.237-2.891-0.712
		c-1.201-0.474-1.994-0.711-2.377-0.711l-0.817,0.061l-0.454,0.091l0.061,0.061C253.52,14.567,253.338,14.628,253.338,14.749z
		 M254.912,14.87c0.343,0.04,0.776,0.151,1.302,0.333l0.787,0.303c-0.263-0.08-1.05-0.121-2.361-0.121
		c0.303,0.586,0.515,1.05,0.636,1.393c0.161,0.323,0.272,0.747,0.333,1.271c-0.242-1.15-0.707-2.17-1.393-3.058
		C254.438,14.91,254.67,14.87,254.912,14.87z M255.412,25.769c0.131,0.646,0.367,1.222,0.711,1.726
		c0.827,1.252,1.806,1.877,2.937,1.877c1.15,0,1.907-0.121,2.271-0.363c0.363-0.282,0.696-0.746,0.999-1.393
		c-0.283-0.464-0.535-0.988-0.757-1.574c-0.223-0.585-0.333-1.211-0.333-1.877c0-0.646,0.242-1.211,0.727-1.695
		s1.15-0.727,1.998-0.727c0.867,0,1.533,0.747,1.998,2.24c0.222,0.646,0.434,1.776,0.636,3.391l-0.333-0.212l-0.545-0.272
		c-0.484,0-0.938,0.217-1.362,0.65c-0.424,0.435-0.636,0.904-0.636,1.408c0,0.465,0.191,1.131,0.575,1.998
		c0.161,0.303,0.262,0.515,0.303,0.636c0.04,0.121,0.08,0.293,0.121,0.515c-0.061,0.182-0.328,0.333-0.803,0.454
		c-0.474,0.121-1.428,0.182-2.86,0.182c-1.434,0-2.785-0.722-4.057-2.165c-1.271-1.442-1.907-2.779-1.907-4.011v-2.119l0.121-0.969
		C255.215,24.355,255.28,25.123,255.412,25.769z M255.729,19.472c0,0.403-0.061,0.999-0.182,1.786l-0.333,2.21l0.242-2.089
		c0.141-0.988,0.212-1.695,0.212-2.119l-0.061-1.211C255.688,18.533,255.729,19.008,255.729,19.472z M286.699,28.205
		c-0.707,0.677-1.434,1.015-2.18,1.015c-0.707,0-1.383-0.081-2.028-0.242c-0.908-0.282-1.423-0.655-1.544-1.12l0.848-1.938
		c0.363-0.787,0.545-1.504,0.545-2.149c0-0.666-0.242-1.267-0.727-1.802c-0.484-0.534-1.241-0.802-2.271-0.802
		c-1.05,0-2.049,1.231-2.997,3.693c-0.787,2.038-1.181,4.047-1.181,6.024c0,0.223,0.061,1.534,0.182,3.936
		c0.04,0.808,0.061,1.665,0.061,2.573c0,1.069,0.091,2.21,0.272,3.421c0.08,0.505,0.262,1.523,0.545,3.058
		c0.484,2.442,1.12,4.501,1.907,6.176c0.101,0.161,0.196,0.308,0.288,0.438c0.09,0.132,0.166,0.228,0.227,0.288
		c0.242,0.182,0.474,0.272,0.696,0.272c0.262,0,0.575-0.061,0.938-0.182l0.908-0.454c0.383,0.646,0.575,1.332,0.575,2.059
		c0,0.747-0.424,1.362-1.271,1.847c-0.727,0.424-1.958,0.636-3.693,0.636c-1.756,0-3.229-1.13-4.42-3.391
		c-0.525,1.231-1.337,2.21-2.437,2.937c-1.101,0.727-2.316,1.09-3.648,1.09c-1.313,0-2.382-0.357-3.209-1.074
		c-0.828-0.717-1.241-1.509-1.241-2.377c0-0.827,0.08-1.433,0.242-1.816l0.363-0.151l0.999,0.484
		c0.201,0.121,0.348,0.202,0.439,0.242c0.09,0.04,0.176,0.071,0.257,0.091l0.454,0.03l0.394-0.394
		c0.646-0.564,1.16-1.342,1.544-2.331c0.383-0.989,0.706-2.28,0.969-3.875c0.182-1.069,0.328-2.154,0.439-3.255
		c0.11-1.1,0.166-2.255,0.166-3.466c0-1.453-0.025-2.669-0.076-3.647c-0.05-0.979-0.146-2.18-0.287-3.604
		c-0.142-1.422-0.368-2.795-0.682-4.117c-0.313-1.321-0.631-2.486-0.953-3.496c-0.384-1.069-1.08-1.604-2.089-1.604
		c-0.989,0-1.786,0.293-2.392,0.878c-0.605,0.586-0.908,1.271-0.908,2.059c0,0.444,0.04,0.838,0.121,1.181
		c0.08,0.343,0.201,0.727,0.363,1.15l0.545,1.181c-0.242,0.444-0.505,0.752-0.787,0.924c-0.283,0.172-0.898,0.257-1.847,0.257
		c-0.889,0-1.706-0.494-2.452-1.483c-0.646-0.888-0.969-1.807-0.969-2.755c0-0.545,0.02-1.054,0.061-1.528
		c0.04-0.475,0.105-1.029,0.197-1.666c0.09-0.635,0.15-1.1,0.182-1.393c0.029-0.292,0.045-0.771,0.045-1.438
		c0-0.827-0.242-1.726-0.727-2.694c0.686,0,1.483,0.182,2.392,0.545s1.453,0.545,1.635,0.545l0.636-0.091
		c0.767-0.767,1.563-1.15,2.392-1.15c0.363,0,0.843,0.041,1.438,0.121c0.595,0.081,1.114,0.172,1.559,0.272
		c1.211,0.242,2.048,0.363,2.513,0.363c0.303,0,0.555-0.021,0.757-0.061c0.201-0.04,0.413-0.101,0.636-0.182
		c0.484-0.202,0.908-0.424,1.271-0.666l1.877,0.727c1.009,0.403,1.675,0.605,1.998,0.605c0.343-0.04,1.15-0.263,2.422-0.666
		c0.363-0.121,0.655-0.202,0.878-0.242c0.222-0.04,0.454-0.061,0.696-0.061l2.725,0.242l1.604,0.121c0.322,0,0.746-0.07,1.271-0.212
		l1.544-0.484c0.403,0,0.666,0.111,0.787,0.333l0.091,0.303l-0.394,0.787c-0.263,0.585-0.394,1.19-0.394,1.816
		c0,0.585,0.328,1.721,0.984,3.405c0.655,1.686,0.983,2.942,0.983,3.77C287.759,26.809,287.405,27.529,286.699,28.205z
		 M257.667,15.778l-0.666-0.272l0.605,0.212l0.727,0.272L257.667,15.778z M259.847,16.414l-0.272,0.061l-0.545-0.151l-0.696-0.333
		l0.817,0.182l0.817,0.091L259.847,16.414z M260.573,16.293h-0.303l-0.303-0.03c0.867-0.687,1.826-1.029,2.876-1.029
		C261.895,15.334,261.138,15.688,260.573,16.293z M261.663,50.684c-0.021,0.081-0.061,0.223-0.121,0.424c0,0.202,0,0.404,0,0.605
		c0,0.344,0.056,0.717,0.167,1.12c0.11,0.403,0.206,0.717,0.287,0.938c0.08,0.223,0.161,0.414,0.242,0.575
		c-0.605-0.848-0.908-1.624-0.908-2.331c0-0.666,0.04-1.181,0.121-1.544c0.121-0.323,0.262-0.534,0.424-0.636L261.663,50.684z
		 M264.297,50.411l-0.182,0.061l-1.483-0.817l-0.424,0.03l-0.333,0.151c0.101-0.322,0.242-0.564,0.424-0.727
		c0.282,0.323,0.564,0.586,0.848,0.787c0.403,0.283,0.767,0.424,1.09,0.424l0.151-0.03L264.297,50.411z M264.07,55.648
		c0.797,0.303,1.669,0.454,2.618,0.454c1.009,0,2.063-0.308,3.163-0.923c1.101-0.615,1.953-1.469,2.559-2.559
		c0.666,0.929,1.493,1.635,2.482,2.119c0.988,0.484,2.018,0.727,3.088,0.727c1.09,0,2.048-0.252,2.876-0.757
		c0.948-0.585,1.423-1.231,1.423-1.938c0-0.727-0.091-1.332-0.272-1.816l-0.575-1.241c-0.484,0.263-0.777,0.424-0.878,0.484
		c-0.102,0.061-0.268,0.131-0.499,0.212c-0.232,0.081-0.439,0.121-0.621,0.121c-0.223-0.04-0.384-0.106-0.484-0.196
		c-0.102-0.092-0.212-0.268-0.333-0.53c-0.768-1.635-1.383-3.612-1.847-5.934c-0.283-1.393-0.454-2.261-0.515-2.604
		c-0.242-1.433-0.363-2.765-0.363-3.996c0-0.565-0.035-1.554-0.106-2.967c-0.07-1.413-0.105-2.462-0.105-3.148
		c0-1.978,0.353-3.945,1.06-5.903c0.867-2.381,1.745-3.572,2.634-3.572c0.908,0,1.544,0.212,1.907,0.636s0.545,0.938,0.545,1.544
		c0,0.565-0.172,1.252-0.515,2.059l-0.969,1.968c0.443,0.727,1.029,1.231,1.756,1.514c0.564,0.222,1.332,0.333,2.301,0.333
		s1.856-0.398,2.664-1.195c0.807-0.797,1.211-1.62,1.211-2.468c0-0.868-0.328-2.079-0.984-3.633c-0.655-1.554-0.983-2.653-0.983-3.3
		c0-0.605,0.03-0.969,0.091-1.09l-0.061-0.515l0.061,0.182c0.121-0.282,0.231-0.52,0.333-0.712c0.101-0.191,0.222-0.378,0.363-0.56
		c0-0.384-0.111-0.706-0.333-0.969c-0.102-0.101-0.212-0.202-0.333-0.303c-0.021-0.021-0.061-0.05-0.121-0.091
		c0.061-0.02,0.131-0.03,0.212-0.03l0.878-0.03l3.693,3.3l-1.15,4.087c0.121,0.424,0.228,0.863,0.317,1.316
		c0.092,0.455,0.177,0.904,0.258,1.348c0.201,1.01,0.303,2.049,0.303,3.118c0,1.05-0.404,2.069-1.211,3.058
		c-0.889,1.07-1.918,1.604-3.088,1.604c-1.171,0-2.493-0.555-3.966-1.665c-0.465-0.322-1.02-0.777-1.665-1.362
		c-0.465-0.424-0.929-0.848-1.393-1.271l-0.303,1.483c-0.102,0.545-0.232,0.999-0.394,1.362l-0.151,3.542
		c0,0.949-0.03,1.947-0.091,2.997c-0.121,2.119-0.182,3.188-0.182,3.209c0,0.585,0.02,1.187,0.061,1.802
		c0.04,0.615,0.091,1.246,0.151,1.892c0.182,1.372,0.443,2.503,0.787,3.391c1.796,0.908,3.077,1.735,3.845,2.482
		c1.271,1.251,1.907,2.543,1.907,3.875c0,1.353-0.545,2.573-1.635,3.663s-2.21,1.635-3.36,1.635c-1.131,0-2.149-0.242-3.058-0.727
		c-0.747-0.403-1.564-1.02-2.452-1.847c-0.768,1.11-1.464,1.856-2.089,2.24c-0.768,0.505-1.807,0.757-3.118,0.757
		c-1.332,0-2.725-0.666-4.178-1.998c-1.292-1.19-2.291-2.513-2.997-3.966C262.662,54.912,263.272,55.346,264.07,55.648z
		 M267.778,16.051l-4.753-0.817c0.303,0,0.787,0.061,1.453,0.182s1.029,0.192,1.09,0.212c1.15,0.242,1.957,0.363,2.422,0.363
		c0.303,0,0.555-0.02,0.757-0.061c0.201-0.04,0.413-0.101,0.636-0.182c0.443-0.201,0.857-0.454,1.241-0.757
		C269.796,15.697,268.848,16.051,267.778,16.051z M266.87,27.736c0.222,1.15,0.378,2.1,0.47,2.846
		c0.09,0.747,0.136,1.544,0.136,2.392c0,0.464,0.05,1.665,0.151,3.603c0.04,0.768,0.061,1.494,0.061,2.18
		c0,1.958-0.212,4.077-0.636,6.357c-0.646,3.33-1.534,5.056-2.664,5.177c1.211-1.09,2.038-3.067,2.482-5.934
		c0.303-1.856,0.454-3.885,0.454-6.085c0-0.282-0.051-1.584-0.151-3.905c-0.021-0.464-0.03-1.11-0.03-1.938
		c0-0.727-0.061-1.538-0.182-2.437s-0.242-1.771-0.363-2.619L266.87,27.736z M270.624,14.991l0.151-0.091l0.605,0.212l0.848,0.545
		L270.624,14.991z M274.166,16.414c-0.303,0-0.605-0.061-0.908-0.182l-1.029-0.575l1.15,0.424l1.06,0.303L274.166,16.414z
		 M274.681,16.354l0.908-0.212l1.09-0.363C276.032,16.102,275.366,16.293,274.681,16.354z M277.557,15.536l-0.878,0.242l0.757-0.272
		c0.222-0.101,0.474-0.151,0.757-0.151l0.182,0.091L277.557,15.536z M281.492,15.869c-0.061,0-0.162,0.021-0.303,0.061
		c-0.142,0-0.272,0-0.394,0h-0.515c-0.465,0-1.101-0.161-1.907-0.484h0.182l3.693,0.333L281.492,15.869z M282.249,15.778
		l1.362-0.272l1.847-0.363C284.731,15.566,283.661,15.778,282.249,15.778z M285.458,15.143l0.121-0.061h0.242L285.458,15.143z"/>
</g>
</svg>
