<?xml version="1.0" encoding="utf-8"?>
<!-- Generator: Adobe Illustrator 16.0.0, SVG Export Plug-In . SVG Version: 6.00 Build 0)  -->
<!DOCTYPE svg PUBLIC "-//W3C//DTD SVG 1.1//EN" "http://www.w3.org/Graphics/SVG/1.1/DTD/svg11.dtd">
<svg version="1.1" id="Layer_1" xmlns="http://www.w3.org/2000/svg" xmlns:xlink="http://www.w3.org/1999/xlink" x="0px" y="0px"
	 width="1164.077px" height="214.489px" viewBox="0 0 1164.077 214.489" enable-background="new 0 0 1164.077 214.489"
	 xml:space="preserve">
<polygon fill="#FA8A3B" points="876.631,194.738 914.454,98.54 875.158,99.146 835.862,99.75 "/>
<polygon fill="#00A9C5" points="977.115,190.687 1010.01,92.693 970.795,95.292 931.58,97.889 "/>
<polygon fill="#00A9C5" points="579.594,194.975 622.091,100.748 582.812,99.424 543.534,98.101 "/>
<polygon fill="#FA8A3B" points="473.994,188.504 520.628,96.254 481.447,93.19 442.267,90.127 "/>
<polygon fill="#E64D61" points="683.814,196.79 724.559,101.791 685.262,101.196 645.966,100.602 "/>
<polygon fill="#E64D61" points="1080.952,183.369 1108.406,83.714 1069.395,88.466 1030.382,93.217 "/>
<polygon fill="#66B245" points="779.891,196.904 820.701,101.934 781.405,101.312 742.109,100.689 "/>
<g>
	<defs>
		<rect id="SVGID_1_" x="11.88" y="12.425" width="1152.197" height="184.479"/>
	</defs>
	<clipPath id="SVGID_2_">
		<use xlink:href="#SVGID_1_"  overflow="visible"/>
	</clipPath>
	<path clip-path="url(#SVGID_2_)" fill="none" stroke="#6D6E70" stroke-width="1.234" stroke-miterlimit="10" d="M1164.001,74.397
		c0,0-658.404,81.306-1151.95-61.379"/>
</g>
<polygon fill="#E64D61" points="272.802,168.243 324.112,78.51 285.141,73.438 246.169,68.366 "/>
<polygon fill="#66B245" points="374.94,180.892 420.628,88.17 381.417,85.507 342.206,82.844 "/>
<polygon fill="#FA8A3B" points="77.783,134.173 137.456,49.768 99.147,40.986 60.841,32.204 "/>
<polygon fill="#00A9C5" points="172.682,152.785 229.224,66.253 190.621,58.879 152.018,51.504 "/>
</svg>
