<?xml version="1.0" encoding="utf-8"?>
<!-- Generator: Adobe Illustrator 16.0.0, SVG Export Plug-In . SVG Version: 6.00 Build 0)  -->
<!DOCTYPE svg PUBLIC "-//W3C//DTD SVG 1.1//EN" "http://www.w3.org/Graphics/SVG/1.1/DTD/svg11.dtd">
<svg version="1.1" id="Layer_1" xmlns="http://www.w3.org/2000/svg" xmlns:xlink="http://www.w3.org/1999/xlink" x="0px" y="0px"
	 width="72px" height="62.567px" viewBox="0 0 72 62.567" enable-background="new 0 0 72 62.567" xml:space="preserve">
<g>
	<defs>
		<rect id="SVGID_1_" x="7" y="8.604" width="57.935" height="48.756"/>
	</defs>
	<clipPath id="SVGID_2_">
		<use xlink:href="#SVGID_1_"  overflow="visible"/>
	</clipPath>
	<path clip-path="url(#SVGID_2_)" fill="#FFFFFF" d="M15.402,31.281c0,0-3.146-2.129-4.602-3.717
		c-1.457-1.589-3.48-4.233-3.48-4.233s1.708-1.588,2.354-2.265c0.645-0.678,5.688-7.2,6.812-7.742
		c1.123-0.542,3.621-1.045,6.44-1.756c2.819-0.711,4.124-1.021,5.324-1.155c0.231,0.004,0.457-0.137,0.651-0.14
		c0.13-0.169,1.88-1.427,1.973-1.138c11.905-1.071,12.154,0.643,12.193,0.729c0.038,0.085,1.779,1.114,2.306,1.257
		c0.526,0.142,3.917,1.255,5.895,1.667c1.979,0.411,3.94,0.927,4.228,1.008c0.875,0.35,3.912,4.054,4.604,5.294
		s2.271,3.408,2.872,4.176c0.602,0.767,1.645,2.142,1.645,2.142s-2.046,2.012-3.107,2.814c-1.06,0.805-4.254,2.861-4.351,2.939
		s-4.234-3.066-4.329-3.159c-0.093-0.091-0.218,0.103-0.219,0.269c-0.001,0.445,0.004,0.896,0.014,1.378
		c0.045,2.154,0.952,4.383,0.812,5.747c-0.139,1.364-0.658,5.931-0.701,7.218c-0.044,1.286,0.828,12.214,0.828,12.214
		s-4.94,1.146-6.539,1.132c-1.598-0.014-6.513,0.795-8.176,0.938c-1.662,0.143-7.851,0.498-12.225-0.066
		c-4.375-0.563-7.611-1.523-7.639-1.866c-0.03-0.342,0.316-1.507,0.416-1.979c0.1-0.473,0.092-3.204,0.184-2.862
		c0.466-0.979-0.375-4.599-0.352-7.226c0.018-1.979-0.161-8.403,0.362-14.147c0.106-1.166,0.029-1.618-0.127-1.733
		c0,0-1.866,1.7-2.285,2.155C16.763,29.627,15.44,31.295,15.402,31.281"/>
	<path clip-path="url(#SVGID_2_)" fill="#241F21" d="M30.695,9.49c1.744,3.545,12.953,1.023,12.034,0.169
		c-0.11-0.103-0.56-0.287-1.136-0.371C38.611,8.852,33.589,8.749,30.695,9.49 M15.535,30.73c0.037,0.016,2.469-2.658,2.723-2.921
		c0.614-0.634,1.23-1.254,1.23-2.603c0-0.333,0.001-0.72,0.005-1.192c0.017-1.891-0.7-4.078-1.012-4.868
		c-0.313-0.791-1.851-4.088-1.851-4.088c0.899,1.074,2.186,5.007,2.895,5.305c0.127,0.055-0.492-6.225-0.459-6.07
		c0.819,3.783,1.237,7.612,0.891,11.46c-0.141,1.574-0.586,15.886-0.595,16.963c-0.027,3.069,0.416,5.484,1.107,8.518
		c0.107,0.474,0.992,3.262,0.992,3.262s-0.706-1.306-1.017-2.227c-0.312-0.92-0.482-1.512-0.575-1.854
		c-0.092-0.341-0.241,2.101-0.341,2.571c-0.1,0.473-0.429,1.494-0.4,1.836c0.029,0.342,3.058,1.262,7.432,1.824
		c4.375,0.564,10.333-0.881,11.997-1.023c1.662-0.144,6.616,0.005,8.215,0.019c1.598,0.014,6.593-0.993,6.593-0.993
		s-0.864-10.882-0.82-12.169c0.043-1.287,0.497-5.722,0.637-7.086c0.14-1.365-0.861-3.843-0.906-5.997
		c-0.032-1.538,0.615-5.513,0.988-7.66c0.29-1.662-0.475-2.938-0.02-4.575c-0.144,0.859,0.201,2.517,0.508,2.346
		c0.177-0.099,1.578-3.138,1.578-3.138s-1.206,2.563-1.313,3.718c-0.104,1.155-1.186,7.692-1.091,7.785
		c0.094,0.093,3.979,3.104,4.075,3.025c2.384-1.925,7.233-4.237,7.169-5.705c0,0-0.936-1.145-1.55-1.904
		c-1.533-1.9-5.13-8.646-7.27-9.44c-0.276-0.103-2.201-0.439-4.18-0.851c-1.979-0.412-5.845-1.857-6.371-1.999
		c-1.084-0.294-1.785-1.094-1.946-0.963c-1.881,1.509-11.075,2.374-12.381-0.521c-0.127-0.28-1.64,0.882-1.573,1.074
		c1.415,4.117,13.208,2.727,15.332,0.604c-1.765,2.374-14.064,3.627-15.99-0.523c-0.112-0.242-2.495,0.188-5.314,0.898
		c-2.819,0.711-5.125,1.217-6.249,1.759c-1.123,0.542-6.199,7.091-6.844,7.768s-2.289,2.213-2.289,2.213
		C9.711,26.372,11.799,28.824,15.535,30.73 M7,23.407c0,0,1.739-1.482,2.999-3.021c1.26-1.539,5.075-6.496,6.199-7.09
		c1.124-0.594,3.685-0.993,6.857-1.858c3.172-0.865,5.347-1.004,5.669-1.264c0.322-0.259,1.864-1.192,1.864-1.192
		c3.403-0.365,8.102-0.689,11.446,0.165c1.123,0.287,1.479,0.66,2.699,1.587c2.911,1.354,9.792,2.193,11.063,3.224
		c3.392,2.744,4.676,6.441,7.494,9.311c0.601,0.61,1.644,2.076,1.644,2.076s-3.596,3.685-4.819,4.725
		c-1.225,1.04-2.649,1.448-2.649,1.448s-1.399-0.748-2.194-1.28c-0.795-0.531-2.382-1.833-2.382-1.833s-0.011,1.235,0.264,2.84
		c0.273,1.604,0.615,2.711,0.478,3.865s-0.625,5.694-0.537,10.266c0.088,4.57,0.747,9.62,0.747,9.62
		c-7.566,2.186-17.627,2.652-25.528,2.22c-3.418-0.188-9.575-1.687-9.635-2.08c-0.06-0.396,0.435-2.203,0.505-2.859
		c0.069-0.655,0.163-2.271,0.245-2.506c0.082-0.235,0.181-0.628,0.181-0.628s-0.768-5.327-0.676-8.583
		c0.092-3.256,0.564-13.391,0.564-13.391c-1.378,1.292-2.991,2.929-4.033,4.43C14.554,32.907,7.284,23.774,7,23.407"/>
</g>
</svg>
