<?xml version="1.0" encoding="utf-8"?>
<!-- Generator: Adobe Illustrator 16.0.0, SVG Export Plug-In . SVG Version: 6.00 Build 0)  -->
<!DOCTYPE svg PUBLIC "-//W3C//DTD SVG 1.1//EN" "http://www.w3.org/Graphics/SVG/1.1/DTD/svg11.dtd">
<svg version="1.1" id="Layer_1" xmlns="http://www.w3.org/2000/svg" xmlns:xlink="http://www.w3.org/1999/xlink" x="0px" y="0px"
	 width="251.899px" height="114.963px" viewBox="0 0 251.899 114.963" enable-background="new 0 0 251.899 114.963"
	 xml:space="preserve">
<g>
	<defs>
		<rect id="SVGID_1_" width="251.899" height="114.963"/>
	</defs>
	<clipPath id="SVGID_2_">
		<use xlink:href="#SVGID_1_"  overflow="visible"/>
	</clipPath>
	<path clip-path="url(#SVGID_2_)" fill="none" stroke="#82CDBF" stroke-width="0.821" d="M14.772,0c0,0,0,14.772-14.772,14.772
		v85.418c0,0,14.772,0,14.772,14.772h222.354c0,0,0-14.772,14.772-14.772V14.772c0,0-14.772,0-14.772-14.772H14.772z"/>
	<path clip-path="url(#SVGID_2_)" fill="none" stroke="#82CDBF" stroke-width="0.821" d="M21.626,4.213c0,0,0,14.772-14.772,14.772
		v76.593c0,0,14.772,0,14.772,14.772h209.162c0,0,0-14.772,14.771-14.772V18.985c0,0-14.771,0-14.771-14.772H21.626z"/>
	<path clip-path="url(#SVGID_2_)" fill="#47D7FF" d="M220.547,55.642c0-0.267-0.296-0.562-0.561-0.562
		c-0.325,0-0.563,0.295-0.563,0.562c0,0.324,0.237,0.562,0.563,0.562C220.251,56.203,220.547,55.966,220.547,55.642 M213.752,62.732
		c0-0.325-0.237-0.591-0.563-0.591c-0.354,0-0.561,0.266-0.561,0.591c0,0.266,0.207,0.532,0.561,0.532
		C213.515,63.265,213.752,62.998,213.752,62.732 M219.424,48.166c0,0.325,0.237,0.563,0.563,0.563c0.324,0,0.561-0.237,0.561-0.563
		s-0.236-0.561-0.561-0.561C219.661,47.605,219.424,47.841,219.424,48.166 M218.213,46.423c0,0.325,0.295,0.563,0.561,0.563
		c0.325,0,0.563-0.237,0.563-0.563c0-0.354-0.237-0.561-0.563-0.561C218.508,45.862,218.213,46.069,218.213,46.423 M211.949,46.513
		c0,0.324,0.266,0.561,0.591,0.561c0.266,0,0.532-0.236,0.532-0.561c0-0.355-0.267-0.562-0.532-0.562
		C212.215,45.951,211.949,46.157,211.949,46.513 M210.855,50.323c0,0.266,0.297,0.532,0.563,0.532c0.325,0,0.561-0.267,0.561-0.532
		c0-0.354-0.235-0.591-0.561-0.591C211.152,49.732,210.855,49.97,210.855,50.323 M211.861,52.214c0,0.325,0.266,0.592,0.591,0.592
		c0.266,0,0.53-0.267,0.53-0.592c0-0.324-0.265-0.531-0.53-0.531C212.127,51.683,211.861,51.89,211.861,52.214 M210.709,48.227
		c0,0.325,0.265,0.561,0.59,0.561c0.266,0,0.532-0.235,0.532-0.561s-0.267-0.563-0.532-0.563
		C210.974,47.664,210.709,47.901,210.709,48.227 M213.898,45.597c0,0.266,0.267,0.531,0.592,0.531c0.354,0,0.562-0.266,0.562-0.531
		c0-0.354-0.207-0.592-0.562-0.592C214.165,45.005,213.898,45.242,213.898,45.597 M219.424,50.354c0,0.266,0.237,0.532,0.563,0.532
		c0.324,0,0.561-0.267,0.561-0.532c0-0.355-0.236-0.591-0.561-0.591C219.661,49.763,219.424,49.998,219.424,50.354 M218.42,52.214
		c0,0.325,0.266,0.592,0.531,0.592c0.354,0,0.591-0.267,0.591-0.592c0-0.324-0.236-0.531-0.591-0.531
		C218.686,51.683,218.42,51.89,218.42,52.214 M216.145,45.479c0,0.266,0.236,0.561,0.562,0.561c0.354,0,0.591-0.295,0.591-0.561
		c0-0.355-0.236-0.591-0.591-0.591C216.381,44.888,216.145,45.123,216.145,45.479 M221.138,60.073c0-0.325-0.236-0.591-0.562-0.591
		c-0.354,0-0.562,0.266-0.562,0.591c0,0.355,0.207,0.532,0.562,0.532C220.901,60.605,221.138,60.429,221.138,60.073 M221.314,57.857
		c0-0.325-0.266-0.591-0.531-0.591c-0.354,0-0.592,0.266-0.592,0.591c0,0.266,0.237,0.532,0.592,0.532
		C221.049,58.39,221.314,58.123,221.314,57.857 M218.922,54.224c0-0.267-0.266-0.562-0.532-0.562c-0.354,0-0.591,0.295-0.591,0.562
		c0,0.324,0.237,0.561,0.591,0.561C218.656,54.784,218.922,54.548,218.922,54.224 M216.795,53.839c0-0.324-0.296-0.591-0.563-0.591
		c-0.324,0-0.561,0.267-0.561,0.591c0,0.355,0.236,0.562,0.561,0.562C216.499,54.4,216.795,54.194,216.795,53.839 M220.045,61.847
		c0-0.267-0.237-0.532-0.563-0.532c-0.354,0-0.591,0.266-0.591,0.532c0,0.354,0.237,0.591,0.591,0.591
		C219.808,62.438,220.045,62.2,220.045,61.847 M218.213,62.969c0-0.236-0.266-0.531-0.591-0.531s-0.532,0.295-0.532,0.531
		c0,0.354,0.207,0.591,0.532,0.591S218.213,63.323,218.213,62.969 M212.54,55.05c0-0.324-0.236-0.591-0.562-0.591
		c-0.354,0-0.561,0.267-0.561,0.591c0,0.355,0.206,0.563,0.561,0.563C212.304,55.612,212.54,55.405,212.54,55.05 M211.949,61.196
		c0-0.325-0.295-0.591-0.562-0.591c-0.325,0-0.561,0.266-0.561,0.591c0,0.354,0.235,0.531,0.561,0.531
		C211.654,61.728,211.949,61.55,211.949,61.196 M211.063,59.099c0-0.325-0.266-0.592-0.591-0.592c-0.354,0-0.532,0.267-0.532,0.592
		c0,0.266,0.179,0.531,0.532,0.531C210.797,59.63,211.063,59.364,211.063,59.099 M211.329,56.882c0-0.266-0.267-0.531-0.591-0.531
		c-0.354,0-0.562,0.266-0.562,0.531c0,0.355,0.207,0.592,0.562,0.592C211.063,57.474,211.329,57.237,211.329,56.882 M214.607,53.81
		c0-0.324-0.265-0.562-0.59-0.562c-0.324,0-0.531,0.237-0.531,0.562c0,0.354,0.207,0.562,0.531,0.562
		C214.343,54.371,214.607,54.164,214.607,53.81 M215.967,63.265c0-0.325-0.265-0.532-0.59-0.532s-0.532,0.207-0.532,0.532
		c0,0.354,0.207,0.591,0.532,0.591S215.967,63.618,215.967,63.265 M220.695,53.455c1.418,1.034,2.451,2.808,2.451,5.142
		c0,1.92-0.709,3.545-2.127,4.815c-1.389,1.271-3.162,1.891-5.317,1.891c-2.128,0-3.9-0.62-5.318-1.891
		c-1.419-1.271-2.128-2.896-2.128-4.815c0-2.334,1.064-4.107,2.453-5.142c-0.828-0.856-1.596-2.274-1.596-4.077
		c0-1.654,0.621-3.014,1.86-4.106c1.271-1.093,2.837-1.654,4.729-1.654c1.89,0,3.456,0.562,4.696,1.654
		c1.271,1.093,1.892,2.452,1.892,4.106C222.29,51.181,221.521,52.599,220.695,53.455 M213.604,49.526
		c0,1.152,0.916,2.186,2.099,2.186c1.27,0,2.127-0.975,2.127-2.186c0-1.212-0.857-2.216-2.127-2.216
		C214.52,47.311,213.604,48.314,213.604,49.526 M212.924,58.448c0,1.625,1.094,2.954,2.778,2.954c1.743,0,2.806-1.299,2.806-2.954
		c0-1.654-1.063-2.984-2.806-2.984C214.018,55.464,212.924,56.794,212.924,58.448 M200.988,46.955c0,0.325,0.266,0.562,0.591,0.562
		c0.354,0,0.562-0.236,0.562-0.562s-0.207-0.561-0.562-0.561C201.254,46.395,200.988,46.63,200.988,46.955 M197.532,50.028
		c0,0.325,0.266,0.561,0.591,0.561c0.354,0,0.531-0.235,0.531-0.561c0-0.355-0.178-0.563-0.531-0.563
		C197.798,49.466,197.532,49.673,197.532,50.028 M199.334,48.462c0,0.325,0.266,0.592,0.532,0.592c0.354,0,0.591-0.267,0.591-0.592
		c0-0.324-0.237-0.531-0.591-0.531C199.6,47.931,199.334,48.138,199.334,48.462 M202.259,62.2c0,0.325,0.266,0.591,0.591,0.591
		c0.354,0,0.562-0.266,0.562-0.591c0-0.354-0.207-0.561-0.562-0.561C202.524,61.64,202.259,61.847,202.259,62.2 M202.259,59.659
		c0,0.325,0.266,0.591,0.591,0.591c0.354,0,0.562-0.266,0.562-0.591c0-0.354-0.207-0.531-0.562-0.531
		C202.524,59.128,202.259,59.306,202.259,59.659 M202.259,57.119c0,0.325,0.266,0.59,0.591,0.59c0.354,0,0.562-0.265,0.562-0.59
		c0-0.354-0.207-0.532-0.562-0.532C202.524,56.587,202.259,56.765,202.259,57.119 M202.259,54.578c0,0.325,0.266,0.591,0.591,0.591
		c0.354,0,0.562-0.266,0.562-0.591s-0.207-0.532-0.562-0.532C202.524,54.046,202.259,54.253,202.259,54.578 M202.259,51.948
		c0,0.266,0.266,0.563,0.591,0.563c0.354,0,0.562-0.297,0.562-0.563c0-0.325-0.207-0.561-0.562-0.561
		C202.524,51.388,202.259,51.623,202.259,51.948 M202.259,49.349c0,0.324,0.266,0.562,0.591,0.562c0.354,0,0.562-0.237,0.562-0.562
		c0-0.325-0.207-0.562-0.562-0.562C202.524,48.787,202.259,49.023,202.259,49.349 M200.604,50.561l-1.122,1.093
		c-1.093,0.857-2.245,0.768-2.983-0.089c-0.621-0.798-0.621-2.099,0.472-3.043l4.166-3.724c0.384-0.324,0.827-0.53,1.33-0.591
		c0.147-0.028,0.266-0.028,0.384-0.028h0.178c0.591,0.028,1.093,0.266,1.477,0.679c0.443,0.444,0.68,1.153,0.68,2.128v14.861
		c0,2.009-1.005,2.836-2.334,2.836c-1.33,0-2.334-0.827-2.334-2.836L200.604,50.561z M179.805,57.355
		c0,0.325,0.267,0.561,0.532,0.561c0.354,0,0.591-0.235,0.591-0.561c0-0.355-0.236-0.562-0.591-0.562
		C180.071,56.794,179.805,57,179.805,57.355 M181.253,59.068c0,0.266,0.207,0.532,0.532,0.532c0.354,0,0.591-0.267,0.591-0.532
		c0-0.354-0.237-0.59-0.591-0.59C181.46,58.479,181.253,58.714,181.253,59.068 M182.553,60.752c0,0.325,0.236,0.592,0.562,0.592
		c0.354,0,0.562-0.267,0.562-0.592c0-0.354-0.207-0.53-0.562-0.53C182.789,60.222,182.553,60.398,182.553,60.752 M183.912,62.438
		c0,0.325,0.235,0.531,0.561,0.531c0.355,0,0.563-0.206,0.563-0.531c0-0.355-0.207-0.591-0.563-0.591
		C184.147,61.847,183.912,62.082,183.912,62.438 M183.941,51.771c0,0.266,0.236,0.532,0.562,0.532c0.354,0,0.561-0.267,0.561-0.532
		c0-0.355-0.207-0.591-0.561-0.591C184.178,51.181,183.941,51.416,183.941,51.771 M178.919,55.257c0,0.267,0.236,0.532,0.561,0.532
		c0.355,0,0.563-0.266,0.563-0.532c0-0.354-0.207-0.591-0.563-0.591C179.155,54.666,178.919,54.903,178.919,55.257 M176.732,55.257
		c0,0.267,0.267,0.532,0.592,0.532c0.354,0,0.53-0.266,0.53-0.532c0-0.354-0.177-0.591-0.53-0.591
		C176.999,54.666,176.732,54.903,176.732,55.257 M181.076,54.726c0,0.324,0.266,0.591,0.531,0.591c0.354,0,0.591-0.267,0.591-0.591
		c0-0.354-0.236-0.531-0.591-0.531C181.342,54.194,181.076,54.371,181.076,54.726 M182.908,53.662c0,0.325,0.265,0.562,0.59,0.562
		s0.532-0.236,0.532-0.562c0-0.354-0.207-0.562-0.532-0.562S182.908,53.308,182.908,53.662 M183.912,49.673
		c0,0.325,0.235,0.592,0.561,0.592c0.355,0,0.563-0.267,0.563-0.592c0-0.324-0.207-0.531-0.563-0.531
		C184.147,49.142,183.912,49.349,183.912,49.673 M182.967,47.901c0,0.265,0.266,0.561,0.59,0.561c0.325,0,0.532-0.296,0.532-0.561
		c0-0.355-0.207-0.591-0.532-0.591C183.232,47.311,182.967,47.546,182.967,47.901 M181.223,46.72c0,0.266,0.207,0.531,0.532,0.531
		c0.355,0,0.591-0.266,0.591-0.531c0-0.355-0.235-0.592-0.591-0.592C181.43,46.128,181.223,46.364,181.223,46.72 M179.008,46.276
		c0,0.325,0.236,0.561,0.562,0.561c0.354,0,0.561-0.235,0.561-0.561s-0.206-0.563-0.561-0.563
		C179.244,45.714,179.008,45.951,179.008,46.276 M176.732,46.246c0,0.325,0.267,0.591,0.592,0.591c0.354,0,0.53-0.266,0.53-0.591
		s-0.177-0.561-0.53-0.561C176.999,45.686,176.732,45.921,176.732,46.246 M174.487,62.2c0,0.325,0.266,0.591,0.591,0.591
		s0.532-0.266,0.532-0.591c0-0.354-0.207-0.561-0.532-0.561S174.487,61.847,174.487,62.2 M174.487,59.896
		c0,0.325,0.266,0.561,0.591,0.561s0.532-0.235,0.532-0.561c0-0.355-0.207-0.591-0.532-0.591S174.487,59.541,174.487,59.896
		 M174.487,57.621c0,0.325,0.266,0.532,0.591,0.532s0.532-0.207,0.532-0.532c0-0.354-0.207-0.591-0.532-0.591
		S174.487,57.267,174.487,57.621 M174.487,55.287c0,0.267,0.266,0.532,0.591,0.532s0.532-0.266,0.532-0.532
		c0-0.354-0.207-0.591-0.532-0.591S174.487,54.933,174.487,55.287 M174.487,53.013c0,0.324,0.266,0.561,0.591,0.561
		s0.532-0.236,0.532-0.561c0-0.325-0.207-0.563-0.532-0.563S174.487,52.688,174.487,53.013 M174.487,50.737
		c0,0.266,0.266,0.561,0.591,0.561s0.532-0.295,0.532-0.561c0-0.325-0.207-0.561-0.532-0.561S174.487,50.412,174.487,50.737
		 M174.487,48.462c0,0.325,0.266,0.592,0.591,0.592s0.532-0.267,0.532-0.592c0-0.324-0.207-0.531-0.532-0.531
		S174.487,48.138,174.487,48.462 M174.487,46.306c0,0.324,0.266,0.562,0.591,0.562s0.532-0.237,0.532-0.562
		c0-0.354-0.207-0.562-0.532-0.562S174.487,45.951,174.487,46.306 M182.76,56.675l2.896,3.575c0.562,0.591,1.005,1.183,1.005,2.246
		c0,1.211-0.857,2.187-2.128,2.187c-0.856-0.03-1.478-0.414-2.187-1.271l-4.934-6.559v4.993c0,2.009-1.004,2.836-2.334,2.836
		c-1.389,0-2.334-0.827-2.334-2.836V46.128c0-1.625,0.827-1.949,2.246-1.949h4.047c4.845,0,7.651,2.481,7.651,6.41
		c0,1.655-0.412,3.015-1.24,4.107C184.651,55.76,183.735,56.409,182.76,56.675 M177.412,53.16h1.596
		c1.861,0,2.954-0.828,2.954-2.246c0-1.565-1.064-2.452-2.925-2.452h-1.625V53.16z M158.415,54.431c0,0.266,0.296,0.561,0.562,0.561
		c0.325,0,0.562-0.295,0.562-0.561c0-0.325-0.236-0.562-0.562-0.562C158.711,53.869,158.415,54.105,158.415,54.431 M160.868,54.431
		c0,0.266,0.295,0.561,0.561,0.561c0.325,0,0.562-0.295,0.562-0.561c0-0.325-0.236-0.562-0.562-0.562
		C161.163,53.869,160.868,54.105,160.868,54.431 M163.29,54.431c0,0.266,0.296,0.561,0.562,0.561c0.325,0,0.562-0.295,0.562-0.561
		c0-0.325-0.236-0.562-0.562-0.562C163.586,53.869,163.29,54.105,163.29,54.431 M158.355,48.373c0-0.325-0.266-0.561-0.591-0.561
		c-0.265,0-0.53,0.235-0.53,0.561s0.266,0.563,0.53,0.563C158.09,48.936,158.355,48.698,158.355,48.373 M158.475,60.752
		c0-0.323-0.266-0.53-0.591-0.53s-0.532,0.207-0.532,0.53c0,0.355,0.207,0.592,0.532,0.592S158.475,61.107,158.475,60.752
		 M167.691,62.26c0.325,0,0.592-0.267,0.592-0.592c0-0.266-0.267-0.53-0.592-0.53c-0.324,0-0.53,0.265-0.53,0.53
		C167.161,61.993,167.367,62.26,167.691,62.26 M165.831,63.353c0.325,0,0.561-0.295,0.561-0.531c0-0.355-0.235-0.591-0.561-0.591
		c-0.354,0-0.591,0.235-0.591,0.591C165.24,63.058,165.477,63.353,165.831,63.353 M163.674,63.737c0.325,0,0.563-0.266,0.563-0.591
		c0-0.355-0.237-0.532-0.563-0.532s-0.561,0.177-0.561,0.532C163.113,63.472,163.349,63.737,163.674,63.737 M162.138,62.909
		c0-0.236-0.266-0.532-0.591-0.532s-0.532,0.296-0.532,0.532c0,0.355,0.207,0.591,0.532,0.591S162.138,63.265,162.138,62.909
		 M160.159,62.142c0-0.325-0.237-0.532-0.563-0.532c-0.354,0-0.591,0.207-0.591,0.532c0,0.354,0.237,0.591,0.591,0.591
		C159.922,62.732,160.159,62.496,160.159,62.142 M157.204,58.98c0-0.325-0.267-0.591-0.591-0.591c-0.267,0-0.532,0.266-0.532,0.591
		s0.266,0.532,0.532,0.532C156.938,59.513,157.204,59.306,157.204,58.98 M156.524,56.794c0-0.266-0.236-0.562-0.562-0.562
		c-0.354,0-0.591,0.296-0.591,0.562c0,0.325,0.237,0.562,0.591,0.562C156.288,57.355,156.524,57.119,156.524,56.794 M167.633,47.931
		c0.325,0,0.591-0.267,0.591-0.592c0-0.324-0.266-0.531-0.591-0.531s-0.531,0.207-0.531,0.531
		C167.102,47.664,167.308,47.931,167.633,47.931 M162.079,46.039c0-0.266-0.267-0.532-0.591-0.532c-0.325,0-0.532,0.267-0.532,0.532
		c0,0.355,0.207,0.591,0.532,0.591C161.813,46.63,162.079,46.395,162.079,46.039 M160.07,46.896c0-0.267-0.267-0.562-0.592-0.562
		c-0.354,0-0.561,0.295-0.561,0.562c0,0.354,0.206,0.561,0.561,0.561C159.804,47.457,160.07,47.251,160.07,46.896 M156.465,52.332
		c0-0.325-0.265-0.561-0.59-0.561c-0.355,0-0.563,0.235-0.563,0.561c0,0.355,0.207,0.591,0.563,0.591
		C156.2,52.923,156.465,52.688,156.465,52.332 M157.115,50.177c0-0.325-0.295-0.563-0.562-0.563c-0.325,0-0.561,0.237-0.561,0.563
		c0,0.354,0.235,0.561,0.561,0.561C156.82,50.737,157.115,50.53,157.115,50.177 M156.259,54.548c0-0.266-0.266-0.531-0.591-0.531
		c-0.355,0-0.532,0.266-0.532,0.531c0,0.355,0.177,0.592,0.532,0.592C155.993,55.14,156.259,54.903,156.259,54.548 M165.802,46.837
		c0.325,0,0.562-0.266,0.562-0.591s-0.236-0.561-0.562-0.561c-0.354,0-0.591,0.235-0.591,0.561S165.447,46.837,165.802,46.837
		 M163.674,46.395c0.266,0,0.532-0.296,0.532-0.563c0-0.325-0.267-0.561-0.532-0.561c-0.354,0-0.591,0.235-0.591,0.561
		C163.083,46.099,163.32,46.395,163.674,46.395 M158.386,56.528c0.148,0.886,0.562,1.684,1.183,2.422
		c1.093,1.123,2.422,1.685,3.959,1.685c0.975,0,1.83-0.236,2.569-0.68c0.739-0.442,1.39-0.68,1.92-0.649
		c1.095,0.028,1.892,1.182,1.892,2.362c-0.029,0.976-0.68,1.832-1.95,2.541s-2.747,1.064-4.461,1.064
		c-2.954,0-5.377-1.005-7.297-3.043c-1.892-2.039-2.837-4.609-2.837-7.683c0-3.16,0.945-5.761,2.837-7.77
		c1.92-2.039,4.343-3.043,7.297-3.043c1.714,0,3.19,0.354,4.461,1.063c1.271,0.681,1.921,1.508,1.95,2.482
		c0,1.211-0.797,2.364-1.892,2.393c-0.53,0.03-1.181-0.207-1.92-0.649c-0.739-0.443-1.595-0.679-2.569-0.679
		c-1.625,0-2.926,0.561-3.959,1.713c-0.563,0.68-0.946,1.478-1.183,2.423h5.495c1.389,0,2.127,0.68,2.127,1.979
		c0,1.39-0.738,2.069-2.127,2.069H158.386z M148.548,58.123c0,0.325,0.266,0.591,0.531,0.591c0.354,0,0.591-0.266,0.591-0.591
		c0-0.266-0.236-0.532-0.591-0.532C148.813,57.591,148.548,57.857,148.548,58.123 M144.736,62.438c0,0.325,0.266,0.531,0.531,0.531
		c0.355,0,0.592-0.206,0.592-0.531c0-0.355-0.236-0.591-0.592-0.591C145.002,61.847,144.736,62.082,144.736,62.438 M142.639,62.584
		c0,0.325,0.236,0.532,0.562,0.532c0.354,0,0.561-0.207,0.561-0.532c0-0.354-0.206-0.591-0.561-0.591
		C142.875,61.993,142.639,62.23,142.639,62.584 M140.452,62.584c0,0.325,0.266,0.532,0.591,0.532c0.354,0,0.532-0.207,0.532-0.532
		c0-0.354-0.178-0.591-0.532-0.591C140.718,61.993,140.452,62.23,140.452,62.584 M146.686,61.609c0,0.237,0.267,0.532,0.592,0.532
		c0.324,0,0.531-0.295,0.531-0.532c0-0.354-0.207-0.591-0.531-0.591C146.952,61.019,146.686,61.255,146.686,61.609 M148.134,60.162
		c0,0.267,0.207,0.531,0.562,0.531c0.324,0,0.562-0.265,0.562-0.531c0-0.354-0.237-0.591-0.562-0.591
		C148.429,59.571,148.134,59.808,148.134,60.162 M147.661,56.263c0,0.324,0.236,0.561,0.562,0.561c0.354,0,0.562-0.236,0.562-0.561
		c0-0.355-0.207-0.592-0.562-0.592C147.897,55.671,147.661,55.907,147.661,56.263 M146.065,55.08c0,0.325,0.267,0.562,0.532,0.562
		c0.354,0,0.591-0.236,0.591-0.562c0-0.354-0.236-0.591-0.591-0.591C146.332,54.489,146.065,54.726,146.065,55.08 M142.521,53.987
		c0,0.325,0.206,0.532,0.531,0.532c0.355,0,0.591-0.207,0.591-0.532c0-0.355-0.235-0.591-0.591-0.591
		C142.727,53.396,142.521,53.632,142.521,53.987 M140.305,53.987c0,0.325,0.267,0.532,0.591,0.532c0.354,0,0.562-0.207,0.562-0.532
		c0-0.355-0.207-0.591-0.562-0.591C140.571,53.396,140.305,53.632,140.305,53.987 M144.766,53.337c0,0.325,0.267,0.592,0.532,0.592
		c0.354,0,0.591-0.267,0.591-0.592c0-0.324-0.236-0.531-0.591-0.531C145.032,52.806,144.766,53.013,144.766,53.337 M146.332,51.83
		c0,0.325,0.236,0.562,0.561,0.562c0.355,0,0.563-0.236,0.563-0.562s-0.207-0.561-0.563-0.561
		C146.568,51.27,146.332,51.505,146.332,51.83 M147.159,49.852c0,0.325,0.266,0.59,0.531,0.59c0.354,0,0.592-0.265,0.592-0.59
		s-0.237-0.563-0.592-0.563C147.425,49.289,147.159,49.526,147.159,49.852 M146.657,47.694c0,0.325,0.266,0.561,0.591,0.561
		s0.531-0.235,0.531-0.561c0-0.355-0.206-0.563-0.531-0.563S146.686,47.222,146.657,47.694 M144.943,46.542
		c0,0.325,0.206,0.562,0.531,0.562c0.355,0,0.591-0.236,0.591-0.562c0-0.354-0.235-0.562-0.591-0.562
		C145.149,45.98,144.943,46.188,144.943,46.542 M142.727,46.128c0,0.325,0.237,0.592,0.563,0.592c0.354,0,0.561-0.267,0.561-0.592
		c0-0.324-0.207-0.531-0.561-0.531C142.964,45.597,142.727,45.804,142.727,46.128 M140.452,46.128c0,0.325,0.266,0.592,0.591,0.592
		c0.354,0,0.532-0.267,0.532-0.592c0-0.324-0.178-0.531-0.532-0.531C140.718,45.597,140.452,45.804,140.452,46.128 M138.207,62.525
		c0,0.325,0.266,0.532,0.591,0.532s0.532-0.207,0.532-0.532c0-0.354-0.207-0.591-0.532-0.591S138.207,62.171,138.207,62.525
		 M138.207,60.191c0,0.266,0.266,0.532,0.591,0.532s0.532-0.267,0.532-0.532c0-0.354-0.207-0.591-0.532-0.591
		S138.207,59.837,138.207,60.191 M138.207,57.857c0,0.266,0.266,0.532,0.591,0.532s0.532-0.267,0.532-0.532
		c0-0.354-0.207-0.591-0.532-0.591S138.207,57.503,138.207,57.857 M138.207,55.523c0,0.266,0.266,0.561,0.591,0.561
		s0.532-0.295,0.532-0.561c0-0.325-0.207-0.562-0.532-0.562S138.207,55.198,138.207,55.523 M138.207,53.278
		c0,0.325,0.266,0.591,0.591,0.591s0.532-0.266,0.532-0.591s-0.207-0.532-0.532-0.532S138.207,52.953,138.207,53.278
		 M138.207,50.944c0,0.325,0.266,0.591,0.591,0.591s0.532-0.266,0.532-0.591s-0.207-0.532-0.532-0.532
		S138.207,50.619,138.207,50.944 M138.207,48.521c0,0.325,0.266,0.591,0.591,0.591s0.532-0.266,0.532-0.591
		s-0.207-0.532-0.532-0.532S138.207,48.196,138.207,48.521 M138.207,46.188c0,0.325,0.266,0.591,0.591,0.591
		s0.532-0.266,0.532-0.591s-0.207-0.562-0.532-0.562S138.207,45.862,138.207,46.188 M147.868,53.722
		c2.009,0.737,3.25,2.629,3.25,4.668c0,3.87-2.482,6.293-7.416,6.293h-4.993c-1.654,0-2.245-0.502-2.245-1.95V46.128
		c0-1.271,0.591-1.949,2.245-1.949h4.225c4.757,0,6.707,2.156,6.707,5.377C149.641,51.653,148.725,53.041,147.868,53.722
		 M141.132,52.155h1.654c1.419,0,2.453-0.798,2.453-2.127c0-1.271-0.739-1.891-2.217-1.891h-1.891V52.155z M141.132,60.664h2.866
		c1.507,0,2.363-0.798,2.363-2.364c0-1.506-1.063-2.362-2.984-2.362h-2.245V60.664z M127.985,48.698
		c0,0.325,0.235,0.591,0.561,0.591c0.355,0,0.562-0.266,0.562-0.591s-0.206-0.561-0.562-0.561
		C128.221,48.138,127.985,48.373,127.985,48.698 M126.862,50.737c0,0.266,0.236,0.561,0.562,0.561c0.354,0,0.562-0.295,0.562-0.561
		c0-0.325-0.207-0.561-0.562-0.561C127.099,50.177,126.862,50.412,126.862,50.737 M125.651,52.716c0,0.325,0.235,0.532,0.561,0.532
		c0.354,0,0.562-0.207,0.562-0.532c0-0.354-0.207-0.591-0.562-0.591C125.887,52.125,125.651,52.362,125.651,52.716 M124.381,54.638
		c0,0.324,0.236,0.591,0.561,0.591c0.354,0,0.562-0.267,0.562-0.591c0-0.325-0.207-0.532-0.562-0.532
		C124.617,54.105,124.381,54.313,124.381,54.638 M123.199,56.675c0,0.237,0.266,0.532,0.591,0.532c0.354,0,0.561-0.295,0.561-0.532
		c0-0.354-0.207-0.591-0.561-0.591C123.465,56.084,123.199,56.321,123.199,56.675 M117.053,50.737c0,0.266,0.237,0.561,0.563,0.561
		c0.354,0,0.561-0.295,0.561-0.561c0-0.325-0.207-0.561-0.561-0.561C117.29,50.177,117.053,50.412,117.053,50.737 M118.265,52.716
		c0,0.325,0.236,0.532,0.562,0.532c0.354,0,0.561-0.207,0.561-0.532c0-0.354-0.206-0.591-0.561-0.591
		C118.501,52.125,118.265,52.362,118.265,52.716 M119.417,54.638c0,0.324,0.236,0.591,0.561,0.591c0.355,0,0.563-0.267,0.563-0.591
		c0-0.325-0.207-0.532-0.563-0.532C119.653,54.105,119.417,54.313,119.417,54.638 M120.628,56.675c0,0.237,0.237,0.532,0.562,0.532
		c0.354,0,0.562-0.295,0.562-0.532c0-0.354-0.207-0.591-0.562-0.591C120.865,56.084,120.628,56.321,120.628,56.675 M121.928,58.537
		c0,0.325,0.237,0.591,0.563,0.591c0.354,0,0.561-0.266,0.561-0.591c0-0.354-0.207-0.562-0.561-0.562
		C122.165,57.976,121.928,58.183,121.928,58.537 M115.901,48.698c0,0.325,0.266,0.591,0.591,0.591c0.354,0,0.561-0.266,0.561-0.591
		s-0.206-0.561-0.561-0.561C116.167,48.138,115.901,48.373,115.901,48.698 M130.142,62.2c0,0.325,0.295,0.591,0.562,0.591
		c0.354,0,0.591-0.266,0.591-0.591c0-0.354-0.236-0.561-0.591-0.561C130.437,61.64,130.142,61.847,130.142,62.2 M130.142,59.955
		c0,0.325,0.295,0.532,0.562,0.532c0.354,0,0.591-0.207,0.591-0.532c0-0.354-0.236-0.591-0.591-0.591
		C130.437,59.364,130.142,59.601,130.142,59.955 M130.142,57.709c0,0.267,0.295,0.532,0.562,0.532c0.354,0,0.591-0.266,0.591-0.532
		c0-0.354-0.236-0.59-0.591-0.59C130.437,57.119,130.142,57.355,130.142,57.709 M130.142,55.464c0,0.267,0.295,0.532,0.562,0.532
		c0.354,0,0.591-0.266,0.591-0.532c0-0.354-0.236-0.591-0.591-0.591C130.437,54.873,130.142,55.109,130.142,55.464 M130.142,53.189
		c0,0.266,0.295,0.561,0.562,0.561c0.354,0,0.591-0.295,0.591-0.561c0-0.325-0.236-0.562-0.591-0.562
		C130.437,52.628,130.142,52.864,130.142,53.189 M130.142,50.914c0,0.325,0.295,0.591,0.562,0.591c0.354,0,0.591-0.266,0.591-0.591
		s-0.236-0.532-0.591-0.532C130.437,50.382,130.142,50.589,130.142,50.914 M130.142,48.669c0,0.325,0.295,0.592,0.562,0.592
		c0.354,0,0.591-0.267,0.591-0.592c0-0.324-0.236-0.562-0.591-0.562C130.437,48.107,130.142,48.345,130.142,48.669 M130.142,46.423
		c0,0.325,0.295,0.563,0.562,0.563c0.354,0,0.591-0.237,0.591-0.563c0-0.354-0.236-0.561-0.591-0.561
		C130.437,45.862,130.142,46.069,130.142,46.423 M113.744,62.2c0,0.325,0.266,0.591,0.591,0.591s0.532-0.266,0.532-0.591
		c0-0.354-0.207-0.561-0.532-0.561S113.744,61.847,113.744,62.2 M113.744,59.955c0,0.325,0.266,0.532,0.591,0.532
		s0.532-0.207,0.532-0.532c0-0.354-0.207-0.591-0.532-0.591S113.744,59.601,113.744,59.955 M113.744,57.709
		c0,0.267,0.266,0.532,0.591,0.532s0.532-0.266,0.532-0.532c0-0.354-0.207-0.59-0.532-0.59S113.744,57.355,113.744,57.709
		 M113.744,55.464c0,0.267,0.266,0.532,0.591,0.532s0.532-0.266,0.532-0.532c0-0.354-0.207-0.591-0.532-0.591
		S113.744,55.109,113.744,55.464 M113.744,53.189c0,0.266,0.266,0.561,0.591,0.561s0.532-0.295,0.532-0.561
		c0-0.325-0.207-0.562-0.532-0.562S113.744,52.864,113.744,53.189 M113.744,50.914c0,0.325,0.266,0.591,0.591,0.591
		s0.532-0.266,0.532-0.591s-0.207-0.532-0.532-0.532S113.744,50.589,113.744,50.914 M113.744,48.669
		c0,0.325,0.266,0.592,0.591,0.592s0.532-0.267,0.532-0.592c0-0.324-0.207-0.562-0.532-0.562S113.744,48.345,113.744,48.669
		 M113.744,46.423c0,0.325,0.266,0.563,0.591,0.563s0.532-0.237,0.532-0.563c0-0.354-0.207-0.561-0.532-0.561
		S113.744,46.069,113.744,46.423 M128.517,52.806l-4.195,7.179c-0.385,0.503-0.827,0.828-1.359,0.916
		c-0.147,0.03-0.295,0.03-0.443,0.03c-0.147,0-0.295,0-0.473-0.03c-0.502-0.088-0.945-0.413-1.299-0.916l-4.226-7.179l0.147,9.041
		c0,2.009-1.004,2.836-2.334,2.836c-1.388,0-2.334-0.827-2.334-2.836V47.251c0-2.334,0.856-3.072,2.6-3.072
		c1.359,0,2.068,0.384,2.63,1.389l5.288,8.952l5.26-8.952c0.561-0.828,1.418-1.389,2.658-1.389c1.743,0,2.63,0.738,2.63,3.072
		v14.596c0,2.009-0.975,2.836-2.363,2.836c-1.329,0-2.334-0.827-2.334-2.836L128.517,52.806z M97.673,54.431
		c0,0.266,0.295,0.561,0.562,0.561c0.324,0,0.561-0.295,0.561-0.561c0-0.325-0.236-0.562-0.561-0.562
		C97.968,53.869,97.673,54.105,97.673,54.431 M100.125,54.431c0,0.266,0.295,0.561,0.561,0.561c0.325,0,0.562-0.295,0.562-0.561
		c0-0.325-0.236-0.562-0.562-0.562C100.42,53.869,100.125,54.105,100.125,54.431 M102.547,54.431c0,0.266,0.296,0.561,0.563,0.561
		c0.324,0,0.561-0.295,0.561-0.561c0-0.325-0.236-0.562-0.561-0.562C102.843,53.869,102.547,54.105,102.547,54.431 M97.613,48.373
		c0-0.325-0.266-0.561-0.591-0.561c-0.266,0-0.531,0.235-0.531,0.561s0.266,0.563,0.531,0.563
		C97.348,48.936,97.613,48.698,97.613,48.373 M97.731,60.752c0-0.323-0.266-0.53-0.591-0.53s-0.531,0.207-0.531,0.53
		c0,0.355,0.206,0.592,0.531,0.592S97.731,61.107,97.731,60.752 M106.95,62.26c0.324,0,0.59-0.267,0.59-0.592
		c0-0.266-0.266-0.53-0.59-0.53c-0.325,0-0.532,0.265-0.532,0.53C106.418,61.993,106.625,62.26,106.95,62.26 M105.088,63.353
		c0.325,0,0.562-0.295,0.562-0.531c0-0.355-0.236-0.591-0.562-0.591c-0.354,0-0.591,0.235-0.591,0.591
		C104.497,63.058,104.734,63.353,105.088,63.353 M102.932,63.737c0.325,0,0.562-0.266,0.562-0.591c0-0.355-0.236-0.532-0.562-0.532
		s-0.562,0.177-0.562,0.532C102.37,63.472,102.606,63.737,102.932,63.737 M101.395,62.909c0-0.236-0.266-0.532-0.591-0.532
		s-0.532,0.296-0.532,0.532c0,0.355,0.207,0.591,0.532,0.591S101.395,63.265,101.395,62.909 M99.416,62.142
		c0-0.325-0.237-0.532-0.563-0.532c-0.354,0-0.591,0.207-0.591,0.532c0,0.354,0.237,0.591,0.591,0.591
		C99.179,62.732,99.416,62.496,99.416,62.142 M96.461,58.98c0-0.325-0.266-0.591-0.591-0.591c-0.267,0-0.531,0.266-0.531,0.591
		s0.265,0.532,0.531,0.532C96.195,59.513,96.461,59.306,96.461,58.98 M95.782,56.794c0-0.266-0.237-0.562-0.563-0.562
		c-0.354,0-0.591,0.296-0.591,0.562c0,0.325,0.237,0.562,0.591,0.562C95.545,57.355,95.782,57.119,95.782,56.794 M106.89,47.931
		c0.325,0,0.591-0.267,0.591-0.592c0-0.324-0.266-0.531-0.591-0.531c-0.324,0-0.53,0.207-0.53,0.531
		C106.359,47.664,106.565,47.931,106.89,47.931 M101.336,46.039c0-0.266-0.266-0.532-0.591-0.532s-0.532,0.267-0.532,0.532
		c0,0.355,0.207,0.591,0.532,0.591S101.336,46.395,101.336,46.039 M99.327,46.896c0-0.267-0.267-0.562-0.591-0.562
		c-0.354,0-0.562,0.295-0.562,0.562c0,0.354,0.207,0.561,0.562,0.561C99.061,47.457,99.327,47.251,99.327,46.896 M95.723,52.332
		c0-0.325-0.266-0.561-0.591-0.561c-0.354,0-0.562,0.235-0.562,0.561c0,0.355,0.207,0.591,0.562,0.591
		C95.457,52.923,95.723,52.688,95.723,52.332 M96.373,50.177c0-0.325-0.296-0.563-0.563-0.563c-0.324,0-0.561,0.237-0.561,0.563
		c0,0.354,0.236,0.561,0.561,0.561C96.077,50.737,96.373,50.53,96.373,50.177 M95.516,54.548c0-0.266-0.266-0.531-0.591-0.531
		c-0.354,0-0.532,0.266-0.532,0.531c0,0.355,0.178,0.592,0.532,0.592C95.25,55.14,95.516,54.903,95.516,54.548 M105.059,46.837
		c0.325,0,0.562-0.266,0.562-0.591s-0.236-0.561-0.562-0.561c-0.354,0-0.591,0.235-0.591,0.561S104.704,46.837,105.059,46.837
		 M102.932,46.395c0.266,0,0.531-0.296,0.531-0.563c0-0.325-0.266-0.561-0.531-0.561c-0.354,0-0.591,0.235-0.591,0.561
		C102.341,46.099,102.577,46.395,102.932,46.395 M97.643,56.528c0.148,0.886,0.562,1.684,1.183,2.422
		c1.093,1.123,2.422,1.685,3.959,1.685c0.975,0,1.832-0.236,2.569-0.68c0.739-0.442,1.39-0.68,1.921-0.649
		c1.094,0.028,1.891,1.182,1.891,2.362c-0.029,0.976-0.679,1.832-1.95,2.541c-1.27,0.709-2.747,1.064-4.461,1.064
		c-2.954,0-5.377-1.005-7.297-3.043c-1.892-2.039-2.837-4.609-2.837-7.683c0-3.16,0.945-5.761,2.837-7.77
		c1.92-2.039,4.343-3.043,7.297-3.043c1.714,0,3.191,0.354,4.461,1.063c1.271,0.681,1.921,1.508,1.95,2.482
		c0,1.211-0.797,2.364-1.891,2.393c-0.531,0.03-1.182-0.207-1.921-0.649c-0.737-0.443-1.595-0.679-2.569-0.679
		c-1.625,0-2.925,0.561-3.959,1.713c-0.563,0.68-0.946,1.478-1.183,2.423h5.495c1.39,0,2.128,0.68,2.128,1.979
		c0,1.39-0.738,2.069-2.128,2.069H97.643z M85.766,46.335c0,0.325,0.296,0.562,0.563,0.562c0.325,0,0.561-0.236,0.561-0.562
		c0-0.354-0.235-0.562-0.561-0.562C86.062,45.773,85.766,45.98,85.766,46.335 M88.307,46.335c0,0.325,0.295,0.562,0.562,0.562
		c0.325,0,0.562-0.236,0.562-0.562c0-0.354-0.236-0.562-0.562-0.562C88.602,45.773,88.307,45.98,88.307,46.335 M78.144,46.335
		c0,0.325,0.267,0.562,0.592,0.562c0.354,0,0.53-0.236,0.53-0.562c0-0.354-0.177-0.562-0.53-0.562
		C78.41,45.773,78.144,45.98,78.144,46.335 M80.537,46.335c0,0.325,0.266,0.562,0.591,0.562c0.354,0,0.531-0.236,0.531-0.562
		c0-0.354-0.178-0.562-0.531-0.562C80.803,45.773,80.537,45.98,80.537,46.335 M83.225,62.2c0,0.325,0.267,0.591,0.591,0.591
		c0.325,0,0.532-0.266,0.532-0.591c0-0.354-0.207-0.561-0.532-0.561C83.491,61.64,83.225,61.847,83.225,62.2 M83.225,59.955
		c0,0.325,0.267,0.532,0.591,0.532c0.325,0,0.532-0.207,0.532-0.532c0-0.354-0.207-0.591-0.532-0.591
		C83.491,59.364,83.225,59.601,83.225,59.955 M83.225,57.709c0,0.267,0.267,0.532,0.591,0.532c0.325,0,0.532-0.266,0.532-0.532
		c0-0.354-0.207-0.59-0.532-0.59C83.491,57.119,83.225,57.355,83.225,57.709 M83.225,55.464c0,0.267,0.267,0.532,0.591,0.532
		c0.325,0,0.532-0.266,0.532-0.532c0-0.354-0.207-0.591-0.532-0.591C83.491,54.873,83.225,55.109,83.225,55.464 M83.225,53.189
		c0,0.266,0.267,0.561,0.591,0.561c0.325,0,0.532-0.295,0.532-0.561c0-0.325-0.207-0.562-0.532-0.562
		C83.491,52.628,83.225,52.864,83.225,53.189 M83.225,50.914c0,0.325,0.267,0.591,0.591,0.591c0.325,0,0.532-0.266,0.532-0.591
		s-0.207-0.532-0.532-0.532C83.491,50.382,83.225,50.589,83.225,50.914 M83.225,48.669c0,0.325,0.267,0.592,0.591,0.592
		c0.325,0,0.532-0.267,0.532-0.592c0-0.324-0.207-0.562-0.532-0.562C83.491,48.107,83.225,48.345,83.225,48.669 M83.225,46.335
		c0,0.325,0.267,0.562,0.591,0.562c0.325,0,0.532-0.236,0.532-0.562c0-0.354-0.207-0.562-0.532-0.562
		C83.491,45.773,83.225,45.98,83.225,46.335 M81.481,48.462h-2.836c-1.418,0-2.244-0.738-2.244-2.127
		c0-1.418,0.826-2.156,2.244-2.156h10.312c1.418,0,2.245,0.738,2.245,2.127c0,1.418-0.827,2.156-2.245,2.156h-2.808v13.385
		c0,2.009-1.004,2.836-2.334,2.836c-1.388,0-2.334-0.827-2.334-2.836V48.462z M71.319,48.048c0,0.267,0.266,0.532,0.591,0.532
		s0.532-0.266,0.532-0.532c0-0.354-0.207-0.591-0.532-0.591S71.319,47.694,71.319,48.048 M72.294,49.939
		c0,0.325,0.237,0.591,0.562,0.591c0.354,0,0.562-0.266,0.562-0.591c0-0.354-0.207-0.562-0.562-0.562
		C72.531,49.378,72.294,49.585,72.294,49.939 M72.324,52.125c0,0.325,0.235,0.591,0.561,0.591c0.355,0,0.562-0.266,0.562-0.591
		s-0.206-0.53-0.562-0.53C72.56,51.595,72.324,51.8,72.324,52.125 M71.526,54.224c0,0.266,0.295,0.531,0.561,0.531
		c0.355,0,0.562-0.266,0.562-0.531c0-0.354-0.206-0.592-0.562-0.592C71.821,53.632,71.526,53.869,71.526,54.224 M69.812,55.523
		c0,0.266,0.237,0.561,0.563,0.561c0.354,0,0.561-0.295,0.561-0.561c0-0.325-0.207-0.562-0.561-0.562
		C70.049,54.962,69.812,55.198,69.812,55.523 M67.567,55.907c0,0.325,0.266,0.591,0.591,0.591c0.354,0,0.531-0.266,0.531-0.591
		s-0.178-0.532-0.531-0.532C67.833,55.375,67.567,55.582,67.567,55.907 M65.232,55.996c0,0.325,0.267,0.591,0.592,0.591
		c0.354,0,0.531-0.266,0.531-0.591c0-0.354-0.178-0.532-0.531-0.532C65.499,55.464,65.232,55.642,65.232,55.996 M69.665,46.748
		c0,0.267,0.207,0.532,0.532,0.532c0.354,0,0.59-0.266,0.59-0.532c0-0.354-0.236-0.591-0.59-0.591
		C69.872,46.157,69.665,46.395,69.665,46.748 M67.478,46.246c0,0.325,0.237,0.591,0.563,0.591c0.354,0,0.561-0.266,0.561-0.591
		s-0.207-0.561-0.561-0.561C67.715,45.686,67.478,45.921,67.478,46.246 M65.174,46.188c0,0.325,0.266,0.591,0.591,0.591
		c0.354,0,0.532-0.266,0.532-0.591s-0.178-0.562-0.532-0.562C65.439,45.626,65.174,45.862,65.174,46.188 M62.929,62.466
		c0,0.325,0.266,0.532,0.59,0.532c0.325,0,0.532-0.207,0.532-0.532c0-0.354-0.207-0.591-0.532-0.591
		C63.194,61.875,62.929,62.112,62.929,62.466 M62.929,60.162c0,0.267,0.266,0.531,0.59,0.531c0.325,0,0.532-0.265,0.532-0.531
		c0-0.354-0.207-0.591-0.532-0.591C63.194,59.571,62.929,59.808,62.929,60.162 M62.929,57.857c0,0.266,0.266,0.532,0.59,0.532
		c0.325,0,0.532-0.267,0.532-0.532c0-0.354-0.207-0.591-0.532-0.591C63.194,57.267,62.929,57.503,62.929,57.857 M62.929,55.523
		c0,0.266,0.266,0.561,0.59,0.561c0.325,0,0.532-0.295,0.532-0.561c0-0.325-0.207-0.562-0.532-0.562
		C63.194,54.962,62.929,55.198,62.929,55.523 M62.929,53.16c0,0.265,0.266,0.562,0.59,0.562c0.325,0,0.532-0.297,0.532-0.562
		c0-0.325-0.207-0.562-0.532-0.562C63.194,52.599,62.929,52.835,62.929,53.16 M62.929,50.855c0,0.266,0.266,0.561,0.59,0.561
		c0.325,0,0.532-0.295,0.532-0.561c0-0.354-0.207-0.562-0.532-0.562C63.194,50.294,62.929,50.501,62.929,50.855 M62.929,48.521
		c0,0.325,0.266,0.591,0.59,0.591c0.325,0,0.532-0.266,0.532-0.591s-0.207-0.532-0.532-0.532
		C63.194,47.989,62.929,48.196,62.929,48.521 M62.929,46.246c0,0.325,0.266,0.591,0.59,0.591c0.325,0,0.532-0.266,0.532-0.591
		s-0.207-0.561-0.532-0.561C63.194,45.686,62.929,45.921,62.929,46.246 M65.853,58.094v3.753c0,2.009-1.004,2.836-2.334,2.836
		c-1.388,0-2.334-0.827-2.334-2.836V46.128c0-1.625,0.828-1.949,2.246-1.949h3.781c4.994,0,7.771,2.718,7.771,6.972
		c0,4.373-2.481,6.943-7.682,6.943H65.853z M65.853,53.869h1.448c2.098,0,3.191-0.916,3.191-2.719c0-1.861-1.034-2.954-3.191-2.954
		h-1.448V53.869z M46.856,54.431c0,0.266,0.296,0.561,0.562,0.561c0.325,0,0.561-0.295,0.561-0.561c0-0.325-0.235-0.562-0.561-0.562
		C47.152,53.869,46.856,54.105,46.856,54.431 M49.309,54.431c0,0.266,0.295,0.561,0.562,0.561c0.325,0,0.562-0.295,0.562-0.561
		c0-0.325-0.236-0.562-0.562-0.562C49.604,53.869,49.309,54.105,49.309,54.431 M51.731,54.431c0,0.266,0.296,0.561,0.562,0.561
		c0.325,0,0.561-0.295,0.561-0.561c0-0.325-0.235-0.562-0.561-0.562C52.027,53.869,51.731,54.105,51.731,54.431 M46.798,48.373
		c0-0.325-0.266-0.561-0.591-0.561c-0.267,0-0.532,0.235-0.532,0.561s0.266,0.563,0.532,0.563
		C46.532,48.936,46.798,48.698,46.798,48.373 M46.916,60.752c0-0.323-0.267-0.53-0.591-0.53c-0.325,0-0.532,0.207-0.532,0.53
		c0,0.355,0.207,0.592,0.532,0.592C46.649,61.344,46.916,61.107,46.916,60.752 M56.134,62.26c0.325,0,0.591-0.267,0.591-0.592
		c0-0.266-0.266-0.53-0.591-0.53s-0.532,0.265-0.532,0.53C55.602,61.993,55.809,62.26,56.134,62.26 M54.271,63.353
		c0.325,0,0.563-0.295,0.563-0.531c0-0.355-0.237-0.591-0.563-0.591c-0.354,0-0.591,0.235-0.591,0.591
		C53.681,63.058,53.918,63.353,54.271,63.353 M52.116,63.737c0.324,0,0.561-0.266,0.561-0.591c0-0.355-0.236-0.532-0.561-0.532
		c-0.325,0-0.563,0.177-0.563,0.532C51.554,63.472,51.791,63.737,52.116,63.737 M50.579,62.909c0-0.236-0.267-0.532-0.591-0.532
		c-0.325,0-0.531,0.296-0.531,0.532c0,0.355,0.206,0.591,0.531,0.591C50.313,63.5,50.579,63.265,50.579,62.909 M48.6,62.142
		c0-0.325-0.236-0.532-0.562-0.532c-0.354,0-0.59,0.207-0.59,0.532c0,0.354,0.235,0.591,0.59,0.591
		C48.363,62.732,48.6,62.496,48.6,62.142 M45.645,58.98c0-0.325-0.266-0.591-0.591-0.591c-0.265,0-0.531,0.266-0.531,0.591
		s0.267,0.532,0.531,0.532C45.379,59.513,45.645,59.306,45.645,58.98 M44.966,56.794c0-0.266-0.237-0.562-0.562-0.562
		c-0.354,0-0.591,0.296-0.591,0.562c0,0.325,0.236,0.562,0.591,0.562C44.729,57.355,44.966,57.119,44.966,56.794 M56.075,47.931
		c0.324,0,0.59-0.267,0.59-0.592c0-0.324-0.266-0.531-0.59-0.531c-0.325,0-0.532,0.207-0.532,0.531
		C55.543,47.664,55.75,47.931,56.075,47.931 M50.52,46.039c0-0.266-0.266-0.532-0.591-0.532s-0.532,0.267-0.532,0.532
		c0,0.355,0.207,0.591,0.532,0.591S50.52,46.395,50.52,46.039 M48.511,46.896c0-0.267-0.266-0.562-0.591-0.562
		c-0.354,0-0.561,0.295-0.561,0.562c0,0.354,0.206,0.561,0.561,0.561C48.245,47.457,48.511,47.251,48.511,46.896 M44.907,52.332
		c0-0.325-0.267-0.561-0.592-0.561c-0.354,0-0.562,0.235-0.562,0.561c0,0.355,0.207,0.591,0.562,0.591
		C44.641,52.923,44.907,52.688,44.907,52.332 M45.557,50.177c0-0.325-0.296-0.563-0.562-0.563c-0.325,0-0.562,0.237-0.562,0.563
		c0,0.354,0.236,0.561,0.562,0.561C45.261,50.737,45.557,50.53,45.557,50.177 M44.7,54.548c0-0.266-0.267-0.531-0.591-0.531
		c-0.355,0-0.532,0.266-0.532,0.531c0,0.355,0.177,0.592,0.532,0.592C44.434,55.14,44.7,54.903,44.7,54.548 M54.243,46.837
		c0.325,0,0.561-0.266,0.561-0.591s-0.235-0.561-0.561-0.561c-0.355,0-0.591,0.235-0.591,0.561S53.888,46.837,54.243,46.837
		 M52.116,46.395c0.266,0,0.53-0.296,0.53-0.563c0-0.325-0.265-0.561-0.53-0.561c-0.355,0-0.592,0.235-0.592,0.561
		C51.524,46.099,51.761,46.395,52.116,46.395 M46.827,56.528c0.147,0.886,0.561,1.684,1.182,2.422
		c1.093,1.123,2.423,1.685,3.959,1.685c0.976,0,1.832-0.236,2.57-0.68c0.739-0.442,1.389-0.68,1.921-0.649
		c1.093,0.028,1.891,1.182,1.891,2.362c-0.029,0.976-0.68,1.832-1.95,2.541s-2.747,1.064-4.462,1.064
		c-2.953,0-5.377-1.005-7.297-3.043c-1.891-2.039-2.836-4.609-2.836-7.683c0-3.16,0.945-5.761,2.836-7.77
		c1.92-2.039,4.344-3.043,7.297-3.043c1.715,0,3.191,0.354,4.462,1.063c1.271,0.681,1.921,1.508,1.95,2.482
		c0,1.211-0.798,2.364-1.891,2.393c-0.532,0.03-1.182-0.207-1.921-0.649c-0.738-0.443-1.595-0.679-2.57-0.679
		c-1.625,0-2.925,0.561-3.959,1.713c-0.561,0.68-0.946,1.478-1.182,2.423h5.495c1.389,0,2.128,0.68,2.128,1.979
		c0,1.39-0.739,2.069-2.128,2.069H46.827z M29.248,50.737c0-0.266-0.266-0.561-0.591-0.561c-0.325,0-0.531,0.295-0.531,0.561
		c0,0.325,0.206,0.561,0.531,0.561C28.982,51.298,29.248,51.063,29.248,50.737 M29.16,48.462c0-0.324-0.266-0.561-0.591-0.561
		c-0.266,0-0.532,0.236-0.532,0.561c0,0.325,0.266,0.562,0.532,0.562C28.894,49.023,29.16,48.787,29.16,48.462 M30.371,46.63
		c0-0.324-0.266-0.591-0.591-0.591c-0.266,0-0.532,0.267-0.532,0.591c0,0.325,0.266,0.563,0.532,0.563
		C30.105,47.192,30.371,46.955,30.371,46.63 M32.469,45.773c0-0.267-0.266-0.562-0.532-0.562c-0.355,0-0.591,0.295-0.591,0.562
		c0,0.354,0.236,0.562,0.591,0.562C32.203,46.335,32.469,46.128,32.469,45.773 M34.832,45.686c0-0.267-0.266-0.563-0.532-0.563
		c-0.354,0-0.59,0.296-0.59,0.563c0,0.354,0.236,0.561,0.59,0.561C34.566,46.246,34.832,46.039,34.832,45.686 M37.048,46.513
		c0-0.325-0.236-0.562-0.561-0.562c-0.355,0-0.591,0.236-0.591,0.562c0,0.354,0.236,0.561,0.591,0.561
		C36.812,47.073,37.048,46.867,37.048,46.513 M29.514,52.539c0,0.325,0.207,0.562,0.532,0.562c0.355,0,0.591-0.236,0.591-0.562
		c0-0.354-0.236-0.561-0.591-0.561C29.721,51.979,29.514,52.186,29.514,52.539 M31.494,53.722c0,0.324,0.295,0.561,0.561,0.561
		c0.325,0,0.561-0.236,0.561-0.561c0-0.355-0.236-0.562-0.561-0.562C31.789,53.16,31.494,53.366,31.494,53.722 M33.532,54.578
		c0,0.325,0.266,0.591,0.591,0.591c0.355,0,0.532-0.266,0.532-0.591s-0.177-0.532-0.532-0.532
		C33.798,54.046,33.532,54.253,33.532,54.578 M35.482,55.7c0,0.325,0.266,0.591,0.532,0.591c0.355,0,0.591-0.266,0.591-0.591
		s-0.235-0.531-0.591-0.531C35.748,55.169,35.482,55.375,35.482,55.7 M36.871,57.355c0,0.325,0.235,0.561,0.561,0.561
		c0.355,0,0.563-0.235,0.563-0.561c0-0.355-0.207-0.562-0.563-0.562C37.106,56.794,36.871,57,36.871,57.355 M36.989,59.571
		c0,0.325,0.235,0.591,0.561,0.591c0.355,0,0.563-0.266,0.563-0.591c0-0.355-0.207-0.532-0.563-0.532
		C37.225,59.039,36.989,59.216,36.989,59.571 M36.044,61.521c0,0.235,0.266,0.531,0.591,0.531c0.324,0,0.531-0.296,0.531-0.531
		c0-0.355-0.207-0.591-0.531-0.591C36.31,60.931,36.044,61.166,36.044,61.521 M34.271,62.732c0,0.236,0.266,0.532,0.532,0.532
		c0.354,0,0.591-0.296,0.591-0.532c0-0.355-0.237-0.591-0.591-0.591C34.537,62.142,34.271,62.377,34.271,62.732 M32.085,63.146
		c0,0.325,0.236,0.591,0.561,0.591c0.355,0,0.561-0.266,0.561-0.591c0-0.355-0.206-0.532-0.561-0.532
		C32.321,62.614,32.085,62.791,32.085,63.146 M29.869,62.909c0,0.325,0.266,0.591,0.591,0.591c0.354,0,0.531-0.266,0.531-0.591
		c0-0.266-0.177-0.532-0.531-0.532C30.135,62.377,29.869,62.644,29.869,62.909 M27.889,61.935c0,0.325,0.296,0.591,0.562,0.591
		c0.325,0,0.561-0.266,0.561-0.591c0-0.354-0.236-0.532-0.561-0.532C28.185,61.402,27.889,61.58,27.889,61.935 M34.98,58.773
		c0-0.739-0.236-1.271-0.68-1.595c-0.443-0.355-1.329-0.77-2.599-1.241c-3.546-1.271-5.378-3.132-5.378-6.116
		c0-1.891,0.65-3.398,1.98-4.491c1.329-1.123,3.013-1.684,5.052-1.684c3.22,0,5.289,1.271,5.289,3.014
		c0,1.418-0.769,2.187-2.068,2.187c-0.385,0-0.827-0.148-1.329-0.443c-0.502-0.325-1.093-0.473-1.802-0.473
		c-1.389,0-2.275,0.68-2.275,1.891c0,0.916,0.916,1.714,2.747,2.393c2.157,0.799,3.664,1.655,4.55,2.541
		c0.916,0.887,1.359,2.187,1.359,3.87c0,2.039-0.709,3.635-2.127,4.847c-1.389,1.211-3.191,1.802-5.407,1.802
		c-1.743,0-3.19-0.325-4.343-1.005c-1.152-0.68-1.743-1.447-1.743-2.334c0-1.271,0.916-2.245,2.305-2.245
		c0.384,0,0.916,0.207,1.654,0.591c0.739,0.384,1.477,0.591,2.216,0.591C34.064,60.871,34.98,59.955,34.98,58.773"/>
	<path clip-path="url(#SVGID_2_)" fill="#47D7FF" d="M194.753,19.013c0,0.325,0.236,0.562,0.561,0.562
		c0.355,0,0.563-0.237,0.563-0.562c0-0.354-0.207-0.561-0.563-0.561C194.989,18.452,194.753,18.659,194.753,19.013 M193.542,20.934
		c0,0.266,0.236,0.561,0.561,0.561c0.354,0,0.562-0.295,0.562-0.561c0-0.355-0.207-0.562-0.562-0.562
		C193.778,20.372,193.542,20.579,193.542,20.934 M192.301,22.825c0,0.325,0.236,0.561,0.562,0.561c0.354,0,0.561-0.236,0.561-0.561
		c0-0.355-0.206-0.591-0.561-0.591C192.537,22.234,192.301,22.47,192.301,22.825 M191.06,24.863c0,0.325,0.236,0.591,0.562,0.591
		c0.354,0,0.561-0.266,0.561-0.591s-0.206-0.532-0.561-0.532C191.296,24.331,191.06,24.538,191.06,24.863 M181.635,19.013
		c0,0.325,0.267,0.562,0.591,0.562c0.325,0,0.532-0.237,0.532-0.562c0-0.354-0.207-0.561-0.532-0.561
		C181.901,18.452,181.635,18.659,181.635,19.013 M182.816,20.934c0,0.266,0.267,0.561,0.592,0.561c0.324,0,0.53-0.295,0.53-0.561
		c0-0.355-0.206-0.562-0.53-0.562C183.083,20.372,182.816,20.579,182.816,20.934 M184.058,22.825c0,0.325,0.267,0.561,0.591,0.561
		c0.325,0,0.531-0.236,0.531-0.561c0-0.355-0.206-0.591-0.531-0.591C184.324,22.234,184.058,22.47,184.058,22.825 M185.417,24.893
		c0,0.325,0.266,0.591,0.591,0.591c0.266,0,0.531-0.266,0.531-0.591c0-0.325-0.266-0.532-0.531-0.532
		C185.683,24.361,185.417,24.568,185.417,24.893 M186.717,26.813c0,0.266,0.295,0.532,0.562,0.532c0.324,0,0.561-0.266,0.561-0.532
		c0-0.354-0.236-0.591-0.561-0.591C187.012,26.222,186.717,26.459,186.717,26.813 M189.701,26.813c0,0.325,0.235,0.562,0.561,0.562
		c0.355,0,0.591-0.237,0.591-0.562c0-0.325-0.235-0.561-0.591-0.561C189.937,26.252,189.701,26.488,189.701,26.813 M188.223,34.908
		c0,0.325,0.267,0.562,0.532,0.562c0.355,0,0.591-0.237,0.591-0.562c0-0.354-0.235-0.59-0.591-0.59
		C188.489,34.318,188.223,34.554,188.223,34.908 M188.223,32.781c0,0.266,0.267,0.532,0.532,0.532c0.355,0,0.591-0.266,0.591-0.532
		c0-0.354-0.235-0.591-0.591-0.591C188.489,32.19,188.223,32.427,188.223,32.781 M188.223,30.654c0,0.266,0.267,0.561,0.532,0.561
		c0.355,0,0.591-0.295,0.591-0.561c0-0.325-0.235-0.561-0.591-0.561C188.489,30.093,188.223,30.329,188.223,30.654 M188.164,28.556
		c0,0.325,0.266,0.591,0.532,0.591c0.354,0,0.591-0.266,0.591-0.591c0-0.354-0.207-0.502-0.65-0.591
		C188.371,27.965,188.164,28.202,188.164,28.556 M188.726,25.336l4.491-7.327c1.152-1.625,2.481-1.684,3.545-0.857
		s1.329,2.098,0.177,3.664l-5.85,9.129v4.491c0,2.009-0.975,2.836-2.363,2.836c-1.33,0-2.334-0.827-2.334-2.836v-4.432l-5.85-9.188
		c-1.093-1.566-0.857-2.837,0.207-3.664c1.034-0.827,2.393-0.768,3.545,0.857L188.726,25.336z M173.865,31.422
		c0-0.325-0.267-0.591-0.592-0.591c-0.324,0-0.531,0.266-0.531,0.591c0,0.355,0.207,0.532,0.531,0.532
		C173.599,31.954,173.865,31.777,173.865,31.422 M171.561,31.422c0-0.325-0.266-0.591-0.591-0.591c-0.354,0-0.562,0.266-0.562,0.591
		c0,0.355,0.207,0.532,0.562,0.532C171.295,31.954,171.561,31.777,171.561,31.422 M169.286,31.422c0-0.325-0.237-0.591-0.563-0.591
		c-0.354,0-0.561,0.266-0.561,0.591c0,0.355,0.207,0.532,0.561,0.532C169.049,31.954,169.286,31.777,169.286,31.422 M166.952,31.422
		c0-0.325-0.207-0.591-0.532-0.591c-0.355,0-0.591,0.266-0.591,0.591c0,0.355,0.235,0.532,0.591,0.532
		C166.745,31.954,166.952,31.777,166.952,31.422 M171.443,19.338c0-0.325-0.267-0.59-0.592-0.59c-0.324,0-0.531,0.265-0.531,0.59
		c0,0.325,0.207,0.532,0.531,0.532C171.177,19.87,171.443,19.663,171.443,19.338 M169.581,19.338c0-0.325-0.267-0.59-0.532-0.59
		c-0.354,0-0.59,0.265-0.59,0.59c0,0.325,0.236,0.532,0.59,0.532C169.314,19.87,169.581,19.663,169.581,19.338 M168.695,21.2
		c0-0.266-0.297-0.532-0.562-0.532c-0.325,0-0.562,0.266-0.562,0.532c0,0.354,0.236,0.591,0.562,0.591
		C168.398,21.791,168.695,21.554,168.695,21.2 M167.927,23.238c0-0.266-0.266-0.561-0.591-0.561c-0.355,0-0.532,0.295-0.532,0.561
		c0,0.325,0.177,0.562,0.532,0.562C167.661,23.8,167.927,23.563,167.927,23.238 M167.07,25.306c0-0.325-0.207-0.59-0.532-0.59
		c-0.354,0-0.591,0.265-0.591,0.59c0,0.355,0.236,0.532,0.591,0.532C166.863,25.838,167.07,25.661,167.07,25.306 M166.361,27.345
		c0-0.325-0.267-0.532-0.592-0.532c-0.266,0-0.531,0.207-0.531,0.532c0,0.355,0.266,0.591,0.531,0.591
		C166.095,27.936,166.361,27.7,166.361,27.345 M165.593,29.413c0-0.266-0.266-0.561-0.591-0.561c-0.355,0-0.563,0.295-0.563,0.561
		c0,0.325,0.207,0.561,0.563,0.561C165.327,29.974,165.593,29.738,165.593,29.413 M164.677,31.422c0-0.325-0.207-0.591-0.532-0.591
		c-0.354,0-0.591,0.266-0.591,0.591c0,0.355,0.236,0.532,0.591,0.532C164.47,31.954,164.677,31.777,164.677,31.422 M163.938,33.431
		c0-0.325-0.266-0.532-0.591-0.532c-0.266,0-0.532,0.207-0.532,0.532c0,0.355,0.267,0.591,0.532,0.591
		C163.672,34.022,163.938,33.786,163.938,33.431 M163.229,35.47c0-0.266-0.235-0.562-0.561-0.562c-0.355,0-0.591,0.296-0.591,0.562
		c0,0.325,0.235,0.561,0.591,0.561C162.993,36.031,163.229,35.795,163.229,35.47 M174.574,27.345c0-0.325-0.236-0.532-0.562-0.532
		s-0.561,0.207-0.561,0.532c0,0.355,0.235,0.591,0.561,0.591S174.574,27.7,174.574,27.345 M177.529,35.47
		c0-0.266-0.267-0.562-0.592-0.562c-0.324,0-0.531,0.296-0.531,0.562c0,0.325,0.207,0.561,0.531,0.561
		C177.263,36.031,177.529,35.795,177.529,35.47 M176.761,33.402c0-0.325-0.296-0.532-0.562-0.532c-0.354,0-0.592,0.207-0.592,0.532
		c0,0.354,0.237,0.591,0.592,0.591C176.465,33.993,176.761,33.756,176.761,33.402 M176.051,31.422c0-0.325-0.295-0.591-0.561-0.591
		c-0.354,0-0.562,0.266-0.562,0.591c0,0.355,0.207,0.532,0.562,0.532C175.756,31.954,176.051,31.777,176.051,31.422 M175.283,29.413
		c0-0.266-0.236-0.561-0.562-0.561c-0.354,0-0.561,0.295-0.561,0.561c0,0.325,0.206,0.561,0.561,0.561
		C175.047,29.974,175.283,29.738,175.283,29.413 M173.865,25.306c0-0.325-0.267-0.59-0.592-0.59c-0.324,0-0.531,0.265-0.531,0.59
		c0,0.355,0.207,0.532,0.531,0.532C173.599,25.838,173.865,25.661,173.865,25.306 M173.097,23.238c0-0.266-0.207-0.561-0.532-0.561
		c-0.354,0-0.591,0.295-0.591,0.561c0,0.325,0.237,0.562,0.591,0.562C172.89,23.8,173.097,23.563,173.097,23.238 M172.357,21.2
		c0-0.266-0.295-0.532-0.561-0.532c-0.325,0-0.561,0.266-0.561,0.532c0,0.354,0.235,0.591,0.561,0.591
		C172.063,21.791,172.357,21.554,172.357,21.2 M165.888,33.461l-0.649,2.009c-0.236,0.709-0.532,1.241-0.887,1.595
		c-0.384,0.384-0.826,0.562-1.33,0.562c-1.388,0-2.541-1.035-2.541-2.246c0-0.532,0.09-0.975,0.237-1.359l5.613-14.3
		c0.768-2.009,2.009-3.013,3.723-3.013c1.625,0,2.777,0.916,3.427,2.718l5.349,14.506c0.207,0.68,0.325,1.182,0.325,1.507
		c0,1.271-0.946,2.187-2.334,2.187c-1.153,0-1.98-0.769-2.453-2.275l-0.59-1.891H165.888z M169.936,22.411l-2.63,6.914h5.112
		L169.936,22.411z M146.596,35.115c0,0.325,0.267,0.532,0.591,0.532c0.325,0,0.532-0.207,0.532-0.532
		c0-0.354-0.207-0.591-0.532-0.591C146.862,34.524,146.596,34.761,146.596,35.115 M153.627,33.343c0,0.325,0.266,0.59,0.591,0.59
		c0.355,0,0.563-0.265,0.563-0.59c0-0.355-0.207-0.532-0.563-0.532C153.893,32.811,153.627,32.988,153.627,33.343 M146.596,18.807
		c0,0.325,0.267,0.591,0.591,0.591c0.325,0,0.532-0.266,0.532-0.591c0-0.325-0.207-0.562-0.532-0.562
		C146.862,18.245,146.596,18.482,146.596,18.807 M153.302,20.432c0,0.325,0.207,0.561,0.532,0.561c0.354,0,0.591-0.236,0.591-0.561
		c0-0.355-0.236-0.591-0.591-0.591C153.509,19.841,153.302,20.077,153.302,20.432 M148.93,18.866c0,0.325,0.267,0.561,0.591,0.561
		c0.325,0,0.532-0.236,0.532-0.561c0-0.325-0.207-0.562-0.532-0.562C149.196,18.304,148.93,18.541,148.93,18.866 M151.205,19.309
		c0,0.266,0.266,0.532,0.591,0.532c0.354,0,0.561-0.266,0.561-0.532c0-0.355-0.206-0.591-0.561-0.591
		C151.471,18.718,151.205,18.954,151.205,19.309 M154.897,22.175c0,0.266,0.267,0.561,0.592,0.561c0.324,0,0.561-0.295,0.561-0.561
		c0-0.355-0.236-0.562-0.561-0.562C155.164,21.613,154.897,21.82,154.897,22.175 M155.902,24.391c0,0.325,0.236,0.561,0.562,0.561
		c0.354,0,0.562-0.236,0.562-0.561c0-0.325-0.207-0.562-0.562-0.562C156.139,23.829,155.902,24.066,155.902,24.391 M149.048,35.056
		c0,0.325,0.266,0.532,0.591,0.532s0.532-0.207,0.532-0.532c0-0.354-0.207-0.591-0.532-0.591S149.048,34.702,149.048,35.056
		 M151.53,34.583c0,0.325,0.266,0.591,0.591,0.591s0.531-0.266,0.531-0.591c0-0.354-0.206-0.531-0.531-0.531
		S151.53,34.229,151.53,34.583 M156.08,29.265c0,0.266,0.266,0.562,0.591,0.562s0.561-0.296,0.561-0.562
		c0-0.325-0.235-0.561-0.561-0.561S156.08,28.94,156.08,29.265 M155.223,31.57c0,0.266,0.295,0.532,0.562,0.532
		c0.354,0,0.562-0.266,0.562-0.532c0-0.355-0.207-0.591-0.562-0.591C155.518,30.979,155.223,31.215,155.223,31.57 M156.286,26.843
		c0,0.266,0.266,0.561,0.591,0.561s0.532-0.295,0.532-0.561c0-0.325-0.207-0.562-0.532-0.562S156.286,26.518,156.286,26.843
		 M144.144,34.997c0,0.325,0.267,0.532,0.592,0.532c0.324,0,0.53-0.207,0.53-0.532c0-0.354-0.206-0.591-0.53-0.591
		C144.41,34.406,144.144,34.643,144.144,34.997 M144.144,32.663c0,0.325,0.267,0.532,0.592,0.532c0.324,0,0.53-0.207,0.53-0.532
		c0-0.354-0.206-0.591-0.53-0.591C144.41,32.072,144.144,32.309,144.144,32.663 M144.144,30.299c0,0.266,0.267,0.532,0.592,0.532
		c0.324,0,0.53-0.266,0.53-0.532c0-0.354-0.206-0.59-0.53-0.59C144.41,29.709,144.144,29.945,144.144,30.299 M144.144,27.965
		c0,0.266,0.267,0.532,0.592,0.532c0.324,0,0.53-0.266,0.53-0.532c0-0.354-0.206-0.59-0.53-0.59
		C144.41,27.375,144.144,27.611,144.144,27.965 M144.144,25.572c0,0.325,0.267,0.562,0.592,0.562c0.324,0,0.53-0.237,0.53-0.562
		s-0.206-0.561-0.53-0.561C144.41,25.011,144.144,25.247,144.144,25.572 M144.144,23.297c0,0.266,0.267,0.562,0.592,0.562
		c0.324,0,0.53-0.296,0.53-0.562c0-0.325-0.206-0.561-0.53-0.561C144.41,22.736,144.144,22.972,144.144,23.297 M144.144,21.052
		c0,0.325,0.267,0.591,0.592,0.591c0.324,0,0.53-0.266,0.53-0.591s-0.206-0.532-0.53-0.532
		C144.41,20.52,144.144,20.727,144.144,21.052 M144.144,18.866c0,0.325,0.267,0.561,0.592,0.561c0.324,0,0.53-0.236,0.53-0.561
		c0-0.325-0.206-0.562-0.53-0.562C144.41,18.304,144.144,18.541,144.144,18.866 M144.646,37.272c-1.418,0-2.245-0.325-2.245-1.95
		V18.718c0-1.625,0.827-1.95,2.245-1.95h3.575c3.486,0,6.116,0.975,7.918,2.895c1.802,1.921,2.777,4.462,2.866,7.682
		c0.029,2.866-0.857,5.259-2.689,7.12c-1.802,1.862-4.668,2.807-8.567,2.807H144.646z M147.069,32.929h1.211
		c4.106,0,6.026-1.92,6.026-5.554c0-4.107-1.891-6.323-5.938-6.323h-1.3V32.929z M129.253,23.327c0-0.266-0.265-0.561-0.59-0.561
		s-0.532,0.295-0.532,0.561c0,0.325,0.207,0.561,0.532,0.561S129.253,23.652,129.253,23.327 M129.165,21.052
		c0-0.325-0.267-0.561-0.591-0.561c-0.267,0-0.532,0.236-0.532,0.561s0.266,0.561,0.532,0.561
		C128.898,21.613,129.165,21.377,129.165,21.052 M130.376,19.22c0-0.325-0.266-0.591-0.591-0.591c-0.267,0-0.532,0.266-0.532,0.591
		c0,0.325,0.266,0.562,0.532,0.562C130.11,19.782,130.376,19.545,130.376,19.22 M132.474,18.363c0-0.265-0.266-0.561-0.532-0.561
		c-0.354,0-0.591,0.296-0.591,0.561c0,0.355,0.236,0.562,0.591,0.562C132.208,18.925,132.474,18.718,132.474,18.363 M134.837,18.275
		c0-0.266-0.266-0.562-0.531-0.562c-0.354,0-0.591,0.296-0.591,0.562c0,0.354,0.236,0.561,0.591,0.561
		C134.571,18.836,134.837,18.629,134.837,18.275 M137.053,19.102c0-0.325-0.236-0.561-0.561-0.561c-0.355,0-0.591,0.236-0.591,0.561
		c0,0.355,0.235,0.561,0.591,0.561C136.816,19.663,137.053,19.457,137.053,19.102 M129.519,25.129c0,0.325,0.207,0.562,0.532,0.562
		c0.355,0,0.591-0.237,0.591-0.562c0-0.354-0.235-0.561-0.591-0.561C129.726,24.568,129.519,24.775,129.519,25.129 M131.499,26.311
		c0,0.325,0.295,0.561,0.561,0.561c0.325,0,0.563-0.236,0.563-0.561c0-0.355-0.237-0.561-0.563-0.561
		C131.794,25.75,131.499,25.956,131.499,26.311 M133.537,27.168c0,0.325,0.266,0.591,0.591,0.591c0.354,0,0.532-0.266,0.532-0.591
		c0-0.325-0.178-0.532-0.532-0.532C133.803,26.636,133.537,26.843,133.537,27.168 M135.487,28.29c0,0.325,0.266,0.591,0.531,0.591
		c0.355,0,0.592-0.266,0.592-0.591c0-0.325-0.236-0.531-0.592-0.531C135.753,27.759,135.487,27.965,135.487,28.29 M136.876,29.945
		c0,0.325,0.236,0.561,0.561,0.561c0.355,0,0.563-0.236,0.563-0.561c0-0.355-0.207-0.561-0.563-0.561
		C137.112,29.384,136.876,29.59,136.876,29.945 M136.994,32.161c0,0.325,0.235,0.591,0.561,0.591c0.355,0,0.563-0.266,0.563-0.591
		c0-0.355-0.207-0.532-0.563-0.532C137.229,31.629,136.994,31.806,136.994,32.161 M136.049,34.111c0,0.236,0.266,0.532,0.591,0.532
		s0.531-0.296,0.531-0.532c0-0.355-0.206-0.591-0.531-0.591S136.049,33.756,136.049,34.111 M134.276,35.322
		c0,0.236,0.266,0.532,0.531,0.532c0.354,0,0.591-0.296,0.591-0.532c0-0.354-0.236-0.591-0.591-0.591
		C134.542,34.731,134.276,34.968,134.276,35.322 M132.09,35.736c0,0.325,0.236,0.591,0.562,0.591c0.354,0,0.561-0.266,0.561-0.591
		c0-0.355-0.206-0.532-0.561-0.532C132.326,35.204,132.09,35.381,132.09,35.736 M129.874,35.499c0,0.325,0.266,0.591,0.591,0.591
		c0.354,0,0.532-0.266,0.532-0.591c0-0.266-0.178-0.531-0.532-0.531C130.14,34.968,129.874,35.233,129.874,35.499 M127.894,34.524
		c0,0.325,0.296,0.591,0.563,0.591c0.325,0,0.561-0.266,0.561-0.591c0-0.354-0.235-0.531-0.561-0.531
		C128.189,33.993,127.894,34.17,127.894,34.524 M134.985,31.363c0-0.739-0.236-1.27-0.68-1.595c-0.443-0.355-1.33-0.768-2.6-1.241
		c-3.546-1.271-5.377-3.132-5.377-6.116c0-1.891,0.648-3.398,1.979-4.491c1.329-1.122,3.015-1.684,5.053-1.684
		c3.22,0,5.288,1.271,5.288,3.014c0,1.418-0.769,2.186-2.068,2.186c-0.384,0-0.827-0.148-1.329-0.443
		c-0.502-0.325-1.093-0.473-1.802-0.473c-1.39,0-2.275,0.68-2.275,1.891c0,0.916,0.916,1.714,2.747,2.393
		c2.157,0.798,3.664,1.655,4.55,2.541c0.916,0.886,1.359,2.186,1.359,3.87c0,2.039-0.709,3.634-2.127,4.846
		c-1.389,1.211-3.191,1.802-5.406,1.802c-1.744,0-3.191-0.325-4.344-1.005c-1.152-0.679-1.743-1.447-1.743-2.334
		c0-1.27,0.916-2.245,2.305-2.245c0.384,0,0.916,0.207,1.654,0.591c0.739,0.384,1.478,0.591,2.216,0.591
		C134.069,33.461,134.985,32.545,134.985,31.363 M117.377,29.945c0,0.325,0.266,0.561,0.531,0.561c0.354,0,0.591-0.236,0.591-0.561
		c0-0.355-0.236-0.561-0.591-0.561C117.643,29.384,117.377,29.59,117.377,29.945 M118.824,31.659c0,0.265,0.207,0.531,0.531,0.531
		c0.355,0,0.592-0.266,0.592-0.531c0-0.355-0.236-0.591-0.592-0.591C119.031,31.068,118.824,31.304,118.824,31.659 M120.124,33.343
		c0,0.325,0.237,0.59,0.562,0.59c0.354,0,0.562-0.265,0.562-0.59c0-0.355-0.207-0.532-0.562-0.532
		C120.361,32.811,120.124,32.988,120.124,33.343 M121.482,35.027c0,0.325,0.237,0.531,0.563,0.531c0.354,0,0.561-0.206,0.561-0.531
		c0-0.355-0.207-0.591-0.561-0.591C121.72,34.436,121.482,34.672,121.482,35.027 M121.513,24.361c0,0.266,0.236,0.532,0.562,0.532
		c0.354,0,0.562-0.266,0.562-0.532c0-0.355-0.207-0.591-0.562-0.591C121.749,23.77,121.513,24.006,121.513,24.361 M116.49,27.847
		c0,0.266,0.236,0.532,0.562,0.532c0.354,0,0.562-0.266,0.562-0.532c0-0.354-0.207-0.591-0.562-0.591
		C116.727,27.256,116.49,27.493,116.49,27.847 M114.304,27.847c0,0.266,0.267,0.532,0.591,0.532c0.354,0,0.532-0.266,0.532-0.532
		c0-0.354-0.178-0.591-0.532-0.591C114.57,27.256,114.304,27.493,114.304,27.847 M118.646,27.315c0,0.325,0.267,0.591,0.532,0.591
		c0.354,0,0.591-0.266,0.591-0.591c0-0.354-0.236-0.531-0.591-0.531C118.913,26.784,118.646,26.961,118.646,27.315 M120.479,26.252
		c0,0.325,0.267,0.561,0.592,0.561c0.324,0,0.531-0.236,0.531-0.561c0-0.355-0.207-0.561-0.531-0.561
		C120.745,25.691,120.479,25.897,120.479,26.252 M121.482,22.263c0,0.325,0.237,0.591,0.563,0.591c0.354,0,0.561-0.266,0.561-0.591
		c0-0.325-0.207-0.531-0.561-0.531C121.72,21.732,121.482,21.938,121.482,22.263 M120.538,20.491c0,0.266,0.266,0.561,0.591,0.561
		s0.532-0.295,0.532-0.561c0-0.355-0.207-0.591-0.532-0.591S120.538,20.136,120.538,20.491 M118.795,19.309
		c0,0.266,0.207,0.532,0.532,0.532c0.354,0,0.591-0.266,0.591-0.532c0-0.355-0.237-0.591-0.591-0.591
		C119.002,18.718,118.795,18.954,118.795,19.309 M116.579,18.866c0,0.325,0.235,0.561,0.561,0.561c0.355,0,0.563-0.236,0.563-0.561
		c0-0.325-0.207-0.562-0.563-0.562C116.814,18.304,116.579,18.541,116.579,18.866 M114.304,18.836c0,0.325,0.267,0.591,0.591,0.591
		c0.354,0,0.532-0.266,0.532-0.591c0-0.325-0.178-0.561-0.532-0.561C114.57,18.275,114.304,18.511,114.304,18.836 M112.059,34.79
		c0,0.325,0.267,0.591,0.592,0.591c0.324,0,0.53-0.266,0.53-0.591c0-0.354-0.206-0.561-0.53-0.561
		C112.325,34.229,112.059,34.436,112.059,34.79 M112.059,32.486c0,0.325,0.267,0.561,0.592,0.561c0.324,0,0.53-0.236,0.53-0.561
		c0-0.355-0.206-0.591-0.53-0.591C112.325,31.895,112.059,32.131,112.059,32.486 M112.059,30.211c0,0.325,0.267,0.532,0.592,0.532
		c0.324,0,0.53-0.207,0.53-0.532c0-0.355-0.206-0.591-0.53-0.591C112.325,29.62,112.059,29.856,112.059,30.211 M112.059,27.877
		c0,0.266,0.267,0.532,0.592,0.532c0.324,0,0.53-0.266,0.53-0.532c0-0.355-0.206-0.591-0.53-0.591
		C112.325,27.286,112.059,27.522,112.059,27.877 M112.059,25.602c0,0.325,0.267,0.561,0.592,0.561c0.324,0,0.53-0.236,0.53-0.561
		c0-0.325-0.206-0.561-0.53-0.561C112.325,25.041,112.059,25.277,112.059,25.602 M112.059,23.327c0,0.266,0.267,0.561,0.592,0.561
		c0.324,0,0.53-0.295,0.53-0.561c0-0.325-0.206-0.561-0.53-0.561C112.325,22.766,112.059,23.002,112.059,23.327 M112.059,21.052
		c0,0.325,0.267,0.591,0.592,0.591c0.324,0,0.53-0.266,0.53-0.591s-0.206-0.532-0.53-0.532
		C112.325,20.52,112.059,20.727,112.059,21.052 M112.059,18.895c0,0.325,0.267,0.562,0.592,0.562c0.324,0,0.53-0.237,0.53-0.562
		c0-0.354-0.206-0.561-0.53-0.561C112.325,18.334,112.059,18.541,112.059,18.895 M120.331,29.265l2.896,3.575
		c0.562,0.591,1.004,1.182,1.004,2.246c0,1.211-0.856,2.186-2.127,2.186c-0.856-0.03-1.477-0.414-2.186-1.27l-4.934-6.559v4.993
		c0,2.009-1.006,2.836-2.334,2.836c-1.39,0-2.335-0.827-2.335-2.836V18.718c0-1.625,0.827-1.95,2.245-1.95h4.049
		c4.845,0,7.651,2.482,7.651,6.411c0,1.655-0.414,3.014-1.241,4.107C122.222,28.35,121.306,29,120.331,29.265 M114.984,25.75h1.595
		c1.86,0,2.954-0.828,2.954-2.246c0-1.566-1.063-2.452-2.924-2.452h-1.625V25.75z M91.643,21.318c0,0.325,0.267,0.561,0.592,0.561
		c0.324,0,0.531-0.236,0.531-0.561c0-0.355-0.207-0.561-0.531-0.561C91.909,20.757,91.643,20.963,91.643,21.318 M104.022,25.838
		c0,0.266,0.296,0.562,0.562,0.562c0.325,0,0.561-0.296,0.561-0.562c0-0.354-0.235-0.561-0.561-0.561
		C104.318,25.277,104.022,25.484,104.022,25.838 M92.44,32.486c0,0.325,0.237,0.561,0.563,0.561c0.354,0,0.59-0.236,0.59-0.561
		c0-0.355-0.236-0.591-0.59-0.591C92.678,31.895,92.44,32.131,92.44,32.486 M93.83,34.229c0,0.266,0.266,0.561,0.591,0.561
		c0.354,0,0.531-0.295,0.531-0.561c0-0.325-0.177-0.561-0.531-0.561C94.096,33.668,93.83,33.904,93.83,34.229 M95.78,35.381
		c0,0.237,0.266,0.532,0.531,0.532c0.354,0,0.591-0.295,0.591-0.532c0-0.354-0.236-0.591-0.591-0.591
		C96.046,34.79,95.78,35.027,95.78,35.381 M103.284,32.486c0,0.325,0.235,0.561,0.561,0.561c0.355,0,0.563-0.236,0.563-0.561
		c0-0.355-0.207-0.591-0.563-0.591C103.52,31.895,103.284,32.131,103.284,32.486 M91.643,23.563c0,0.325,0.267,0.591,0.592,0.591
		c0.324,0,0.531-0.266,0.531-0.591c0-0.325-0.207-0.532-0.531-0.532C91.909,23.031,91.643,23.238,91.643,23.563 M100.123,35.322
		c0,0.236,0.266,0.532,0.591,0.532s0.531-0.296,0.531-0.532c0-0.354-0.206-0.591-0.531-0.591S100.123,34.968,100.123,35.322
		 M97.966,35.706c0,0.325,0.295,0.591,0.562,0.591c0.324,0,0.562-0.266,0.562-0.591c0-0.325-0.237-0.532-0.562-0.532
		C98.261,35.174,97.966,35.381,97.966,35.706 M91.762,30.359c0,0.265,0.267,0.531,0.591,0.531c0.266,0,0.531-0.266,0.531-0.531
		c0-0.355-0.266-0.591-0.531-0.591C92.028,29.768,91.762,30.004,91.762,30.359 M103.934,30.359c0,0.265,0.295,0.531,0.562,0.531
		c0.354,0,0.562-0.266,0.562-0.531c0-0.355-0.207-0.591-0.562-0.591C104.229,29.768,103.934,30.004,103.934,30.359 M104.022,28.084
		c0,0.266,0.296,0.561,0.562,0.561c0.325,0,0.561-0.295,0.561-0.561c0-0.325-0.235-0.562-0.561-0.562
		C104.318,27.522,104.022,27.759,104.022,28.084 M91.643,25.838c0,0.266,0.267,0.562,0.592,0.562c0.324,0,0.531-0.296,0.531-0.562
		c0-0.354-0.207-0.561-0.531-0.561C91.909,25.277,91.643,25.484,91.643,25.838 M104.022,23.563c0,0.325,0.296,0.591,0.562,0.591
		c0.325,0,0.561-0.266,0.561-0.591c0-0.325-0.235-0.532-0.561-0.532C104.318,23.031,104.022,23.238,104.022,23.563 M104.022,21.318
		c0,0.325,0.296,0.561,0.562,0.561c0.325,0,0.561-0.236,0.561-0.561c0-0.355-0.235-0.561-0.561-0.561
		C104.318,20.757,104.022,20.963,104.022,21.318 M104.022,19.073c0,0.325,0.296,0.561,0.562,0.561c0.325,0,0.561-0.236,0.561-0.561
		c0-0.355-0.235-0.562-0.561-0.562C104.318,18.511,104.022,18.718,104.022,19.073 M91.643,28.084c0,0.266,0.267,0.561,0.592,0.561
		c0.324,0,0.531-0.295,0.531-0.561c0-0.325-0.207-0.562-0.531-0.562C91.909,27.522,91.643,27.759,91.643,28.084 M91.643,19.073
		c0,0.325,0.267,0.561,0.592,0.561c0.324,0,0.531-0.236,0.531-0.561c0-0.355-0.207-0.562-0.531-0.562
		C91.909,18.511,91.643,18.718,91.643,19.073 M101.955,34.17c0,0.236,0.265,0.532,0.531,0.532c0.354,0,0.591-0.296,0.591-0.532
		c0-0.355-0.236-0.591-0.591-0.591C102.22,33.579,101.955,33.815,101.955,34.17 M104.584,16.768c1.389,0,2.334,0.827,2.334,2.807
		v8.686c0,2.984-0.768,5.288-2.334,6.943c-1.536,1.654-3.604,2.482-6.175,2.482s-4.639-0.828-6.204-2.482
		c-1.536-1.655-2.305-3.959-2.305-6.943v-8.686c0-1.98,0.945-2.807,2.334-2.807c1.329,0,2.334,0.827,2.334,2.807v8.568
		c0,3.279,1.478,5.17,3.841,5.17c2.334,0,3.841-1.891,3.841-5.17v-8.568C102.25,17.595,103.255,16.768,104.584,16.768
		 M74.626,26.843c0,0.266,0.296,0.561,0.562,0.561c0.325,0,0.562-0.295,0.562-0.561c0-0.325-0.236-0.562-0.562-0.562
		C74.922,26.281,74.626,26.518,74.626,26.843 M76.812,26.843c0,0.266,0.267,0.561,0.592,0.561c0.324,0,0.531-0.295,0.531-0.561
		c0-0.325-0.207-0.562-0.531-0.562C77.078,26.281,76.812,26.518,76.812,26.843 M79.028,26.843c0,0.266,0.266,0.561,0.591,0.561
		c0.354,0,0.562-0.295,0.562-0.561c0-0.325-0.207-0.562-0.562-0.562C79.294,26.281,79.028,26.518,79.028,26.843 M81.244,26.843
		c0,0.266,0.236,0.561,0.562,0.561c0.354,0,0.59-0.295,0.59-0.561c0-0.325-0.235-0.562-0.59-0.562
		C81.48,26.281,81.244,26.518,81.244,26.843 M83.637,34.79c0,0.325,0.237,0.591,0.563,0.591c0.354,0,0.591-0.266,0.591-0.591
		c0-0.354-0.237-0.561-0.591-0.561C83.874,34.229,83.637,34.436,83.637,34.79 M83.637,32.545c0,0.325,0.237,0.532,0.563,0.532
		c0.354,0,0.591-0.207,0.591-0.532c0-0.355-0.237-0.591-0.591-0.591C83.874,31.954,83.637,32.19,83.637,32.545 M83.637,30.299
		c0,0.266,0.237,0.532,0.563,0.532c0.354,0,0.591-0.266,0.591-0.532c0-0.354-0.237-0.59-0.591-0.59
		C83.874,29.709,83.637,29.945,83.637,30.299 M83.637,28.054c0,0.266,0.237,0.532,0.563,0.532c0.354,0,0.591-0.266,0.591-0.532
		c0-0.354-0.237-0.591-0.591-0.591C83.874,27.463,83.637,27.7,83.637,28.054 M83.637,25.779c0,0.266,0.237,0.561,0.563,0.561
		c0.354,0,0.591-0.295,0.591-0.561c0-0.325-0.237-0.561-0.591-0.561C83.874,25.218,83.637,25.454,83.637,25.779 M83.637,23.504
		c0,0.325,0.237,0.591,0.563,0.591c0.354,0,0.591-0.266,0.591-0.591c0-0.325-0.237-0.532-0.591-0.532
		C83.874,22.972,83.637,23.179,83.637,23.504 M83.637,21.259c0,0.325,0.237,0.591,0.563,0.591c0.354,0,0.591-0.266,0.591-0.591
		s-0.237-0.562-0.591-0.562C83.874,20.697,83.637,20.934,83.637,21.259 M83.637,19.013c0,0.325,0.237,0.562,0.563,0.562
		c0.354,0,0.591-0.237,0.591-0.562c0-0.354-0.237-0.561-0.591-0.561C83.874,18.452,83.637,18.659,83.637,19.013 M72.026,34.79
		c0,0.325,0.266,0.591,0.591,0.591c0.324,0,0.531-0.266,0.531-0.591c0-0.354-0.207-0.561-0.531-0.561
		C72.292,34.229,72.026,34.436,72.026,34.79 M72.026,32.545c0,0.325,0.266,0.532,0.591,0.532c0.324,0,0.531-0.207,0.531-0.532
		c0-0.355-0.207-0.591-0.531-0.591C72.292,31.954,72.026,32.19,72.026,32.545 M72.026,30.299c0,0.266,0.266,0.532,0.591,0.532
		c0.324,0,0.531-0.266,0.531-0.532c0-0.354-0.207-0.59-0.531-0.59C72.292,29.709,72.026,29.945,72.026,30.299 M72.026,28.054
		c0,0.266,0.266,0.532,0.591,0.532c0.324,0,0.531-0.266,0.531-0.532c0-0.354-0.207-0.591-0.531-0.591
		C72.292,27.463,72.026,27.7,72.026,28.054 M72.026,25.779c0,0.266,0.266,0.561,0.591,0.561c0.324,0,0.531-0.295,0.531-0.561
		c0-0.325-0.207-0.561-0.531-0.561C72.292,25.218,72.026,25.454,72.026,25.779 M72.026,23.504c0,0.325,0.266,0.591,0.591,0.591
		c0.324,0,0.531-0.266,0.531-0.591c0-0.325-0.207-0.532-0.531-0.532C72.292,22.972,72.026,23.179,72.026,23.504 M72.026,21.259
		c0,0.325,0.266,0.591,0.591,0.591c0.324,0,0.531-0.266,0.531-0.591s-0.207-0.562-0.531-0.562
		C72.292,20.697,72.026,20.934,72.026,21.259 M72.026,19.013c0,0.325,0.266,0.562,0.591,0.562c0.324,0,0.531-0.237,0.531-0.562
		c0-0.354-0.207-0.561-0.531-0.561C72.292,18.452,72.026,18.659,72.026,19.013 M74.951,29.029v5.407
		c0,2.009-1.004,2.836-2.334,2.836c-1.389,0-2.334-0.827-2.334-2.836V19.575c0-1.98,0.945-2.807,2.334-2.807
		c1.33,0,2.334,0.827,2.334,2.807v5.111h6.854v-5.111c0-1.98,1.004-2.807,2.334-2.807c1.389,0,2.334,0.827,2.334,2.807v14.861
		c0,2.009-0.945,2.836-2.334,2.836c-1.33,0-2.334-0.827-2.334-2.836v-5.407H74.951z M62.838,18.925c0,0.325,0.295,0.561,0.561,0.561
		c0.325,0,0.563-0.236,0.563-0.561c0-0.355-0.237-0.562-0.563-0.562C63.133,18.363,62.838,18.57,62.838,18.925 M65.379,18.925
		c0,0.325,0.295,0.561,0.561,0.561c0.325,0,0.563-0.236,0.563-0.561c0-0.355-0.237-0.562-0.563-0.562
		C65.674,18.363,65.379,18.57,65.379,18.925 M55.215,18.925c0,0.325,0.266,0.561,0.591,0.561c0.355,0,0.532-0.236,0.532-0.561
		c0-0.355-0.177-0.562-0.532-0.562C55.48,18.363,55.215,18.57,55.215,18.925 M57.609,18.925c0,0.325,0.265,0.561,0.59,0.561
		c0.354,0,0.531-0.236,0.531-0.561c0-0.355-0.177-0.562-0.531-0.562C57.874,18.363,57.609,18.57,57.609,18.925 M60.297,34.79
		c0,0.325,0.266,0.591,0.591,0.591s0.532-0.266,0.532-0.591c0-0.354-0.207-0.561-0.532-0.561S60.297,34.436,60.297,34.79
		 M60.297,32.545c0,0.325,0.266,0.532,0.591,0.532s0.532-0.207,0.532-0.532c0-0.355-0.207-0.591-0.532-0.591
		S60.297,32.19,60.297,32.545 M60.297,30.299c0,0.266,0.266,0.532,0.591,0.532s0.532-0.266,0.532-0.532
		c0-0.354-0.207-0.59-0.532-0.59S60.297,29.945,60.297,30.299 M60.297,28.054c0,0.266,0.266,0.532,0.591,0.532
		s0.532-0.266,0.532-0.532c0-0.354-0.207-0.591-0.532-0.591S60.297,27.7,60.297,28.054 M60.297,25.779
		c0,0.266,0.266,0.561,0.591,0.561s0.532-0.295,0.532-0.561c0-0.325-0.207-0.561-0.532-0.561S60.297,25.454,60.297,25.779
		 M60.297,23.504c0,0.325,0.266,0.591,0.591,0.591s0.532-0.266,0.532-0.591c0-0.325-0.207-0.532-0.532-0.532
		S60.297,23.179,60.297,23.504 M60.297,21.259c0,0.325,0.266,0.591,0.591,0.591s0.532-0.266,0.532-0.591s-0.207-0.562-0.532-0.562
		S60.297,20.934,60.297,21.259 M60.297,18.925c0,0.325,0.266,0.561,0.591,0.561s0.532-0.236,0.532-0.561
		c0-0.355-0.207-0.562-0.532-0.562S60.297,18.57,60.297,18.925 M58.554,21.052h-2.836c-1.418,0-2.246-0.739-2.246-2.127
		c0-1.418,0.828-2.157,2.246-2.157h10.312c1.418,0,2.244,0.739,2.244,2.127c0,1.418-0.826,2.157-2.244,2.157h-2.808v13.384
		c0,2.009-1.004,2.836-2.334,2.836c-1.389,0-2.334-0.827-2.334-2.836V21.052z"/>
	<path clip-path="url(#SVGID_2_)" fill="#E64D61" d="M191.948,77.348c0,0.325,0.237,0.591,0.562,0.591
		c0.354,0,0.562-0.266,0.562-0.591s-0.207-0.563-0.562-0.563C192.186,76.785,191.948,77.022,191.948,77.348 M190.825,79.386
		c0,0.266,0.237,0.562,0.562,0.562c0.354,0,0.562-0.296,0.562-0.562c0-0.325-0.207-0.562-0.562-0.562
		C191.063,78.824,190.825,79.061,190.825,79.386 M189.614,81.365c0,0.325,0.237,0.532,0.562,0.532c0.354,0,0.562-0.207,0.562-0.532
		c0-0.354-0.207-0.591-0.562-0.591C189.852,80.774,189.614,81.011,189.614,81.365 M188.344,83.285c0,0.325,0.236,0.592,0.562,0.592
		c0.354,0,0.561-0.267,0.561-0.592c0-0.324-0.206-0.531-0.561-0.531C188.58,82.754,188.344,82.961,188.344,83.285 M187.162,85.324
		c0,0.236,0.266,0.532,0.591,0.532c0.354,0,0.562-0.296,0.562-0.532c0-0.354-0.207-0.591-0.562-0.591
		C187.428,84.733,187.162,84.97,187.162,85.324 M181.018,79.386c0,0.266,0.235,0.562,0.561,0.562c0.355,0,0.561-0.296,0.561-0.562
		c0-0.325-0.205-0.562-0.561-0.562C181.253,78.824,181.018,79.061,181.018,79.386 M182.229,81.365c0,0.325,0.235,0.532,0.561,0.532
		c0.355,0,0.563-0.207,0.563-0.532c0-0.354-0.207-0.591-0.563-0.591C182.464,80.774,182.229,81.011,182.229,81.365 M183.38,83.285
		c0,0.325,0.237,0.592,0.563,0.592c0.354,0,0.561-0.267,0.561-0.592c0-0.324-0.207-0.531-0.561-0.531
		C183.617,82.754,183.38,82.961,183.38,83.285 M184.592,85.324c0,0.236,0.236,0.532,0.562,0.532c0.354,0,0.561-0.296,0.561-0.532
		c0-0.354-0.207-0.591-0.561-0.591C184.828,84.733,184.592,84.97,184.592,85.324 M185.893,87.186c0,0.325,0.235,0.591,0.561,0.591
		c0.354,0,0.561-0.266,0.561-0.591c0-0.354-0.207-0.562-0.561-0.562C186.128,86.624,185.893,86.831,185.893,87.186 M179.864,77.348
		c0,0.325,0.266,0.591,0.591,0.591c0.355,0,0.563-0.266,0.563-0.591s-0.207-0.563-0.563-0.563
		C180.13,76.785,179.864,77.022,179.864,77.348 M194.105,90.85c0,0.325,0.295,0.59,0.561,0.59c0.355,0,0.591-0.265,0.591-0.59
		c0-0.355-0.235-0.563-0.591-0.563C194.4,90.287,194.105,90.494,194.105,90.85 M194.105,88.604c0,0.325,0.295,0.532,0.561,0.532
		c0.355,0,0.591-0.207,0.591-0.532c0-0.354-0.235-0.591-0.591-0.591C194.4,88.013,194.105,88.249,194.105,88.604 M194.105,86.358
		c0,0.266,0.295,0.532,0.561,0.532c0.355,0,0.591-0.267,0.591-0.532c0-0.354-0.235-0.591-0.591-0.591
		C194.4,85.768,194.105,86.004,194.105,86.358 M194.105,84.112c0,0.267,0.295,0.532,0.561,0.532c0.355,0,0.591-0.266,0.591-0.532
		c0-0.354-0.235-0.59-0.591-0.59C194.4,83.522,194.105,83.759,194.105,84.112 M194.105,81.838c0,0.266,0.295,0.562,0.561,0.562
		c0.355,0,0.591-0.296,0.591-0.562c0-0.325-0.235-0.562-0.591-0.562C194.4,81.276,194.105,81.513,194.105,81.838 M194.105,79.563
		c0,0.325,0.295,0.59,0.561,0.59c0.355,0,0.591-0.265,0.591-0.59s-0.235-0.532-0.591-0.532
		C194.4,79.031,194.105,79.238,194.105,79.563 M194.105,77.317c0,0.325,0.295,0.591,0.561,0.591c0.355,0,0.591-0.266,0.591-0.591
		s-0.235-0.561-0.591-0.561C194.4,76.757,194.105,76.992,194.105,77.317 M194.105,75.072c0,0.325,0.295,0.562,0.561,0.562
		c0.355,0,0.591-0.236,0.591-0.562c0-0.354-0.235-0.562-0.591-0.562C194.4,74.511,194.105,74.718,194.105,75.072 M177.708,90.85
		c0,0.325,0.266,0.59,0.591,0.59s0.531-0.265,0.531-0.59c0-0.355-0.206-0.563-0.531-0.563S177.708,90.494,177.708,90.85
		 M177.708,88.604c0,0.325,0.266,0.532,0.591,0.532s0.531-0.207,0.531-0.532c0-0.354-0.206-0.591-0.531-0.591
		S177.708,88.249,177.708,88.604 M177.708,86.358c0,0.266,0.266,0.532,0.591,0.532s0.531-0.267,0.531-0.532
		c0-0.354-0.206-0.591-0.531-0.591S177.708,86.004,177.708,86.358 M177.708,84.112c0,0.267,0.266,0.532,0.591,0.532
		s0.531-0.266,0.531-0.532c0-0.354-0.206-0.59-0.531-0.59S177.708,83.759,177.708,84.112 M177.708,81.838
		c0,0.266,0.266,0.562,0.591,0.562s0.531-0.296,0.531-0.562c0-0.325-0.206-0.562-0.531-0.562S177.708,81.513,177.708,81.838
		 M177.708,79.563c0,0.325,0.266,0.59,0.591,0.59s0.531-0.265,0.531-0.59s-0.206-0.532-0.531-0.532S177.708,79.238,177.708,79.563
		 M177.708,77.317c0,0.325,0.266,0.591,0.591,0.591s0.531-0.266,0.531-0.591s-0.206-0.561-0.531-0.561
		S177.708,76.992,177.708,77.317 M177.708,75.072c0,0.325,0.266,0.562,0.591,0.562s0.531-0.236,0.531-0.562
		c0-0.354-0.206-0.562-0.531-0.562S177.708,74.718,177.708,75.072 M192.48,81.453l-4.195,7.181
		c-0.384,0.502-0.828,0.827-1.359,0.916c-0.147,0.028-0.296,0.028-0.443,0.028s-0.295,0-0.473-0.028
		c-0.503-0.089-0.945-0.414-1.3-0.916l-4.225-7.181l0.147,9.041c0,2.01-1.005,2.836-2.334,2.836c-1.389,0-2.334-0.826-2.334-2.836
		V75.899c0-2.334,0.856-3.073,2.6-3.073c1.359,0,2.068,0.385,2.63,1.39l5.288,8.952l5.259-8.952c0.562-0.827,1.419-1.39,2.659-1.39
		c1.744,0,2.63,0.739,2.63,3.073v14.595c0,2.01-0.976,2.836-2.364,2.836c-1.329,0-2.334-0.826-2.334-2.836L192.48,81.453z
		 M169.465,76.697c0,0.267,0.267,0.532,0.591,0.532c0.325,0,0.532-0.266,0.532-0.532c0-0.354-0.207-0.591-0.532-0.591
		C169.731,76.106,169.465,76.343,169.465,76.697 M170.44,78.589c0,0.324,0.235,0.59,0.561,0.59c0.355,0,0.563-0.266,0.563-0.59
		c0-0.355-0.207-0.563-0.563-0.563C170.676,78.026,170.44,78.233,170.44,78.589 M170.47,80.774c0,0.325,0.236,0.591,0.562,0.591
		c0.354,0,0.561-0.266,0.561-0.591s-0.207-0.532-0.561-0.532C170.706,80.242,170.47,80.449,170.47,80.774 M169.672,82.872
		c0,0.266,0.295,0.531,0.562,0.531c0.354,0,0.562-0.266,0.562-0.531c0-0.354-0.207-0.591-0.562-0.591
		C169.967,82.281,169.672,82.518,169.672,82.872 M167.958,84.173c0,0.265,0.237,0.561,0.563,0.561c0.354,0,0.561-0.296,0.561-0.561
		c0-0.325-0.207-0.563-0.561-0.563C168.195,83.61,167.958,83.848,167.958,84.173 M165.713,84.557c0,0.325,0.267,0.59,0.591,0.59
		c0.354,0,0.532-0.265,0.532-0.59s-0.178-0.532-0.532-0.532C165.979,84.024,165.713,84.231,165.713,84.557 M163.379,84.645
		c0,0.325,0.267,0.591,0.591,0.591c0.354,0,0.532-0.266,0.532-0.591c0-0.354-0.178-0.532-0.532-0.532
		C163.646,84.112,163.379,84.29,163.379,84.645 M167.812,75.397c0,0.266,0.206,0.532,0.53,0.532c0.355,0,0.591-0.267,0.591-0.532
		c0-0.354-0.235-0.591-0.591-0.591C168.018,74.807,167.812,75.043,167.812,75.397 M165.624,74.895c0,0.325,0.237,0.591,0.563,0.591
		c0.354,0,0.561-0.266,0.561-0.591s-0.207-0.562-0.561-0.562C165.861,74.333,165.624,74.569,165.624,74.895 M163.32,74.836
		c0,0.324,0.266,0.591,0.591,0.591c0.354,0,0.531-0.267,0.531-0.591c0-0.325-0.178-0.562-0.531-0.562
		C163.586,74.274,163.32,74.511,163.32,74.836 M161.074,91.114c0,0.325,0.266,0.532,0.591,0.532s0.532-0.207,0.532-0.532
		c0-0.354-0.207-0.59-0.532-0.59S161.074,90.761,161.074,91.114 M161.074,88.811c0,0.266,0.266,0.532,0.591,0.532
		s0.532-0.267,0.532-0.532c0-0.355-0.207-0.591-0.532-0.591S161.074,88.455,161.074,88.811 M161.074,86.507
		c0,0.265,0.266,0.53,0.591,0.53s0.532-0.266,0.532-0.53c0-0.355-0.207-0.592-0.532-0.592S161.074,86.151,161.074,86.507
		 M161.074,84.173c0,0.265,0.266,0.561,0.591,0.561s0.532-0.296,0.532-0.561c0-0.325-0.207-0.563-0.532-0.563
		S161.074,83.848,161.074,84.173 M161.074,81.809c0,0.266,0.266,0.561,0.591,0.561s0.532-0.295,0.532-0.561
		c0-0.325-0.207-0.562-0.532-0.562S161.074,81.483,161.074,81.809 M161.074,79.504c0,0.266,0.266,0.562,0.591,0.562
		s0.532-0.296,0.532-0.562c0-0.354-0.207-0.562-0.532-0.562S161.074,79.149,161.074,79.504 M161.074,77.17
		c0,0.324,0.266,0.591,0.591,0.591s0.532-0.267,0.532-0.591c0-0.325-0.207-0.531-0.532-0.531S161.074,76.845,161.074,77.17
		 M161.074,74.895c0,0.325,0.266,0.591,0.591,0.591s0.532-0.266,0.532-0.591s-0.207-0.562-0.532-0.562
		S161.074,74.569,161.074,74.895 M163.999,86.742v3.752c0,2.01-1.004,2.836-2.334,2.836c-1.388,0-2.334-0.826-2.334-2.836V74.776
		c0-1.625,0.827-1.95,2.246-1.95h3.781c4.993,0,7.771,2.719,7.771,6.974c0,4.373-2.481,6.942-7.682,6.942H163.999z M163.999,82.518
		h1.448c2.098,0,3.19-0.916,3.19-2.718c0-1.861-1.033-2.955-3.19-2.955h-1.448V82.518z M146.243,91.175
		c0,0.324,0.207,0.53,0.532,0.53c0.354,0,0.591-0.206,0.591-0.53c0-0.355-0.236-0.592-0.591-0.592
		C146.45,90.583,146.243,90.819,146.243,91.175 M148.725,91.175c0,0.324,0.207,0.53,0.532,0.53c0.354,0,0.591-0.206,0.591-0.53
		c0-0.355-0.236-0.592-0.591-0.592C148.932,90.583,148.725,90.819,148.725,91.175 M151.177,91.175c0,0.324,0.237,0.53,0.563,0.53
		c0.354,0,0.591-0.206,0.591-0.53c0-0.355-0.237-0.592-0.591-0.592C151.414,90.583,151.177,90.819,151.177,91.175 M153.6,91.175
		c0,0.324,0.236,0.53,0.562,0.53c0.354,0,0.591-0.206,0.591-0.53c0-0.355-0.236-0.592-0.591-0.592
		C153.836,90.583,153.6,90.819,153.6,91.175 M149.493,85.737c0-0.325-0.295-0.531-0.562-0.531c-0.324,0-0.561,0.206-0.561,0.531
		c0,0.355,0.236,0.591,0.561,0.591C149.198,86.328,149.493,86.093,149.493,85.737 M147.927,87.333c0-0.324-0.265-0.591-0.53-0.591
		c-0.355,0-0.592,0.267-0.592,0.591c0,0.354,0.236,0.562,0.592,0.562C147.662,87.895,147.927,87.688,147.927,87.333 M145.623,89.608
		c0.325,0,0.591-0.296,0.591-0.562c0-0.325-0.266-0.562-0.591-0.562c-0.354,0-0.532,0.236-0.532,0.562
		C145.091,89.313,145.269,89.608,145.623,89.608 M144.382,91.617c0.325,0,0.591-0.207,0.591-0.531c0-0.355-0.266-0.592-0.591-0.592
		c-0.354,0-0.532,0.236-0.532,0.592C143.85,91.41,144.028,91.617,144.382,91.617 M144.028,78.647c0,0.325,0.265,0.561,0.59,0.561
		c0.354,0,0.562-0.235,0.562-0.561c0-0.354-0.207-0.562-0.562-0.562C144.293,78.086,144.028,78.293,144.028,78.647 M144.5,76.49
		c0,0.325,0.207,0.532,0.591,0.562c0.267,0,0.532-0.236,0.532-0.562c0-0.354-0.266-0.591-0.532-0.591
		C144.766,75.899,144.5,76.136,144.5,76.49 M146.185,74.954c0,0.325,0.206,0.562,0.531,0.562c0.355,0,0.591-0.236,0.591-0.562
		c0-0.354-0.235-0.562-0.591-0.562C146.391,74.393,146.185,74.6,146.185,74.954 M149.937,84.112c0,0.267,0.236,0.532,0.562,0.532
		c0.354,0,0.591-0.266,0.591-0.532c0-0.354-0.236-0.59-0.591-0.59C150.173,83.522,149.937,83.759,149.937,84.112 M152.448,76.225
		c0,0.325,0.236,0.561,0.561,0.561c0.355,0,0.562-0.235,0.562-0.561c0-0.355-0.206-0.562-0.562-0.562
		C152.685,75.663,152.448,75.869,152.448,76.225 M153.216,78.322c0,0.325,0.236,0.591,0.562,0.591s0.562-0.266,0.562-0.591
		s-0.236-0.532-0.562-0.532S153.216,77.997,153.216,78.322 M152.625,80.479c0,0.325,0.236,0.562,0.562,0.562
		c0.354,0,0.562-0.236,0.562-0.562s-0.207-0.561-0.562-0.561C152.861,79.918,152.625,80.153,152.625,80.479 M151.384,82.311
		c0,0.325,0.236,0.562,0.562,0.562c0.354,0,0.562-0.236,0.562-0.562c0-0.354-0.207-0.562-0.562-0.562
		C151.62,81.749,151.384,81.956,151.384,82.311 M150.646,74.688c0,0.266,0.295,0.561,0.561,0.561c0.325,0,0.562-0.295,0.562-0.561
		c0-0.355-0.236-0.562-0.562-0.562C150.941,74.127,150.646,74.333,150.646,74.688 M148.371,74.363c0,0.325,0.295,0.562,0.561,0.562
		c0.325,0,0.562-0.236,0.562-0.562s-0.236-0.562-0.562-0.562C148.666,73.802,148.371,74.038,148.371,74.363 M148.902,89.018h5.348
		c1.389,0,2.245,0.768,2.245,2.157c0,1.418-0.856,2.155-2.245,2.155h-9.513c-1.98,0-2.659-0.855-2.659-2.155
		c-0.03-1.095,0.886-2.453,2.688-4.078c0.443-0.413,1.271-1.24,2.482-2.452c2.393-2.452,3.9-4.786,3.9-6.086
		c0-1.152-0.709-1.95-1.921-1.95c-1.152,0-2.128,0.68-2.363,2.098c-0.237,1.536-0.857,2.068-2.068,2.068
		c-1.33,0-2.305-0.946-2.305-2.393c0-1.152,0.325-2.394,1.241-3.487c1.389-1.743,3.279-2.629,5.495-2.629
		c1.949,0,3.546,0.561,4.757,1.714c1.211,1.122,1.832,2.57,1.832,4.343c0,1.359-0.474,2.777-1.39,4.226
		C153.511,83.994,151.65,86.151,148.902,89.018 M128.311,83.02c0,0.266,0.207,0.562,0.531,0.562c0.354,0,0.591-0.296,0.591-0.562
		c0-0.325-0.236-0.562-0.591-0.562C128.518,82.458,128.311,82.694,128.311,83.02 M130.674,83.02c0,0.266,0.267,0.562,0.532,0.562
		c0.354,0,0.59-0.296,0.59-0.562c0-0.325-0.235-0.562-0.59-0.562C130.94,82.458,130.674,82.694,130.674,83.02 M118.413,83.02
		c0,0.266,0.266,0.562,0.531,0.562c0.354,0,0.591-0.296,0.591-0.562c0-0.325-0.236-0.562-0.591-0.562
		C118.679,82.458,118.413,82.694,118.413,83.02 M120.895,83.02c0,0.266,0.266,0.562,0.531,0.562c0.355,0,0.592-0.296,0.592-0.562
		c0-0.325-0.236-0.562-0.592-0.562C121.16,82.458,120.895,82.694,120.895,83.02 M123.347,83.02c0,0.266,0.267,0.562,0.531,0.562
		c0.355,0,0.591-0.296,0.591-0.562c0-0.325-0.235-0.562-0.591-0.562C123.613,82.458,123.347,82.694,123.347,83.02 M125.828,83.02
		c0,0.266,0.207,0.562,0.532,0.562c0.354,0,0.591-0.296,0.591-0.562c0-0.325-0.236-0.562-0.591-0.562
		C126.035,82.458,125.828,82.694,125.828,83.02 M116.906,83.05c0-1.33,0.739-2.01,2.127-2.01h12.143c1.418,0,2.127,0.68,2.127,1.979
		c0,1.418-0.709,2.068-2.127,2.068h-12.143C117.646,85.088,116.906,84.438,116.906,83.05 M102.519,77.348
		c0,0.325,0.236,0.591,0.562,0.591c0.354,0,0.561-0.266,0.561-0.591s-0.206-0.563-0.561-0.563
		C102.755,76.785,102.519,77.022,102.519,77.348 M101.396,79.386c0,0.266,0.236,0.562,0.562,0.562c0.354,0,0.562-0.296,0.562-0.562
		c0-0.325-0.207-0.562-0.562-0.562C101.632,78.824,101.396,79.061,101.396,79.386 M100.185,81.365c0,0.325,0.236,0.532,0.561,0.532
		c0.354,0,0.562-0.207,0.562-0.532c0-0.354-0.207-0.591-0.562-0.591C100.421,80.774,100.185,81.011,100.185,81.365 M98.914,83.285
		c0,0.325,0.236,0.592,0.561,0.592c0.355,0,0.562-0.267,0.562-0.592c0-0.324-0.206-0.531-0.562-0.531
		C99.15,82.754,98.914,82.961,98.914,83.285 M97.732,85.324c0,0.236,0.266,0.532,0.591,0.532c0.354,0,0.561-0.296,0.561-0.532
		c0-0.354-0.207-0.591-0.561-0.591C97.998,84.733,97.732,84.97,97.732,85.324 M91.587,79.386c0,0.266,0.236,0.562,0.562,0.562
		c0.354,0,0.561-0.296,0.561-0.562c0-0.325-0.206-0.562-0.561-0.562C91.823,78.824,91.587,79.061,91.587,79.386 M92.798,81.365
		c0,0.325,0.236,0.532,0.562,0.532c0.354,0,0.562-0.207,0.562-0.532c0-0.354-0.207-0.591-0.562-0.591
		C93.034,80.774,92.798,81.011,92.798,81.365 M93.95,83.285c0,0.325,0.237,0.592,0.562,0.592c0.354,0,0.562-0.267,0.562-0.592
		c0-0.324-0.207-0.531-0.562-0.531C94.188,82.754,93.95,82.961,93.95,83.285 M95.162,85.324c0,0.236,0.236,0.532,0.561,0.532
		c0.354,0,0.562-0.296,0.562-0.532c0-0.354-0.207-0.591-0.562-0.591C95.398,84.733,95.162,84.97,95.162,85.324 M96.462,87.186
		c0,0.325,0.236,0.591,0.562,0.591c0.354,0,0.561-0.266,0.561-0.591c0-0.354-0.207-0.562-0.561-0.562
		C96.698,86.624,96.462,86.831,96.462,87.186 M90.435,77.348c0,0.325,0.266,0.591,0.591,0.591c0.354,0,0.562-0.266,0.562-0.591
		s-0.207-0.563-0.562-0.563C90.7,76.785,90.435,77.022,90.435,77.348 M104.675,90.85c0,0.325,0.295,0.59,0.562,0.59
		c0.354,0,0.591-0.265,0.591-0.59c0-0.355-0.236-0.563-0.591-0.563C104.97,90.287,104.675,90.494,104.675,90.85 M104.675,88.604
		c0,0.325,0.295,0.532,0.562,0.532c0.354,0,0.591-0.207,0.591-0.532c0-0.354-0.236-0.591-0.591-0.591
		C104.97,88.013,104.675,88.249,104.675,88.604 M104.675,86.358c0,0.266,0.295,0.532,0.562,0.532c0.354,0,0.591-0.267,0.591-0.532
		c0-0.354-0.236-0.591-0.591-0.591C104.97,85.768,104.675,86.004,104.675,86.358 M104.675,84.112c0,0.267,0.295,0.532,0.562,0.532
		c0.354,0,0.591-0.266,0.591-0.532c0-0.354-0.236-0.59-0.591-0.59C104.97,83.522,104.675,83.759,104.675,84.112 M104.675,81.838
		c0,0.266,0.295,0.562,0.562,0.562c0.354,0,0.591-0.296,0.591-0.562c0-0.325-0.236-0.562-0.591-0.562
		C104.97,81.276,104.675,81.513,104.675,81.838 M104.675,79.563c0,0.325,0.295,0.59,0.562,0.59c0.354,0,0.591-0.265,0.591-0.59
		s-0.236-0.532-0.591-0.532C104.97,79.031,104.675,79.238,104.675,79.563 M104.675,77.317c0,0.325,0.295,0.591,0.562,0.591
		c0.354,0,0.591-0.266,0.591-0.591s-0.236-0.561-0.591-0.561C104.97,76.757,104.675,76.992,104.675,77.317 M104.675,75.072
		c0,0.325,0.295,0.562,0.562,0.562c0.354,0,0.591-0.236,0.591-0.562c0-0.354-0.236-0.562-0.591-0.562
		C104.97,74.511,104.675,74.718,104.675,75.072 M88.278,90.85c0,0.325,0.266,0.59,0.591,0.59s0.531-0.265,0.531-0.59
		c0-0.355-0.206-0.563-0.531-0.563S88.278,90.494,88.278,90.85 M88.278,88.604c0,0.325,0.266,0.532,0.591,0.532
		s0.531-0.207,0.531-0.532c0-0.354-0.206-0.591-0.531-0.591S88.278,88.249,88.278,88.604 M88.278,86.358
		c0,0.266,0.266,0.532,0.591,0.532s0.531-0.267,0.531-0.532c0-0.354-0.206-0.591-0.531-0.591S88.278,86.004,88.278,86.358
		 M88.278,84.112c0,0.267,0.266,0.532,0.591,0.532s0.531-0.266,0.531-0.532c0-0.354-0.206-0.59-0.531-0.59
		S88.278,83.759,88.278,84.112 M88.278,81.838c0,0.266,0.266,0.562,0.591,0.562s0.531-0.296,0.531-0.562
		c0-0.325-0.206-0.562-0.531-0.562S88.278,81.513,88.278,81.838 M88.278,79.563c0,0.325,0.266,0.59,0.591,0.59
		s0.531-0.265,0.531-0.59s-0.206-0.532-0.531-0.532S88.278,79.238,88.278,79.563 M88.278,77.317c0,0.325,0.266,0.591,0.591,0.591
		s0.531-0.266,0.531-0.591s-0.206-0.561-0.531-0.561S88.278,76.992,88.278,77.317 M88.278,75.072c0,0.325,0.266,0.562,0.591,0.562
		s0.531-0.236,0.531-0.562c0-0.354-0.206-0.562-0.531-0.562S88.278,74.718,88.278,75.072 M103.05,81.453l-4.194,7.181
		c-0.385,0.502-0.828,0.827-1.359,0.916c-0.148,0.028-0.296,0.028-0.444,0.028c-0.146,0-0.295,0-0.472-0.028
		c-0.503-0.089-0.946-0.414-1.3-0.916l-4.226-7.181l0.148,9.041c0,2.01-1.005,2.836-2.334,2.836c-1.389,0-2.334-0.826-2.334-2.836
		V75.899c0-2.334,0.855-3.073,2.599-3.073c1.36,0,2.069,0.385,2.63,1.39l5.288,8.952l5.26-8.952c0.562-0.827,1.418-1.39,2.658-1.39
		c1.744,0,2.63,0.739,2.63,3.073v14.595c0,2.01-0.975,2.836-2.363,2.836c-1.329,0-2.334-0.826-2.334-2.836L103.05,81.453z
		 M79.268,87.481c0-0.325-0.267-0.591-0.592-0.591c-0.324,0-0.531,0.266-0.531,0.591c0,0.354,0.207,0.531,0.531,0.531
		C79.001,88.013,79.268,87.836,79.268,87.481 M76.962,87.481c0-0.325-0.265-0.591-0.59-0.591c-0.354,0-0.562,0.266-0.562,0.591
		c0,0.354,0.207,0.531,0.562,0.531C76.697,88.013,76.962,87.836,76.962,87.481 M74.688,87.481c0-0.325-0.237-0.591-0.563-0.591
		c-0.354,0-0.561,0.266-0.561,0.591c0,0.354,0.207,0.531,0.561,0.531C74.451,88.013,74.688,87.836,74.688,87.481 M72.354,87.481
		c0-0.325-0.207-0.591-0.532-0.591c-0.355,0-0.591,0.266-0.591,0.591c0,0.354,0.235,0.531,0.591,0.531
		C72.147,88.013,72.354,87.836,72.354,87.481 M76.844,75.397c0-0.325-0.266-0.591-0.591-0.591s-0.531,0.266-0.531,0.591
		s0.206,0.532,0.531,0.532S76.844,75.723,76.844,75.397 M74.983,75.397c0-0.325-0.267-0.591-0.532-0.591
		c-0.354,0-0.591,0.266-0.591,0.591s0.236,0.532,0.591,0.532C74.717,75.93,74.983,75.723,74.983,75.397 M74.097,77.259
		c0-0.267-0.296-0.532-0.562-0.532c-0.325,0-0.562,0.266-0.562,0.532c0,0.354,0.236,0.591,0.562,0.591
		C73.801,77.85,74.097,77.613,74.097,77.259 M73.328,79.298c0-0.267-0.265-0.563-0.59-0.563c-0.355,0-0.532,0.296-0.532,0.563
		c0,0.324,0.177,0.561,0.532,0.561C73.063,79.858,73.328,79.622,73.328,79.298 M72.472,81.365c0-0.325-0.207-0.591-0.531-0.591
		c-0.355,0-0.592,0.266-0.592,0.591c0,0.354,0.236,0.532,0.592,0.532C72.265,81.897,72.472,81.72,72.472,81.365 M71.763,83.403
		c0-0.325-0.266-0.531-0.591-0.531c-0.266,0-0.532,0.206-0.532,0.531c0,0.355,0.267,0.591,0.532,0.591
		C71.497,83.994,71.763,83.759,71.763,83.403 M70.994,85.472c0-0.266-0.265-0.562-0.59-0.562c-0.355,0-0.563,0.296-0.563,0.562
		c0,0.325,0.207,0.562,0.563,0.562C70.729,86.033,70.994,85.797,70.994,85.472 M70.079,87.481c0-0.325-0.207-0.591-0.532-0.591
		c-0.354,0-0.591,0.266-0.591,0.591c0,0.354,0.236,0.531,0.591,0.531C69.872,88.013,70.079,87.836,70.079,87.481 M69.34,89.49
		c0-0.325-0.266-0.532-0.591-0.532c-0.266,0-0.532,0.207-0.532,0.532c0,0.354,0.267,0.59,0.532,0.59
		C69.074,90.08,69.34,89.845,69.34,89.49 M68.631,91.528c0-0.266-0.235-0.561-0.561-0.561c-0.355,0-0.591,0.295-0.591,0.561
		c0,0.325,0.235,0.562,0.591,0.562C68.396,92.09,68.631,91.854,68.631,91.528 M79.977,83.403c0-0.325-0.236-0.531-0.562-0.531
		s-0.562,0.206-0.562,0.531c0,0.355,0.236,0.591,0.562,0.591S79.977,83.759,79.977,83.403 M82.931,91.528
		c0-0.266-0.266-0.561-0.591-0.561s-0.532,0.295-0.532,0.561c0,0.325,0.207,0.562,0.532,0.562S82.931,91.854,82.931,91.528
		 M82.162,89.461c0-0.325-0.295-0.532-0.561-0.532c-0.355,0-0.592,0.207-0.592,0.532c0,0.354,0.236,0.591,0.592,0.591
		C81.867,90.052,82.162,89.815,82.162,89.461 M81.453,87.481c0-0.325-0.295-0.591-0.561-0.591c-0.355,0-0.562,0.266-0.562,0.591
		c0,0.354,0.206,0.531,0.562,0.531C81.158,88.013,81.453,87.836,81.453,87.481 M80.686,85.472c0-0.266-0.236-0.562-0.562-0.562
		c-0.354,0-0.562,0.296-0.562,0.562c0,0.325,0.207,0.562,0.562,0.562C80.449,86.033,80.686,85.797,80.686,85.472 M79.268,81.365
		c0-0.325-0.267-0.591-0.592-0.591c-0.324,0-0.531,0.266-0.531,0.591c0,0.354,0.207,0.532,0.531,0.532
		C79.001,81.897,79.268,81.72,79.268,81.365 M78.499,79.298c0-0.267-0.207-0.563-0.532-0.563c-0.354,0-0.591,0.296-0.591,0.563
		c0,0.324,0.236,0.561,0.591,0.561C78.292,79.858,78.499,79.622,78.499,79.298 M77.76,77.259c0-0.267-0.295-0.532-0.561-0.532
		c-0.325,0-0.563,0.266-0.563,0.532c0,0.354,0.237,0.591,0.563,0.591C77.465,77.85,77.76,77.613,77.76,77.259 M71.29,89.52
		l-0.65,2.009c-0.235,0.709-0.531,1.241-0.886,1.596c-0.384,0.385-0.828,0.562-1.33,0.562c-1.389,0-2.541-1.034-2.541-2.246
		c0-0.531,0.089-0.974,0.237-1.359l5.613-14.299c0.768-2.009,2.009-3.014,3.723-3.014c1.625,0,2.777,0.916,3.427,2.718l5.348,14.507
		c0.207,0.68,0.324,1.183,0.324,1.507c0,1.271-0.944,2.187-2.334,2.187c-1.151,0-1.979-0.768-2.451-2.275l-0.592-1.891H71.29z
		 M75.338,78.47l-2.63,6.914h5.111L75.338,78.47z M59.443,75.604c0,0.325,0.266,0.561,0.591,0.561c0.354,0,0.561-0.235,0.561-0.561
		s-0.207-0.562-0.561-0.562C59.709,75.043,59.443,75.279,59.443,75.604 M55.986,78.677c0,0.325,0.266,0.562,0.591,0.562
		c0.354,0,0.532-0.236,0.532-0.562c0-0.354-0.179-0.562-0.532-0.562C56.252,78.115,55.986,78.322,55.986,78.677 M57.788,77.11
		c0,0.325,0.266,0.591,0.532,0.591c0.354,0,0.591-0.266,0.591-0.591s-0.237-0.531-0.591-0.531
		C58.054,76.579,57.788,76.785,57.788,77.11 M60.713,90.85c0,0.325,0.267,0.59,0.591,0.59c0.354,0,0.562-0.265,0.562-0.59
		c0-0.355-0.207-0.563-0.562-0.563C60.979,90.287,60.713,90.494,60.713,90.85 M60.713,88.309c0,0.325,0.267,0.591,0.591,0.591
		c0.354,0,0.562-0.266,0.562-0.591c0-0.355-0.207-0.532-0.562-0.532C60.979,87.776,60.713,87.953,60.713,88.309 M60.713,85.768
		c0,0.325,0.267,0.591,0.591,0.591c0.354,0,0.562-0.266,0.562-0.591c0-0.355-0.207-0.532-0.562-0.532
		C60.979,85.235,60.713,85.412,60.713,85.768 M60.713,83.227c0,0.325,0.267,0.591,0.591,0.591c0.354,0,0.562-0.266,0.562-0.591
		s-0.207-0.532-0.562-0.532C60.979,82.694,60.713,82.901,60.713,83.227 M60.713,80.598c0,0.265,0.267,0.561,0.591,0.561
		c0.354,0,0.562-0.296,0.562-0.561c0-0.325-0.207-0.563-0.562-0.563C60.979,80.035,60.713,80.272,60.713,80.598 M60.713,77.997
		c0,0.325,0.267,0.562,0.591,0.562c0.354,0,0.562-0.236,0.562-0.562c0-0.324-0.207-0.562-0.562-0.562
		C60.979,77.436,60.713,77.673,60.713,77.997 M59.06,79.208l-1.123,1.094c-1.094,0.856-2.246,0.768-2.984-0.088
		c-0.621-0.799-0.621-2.099,0.473-3.044l4.165-3.723c0.384-0.325,0.828-0.532,1.33-0.591c0.148-0.03,0.267-0.03,0.384-0.03h0.178
		c0.591,0.03,1.093,0.267,1.477,0.681c0.444,0.442,0.68,1.151,0.68,2.127v14.86c0,2.01-1.005,2.836-2.334,2.836
		c-1.33,0-2.334-0.826-2.334-2.836L59.06,79.208z M47.743,75.604c0,0.325,0.266,0.561,0.591,0.561c0.354,0,0.562-0.235,0.562-0.561
		s-0.207-0.562-0.562-0.562C48.009,75.043,47.743,75.279,47.743,75.604 M44.286,78.677c0,0.325,0.266,0.562,0.591,0.562
		c0.355,0,0.532-0.236,0.532-0.562c0-0.354-0.177-0.562-0.532-0.562C44.552,78.115,44.286,78.322,44.286,78.677 M46.089,77.11
		c0,0.325,0.266,0.591,0.531,0.591c0.354,0,0.591-0.266,0.591-0.591s-0.236-0.531-0.591-0.531
		C46.354,76.579,46.089,76.785,46.089,77.11 M49.013,90.85c0,0.325,0.267,0.59,0.592,0.59c0.354,0,0.562-0.265,0.562-0.59
		c0-0.355-0.207-0.563-0.562-0.563C49.279,90.287,49.013,90.494,49.013,90.85 M49.013,88.309c0,0.325,0.267,0.591,0.592,0.591
		c0.354,0,0.562-0.266,0.562-0.591c0-0.355-0.207-0.532-0.562-0.532C49.279,87.776,49.013,87.953,49.013,88.309 M49.013,85.768
		c0,0.325,0.267,0.591,0.592,0.591c0.354,0,0.562-0.266,0.562-0.591c0-0.355-0.207-0.532-0.562-0.532
		C49.279,85.235,49.013,85.412,49.013,85.768 M49.013,83.227c0,0.325,0.267,0.591,0.592,0.591c0.354,0,0.562-0.266,0.562-0.591
		s-0.207-0.532-0.562-0.532C49.279,82.694,49.013,82.901,49.013,83.227 M49.013,80.598c0,0.265,0.267,0.561,0.592,0.561
		c0.354,0,0.562-0.296,0.562-0.561c0-0.325-0.207-0.563-0.562-0.563C49.279,80.035,49.013,80.272,49.013,80.598 M49.013,77.997
		c0,0.325,0.267,0.562,0.592,0.562c0.354,0,0.562-0.236,0.562-0.562c0-0.324-0.207-0.562-0.562-0.562
		C49.279,77.436,49.013,77.673,49.013,77.997 M47.359,79.208l-1.123,1.094c-1.093,0.856-2.245,0.768-2.984-0.088
		c-0.62-0.799-0.62-2.099,0.473-3.044l4.166-3.723c0.385-0.325,0.827-0.532,1.329-0.591c0.148-0.03,0.267-0.03,0.385-0.03h0.178
		c0.591,0.03,1.093,0.267,1.477,0.681c0.443,0.442,0.68,1.151,0.68,2.127v14.86c0,2.01-1.004,2.836-2.334,2.836
		c-1.329,0-2.334-0.826-2.334-2.836L47.359,79.208z"/>
</g>
</svg>
